M48
;DRILL file {KiCad (5.0.0-rc2-dev-107-g49486b83b)} date 03/19/18 01:36:37
;FORMAT={-:-/ absolute / inch / decimal}
FMAT,2
INCH,TZ
T1C0.0039
T2C0.0079
T3C0.0197
T4C0.0354
T5C0.0551
T6C0.1260
%
G90
G05
M72
T1
X0.45Y-0.5
X0.45Y-0.65
X0.575Y-2.475
X0.65Y-0.5
X0.65Y-0.625
X0.65Y-0.85
X1.175Y-0.5
X1.175Y-0.75
X1.175Y-0.95
X1.175Y-1.125
X1.175Y-1.375
X1.175Y-1.625
X1.175Y-1.925
X1.175Y-2.2
X1.175Y-2.475
X1.4Y-0.5
X1.4Y-0.75
X1.4Y-0.95
X1.4Y-1.125
X1.4Y-1.375
X1.4Y-1.625
X1.4Y-1.925
X1.4Y-2.2
X1.4Y-2.475
X1.625Y-0.5
X1.625Y-0.75
X1.625Y-0.95
X1.625Y-1.125
X1.625Y-1.375
X1.625Y-1.625
X1.625Y-1.925
X1.625Y-2.2
X1.625Y-2.475
T2
X0.8686Y-1.4014
X0.8686Y-1.9514
X0.8686Y-2.0014
X0.8686Y-2.1014
X0.8686Y-2.2014
X0.8686Y-2.2514
X0.8686Y-2.3514
X0.87Y-0.5
X0.87Y-0.55
X0.87Y-0.6
X0.87Y-0.65
X0.87Y-0.7
X0.87Y-0.75
X0.87Y-0.8
X0.87Y-0.85
X0.87Y-0.9
X0.87Y-0.95
X0.87Y-1.
X0.87Y-1.05
X0.87Y-1.1
X0.87Y-1.15
X0.87Y-1.2
X0.87Y-1.25
X0.87Y-1.3
X0.87Y-1.35
X0.87Y-1.45
X0.87Y-1.5
X0.87Y-1.55
X0.87Y-1.6
X0.87Y-1.65
X0.87Y-1.7
X0.87Y-1.75
X0.87Y-1.8
X0.87Y-1.85
X0.87Y-1.9
X0.87Y-2.05
X0.87Y-2.15
X0.87Y-2.3
X0.87Y-2.4
X0.87Y-2.45
X0.9Y-0.5
X0.9Y-0.55
X0.9Y-0.6
X0.9Y-0.65
X0.9Y-0.7
X0.9Y-0.75
X0.9Y-0.8
X0.9Y-0.85
X0.9Y-0.9
X0.9Y-0.95
X0.9Y-1.
X0.9Y-1.05
X0.9Y-1.15
X0.9Y-1.2
X0.9Y-1.25
X0.9Y-1.3
X0.9Y-1.35
X0.9Y-1.45
X0.9Y-1.5
X0.9Y-1.55
X0.9Y-1.6
X0.9Y-1.65
X0.9Y-1.7
X0.9Y-1.75
X0.9Y-1.8
X0.9Y-1.85
X0.9Y-1.9
X0.9Y-1.95
X0.9Y-2.
X0.9Y-2.2
X0.9Y-2.3
X0.9Y-2.4
X0.9Y-2.45
X0.9014Y-1.1014
X0.9014Y-1.4014
X0.9014Y-2.0514
X0.9014Y-2.1014
X0.9014Y-2.1514
X0.9014Y-2.2514
X0.9014Y-2.3514
X0.9014Y-2.3514
T3
X1.5709Y-0.2953
X0.2008Y-2.6575
X0.2285Y-2.5907
X0.2285Y-2.7243
X0.2953Y-2.563
X0.2953Y-2.752
X0.3621Y-2.5907
X0.3621Y-2.7243
X0.3898Y-2.6575
X1.4764Y-2.563
X1.5432Y-2.5907
X0.2008Y-0.2953
X0.2285Y-0.2285
X1.3819Y-2.6575
X1.4096Y-2.5907
X1.4096Y-2.7243
X1.4764Y-2.752
X1.5432Y-2.7243
X1.5709Y-2.6575
X1.4764Y-0.3898
X0.2953Y-0.2008
X0.3621Y-0.2285
X1.3819Y-0.2953
X1.4096Y-0.2285
X1.4096Y-0.3621
X1.4764Y-0.2008
X0.2285Y-0.3621
X0.2953Y-0.3898
X0.3621Y-0.3621
X0.3898Y-0.2953
X1.5432Y-0.2285
X1.5432Y-0.3621
T4
X0.175Y-0.525
X0.175Y-0.625
X0.175Y-2.125
X0.175Y-2.325
X0.175Y-2.425
X0.175Y-1.525
X0.175Y-1.625
X0.175Y-1.325
X0.175Y-1.425
X0.175Y-1.125
X0.175Y-1.225
X0.175Y-0.925
X0.175Y-1.025
X0.175Y-0.725
X0.175Y-0.825
X0.175Y-2.225
X0.175Y-1.725
X0.175Y-1.825
X0.175Y-1.925
X0.175Y-2.025
T5
X0.8858Y-2.5134
X0.8863Y-0.4379
X0.8858Y-0.4379
X0.8858Y-2.5134
T6
X1.4764Y-2.6575
X0.2953Y-2.6575
X0.2953Y-0.2953
X1.4764Y-0.2953
T0
M30
