G04 #@! TF.GenerationSoftware,KiCad,Pcbnew,(5.0.0-rc2-dev-107-g49486b83b)*
G04 #@! TF.CreationDate,2018-03-26T23:58:37+08:00*
G04 #@! TF.ProjectId,ebox-gpio-led,65626F782D6770696F2D6C65642E6B69,rev?*
G04 #@! TF.SameCoordinates,Original*
G04 #@! TF.FileFunction,Legend,Bot*
G04 #@! TF.FilePolarity,Positive*
%FSLAX46Y46*%
G04 Gerber Fmt 4.6, Leading zero omitted, Abs format (unit mm)*
G04 Created by KiCad (PCBNEW (5.0.0-rc2-dev-107-g49486b83b)) date 03/26/18 23:58:37*
%MOMM*%
%LPD*%
G01*
G04 APERTURE LIST*
%ADD10C,0.120000*%
%ADD11C,0.150000*%
G04 APERTURE END LIST*
D10*
X3365000Y-13365000D02*
X3365000Y-13365000D01*
X695000Y-13365000D02*
X3365000Y-13365000D01*
X695000Y-13365000D02*
X695000Y-13365000D01*
X3365000Y-13365000D02*
X695000Y-13365000D01*
X3365000Y-15905000D02*
X3365000Y-15905000D01*
X695000Y-15905000D02*
X3365000Y-15905000D01*
X695000Y-15905000D02*
X695000Y-15905000D01*
X3365000Y-15905000D02*
X695000Y-15905000D01*
X695000Y-13075000D02*
X695000Y-12675000D01*
X-425000Y-13075000D02*
X695000Y-13075000D01*
X-425000Y-12675000D02*
X-425000Y-13075000D01*
X695000Y-12675000D02*
X-425000Y-12675000D01*
X695000Y-16195000D02*
X695000Y-13075000D01*
X695000Y-13075000D02*
X-3165000Y-13075000D01*
X695000Y-16195000D02*
X-3165000Y-16195000D01*
X-3165000Y-13075000D02*
G75*
G03X-3165000Y-16195000I0J-1560000D01*
G01*
X23830000Y-12040000D02*
X21170000Y-12040000D01*
X21170000Y-12040000D02*
X21170000Y-12100000D01*
X21170000Y-62900000D02*
X21170000Y-62960000D01*
X23830000Y-62960000D02*
X21170000Y-62960000D01*
X23830000Y-12040000D02*
X23830000Y-12100000D01*
X23830000Y-62900000D02*
X23830000Y-62960000D01*
X3365000Y-18445000D02*
X3365000Y-18445000D01*
X695000Y-18445000D02*
X3365000Y-18445000D01*
X695000Y-18445000D02*
X695000Y-18445000D01*
X3365000Y-18445000D02*
X695000Y-18445000D01*
X3365000Y-20985000D02*
X3365000Y-20985000D01*
X695000Y-20985000D02*
X3365000Y-20985000D01*
X695000Y-20985000D02*
X695000Y-20985000D01*
X3365000Y-20985000D02*
X695000Y-20985000D01*
X695000Y-18155000D02*
X695000Y-17755000D01*
X-425000Y-18155000D02*
X695000Y-18155000D01*
X-425000Y-17755000D02*
X-425000Y-18155000D01*
X695000Y-17755000D02*
X-425000Y-17755000D01*
X695000Y-21275000D02*
X695000Y-18155000D01*
X695000Y-18155000D02*
X-3165000Y-18155000D01*
X695000Y-21275000D02*
X-3165000Y-21275000D01*
X-3165000Y-18155000D02*
G75*
G03X-3165000Y-21275000I0J-1560000D01*
G01*
X3365000Y-23525000D02*
X3365000Y-23525000D01*
X695000Y-23525000D02*
X3365000Y-23525000D01*
X695000Y-23525000D02*
X695000Y-23525000D01*
X3365000Y-23525000D02*
X695000Y-23525000D01*
X3365000Y-26065000D02*
X3365000Y-26065000D01*
X695000Y-26065000D02*
X3365000Y-26065000D01*
X695000Y-26065000D02*
X695000Y-26065000D01*
X3365000Y-26065000D02*
X695000Y-26065000D01*
X695000Y-23235000D02*
X695000Y-22835000D01*
X-425000Y-23235000D02*
X695000Y-23235000D01*
X-425000Y-22835000D02*
X-425000Y-23235000D01*
X695000Y-22835000D02*
X-425000Y-22835000D01*
X695000Y-26355000D02*
X695000Y-23235000D01*
X695000Y-23235000D02*
X-3165000Y-23235000D01*
X695000Y-26355000D02*
X-3165000Y-26355000D01*
X-3165000Y-23235000D02*
G75*
G03X-3165000Y-26355000I0J-1560000D01*
G01*
X3365000Y-28605000D02*
X3365000Y-28605000D01*
X695000Y-28605000D02*
X3365000Y-28605000D01*
X695000Y-28605000D02*
X695000Y-28605000D01*
X3365000Y-28605000D02*
X695000Y-28605000D01*
X3365000Y-31145000D02*
X3365000Y-31145000D01*
X695000Y-31145000D02*
X3365000Y-31145000D01*
X695000Y-31145000D02*
X695000Y-31145000D01*
X3365000Y-31145000D02*
X695000Y-31145000D01*
X695000Y-28315000D02*
X695000Y-27915000D01*
X-425000Y-28315000D02*
X695000Y-28315000D01*
X-425000Y-27915000D02*
X-425000Y-28315000D01*
X695000Y-27915000D02*
X-425000Y-27915000D01*
X695000Y-31435000D02*
X695000Y-28315000D01*
X695000Y-28315000D02*
X-3165000Y-28315000D01*
X695000Y-31435000D02*
X-3165000Y-31435000D01*
X-3165000Y-28315000D02*
G75*
G03X-3165000Y-31435000I0J-1560000D01*
G01*
X3365000Y-33685000D02*
X3365000Y-33685000D01*
X695000Y-33685000D02*
X3365000Y-33685000D01*
X695000Y-33685000D02*
X695000Y-33685000D01*
X3365000Y-33685000D02*
X695000Y-33685000D01*
X3365000Y-36225000D02*
X3365000Y-36225000D01*
X695000Y-36225000D02*
X3365000Y-36225000D01*
X695000Y-36225000D02*
X695000Y-36225000D01*
X3365000Y-36225000D02*
X695000Y-36225000D01*
X695000Y-33395000D02*
X695000Y-32995000D01*
X-425000Y-33395000D02*
X695000Y-33395000D01*
X-425000Y-32995000D02*
X-425000Y-33395000D01*
X695000Y-32995000D02*
X-425000Y-32995000D01*
X695000Y-36515000D02*
X695000Y-33395000D01*
X695000Y-33395000D02*
X-3165000Y-33395000D01*
X695000Y-36515000D02*
X-3165000Y-36515000D01*
X-3165000Y-33395000D02*
G75*
G03X-3165000Y-36515000I0J-1560000D01*
G01*
X3365000Y-38765000D02*
X3365000Y-38765000D01*
X695000Y-38765000D02*
X3365000Y-38765000D01*
X695000Y-38765000D02*
X695000Y-38765000D01*
X3365000Y-38765000D02*
X695000Y-38765000D01*
X3365000Y-41305000D02*
X3365000Y-41305000D01*
X695000Y-41305000D02*
X3365000Y-41305000D01*
X695000Y-41305000D02*
X695000Y-41305000D01*
X3365000Y-41305000D02*
X695000Y-41305000D01*
X695000Y-38475000D02*
X695000Y-38075000D01*
X-425000Y-38475000D02*
X695000Y-38475000D01*
X-425000Y-38075000D02*
X-425000Y-38475000D01*
X695000Y-38075000D02*
X-425000Y-38075000D01*
X695000Y-41595000D02*
X695000Y-38475000D01*
X695000Y-38475000D02*
X-3165000Y-38475000D01*
X695000Y-41595000D02*
X-3165000Y-41595000D01*
X-3165000Y-38475000D02*
G75*
G03X-3165000Y-41595000I0J-1560000D01*
G01*
X3365000Y-43845000D02*
X3365000Y-43845000D01*
X695000Y-43845000D02*
X3365000Y-43845000D01*
X695000Y-43845000D02*
X695000Y-43845000D01*
X3365000Y-43845000D02*
X695000Y-43845000D01*
X3365000Y-46385000D02*
X3365000Y-46385000D01*
X695000Y-46385000D02*
X3365000Y-46385000D01*
X695000Y-46385000D02*
X695000Y-46385000D01*
X3365000Y-46385000D02*
X695000Y-46385000D01*
X695000Y-43555000D02*
X695000Y-43155000D01*
X-425000Y-43555000D02*
X695000Y-43555000D01*
X-425000Y-43155000D02*
X-425000Y-43555000D01*
X695000Y-43155000D02*
X-425000Y-43155000D01*
X695000Y-46675000D02*
X695000Y-43555000D01*
X695000Y-43555000D02*
X-3165000Y-43555000D01*
X695000Y-46675000D02*
X-3165000Y-46675000D01*
X-3165000Y-43555000D02*
G75*
G03X-3165000Y-46675000I0J-1560000D01*
G01*
X3365000Y-48925000D02*
X3365000Y-48925000D01*
X695000Y-48925000D02*
X3365000Y-48925000D01*
X695000Y-48925000D02*
X695000Y-48925000D01*
X3365000Y-48925000D02*
X695000Y-48925000D01*
X3365000Y-51465000D02*
X3365000Y-51465000D01*
X695000Y-51465000D02*
X3365000Y-51465000D01*
X695000Y-51465000D02*
X695000Y-51465000D01*
X3365000Y-51465000D02*
X695000Y-51465000D01*
X695000Y-48635000D02*
X695000Y-48235000D01*
X-425000Y-48635000D02*
X695000Y-48635000D01*
X-425000Y-48235000D02*
X-425000Y-48635000D01*
X695000Y-48235000D02*
X-425000Y-48235000D01*
X695000Y-51755000D02*
X695000Y-48635000D01*
X695000Y-48635000D02*
X-3165000Y-48635000D01*
X695000Y-51755000D02*
X-3165000Y-51755000D01*
X-3165000Y-48635000D02*
G75*
G03X-3165000Y-51755000I0J-1560000D01*
G01*
X3365000Y-54005000D02*
X3365000Y-54005000D01*
X695000Y-54005000D02*
X3365000Y-54005000D01*
X695000Y-54005000D02*
X695000Y-54005000D01*
X3365000Y-54005000D02*
X695000Y-54005000D01*
X3365000Y-56545000D02*
X3365000Y-56545000D01*
X695000Y-56545000D02*
X3365000Y-56545000D01*
X695000Y-56545000D02*
X695000Y-56545000D01*
X3365000Y-56545000D02*
X695000Y-56545000D01*
X695000Y-53715000D02*
X695000Y-53315000D01*
X-425000Y-53715000D02*
X695000Y-53715000D01*
X-425000Y-53315000D02*
X-425000Y-53715000D01*
X695000Y-53315000D02*
X-425000Y-53315000D01*
X695000Y-56835000D02*
X695000Y-53715000D01*
X695000Y-53715000D02*
X-3165000Y-53715000D01*
X695000Y-56835000D02*
X-3165000Y-56835000D01*
X-3165000Y-53715000D02*
G75*
G03X-3165000Y-56835000I0J-1560000D01*
G01*
X3365000Y-59085000D02*
X3365000Y-59085000D01*
X695000Y-59085000D02*
X3365000Y-59085000D01*
X695000Y-59085000D02*
X695000Y-59085000D01*
X3365000Y-59085000D02*
X695000Y-59085000D01*
X3365000Y-61625000D02*
X3365000Y-61625000D01*
X695000Y-61625000D02*
X3365000Y-61625000D01*
X695000Y-61625000D02*
X695000Y-61625000D01*
X3365000Y-61625000D02*
X695000Y-61625000D01*
X695000Y-58795000D02*
X695000Y-58395000D01*
X-425000Y-58795000D02*
X695000Y-58795000D01*
X-425000Y-58395000D02*
X-425000Y-58795000D01*
X695000Y-58395000D02*
X-425000Y-58395000D01*
X695000Y-61915000D02*
X695000Y-58795000D01*
X695000Y-58795000D02*
X-3165000Y-58795000D01*
X695000Y-61915000D02*
X-3165000Y-61915000D01*
X-3165000Y-58795000D02*
G75*
G03X-3165000Y-61915000I0J-1560000D01*
G01*
D11*
X8104095Y-15087380D02*
X8104095Y-14087380D01*
X7866000Y-14087380D01*
X7723142Y-14135000D01*
X7627904Y-14230238D01*
X7580285Y-14325476D01*
X7532666Y-14515952D01*
X7532666Y-14658809D01*
X7580285Y-14849285D01*
X7627904Y-14944523D01*
X7723142Y-15039761D01*
X7866000Y-15087380D01*
X8104095Y-15087380D01*
X6580285Y-15087380D02*
X7151714Y-15087380D01*
X6866000Y-15087380D02*
X6866000Y-14087380D01*
X6961238Y-14230238D01*
X7056476Y-14325476D01*
X7151714Y-14373095D01*
X22833333Y-10687380D02*
X22833333Y-11401666D01*
X22880952Y-11544523D01*
X22976190Y-11639761D01*
X23119047Y-11687380D01*
X23214285Y-11687380D01*
X22404761Y-10782619D02*
X22357142Y-10735000D01*
X22261904Y-10687380D01*
X22023809Y-10687380D01*
X21928571Y-10735000D01*
X21880952Y-10782619D01*
X21833333Y-10877857D01*
X21833333Y-10973095D01*
X21880952Y-11115952D01*
X22452380Y-11687380D01*
X21833333Y-11687380D01*
X7532666Y-12674380D02*
X7866000Y-12198190D01*
X8104095Y-12674380D02*
X8104095Y-11674380D01*
X7723142Y-11674380D01*
X7627904Y-11722000D01*
X7580285Y-11769619D01*
X7532666Y-11864857D01*
X7532666Y-12007714D01*
X7580285Y-12102952D01*
X7627904Y-12150571D01*
X7723142Y-12198190D01*
X8104095Y-12198190D01*
X6580285Y-12674380D02*
X7151714Y-12674380D01*
X6866000Y-12674380D02*
X6866000Y-11674380D01*
X6961238Y-11817238D01*
X7056476Y-11912476D01*
X7151714Y-11960095D01*
X7646666Y-17754380D02*
X7980000Y-17278190D01*
X8218095Y-17754380D02*
X8218095Y-16754380D01*
X7837142Y-16754380D01*
X7741904Y-16802000D01*
X7694285Y-16849619D01*
X7646666Y-16944857D01*
X7646666Y-17087714D01*
X7694285Y-17182952D01*
X7741904Y-17230571D01*
X7837142Y-17278190D01*
X8218095Y-17278190D01*
X7265714Y-16849619D02*
X7218095Y-16802000D01*
X7122857Y-16754380D01*
X6884761Y-16754380D01*
X6789523Y-16802000D01*
X6741904Y-16849619D01*
X6694285Y-16944857D01*
X6694285Y-17040095D01*
X6741904Y-17182952D01*
X7313333Y-17754380D01*
X6694285Y-17754380D01*
X7653166Y-22834380D02*
X7986500Y-22358190D01*
X8224595Y-22834380D02*
X8224595Y-21834380D01*
X7843642Y-21834380D01*
X7748404Y-21882000D01*
X7700785Y-21929619D01*
X7653166Y-22024857D01*
X7653166Y-22167714D01*
X7700785Y-22262952D01*
X7748404Y-22310571D01*
X7843642Y-22358190D01*
X8224595Y-22358190D01*
X7319833Y-21834380D02*
X6700785Y-21834380D01*
X7034119Y-22215333D01*
X6891261Y-22215333D01*
X6796023Y-22262952D01*
X6748404Y-22310571D01*
X6700785Y-22405809D01*
X6700785Y-22643904D01*
X6748404Y-22739142D01*
X6796023Y-22786761D01*
X6891261Y-22834380D01*
X7176976Y-22834380D01*
X7272214Y-22786761D01*
X7319833Y-22739142D01*
X7653166Y-27914380D02*
X7986500Y-27438190D01*
X8224595Y-27914380D02*
X8224595Y-26914380D01*
X7843642Y-26914380D01*
X7748404Y-26962000D01*
X7700785Y-27009619D01*
X7653166Y-27104857D01*
X7653166Y-27247714D01*
X7700785Y-27342952D01*
X7748404Y-27390571D01*
X7843642Y-27438190D01*
X8224595Y-27438190D01*
X6796023Y-27247714D02*
X6796023Y-27914380D01*
X7034119Y-26866761D02*
X7272214Y-27581047D01*
X6653166Y-27581047D01*
X7653166Y-32994380D02*
X7986500Y-32518190D01*
X8224595Y-32994380D02*
X8224595Y-31994380D01*
X7843642Y-31994380D01*
X7748404Y-32042000D01*
X7700785Y-32089619D01*
X7653166Y-32184857D01*
X7653166Y-32327714D01*
X7700785Y-32422952D01*
X7748404Y-32470571D01*
X7843642Y-32518190D01*
X8224595Y-32518190D01*
X6748404Y-31994380D02*
X7224595Y-31994380D01*
X7272214Y-32470571D01*
X7224595Y-32422952D01*
X7129357Y-32375333D01*
X6891261Y-32375333D01*
X6796023Y-32422952D01*
X6748404Y-32470571D01*
X6700785Y-32565809D01*
X6700785Y-32803904D01*
X6748404Y-32899142D01*
X6796023Y-32946761D01*
X6891261Y-32994380D01*
X7129357Y-32994380D01*
X7224595Y-32946761D01*
X7272214Y-32899142D01*
X7532666Y-38074380D02*
X7866000Y-37598190D01*
X8104095Y-38074380D02*
X8104095Y-37074380D01*
X7723142Y-37074380D01*
X7627904Y-37122000D01*
X7580285Y-37169619D01*
X7532666Y-37264857D01*
X7532666Y-37407714D01*
X7580285Y-37502952D01*
X7627904Y-37550571D01*
X7723142Y-37598190D01*
X8104095Y-37598190D01*
X6675523Y-37074380D02*
X6866000Y-37074380D01*
X6961238Y-37122000D01*
X7008857Y-37169619D01*
X7104095Y-37312476D01*
X7151714Y-37502952D01*
X7151714Y-37883904D01*
X7104095Y-37979142D01*
X7056476Y-38026761D01*
X6961238Y-38074380D01*
X6770761Y-38074380D01*
X6675523Y-38026761D01*
X6627904Y-37979142D01*
X6580285Y-37883904D01*
X6580285Y-37645809D01*
X6627904Y-37550571D01*
X6675523Y-37502952D01*
X6770761Y-37455333D01*
X6961238Y-37455333D01*
X7056476Y-37502952D01*
X7104095Y-37550571D01*
X7151714Y-37645809D01*
X7532666Y-43154380D02*
X7866000Y-42678190D01*
X8104095Y-43154380D02*
X8104095Y-42154380D01*
X7723142Y-42154380D01*
X7627904Y-42202000D01*
X7580285Y-42249619D01*
X7532666Y-42344857D01*
X7532666Y-42487714D01*
X7580285Y-42582952D01*
X7627904Y-42630571D01*
X7723142Y-42678190D01*
X8104095Y-42678190D01*
X7199333Y-42154380D02*
X6532666Y-42154380D01*
X6961238Y-43154380D01*
X7646666Y-48234380D02*
X7980000Y-47758190D01*
X8218095Y-48234380D02*
X8218095Y-47234380D01*
X7837142Y-47234380D01*
X7741904Y-47282000D01*
X7694285Y-47329619D01*
X7646666Y-47424857D01*
X7646666Y-47567714D01*
X7694285Y-47662952D01*
X7741904Y-47710571D01*
X7837142Y-47758190D01*
X8218095Y-47758190D01*
X7075238Y-47662952D02*
X7170476Y-47615333D01*
X7218095Y-47567714D01*
X7265714Y-47472476D01*
X7265714Y-47424857D01*
X7218095Y-47329619D01*
X7170476Y-47282000D01*
X7075238Y-47234380D01*
X6884761Y-47234380D01*
X6789523Y-47282000D01*
X6741904Y-47329619D01*
X6694285Y-47424857D01*
X6694285Y-47472476D01*
X6741904Y-47567714D01*
X6789523Y-47615333D01*
X6884761Y-47662952D01*
X7075238Y-47662952D01*
X7170476Y-47710571D01*
X7218095Y-47758190D01*
X7265714Y-47853428D01*
X7265714Y-48043904D01*
X7218095Y-48139142D01*
X7170476Y-48186761D01*
X7075238Y-48234380D01*
X6884761Y-48234380D01*
X6789523Y-48186761D01*
X6741904Y-48139142D01*
X6694285Y-48043904D01*
X6694285Y-47853428D01*
X6741904Y-47758190D01*
X6789523Y-47710571D01*
X6884761Y-47662952D01*
X7646666Y-53314380D02*
X7980000Y-52838190D01*
X8218095Y-53314380D02*
X8218095Y-52314380D01*
X7837142Y-52314380D01*
X7741904Y-52362000D01*
X7694285Y-52409619D01*
X7646666Y-52504857D01*
X7646666Y-52647714D01*
X7694285Y-52742952D01*
X7741904Y-52790571D01*
X7837142Y-52838190D01*
X8218095Y-52838190D01*
X7170476Y-53314380D02*
X6980000Y-53314380D01*
X6884761Y-53266761D01*
X6837142Y-53219142D01*
X6741904Y-53076285D01*
X6694285Y-52885809D01*
X6694285Y-52504857D01*
X6741904Y-52409619D01*
X6789523Y-52362000D01*
X6884761Y-52314380D01*
X7075238Y-52314380D01*
X7170476Y-52362000D01*
X7218095Y-52409619D01*
X7265714Y-52504857D01*
X7265714Y-52742952D01*
X7218095Y-52838190D01*
X7170476Y-52885809D01*
X7075238Y-52933428D01*
X6884761Y-52933428D01*
X6789523Y-52885809D01*
X6741904Y-52838190D01*
X6694285Y-52742952D01*
X7754857Y-58394380D02*
X8088190Y-57918190D01*
X8326285Y-58394380D02*
X8326285Y-57394380D01*
X7945333Y-57394380D01*
X7850095Y-57442000D01*
X7802476Y-57489619D01*
X7754857Y-57584857D01*
X7754857Y-57727714D01*
X7802476Y-57822952D01*
X7850095Y-57870571D01*
X7945333Y-57918190D01*
X8326285Y-57918190D01*
X6802476Y-58394380D02*
X7373904Y-58394380D01*
X7088190Y-58394380D02*
X7088190Y-57394380D01*
X7183428Y-57537238D01*
X7278666Y-57632476D01*
X7373904Y-57680095D01*
X6183428Y-57394380D02*
X6088190Y-57394380D01*
X5992952Y-57442000D01*
X5945333Y-57489619D01*
X5897714Y-57584857D01*
X5850095Y-57775333D01*
X5850095Y-58013428D01*
X5897714Y-58203904D01*
X5945333Y-58299142D01*
X5992952Y-58346761D01*
X6088190Y-58394380D01*
X6183428Y-58394380D01*
X6278666Y-58346761D01*
X6326285Y-58299142D01*
X6373904Y-58203904D01*
X6421523Y-58013428D01*
X6421523Y-57775333D01*
X6373904Y-57584857D01*
X6326285Y-57489619D01*
X6278666Y-57442000D01*
X6183428Y-57394380D01*
X8231095Y-20167380D02*
X8231095Y-19167380D01*
X7993000Y-19167380D01*
X7850142Y-19215000D01*
X7754904Y-19310238D01*
X7707285Y-19405476D01*
X7659666Y-19595952D01*
X7659666Y-19738809D01*
X7707285Y-19929285D01*
X7754904Y-20024523D01*
X7850142Y-20119761D01*
X7993000Y-20167380D01*
X8231095Y-20167380D01*
X7278714Y-19262619D02*
X7231095Y-19215000D01*
X7135857Y-19167380D01*
X6897761Y-19167380D01*
X6802523Y-19215000D01*
X6754904Y-19262619D01*
X6707285Y-19357857D01*
X6707285Y-19453095D01*
X6754904Y-19595952D01*
X7326333Y-20167380D01*
X6707285Y-20167380D01*
X8231095Y-25247380D02*
X8231095Y-24247380D01*
X7993000Y-24247380D01*
X7850142Y-24295000D01*
X7754904Y-24390238D01*
X7707285Y-24485476D01*
X7659666Y-24675952D01*
X7659666Y-24818809D01*
X7707285Y-25009285D01*
X7754904Y-25104523D01*
X7850142Y-25199761D01*
X7993000Y-25247380D01*
X8231095Y-25247380D01*
X7326333Y-24247380D02*
X6707285Y-24247380D01*
X7040619Y-24628333D01*
X6897761Y-24628333D01*
X6802523Y-24675952D01*
X6754904Y-24723571D01*
X6707285Y-24818809D01*
X6707285Y-25056904D01*
X6754904Y-25152142D01*
X6802523Y-25199761D01*
X6897761Y-25247380D01*
X7183476Y-25247380D01*
X7278714Y-25199761D01*
X7326333Y-25152142D01*
X8231095Y-30327380D02*
X8231095Y-29327380D01*
X7993000Y-29327380D01*
X7850142Y-29375000D01*
X7754904Y-29470238D01*
X7707285Y-29565476D01*
X7659666Y-29755952D01*
X7659666Y-29898809D01*
X7707285Y-30089285D01*
X7754904Y-30184523D01*
X7850142Y-30279761D01*
X7993000Y-30327380D01*
X8231095Y-30327380D01*
X6802523Y-29660714D02*
X6802523Y-30327380D01*
X7040619Y-29279761D02*
X7278714Y-29994047D01*
X6659666Y-29994047D01*
X8231095Y-35407380D02*
X8231095Y-34407380D01*
X7993000Y-34407380D01*
X7850142Y-34455000D01*
X7754904Y-34550238D01*
X7707285Y-34645476D01*
X7659666Y-34835952D01*
X7659666Y-34978809D01*
X7707285Y-35169285D01*
X7754904Y-35264523D01*
X7850142Y-35359761D01*
X7993000Y-35407380D01*
X8231095Y-35407380D01*
X6754904Y-34407380D02*
X7231095Y-34407380D01*
X7278714Y-34883571D01*
X7231095Y-34835952D01*
X7135857Y-34788333D01*
X6897761Y-34788333D01*
X6802523Y-34835952D01*
X6754904Y-34883571D01*
X6707285Y-34978809D01*
X6707285Y-35216904D01*
X6754904Y-35312142D01*
X6802523Y-35359761D01*
X6897761Y-35407380D01*
X7135857Y-35407380D01*
X7231095Y-35359761D01*
X7278714Y-35312142D01*
X8231095Y-40487380D02*
X8231095Y-39487380D01*
X7993000Y-39487380D01*
X7850142Y-39535000D01*
X7754904Y-39630238D01*
X7707285Y-39725476D01*
X7659666Y-39915952D01*
X7659666Y-40058809D01*
X7707285Y-40249285D01*
X7754904Y-40344523D01*
X7850142Y-40439761D01*
X7993000Y-40487380D01*
X8231095Y-40487380D01*
X6802523Y-39487380D02*
X6993000Y-39487380D01*
X7088238Y-39535000D01*
X7135857Y-39582619D01*
X7231095Y-39725476D01*
X7278714Y-39915952D01*
X7278714Y-40296904D01*
X7231095Y-40392142D01*
X7183476Y-40439761D01*
X7088238Y-40487380D01*
X6897761Y-40487380D01*
X6802523Y-40439761D01*
X6754904Y-40392142D01*
X6707285Y-40296904D01*
X6707285Y-40058809D01*
X6754904Y-39963571D01*
X6802523Y-39915952D01*
X6897761Y-39868333D01*
X7088238Y-39868333D01*
X7183476Y-39915952D01*
X7231095Y-39963571D01*
X7278714Y-40058809D01*
X8231095Y-45567380D02*
X8231095Y-44567380D01*
X7993000Y-44567380D01*
X7850142Y-44615000D01*
X7754904Y-44710238D01*
X7707285Y-44805476D01*
X7659666Y-44995952D01*
X7659666Y-45138809D01*
X7707285Y-45329285D01*
X7754904Y-45424523D01*
X7850142Y-45519761D01*
X7993000Y-45567380D01*
X8231095Y-45567380D01*
X7326333Y-44567380D02*
X6659666Y-44567380D01*
X7088238Y-45567380D01*
X8231095Y-50647380D02*
X8231095Y-49647380D01*
X7993000Y-49647380D01*
X7850142Y-49695000D01*
X7754904Y-49790238D01*
X7707285Y-49885476D01*
X7659666Y-50075952D01*
X7659666Y-50218809D01*
X7707285Y-50409285D01*
X7754904Y-50504523D01*
X7850142Y-50599761D01*
X7993000Y-50647380D01*
X8231095Y-50647380D01*
X7088238Y-50075952D02*
X7183476Y-50028333D01*
X7231095Y-49980714D01*
X7278714Y-49885476D01*
X7278714Y-49837857D01*
X7231095Y-49742619D01*
X7183476Y-49695000D01*
X7088238Y-49647380D01*
X6897761Y-49647380D01*
X6802523Y-49695000D01*
X6754904Y-49742619D01*
X6707285Y-49837857D01*
X6707285Y-49885476D01*
X6754904Y-49980714D01*
X6802523Y-50028333D01*
X6897761Y-50075952D01*
X7088238Y-50075952D01*
X7183476Y-50123571D01*
X7231095Y-50171190D01*
X7278714Y-50266428D01*
X7278714Y-50456904D01*
X7231095Y-50552142D01*
X7183476Y-50599761D01*
X7088238Y-50647380D01*
X6897761Y-50647380D01*
X6802523Y-50599761D01*
X6754904Y-50552142D01*
X6707285Y-50456904D01*
X6707285Y-50266428D01*
X6754904Y-50171190D01*
X6802523Y-50123571D01*
X6897761Y-50075952D01*
X8231095Y-55727380D02*
X8231095Y-54727380D01*
X7993000Y-54727380D01*
X7850142Y-54775000D01*
X7754904Y-54870238D01*
X7707285Y-54965476D01*
X7659666Y-55155952D01*
X7659666Y-55298809D01*
X7707285Y-55489285D01*
X7754904Y-55584523D01*
X7850142Y-55679761D01*
X7993000Y-55727380D01*
X8231095Y-55727380D01*
X7183476Y-55727380D02*
X6993000Y-55727380D01*
X6897761Y-55679761D01*
X6850142Y-55632142D01*
X6754904Y-55489285D01*
X6707285Y-55298809D01*
X6707285Y-54917857D01*
X6754904Y-54822619D01*
X6802523Y-54775000D01*
X6897761Y-54727380D01*
X7088238Y-54727380D01*
X7183476Y-54775000D01*
X7231095Y-54822619D01*
X7278714Y-54917857D01*
X7278714Y-55155952D01*
X7231095Y-55251190D01*
X7183476Y-55298809D01*
X7088238Y-55346428D01*
X6897761Y-55346428D01*
X6802523Y-55298809D01*
X6754904Y-55251190D01*
X6707285Y-55155952D01*
X8326285Y-60807380D02*
X8326285Y-59807380D01*
X8088190Y-59807380D01*
X7945333Y-59855000D01*
X7850095Y-59950238D01*
X7802476Y-60045476D01*
X7754857Y-60235952D01*
X7754857Y-60378809D01*
X7802476Y-60569285D01*
X7850095Y-60664523D01*
X7945333Y-60759761D01*
X8088190Y-60807380D01*
X8326285Y-60807380D01*
X6802476Y-60807380D02*
X7373904Y-60807380D01*
X7088190Y-60807380D02*
X7088190Y-59807380D01*
X7183428Y-59950238D01*
X7278666Y-60045476D01*
X7373904Y-60093095D01*
X6183428Y-59807380D02*
X6088190Y-59807380D01*
X5992952Y-59855000D01*
X5945333Y-59902619D01*
X5897714Y-59997857D01*
X5850095Y-60188333D01*
X5850095Y-60426428D01*
X5897714Y-60616904D01*
X5945333Y-60712142D01*
X5992952Y-60759761D01*
X6088190Y-60807380D01*
X6183428Y-60807380D01*
X6278666Y-60759761D01*
X6326285Y-60712142D01*
X6373904Y-60616904D01*
X6421523Y-60426428D01*
X6421523Y-60188333D01*
X6373904Y-59997857D01*
X6326285Y-59902619D01*
X6278666Y-59855000D01*
X6183428Y-59807380D01*
M02*
