G04 #@! TF.GenerationSoftware,KiCad,Pcbnew,(5.0.0-rc2-dev-107-g49486b83b)*
G04 #@! TF.CreationDate,2018-03-26T23:58:36+08:00*
G04 #@! TF.ProjectId,ebox-gpio-led,65626F782D6770696F2D6C65642E6B69,rev?*
G04 #@! TF.SameCoordinates,Original*
G04 #@! TF.FileFunction,Legend,Top*
G04 #@! TF.FilePolarity,Positive*
%FSLAX46Y46*%
G04 Gerber Fmt 4.6, Leading zero omitted, Abs format (unit mm)*
G04 Created by KiCad (PCBNEW (5.0.0-rc2-dev-107-g49486b83b)) date 03/26/18 23:58:37*
%MOMM*%
%LPD*%
G01*
G04 APERTURE LIST*
%ADD10C,0.200000*%
%ADD11C,0.300000*%
%ADD12C,0.120000*%
%ADD13C,0.010000*%
%ADD14C,0.150000*%
G04 APERTURE END LIST*
D10*
X6985000Y-57785000D02*
X14605000Y-57785000D01*
X6985000Y-52705000D02*
X14605000Y-52705000D01*
X6985000Y-47625000D02*
X14605000Y-47625000D01*
X6985000Y-42545000D02*
X14605000Y-42545000D01*
X6985000Y-37465000D02*
X14605000Y-37465000D01*
X6985000Y-32385000D02*
X14605000Y-32385000D01*
X6985000Y-27305000D02*
X14605000Y-27305000D01*
X6985000Y-22225000D02*
X14605000Y-22225000D01*
X6985000Y-17145000D02*
X14605000Y-17145000D01*
X14605000Y-62230000D02*
X6985000Y-62230000D01*
X14605000Y-12700000D02*
X14605000Y-62230000D01*
X6985000Y-12700000D02*
X14605000Y-12700000D01*
X6985000Y-12700000D02*
X6985000Y-62230000D01*
D11*
X8580714Y-59575000D02*
X8437857Y-59503571D01*
X8223571Y-59503571D01*
X8009285Y-59575000D01*
X7866428Y-59717857D01*
X7795000Y-59860714D01*
X7723571Y-60146428D01*
X7723571Y-60360714D01*
X7795000Y-60646428D01*
X7866428Y-60789285D01*
X8009285Y-60932142D01*
X8223571Y-61003571D01*
X8366428Y-61003571D01*
X8580714Y-60932142D01*
X8652142Y-60860714D01*
X8652142Y-60360714D01*
X8366428Y-60360714D01*
X9295000Y-61003571D02*
X9295000Y-59503571D01*
X9866428Y-59503571D01*
X10009285Y-59575000D01*
X10080714Y-59646428D01*
X10152142Y-59789285D01*
X10152142Y-60003571D01*
X10080714Y-60146428D01*
X10009285Y-60217857D01*
X9866428Y-60289285D01*
X9295000Y-60289285D01*
X10795000Y-61003571D02*
X10795000Y-59503571D01*
X11795000Y-59503571D02*
X12080714Y-59503571D01*
X12223571Y-59575000D01*
X12366428Y-59717857D01*
X12437857Y-60003571D01*
X12437857Y-60503571D01*
X12366428Y-60789285D01*
X12223571Y-60932142D01*
X12080714Y-61003571D01*
X11795000Y-61003571D01*
X11652142Y-60932142D01*
X11509285Y-60789285D01*
X11437857Y-60503571D01*
X11437857Y-60003571D01*
X11509285Y-59717857D01*
X11652142Y-59575000D01*
X11795000Y-59503571D01*
X13152142Y-61003571D02*
X13437857Y-61003571D01*
X13580714Y-60932142D01*
X13652142Y-60860714D01*
X13795000Y-60646428D01*
X13866428Y-60360714D01*
X13866428Y-59789285D01*
X13795000Y-59646428D01*
X13723571Y-59575000D01*
X13580714Y-59503571D01*
X13295000Y-59503571D01*
X13152142Y-59575000D01*
X13080714Y-59646428D01*
X13009285Y-59789285D01*
X13009285Y-60146428D01*
X13080714Y-60289285D01*
X13152142Y-60360714D01*
X13295000Y-60432142D01*
X13580714Y-60432142D01*
X13723571Y-60360714D01*
X13795000Y-60289285D01*
X13866428Y-60146428D01*
X8580714Y-54495000D02*
X8437857Y-54423571D01*
X8223571Y-54423571D01*
X8009285Y-54495000D01*
X7866428Y-54637857D01*
X7795000Y-54780714D01*
X7723571Y-55066428D01*
X7723571Y-55280714D01*
X7795000Y-55566428D01*
X7866428Y-55709285D01*
X8009285Y-55852142D01*
X8223571Y-55923571D01*
X8366428Y-55923571D01*
X8580714Y-55852142D01*
X8652142Y-55780714D01*
X8652142Y-55280714D01*
X8366428Y-55280714D01*
X9295000Y-55923571D02*
X9295000Y-54423571D01*
X9866428Y-54423571D01*
X10009285Y-54495000D01*
X10080714Y-54566428D01*
X10152142Y-54709285D01*
X10152142Y-54923571D01*
X10080714Y-55066428D01*
X10009285Y-55137857D01*
X9866428Y-55209285D01*
X9295000Y-55209285D01*
X10795000Y-55923571D02*
X10795000Y-54423571D01*
X11795000Y-54423571D02*
X12080714Y-54423571D01*
X12223571Y-54495000D01*
X12366428Y-54637857D01*
X12437857Y-54923571D01*
X12437857Y-55423571D01*
X12366428Y-55709285D01*
X12223571Y-55852142D01*
X12080714Y-55923571D01*
X11795000Y-55923571D01*
X11652142Y-55852142D01*
X11509285Y-55709285D01*
X11437857Y-55423571D01*
X11437857Y-54923571D01*
X11509285Y-54637857D01*
X11652142Y-54495000D01*
X11795000Y-54423571D01*
X13295000Y-55066428D02*
X13152142Y-54995000D01*
X13080714Y-54923571D01*
X13009285Y-54780714D01*
X13009285Y-54709285D01*
X13080714Y-54566428D01*
X13152142Y-54495000D01*
X13295000Y-54423571D01*
X13580714Y-54423571D01*
X13723571Y-54495000D01*
X13795000Y-54566428D01*
X13866428Y-54709285D01*
X13866428Y-54780714D01*
X13795000Y-54923571D01*
X13723571Y-54995000D01*
X13580714Y-55066428D01*
X13295000Y-55066428D01*
X13152142Y-55137857D01*
X13080714Y-55209285D01*
X13009285Y-55352142D01*
X13009285Y-55637857D01*
X13080714Y-55780714D01*
X13152142Y-55852142D01*
X13295000Y-55923571D01*
X13580714Y-55923571D01*
X13723571Y-55852142D01*
X13795000Y-55780714D01*
X13866428Y-55637857D01*
X13866428Y-55352142D01*
X13795000Y-55209285D01*
X13723571Y-55137857D01*
X13580714Y-55066428D01*
X8580714Y-49415000D02*
X8437857Y-49343571D01*
X8223571Y-49343571D01*
X8009285Y-49415000D01*
X7866428Y-49557857D01*
X7795000Y-49700714D01*
X7723571Y-49986428D01*
X7723571Y-50200714D01*
X7795000Y-50486428D01*
X7866428Y-50629285D01*
X8009285Y-50772142D01*
X8223571Y-50843571D01*
X8366428Y-50843571D01*
X8580714Y-50772142D01*
X8652142Y-50700714D01*
X8652142Y-50200714D01*
X8366428Y-50200714D01*
X9295000Y-50843571D02*
X9295000Y-49343571D01*
X9866428Y-49343571D01*
X10009285Y-49415000D01*
X10080714Y-49486428D01*
X10152142Y-49629285D01*
X10152142Y-49843571D01*
X10080714Y-49986428D01*
X10009285Y-50057857D01*
X9866428Y-50129285D01*
X9295000Y-50129285D01*
X10795000Y-50843571D02*
X10795000Y-49343571D01*
X11795000Y-49343571D02*
X12080714Y-49343571D01*
X12223571Y-49415000D01*
X12366428Y-49557857D01*
X12437857Y-49843571D01*
X12437857Y-50343571D01*
X12366428Y-50629285D01*
X12223571Y-50772142D01*
X12080714Y-50843571D01*
X11795000Y-50843571D01*
X11652142Y-50772142D01*
X11509285Y-50629285D01*
X11437857Y-50343571D01*
X11437857Y-49843571D01*
X11509285Y-49557857D01*
X11652142Y-49415000D01*
X11795000Y-49343571D01*
X12937857Y-49343571D02*
X13937857Y-49343571D01*
X13295000Y-50843571D01*
X8580714Y-44335000D02*
X8437857Y-44263571D01*
X8223571Y-44263571D01*
X8009285Y-44335000D01*
X7866428Y-44477857D01*
X7795000Y-44620714D01*
X7723571Y-44906428D01*
X7723571Y-45120714D01*
X7795000Y-45406428D01*
X7866428Y-45549285D01*
X8009285Y-45692142D01*
X8223571Y-45763571D01*
X8366428Y-45763571D01*
X8580714Y-45692142D01*
X8652142Y-45620714D01*
X8652142Y-45120714D01*
X8366428Y-45120714D01*
X9295000Y-45763571D02*
X9295000Y-44263571D01*
X9866428Y-44263571D01*
X10009285Y-44335000D01*
X10080714Y-44406428D01*
X10152142Y-44549285D01*
X10152142Y-44763571D01*
X10080714Y-44906428D01*
X10009285Y-44977857D01*
X9866428Y-45049285D01*
X9295000Y-45049285D01*
X10795000Y-45763571D02*
X10795000Y-44263571D01*
X11795000Y-44263571D02*
X12080714Y-44263571D01*
X12223571Y-44335000D01*
X12366428Y-44477857D01*
X12437857Y-44763571D01*
X12437857Y-45263571D01*
X12366428Y-45549285D01*
X12223571Y-45692142D01*
X12080714Y-45763571D01*
X11795000Y-45763571D01*
X11652142Y-45692142D01*
X11509285Y-45549285D01*
X11437857Y-45263571D01*
X11437857Y-44763571D01*
X11509285Y-44477857D01*
X11652142Y-44335000D01*
X11795000Y-44263571D01*
X13723571Y-44263571D02*
X13437857Y-44263571D01*
X13295000Y-44335000D01*
X13223571Y-44406428D01*
X13080714Y-44620714D01*
X13009285Y-44906428D01*
X13009285Y-45477857D01*
X13080714Y-45620714D01*
X13152142Y-45692142D01*
X13295000Y-45763571D01*
X13580714Y-45763571D01*
X13723571Y-45692142D01*
X13795000Y-45620714D01*
X13866428Y-45477857D01*
X13866428Y-45120714D01*
X13795000Y-44977857D01*
X13723571Y-44906428D01*
X13580714Y-44835000D01*
X13295000Y-44835000D01*
X13152142Y-44906428D01*
X13080714Y-44977857D01*
X13009285Y-45120714D01*
X8580714Y-39255000D02*
X8437857Y-39183571D01*
X8223571Y-39183571D01*
X8009285Y-39255000D01*
X7866428Y-39397857D01*
X7795000Y-39540714D01*
X7723571Y-39826428D01*
X7723571Y-40040714D01*
X7795000Y-40326428D01*
X7866428Y-40469285D01*
X8009285Y-40612142D01*
X8223571Y-40683571D01*
X8366428Y-40683571D01*
X8580714Y-40612142D01*
X8652142Y-40540714D01*
X8652142Y-40040714D01*
X8366428Y-40040714D01*
X9295000Y-40683571D02*
X9295000Y-39183571D01*
X9866428Y-39183571D01*
X10009285Y-39255000D01*
X10080714Y-39326428D01*
X10152142Y-39469285D01*
X10152142Y-39683571D01*
X10080714Y-39826428D01*
X10009285Y-39897857D01*
X9866428Y-39969285D01*
X9295000Y-39969285D01*
X10795000Y-40683571D02*
X10795000Y-39183571D01*
X11795000Y-39183571D02*
X12080714Y-39183571D01*
X12223571Y-39255000D01*
X12366428Y-39397857D01*
X12437857Y-39683571D01*
X12437857Y-40183571D01*
X12366428Y-40469285D01*
X12223571Y-40612142D01*
X12080714Y-40683571D01*
X11795000Y-40683571D01*
X11652142Y-40612142D01*
X11509285Y-40469285D01*
X11437857Y-40183571D01*
X11437857Y-39683571D01*
X11509285Y-39397857D01*
X11652142Y-39255000D01*
X11795000Y-39183571D01*
X13795000Y-39183571D02*
X13080714Y-39183571D01*
X13009285Y-39897857D01*
X13080714Y-39826428D01*
X13223571Y-39755000D01*
X13580714Y-39755000D01*
X13723571Y-39826428D01*
X13795000Y-39897857D01*
X13866428Y-40040714D01*
X13866428Y-40397857D01*
X13795000Y-40540714D01*
X13723571Y-40612142D01*
X13580714Y-40683571D01*
X13223571Y-40683571D01*
X13080714Y-40612142D01*
X13009285Y-40540714D01*
X8580714Y-34175000D02*
X8437857Y-34103571D01*
X8223571Y-34103571D01*
X8009285Y-34175000D01*
X7866428Y-34317857D01*
X7795000Y-34460714D01*
X7723571Y-34746428D01*
X7723571Y-34960714D01*
X7795000Y-35246428D01*
X7866428Y-35389285D01*
X8009285Y-35532142D01*
X8223571Y-35603571D01*
X8366428Y-35603571D01*
X8580714Y-35532142D01*
X8652142Y-35460714D01*
X8652142Y-34960714D01*
X8366428Y-34960714D01*
X9295000Y-35603571D02*
X9295000Y-34103571D01*
X9866428Y-34103571D01*
X10009285Y-34175000D01*
X10080714Y-34246428D01*
X10152142Y-34389285D01*
X10152142Y-34603571D01*
X10080714Y-34746428D01*
X10009285Y-34817857D01*
X9866428Y-34889285D01*
X9295000Y-34889285D01*
X10795000Y-35603571D02*
X10795000Y-34103571D01*
X11795000Y-34103571D02*
X12080714Y-34103571D01*
X12223571Y-34175000D01*
X12366428Y-34317857D01*
X12437857Y-34603571D01*
X12437857Y-35103571D01*
X12366428Y-35389285D01*
X12223571Y-35532142D01*
X12080714Y-35603571D01*
X11795000Y-35603571D01*
X11652142Y-35532142D01*
X11509285Y-35389285D01*
X11437857Y-35103571D01*
X11437857Y-34603571D01*
X11509285Y-34317857D01*
X11652142Y-34175000D01*
X11795000Y-34103571D01*
X13723571Y-34603571D02*
X13723571Y-35603571D01*
X13366428Y-34032142D02*
X13009285Y-35103571D01*
X13937857Y-35103571D01*
X8580714Y-29095000D02*
X8437857Y-29023571D01*
X8223571Y-29023571D01*
X8009285Y-29095000D01*
X7866428Y-29237857D01*
X7795000Y-29380714D01*
X7723571Y-29666428D01*
X7723571Y-29880714D01*
X7795000Y-30166428D01*
X7866428Y-30309285D01*
X8009285Y-30452142D01*
X8223571Y-30523571D01*
X8366428Y-30523571D01*
X8580714Y-30452142D01*
X8652142Y-30380714D01*
X8652142Y-29880714D01*
X8366428Y-29880714D01*
X9295000Y-30523571D02*
X9295000Y-29023571D01*
X9866428Y-29023571D01*
X10009285Y-29095000D01*
X10080714Y-29166428D01*
X10152142Y-29309285D01*
X10152142Y-29523571D01*
X10080714Y-29666428D01*
X10009285Y-29737857D01*
X9866428Y-29809285D01*
X9295000Y-29809285D01*
X10795000Y-30523571D02*
X10795000Y-29023571D01*
X11795000Y-29023571D02*
X12080714Y-29023571D01*
X12223571Y-29095000D01*
X12366428Y-29237857D01*
X12437857Y-29523571D01*
X12437857Y-30023571D01*
X12366428Y-30309285D01*
X12223571Y-30452142D01*
X12080714Y-30523571D01*
X11795000Y-30523571D01*
X11652142Y-30452142D01*
X11509285Y-30309285D01*
X11437857Y-30023571D01*
X11437857Y-29523571D01*
X11509285Y-29237857D01*
X11652142Y-29095000D01*
X11795000Y-29023571D01*
X12937857Y-29023571D02*
X13866428Y-29023571D01*
X13366428Y-29595000D01*
X13580714Y-29595000D01*
X13723571Y-29666428D01*
X13795000Y-29737857D01*
X13866428Y-29880714D01*
X13866428Y-30237857D01*
X13795000Y-30380714D01*
X13723571Y-30452142D01*
X13580714Y-30523571D01*
X13152142Y-30523571D01*
X13009285Y-30452142D01*
X12937857Y-30380714D01*
X8580714Y-24015000D02*
X8437857Y-23943571D01*
X8223571Y-23943571D01*
X8009285Y-24015000D01*
X7866428Y-24157857D01*
X7795000Y-24300714D01*
X7723571Y-24586428D01*
X7723571Y-24800714D01*
X7795000Y-25086428D01*
X7866428Y-25229285D01*
X8009285Y-25372142D01*
X8223571Y-25443571D01*
X8366428Y-25443571D01*
X8580714Y-25372142D01*
X8652142Y-25300714D01*
X8652142Y-24800714D01*
X8366428Y-24800714D01*
X9295000Y-25443571D02*
X9295000Y-23943571D01*
X9866428Y-23943571D01*
X10009285Y-24015000D01*
X10080714Y-24086428D01*
X10152142Y-24229285D01*
X10152142Y-24443571D01*
X10080714Y-24586428D01*
X10009285Y-24657857D01*
X9866428Y-24729285D01*
X9295000Y-24729285D01*
X10795000Y-25443571D02*
X10795000Y-23943571D01*
X11795000Y-23943571D02*
X12080714Y-23943571D01*
X12223571Y-24015000D01*
X12366428Y-24157857D01*
X12437857Y-24443571D01*
X12437857Y-24943571D01*
X12366428Y-25229285D01*
X12223571Y-25372142D01*
X12080714Y-25443571D01*
X11795000Y-25443571D01*
X11652142Y-25372142D01*
X11509285Y-25229285D01*
X11437857Y-24943571D01*
X11437857Y-24443571D01*
X11509285Y-24157857D01*
X11652142Y-24015000D01*
X11795000Y-23943571D01*
X13009285Y-24086428D02*
X13080714Y-24015000D01*
X13223571Y-23943571D01*
X13580714Y-23943571D01*
X13723571Y-24015000D01*
X13795000Y-24086428D01*
X13866428Y-24229285D01*
X13866428Y-24372142D01*
X13795000Y-24586428D01*
X12937857Y-25443571D01*
X13866428Y-25443571D01*
X8580714Y-18935000D02*
X8437857Y-18863571D01*
X8223571Y-18863571D01*
X8009285Y-18935000D01*
X7866428Y-19077857D01*
X7795000Y-19220714D01*
X7723571Y-19506428D01*
X7723571Y-19720714D01*
X7795000Y-20006428D01*
X7866428Y-20149285D01*
X8009285Y-20292142D01*
X8223571Y-20363571D01*
X8366428Y-20363571D01*
X8580714Y-20292142D01*
X8652142Y-20220714D01*
X8652142Y-19720714D01*
X8366428Y-19720714D01*
X9295000Y-20363571D02*
X9295000Y-18863571D01*
X9866428Y-18863571D01*
X10009285Y-18935000D01*
X10080714Y-19006428D01*
X10152142Y-19149285D01*
X10152142Y-19363571D01*
X10080714Y-19506428D01*
X10009285Y-19577857D01*
X9866428Y-19649285D01*
X9295000Y-19649285D01*
X10795000Y-20363571D02*
X10795000Y-18863571D01*
X11795000Y-18863571D02*
X12080714Y-18863571D01*
X12223571Y-18935000D01*
X12366428Y-19077857D01*
X12437857Y-19363571D01*
X12437857Y-19863571D01*
X12366428Y-20149285D01*
X12223571Y-20292142D01*
X12080714Y-20363571D01*
X11795000Y-20363571D01*
X11652142Y-20292142D01*
X11509285Y-20149285D01*
X11437857Y-19863571D01*
X11437857Y-19363571D01*
X11509285Y-19077857D01*
X11652142Y-18935000D01*
X11795000Y-18863571D01*
X13866428Y-20363571D02*
X13009285Y-20363571D01*
X13437857Y-20363571D02*
X13437857Y-18863571D01*
X13295000Y-19077857D01*
X13152142Y-19220714D01*
X13009285Y-19292142D01*
X41802857Y-46087857D02*
X41802857Y-45587857D01*
X42588571Y-45373571D02*
X42588571Y-46087857D01*
X41088571Y-46087857D01*
X41088571Y-45373571D01*
X41802857Y-44230714D02*
X41874285Y-44016428D01*
X41945714Y-43945000D01*
X42088571Y-43873571D01*
X42302857Y-43873571D01*
X42445714Y-43945000D01*
X42517142Y-44016428D01*
X42588571Y-44159285D01*
X42588571Y-44730714D01*
X41088571Y-44730714D01*
X41088571Y-44230714D01*
X41160000Y-44087857D01*
X41231428Y-44016428D01*
X41374285Y-43945000D01*
X41517142Y-43945000D01*
X41660000Y-44016428D01*
X41731428Y-44087857D01*
X41802857Y-44230714D01*
X41802857Y-44730714D01*
X41088571Y-42945000D02*
X41088571Y-42659285D01*
X41160000Y-42516428D01*
X41302857Y-42373571D01*
X41588571Y-42302142D01*
X42088571Y-42302142D01*
X42374285Y-42373571D01*
X42517142Y-42516428D01*
X42588571Y-42659285D01*
X42588571Y-42945000D01*
X42517142Y-43087857D01*
X42374285Y-43230714D01*
X42088571Y-43302142D01*
X41588571Y-43302142D01*
X41302857Y-43230714D01*
X41160000Y-43087857D01*
X41088571Y-42945000D01*
X41088571Y-41802142D02*
X42588571Y-40802142D01*
X41088571Y-40802142D02*
X42588571Y-41802142D01*
X42017142Y-39087857D02*
X42017142Y-37945000D01*
X41160000Y-35302142D02*
X41088571Y-35445000D01*
X41088571Y-35659285D01*
X41160000Y-35873571D01*
X41302857Y-36016428D01*
X41445714Y-36087857D01*
X41731428Y-36159285D01*
X41945714Y-36159285D01*
X42231428Y-36087857D01*
X42374285Y-36016428D01*
X42517142Y-35873571D01*
X42588571Y-35659285D01*
X42588571Y-35516428D01*
X42517142Y-35302142D01*
X42445714Y-35230714D01*
X41945714Y-35230714D01*
X41945714Y-35516428D01*
X42588571Y-34587857D02*
X41088571Y-34587857D01*
X41088571Y-34016428D01*
X41160000Y-33873571D01*
X41231428Y-33802142D01*
X41374285Y-33730714D01*
X41588571Y-33730714D01*
X41731428Y-33802142D01*
X41802857Y-33873571D01*
X41874285Y-34016428D01*
X41874285Y-34587857D01*
X42588571Y-33087857D02*
X41088571Y-33087857D01*
X41088571Y-32087857D02*
X41088571Y-31802142D01*
X41160000Y-31659285D01*
X41302857Y-31516428D01*
X41588571Y-31445000D01*
X42088571Y-31445000D01*
X42374285Y-31516428D01*
X42517142Y-31659285D01*
X42588571Y-31802142D01*
X42588571Y-32087857D01*
X42517142Y-32230714D01*
X42374285Y-32373571D01*
X42088571Y-32445000D01*
X41588571Y-32445000D01*
X41302857Y-32373571D01*
X41160000Y-32230714D01*
X41088571Y-32087857D01*
X42588571Y-28945000D02*
X42588571Y-29659285D01*
X41088571Y-29659285D01*
X41802857Y-28445000D02*
X41802857Y-27945000D01*
X42588571Y-27730714D02*
X42588571Y-28445000D01*
X41088571Y-28445000D01*
X41088571Y-27730714D01*
X42588571Y-27087857D02*
X41088571Y-27087857D01*
X41088571Y-26730714D01*
X41160000Y-26516428D01*
X41302857Y-26373571D01*
X41445714Y-26302142D01*
X41731428Y-26230714D01*
X41945714Y-26230714D01*
X42231428Y-26302142D01*
X42374285Y-26373571D01*
X42517142Y-26516428D01*
X42588571Y-26730714D01*
X42588571Y-27087857D01*
X8580714Y-13855000D02*
X8437857Y-13783571D01*
X8223571Y-13783571D01*
X8009285Y-13855000D01*
X7866428Y-13997857D01*
X7795000Y-14140714D01*
X7723571Y-14426428D01*
X7723571Y-14640714D01*
X7795000Y-14926428D01*
X7866428Y-15069285D01*
X8009285Y-15212142D01*
X8223571Y-15283571D01*
X8366428Y-15283571D01*
X8580714Y-15212142D01*
X8652142Y-15140714D01*
X8652142Y-14640714D01*
X8366428Y-14640714D01*
X9295000Y-15283571D02*
X9295000Y-13783571D01*
X9866428Y-13783571D01*
X10009285Y-13855000D01*
X10080714Y-13926428D01*
X10152142Y-14069285D01*
X10152142Y-14283571D01*
X10080714Y-14426428D01*
X10009285Y-14497857D01*
X9866428Y-14569285D01*
X9295000Y-14569285D01*
X10795000Y-15283571D02*
X10795000Y-13783571D01*
X11795000Y-13783571D02*
X12080714Y-13783571D01*
X12223571Y-13855000D01*
X12366428Y-13997857D01*
X12437857Y-14283571D01*
X12437857Y-14783571D01*
X12366428Y-15069285D01*
X12223571Y-15212142D01*
X12080714Y-15283571D01*
X11795000Y-15283571D01*
X11652142Y-15212142D01*
X11509285Y-15069285D01*
X11437857Y-14783571D01*
X11437857Y-14283571D01*
X11509285Y-13997857D01*
X11652142Y-13855000D01*
X11795000Y-13783571D01*
X13366428Y-13783571D02*
X13509285Y-13783571D01*
X13652142Y-13855000D01*
X13723571Y-13926428D01*
X13795000Y-14069285D01*
X13866428Y-14355000D01*
X13866428Y-14712142D01*
X13795000Y-14997857D01*
X13723571Y-15140714D01*
X13652142Y-15212142D01*
X13509285Y-15283571D01*
X13366428Y-15283571D01*
X13223571Y-15212142D01*
X13152142Y-15140714D01*
X13080714Y-14997857D01*
X13009285Y-14712142D01*
X13009285Y-14355000D01*
X13080714Y-14069285D01*
X13152142Y-13926428D01*
X13223571Y-13855000D01*
X13366428Y-13783571D01*
D12*
X24265000Y-62895000D02*
X24265000Y-62960000D01*
X20735000Y-62895000D02*
X20735000Y-62960000D01*
X24265000Y-12040000D02*
X24265000Y-12105000D01*
X20735000Y-12040000D02*
X20735000Y-12105000D01*
X20735000Y-62960000D02*
X24265000Y-62960000D01*
X20735000Y-12040000D02*
X24265000Y-12040000D01*
D13*
G36*
X37888601Y-40030966D02*
X37997665Y-39812969D01*
X38094592Y-39598970D01*
X38163653Y-39424428D01*
X38179532Y-39375080D01*
X38229355Y-39230727D01*
X38279692Y-39130173D01*
X38298186Y-39109158D01*
X38362768Y-39098118D01*
X38513331Y-39088301D01*
X38734261Y-39080226D01*
X39009941Y-39074410D01*
X39324755Y-39071373D01*
X39446200Y-39071058D01*
X39833898Y-39072180D01*
X40131286Y-39077247D01*
X40349626Y-39087885D01*
X40500181Y-39105717D01*
X40594213Y-39132367D01*
X40642986Y-39169459D01*
X40657763Y-39218617D01*
X40656269Y-39245540D01*
X40647304Y-39319874D01*
X40630035Y-39464319D01*
X40608139Y-39648097D01*
X40607380Y-39654480D01*
X40541257Y-40055884D01*
X40437894Y-40497460D01*
X40309504Y-40930631D01*
X40230597Y-41153080D01*
X40123244Y-41409036D01*
X40000694Y-41660173D01*
X39873582Y-41888652D01*
X39752545Y-42076636D01*
X39648221Y-42206284D01*
X39571247Y-42259758D01*
X39570660Y-42259846D01*
X39512602Y-42241020D01*
X39411759Y-42170266D01*
X39262666Y-42042724D01*
X39059859Y-41853535D01*
X38797874Y-41597840D01*
X38566056Y-41366332D01*
X37663052Y-40458252D01*
X37888601Y-40030966D01*
X37888601Y-40030966D01*
G37*
X37888601Y-40030966D02*
X37997665Y-39812969D01*
X38094592Y-39598970D01*
X38163653Y-39424428D01*
X38179532Y-39375080D01*
X38229355Y-39230727D01*
X38279692Y-39130173D01*
X38298186Y-39109158D01*
X38362768Y-39098118D01*
X38513331Y-39088301D01*
X38734261Y-39080226D01*
X39009941Y-39074410D01*
X39324755Y-39071373D01*
X39446200Y-39071058D01*
X39833898Y-39072180D01*
X40131286Y-39077247D01*
X40349626Y-39087885D01*
X40500181Y-39105717D01*
X40594213Y-39132367D01*
X40642986Y-39169459D01*
X40657763Y-39218617D01*
X40656269Y-39245540D01*
X40647304Y-39319874D01*
X40630035Y-39464319D01*
X40608139Y-39648097D01*
X40607380Y-39654480D01*
X40541257Y-40055884D01*
X40437894Y-40497460D01*
X40309504Y-40930631D01*
X40230597Y-41153080D01*
X40123244Y-41409036D01*
X40000694Y-41660173D01*
X39873582Y-41888652D01*
X39752545Y-42076636D01*
X39648221Y-42206284D01*
X39571247Y-42259758D01*
X39570660Y-42259846D01*
X39512602Y-42241020D01*
X39411759Y-42170266D01*
X39262666Y-42042724D01*
X39059859Y-41853535D01*
X38797874Y-41597840D01*
X38566056Y-41366332D01*
X37663052Y-40458252D01*
X37888601Y-40030966D01*
G36*
X37779936Y-37053513D02*
X37830379Y-36956014D01*
X37935501Y-36819556D01*
X38101376Y-36635614D01*
X38334079Y-36395667D01*
X38451787Y-36277551D01*
X39136314Y-35594433D01*
X39295932Y-35744857D01*
X39613389Y-36096654D01*
X39910033Y-36527134D01*
X40172956Y-37013684D01*
X40389251Y-37533695D01*
X40483393Y-37824844D01*
X40546349Y-38040788D01*
X40585071Y-38178773D01*
X40601792Y-38258929D01*
X40598747Y-38301387D01*
X40578170Y-38326280D01*
X40542297Y-38353738D01*
X40542115Y-38353889D01*
X40474029Y-38375341D01*
X40325895Y-38390226D01*
X40092228Y-38398754D01*
X39767540Y-38401137D01*
X39393411Y-38398209D01*
X38314652Y-38384480D01*
X38202979Y-38003480D01*
X38118754Y-37746500D01*
X38025714Y-37512068D01*
X37933746Y-37321746D01*
X37852738Y-37197095D01*
X37818785Y-37165729D01*
X37778096Y-37120577D01*
X37779936Y-37053513D01*
X37779936Y-37053513D01*
G37*
X37779936Y-37053513D02*
X37830379Y-36956014D01*
X37935501Y-36819556D01*
X38101376Y-36635614D01*
X38334079Y-36395667D01*
X38451787Y-36277551D01*
X39136314Y-35594433D01*
X39295932Y-35744857D01*
X39613389Y-36096654D01*
X39910033Y-36527134D01*
X40172956Y-37013684D01*
X40389251Y-37533695D01*
X40483393Y-37824844D01*
X40546349Y-38040788D01*
X40585071Y-38178773D01*
X40601792Y-38258929D01*
X40598747Y-38301387D01*
X40578170Y-38326280D01*
X40542297Y-38353738D01*
X40542115Y-38353889D01*
X40474029Y-38375341D01*
X40325895Y-38390226D01*
X40092228Y-38398754D01*
X39767540Y-38401137D01*
X39393411Y-38398209D01*
X38314652Y-38384480D01*
X38202979Y-38003480D01*
X38118754Y-37746500D01*
X38025714Y-37512068D01*
X37933746Y-37321746D01*
X37852738Y-37197095D01*
X37818785Y-37165729D01*
X37778096Y-37120577D01*
X37779936Y-37053513D01*
G36*
X35848825Y-43103137D02*
X35862260Y-41547994D01*
X36141660Y-41460674D01*
X36434457Y-41352903D01*
X36716058Y-41220572D01*
X36947671Y-41082503D01*
X36999410Y-41044498D01*
X37097119Y-40977092D01*
X37158569Y-40949880D01*
X37208059Y-40984744D01*
X37316066Y-41081563D01*
X37471079Y-41228678D01*
X37661589Y-41414431D01*
X37876087Y-41627161D01*
X38103062Y-41855211D01*
X38331006Y-42086921D01*
X38548409Y-42310633D01*
X38743761Y-42514688D01*
X38905554Y-42687426D01*
X39022277Y-42817189D01*
X39082422Y-42892317D01*
X39088060Y-42904428D01*
X39052879Y-42967712D01*
X38959305Y-43077549D01*
X38825292Y-43213456D01*
X38778747Y-43257305D01*
X38420556Y-43557593D01*
X38009914Y-43850902D01*
X37592863Y-44105304D01*
X37437060Y-44187763D01*
X37215955Y-44288716D01*
X36956222Y-44391565D01*
X36682939Y-44488067D01*
X36421185Y-44569983D01*
X36196040Y-44629073D01*
X36032582Y-44657094D01*
X36005146Y-44658281D01*
X35835391Y-44658280D01*
X35848825Y-43103137D01*
X35848825Y-43103137D01*
G37*
X35848825Y-43103137D02*
X35862260Y-41547994D01*
X36141660Y-41460674D01*
X36434457Y-41352903D01*
X36716058Y-41220572D01*
X36947671Y-41082503D01*
X36999410Y-41044498D01*
X37097119Y-40977092D01*
X37158569Y-40949880D01*
X37208059Y-40984744D01*
X37316066Y-41081563D01*
X37471079Y-41228678D01*
X37661589Y-41414431D01*
X37876087Y-41627161D01*
X38103062Y-41855211D01*
X38331006Y-42086921D01*
X38548409Y-42310633D01*
X38743761Y-42514688D01*
X38905554Y-42687426D01*
X39022277Y-42817189D01*
X39082422Y-42892317D01*
X39088060Y-42904428D01*
X39052879Y-42967712D01*
X38959305Y-43077549D01*
X38825292Y-43213456D01*
X38778747Y-43257305D01*
X38420556Y-43557593D01*
X38009914Y-43850902D01*
X37592863Y-44105304D01*
X37437060Y-44187763D01*
X37215955Y-44288716D01*
X36956222Y-44391565D01*
X36682939Y-44488067D01*
X36421185Y-44569983D01*
X36196040Y-44629073D01*
X36032582Y-44657094D01*
X36005146Y-44658281D01*
X35835391Y-44658280D01*
X35848825Y-43103137D01*
G36*
X36395660Y-34477738D02*
X36827234Y-34499717D01*
X37212284Y-34563380D01*
X37591235Y-34678114D01*
X37995860Y-34849246D01*
X38211566Y-34950662D01*
X38363208Y-35032356D01*
X38449987Y-35108135D01*
X38471101Y-35191803D01*
X38425751Y-35297167D01*
X38313136Y-35438032D01*
X38132455Y-35628205D01*
X37939344Y-35824128D01*
X37733457Y-36030701D01*
X37546995Y-36213400D01*
X37393747Y-36359051D01*
X37287505Y-36454481D01*
X37247790Y-36484736D01*
X37166226Y-36497404D01*
X37042559Y-36458264D01*
X36879504Y-36374168D01*
X36600772Y-36250633D01*
X36282563Y-36163236D01*
X36230573Y-36153738D01*
X35862260Y-36091680D01*
X35862260Y-34472880D01*
X36395660Y-34477738D01*
X36395660Y-34477738D01*
G37*
X36395660Y-34477738D02*
X36827234Y-34499717D01*
X37212284Y-34563380D01*
X37591235Y-34678114D01*
X37995860Y-34849246D01*
X38211566Y-34950662D01*
X38363208Y-35032356D01*
X38449987Y-35108135D01*
X38471101Y-35191803D01*
X38425751Y-35297167D01*
X38313136Y-35438032D01*
X38132455Y-35628205D01*
X37939344Y-35824128D01*
X37733457Y-36030701D01*
X37546995Y-36213400D01*
X37393747Y-36359051D01*
X37287505Y-36454481D01*
X37247790Y-36484736D01*
X37166226Y-36497404D01*
X37042559Y-36458264D01*
X36879504Y-36374168D01*
X36600772Y-36250633D01*
X36282563Y-36163236D01*
X36230573Y-36153738D01*
X35862260Y-36091680D01*
X35862260Y-34472880D01*
X36395660Y-34477738D01*
G36*
X36922793Y-37814158D02*
X36927860Y-37802221D01*
X37001755Y-37748867D01*
X37090294Y-37786544D01*
X37181396Y-37908261D01*
X37209828Y-37965380D01*
X37288158Y-38171252D01*
X37302316Y-38307408D01*
X37252789Y-38382502D01*
X37233860Y-38391510D01*
X37126849Y-38403526D01*
X37092564Y-38395771D01*
X37043726Y-38334563D01*
X36992170Y-38209185D01*
X36948056Y-38056251D01*
X36921544Y-37912371D01*
X36922793Y-37814158D01*
X36922793Y-37814158D01*
G37*
X36922793Y-37814158D02*
X36927860Y-37802221D01*
X37001755Y-37748867D01*
X37090294Y-37786544D01*
X37181396Y-37908261D01*
X37209828Y-37965380D01*
X37288158Y-38171252D01*
X37302316Y-38307408D01*
X37252789Y-38382502D01*
X37233860Y-38391510D01*
X37126849Y-38403526D01*
X37092564Y-38395771D01*
X37043726Y-38334563D01*
X36992170Y-38209185D01*
X36948056Y-38056251D01*
X36921544Y-37912371D01*
X36922793Y-37814158D01*
G36*
X36775048Y-39262726D02*
X36807521Y-39215011D01*
X36904222Y-39109962D01*
X37012512Y-39077525D01*
X37074221Y-39080169D01*
X37190637Y-39108094D01*
X37237955Y-39177956D01*
X37244472Y-39222680D01*
X37228843Y-39355967D01*
X37176468Y-39505164D01*
X37172854Y-39512461D01*
X37082324Y-39652818D01*
X36989938Y-39698838D01*
X36877326Y-39656431D01*
X36830702Y-39622555D01*
X36728455Y-39515038D01*
X36710381Y-39403500D01*
X36775048Y-39262726D01*
X36775048Y-39262726D01*
G37*
X36775048Y-39262726D02*
X36807521Y-39215011D01*
X36904222Y-39109962D01*
X37012512Y-39077525D01*
X37074221Y-39080169D01*
X37190637Y-39108094D01*
X37237955Y-39177956D01*
X37244472Y-39222680D01*
X37228843Y-39355967D01*
X37176468Y-39505164D01*
X37172854Y-39512461D01*
X37082324Y-39652818D01*
X36989938Y-39698838D01*
X36877326Y-39656431D01*
X36830702Y-39622555D01*
X36728455Y-39515038D01*
X36710381Y-39403500D01*
X36775048Y-39262726D01*
G36*
X35836570Y-31409404D02*
X35836860Y-30833651D01*
X35837335Y-30210244D01*
X35838862Y-29681794D01*
X35841594Y-29241664D01*
X35845684Y-28883215D01*
X35851284Y-28599808D01*
X35858547Y-28384806D01*
X35867627Y-28231571D01*
X35878675Y-28133463D01*
X35891845Y-28083845D01*
X35900360Y-28074714D01*
X36010983Y-28054191D01*
X36176280Y-28038242D01*
X36364393Y-28028086D01*
X36543468Y-28024941D01*
X36681650Y-28030026D01*
X36744386Y-28042432D01*
X36768376Y-28104595D01*
X36790721Y-28246037D01*
X36810199Y-28444439D01*
X36825586Y-28677483D01*
X36835658Y-28922848D01*
X36839191Y-29158215D01*
X36834962Y-29361266D01*
X36823987Y-29494480D01*
X36752920Y-29952774D01*
X36669545Y-30356726D01*
X36563607Y-30753576D01*
X36518141Y-30903256D01*
X36364668Y-31468879D01*
X36278671Y-31974722D01*
X36259490Y-32436369D01*
X36306464Y-32869407D01*
X36417250Y-33284543D01*
X36459442Y-33461904D01*
X36432002Y-33570904D01*
X36326850Y-33624017D01*
X36190394Y-33634680D01*
X36113908Y-33637172D01*
X36049257Y-33639426D01*
X35995453Y-33633614D01*
X35951507Y-33611907D01*
X35916431Y-33566475D01*
X35889237Y-33489488D01*
X35868937Y-33373118D01*
X35854543Y-33209536D01*
X35845066Y-32990911D01*
X35839518Y-32709415D01*
X35836912Y-32357218D01*
X35836259Y-31926491D01*
X35836570Y-31409404D01*
X35836570Y-31409404D01*
G37*
X35836570Y-31409404D02*
X35836860Y-30833651D01*
X35837335Y-30210244D01*
X35838862Y-29681794D01*
X35841594Y-29241664D01*
X35845684Y-28883215D01*
X35851284Y-28599808D01*
X35858547Y-28384806D01*
X35867627Y-28231571D01*
X35878675Y-28133463D01*
X35891845Y-28083845D01*
X35900360Y-28074714D01*
X36010983Y-28054191D01*
X36176280Y-28038242D01*
X36364393Y-28028086D01*
X36543468Y-28024941D01*
X36681650Y-28030026D01*
X36744386Y-28042432D01*
X36768376Y-28104595D01*
X36790721Y-28246037D01*
X36810199Y-28444439D01*
X36825586Y-28677483D01*
X36835658Y-28922848D01*
X36839191Y-29158215D01*
X36834962Y-29361266D01*
X36823987Y-29494480D01*
X36752920Y-29952774D01*
X36669545Y-30356726D01*
X36563607Y-30753576D01*
X36518141Y-30903256D01*
X36364668Y-31468879D01*
X36278671Y-31974722D01*
X36259490Y-32436369D01*
X36306464Y-32869407D01*
X36417250Y-33284543D01*
X36459442Y-33461904D01*
X36432002Y-33570904D01*
X36326850Y-33624017D01*
X36190394Y-33634680D01*
X36113908Y-33637172D01*
X36049257Y-33639426D01*
X35995453Y-33633614D01*
X35951507Y-33611907D01*
X35916431Y-33566475D01*
X35889237Y-33489488D01*
X35868937Y-33373118D01*
X35854543Y-33209536D01*
X35845066Y-32990911D01*
X35839518Y-32709415D01*
X35836912Y-32357218D01*
X35836259Y-31926491D01*
X35836570Y-31409404D01*
G36*
X35841717Y-40102141D02*
X35863742Y-40005954D01*
X35914110Y-39950967D01*
X35965131Y-39924058D01*
X36051489Y-39896394D01*
X36126909Y-39915518D01*
X36224903Y-39993816D01*
X36269931Y-40036712D01*
X36393727Y-40170556D01*
X36437169Y-40266558D01*
X36402775Y-40345657D01*
X36315356Y-40414498D01*
X36168525Y-40484644D01*
X36010556Y-40528587D01*
X35836860Y-40556774D01*
X35836860Y-40269638D01*
X35841717Y-40102141D01*
X35841717Y-40102141D01*
G37*
X35841717Y-40102141D02*
X35863742Y-40005954D01*
X35914110Y-39950967D01*
X35965131Y-39924058D01*
X36051489Y-39896394D01*
X36126909Y-39915518D01*
X36224903Y-39993816D01*
X36269931Y-40036712D01*
X36393727Y-40170556D01*
X36437169Y-40266558D01*
X36402775Y-40345657D01*
X36315356Y-40414498D01*
X36168525Y-40484644D01*
X36010556Y-40528587D01*
X35836860Y-40556774D01*
X35836860Y-40269638D01*
X35841717Y-40102141D01*
G36*
X31096325Y-43674025D02*
X31193643Y-43562309D01*
X31343597Y-43399854D01*
X31536171Y-43196771D01*
X31761347Y-42963172D01*
X32009110Y-42709166D01*
X32269442Y-42444865D01*
X32532328Y-42180379D01*
X32787749Y-41925819D01*
X33025691Y-41691295D01*
X33236136Y-41486919D01*
X33409067Y-41322801D01*
X33534468Y-41209052D01*
X33602322Y-41155783D01*
X33609530Y-41153080D01*
X33681003Y-41174523D01*
X33802331Y-41228078D01*
X33845662Y-41249580D01*
X33992377Y-41310153D01*
X34210274Y-41382599D01*
X34470959Y-41458599D01*
X34746041Y-41529833D01*
X34985960Y-41583708D01*
X35125660Y-41612216D01*
X35125660Y-43182625D01*
X35125510Y-43622894D01*
X35124577Y-43972346D01*
X35122134Y-44241764D01*
X35117451Y-44441930D01*
X35109803Y-44583628D01*
X35098461Y-44677639D01*
X35082698Y-44734748D01*
X35061787Y-44765736D01*
X35034999Y-44781386D01*
X35017388Y-44787398D01*
X34866501Y-44808723D01*
X34636116Y-44807860D01*
X34345286Y-44787323D01*
X34013062Y-44749627D01*
X33658499Y-44697286D01*
X33300648Y-44632817D01*
X32958562Y-44558732D01*
X32651294Y-44477549D01*
X32636460Y-44473130D01*
X32403005Y-44395304D01*
X32145816Y-44296680D01*
X31881993Y-44185382D01*
X31628632Y-44069534D01*
X31402831Y-43957259D01*
X31221689Y-43856681D01*
X31102302Y-43775925D01*
X31061660Y-43724891D01*
X31096325Y-43674025D01*
X31096325Y-43674025D01*
G37*
X31096325Y-43674025D02*
X31193643Y-43562309D01*
X31343597Y-43399854D01*
X31536171Y-43196771D01*
X31761347Y-42963172D01*
X32009110Y-42709166D01*
X32269442Y-42444865D01*
X32532328Y-42180379D01*
X32787749Y-41925819D01*
X33025691Y-41691295D01*
X33236136Y-41486919D01*
X33409067Y-41322801D01*
X33534468Y-41209052D01*
X33602322Y-41155783D01*
X33609530Y-41153080D01*
X33681003Y-41174523D01*
X33802331Y-41228078D01*
X33845662Y-41249580D01*
X33992377Y-41310153D01*
X34210274Y-41382599D01*
X34470959Y-41458599D01*
X34746041Y-41529833D01*
X34985960Y-41583708D01*
X35125660Y-41612216D01*
X35125660Y-43182625D01*
X35125510Y-43622894D01*
X35124577Y-43972346D01*
X35122134Y-44241764D01*
X35117451Y-44441930D01*
X35109803Y-44583628D01*
X35098461Y-44677639D01*
X35082698Y-44734748D01*
X35061787Y-44765736D01*
X35034999Y-44781386D01*
X35017388Y-44787398D01*
X34866501Y-44808723D01*
X34636116Y-44807860D01*
X34345286Y-44787323D01*
X34013062Y-44749627D01*
X33658499Y-44697286D01*
X33300648Y-44632817D01*
X32958562Y-44558732D01*
X32651294Y-44477549D01*
X32636460Y-44473130D01*
X32403005Y-44395304D01*
X32145816Y-44296680D01*
X31881993Y-44185382D01*
X31628632Y-44069534D01*
X31402831Y-43957259D01*
X31221689Y-43856681D01*
X31102302Y-43775925D01*
X31061660Y-43724891D01*
X31096325Y-43674025D01*
G36*
X34364048Y-40367772D02*
X34466042Y-40250904D01*
X34569672Y-40143976D01*
X34717097Y-39998773D01*
X34818368Y-39918048D01*
X34896114Y-39891503D01*
X34972965Y-39908840D01*
X35027399Y-39935668D01*
X35082667Y-39982733D01*
X35112793Y-40066273D01*
X35124551Y-40212352D01*
X35125660Y-40313670D01*
X35118910Y-40486080D01*
X35101299Y-40614523D01*
X35079105Y-40667857D01*
X35005155Y-40673717D01*
X34867900Y-40657534D01*
X34701493Y-40625973D01*
X34540088Y-40585704D01*
X34417839Y-40543393D01*
X34401760Y-40535623D01*
X34339134Y-40493275D01*
X34324154Y-40442944D01*
X34364048Y-40367772D01*
X34364048Y-40367772D01*
G37*
X34364048Y-40367772D02*
X34466042Y-40250904D01*
X34569672Y-40143976D01*
X34717097Y-39998773D01*
X34818368Y-39918048D01*
X34896114Y-39891503D01*
X34972965Y-39908840D01*
X35027399Y-39935668D01*
X35082667Y-39982733D01*
X35112793Y-40066273D01*
X35124551Y-40212352D01*
X35125660Y-40313670D01*
X35118910Y-40486080D01*
X35101299Y-40614523D01*
X35079105Y-40667857D01*
X35005155Y-40673717D01*
X34867900Y-40657534D01*
X34701493Y-40625973D01*
X34540088Y-40585704D01*
X34417839Y-40543393D01*
X34401760Y-40535623D01*
X34339134Y-40493275D01*
X34324154Y-40442944D01*
X34364048Y-40367772D01*
G36*
X33283669Y-35856356D02*
X33385274Y-35723623D01*
X33534041Y-35561888D01*
X33713134Y-35387425D01*
X33905719Y-35216510D01*
X34094961Y-35065420D01*
X34264026Y-34950430D01*
X34287864Y-34936590D01*
X34515850Y-34817314D01*
X34730629Y-34721348D01*
X34910436Y-34657121D01*
X35033507Y-34633067D01*
X35062160Y-34636647D01*
X35088388Y-34675422D01*
X35106985Y-34777270D01*
X35118792Y-34952709D01*
X35124647Y-35212257D01*
X35125660Y-35432191D01*
X35125660Y-36205235D01*
X34902444Y-36313682D01*
X34742657Y-36407647D01*
X34556387Y-36540501D01*
X34418148Y-36654004D01*
X34283550Y-36769962D01*
X34179333Y-36853113D01*
X34127581Y-36885860D01*
X34127157Y-36885880D01*
X34081188Y-36852454D01*
X33978481Y-36761542D01*
X33834444Y-36627197D01*
X33671652Y-36470469D01*
X33455706Y-36249186D01*
X33314061Y-36079957D01*
X33249792Y-35966587D01*
X33246060Y-35943810D01*
X33283669Y-35856356D01*
X33283669Y-35856356D01*
G37*
X33283669Y-35856356D02*
X33385274Y-35723623D01*
X33534041Y-35561888D01*
X33713134Y-35387425D01*
X33905719Y-35216510D01*
X34094961Y-35065420D01*
X34264026Y-34950430D01*
X34287864Y-34936590D01*
X34515850Y-34817314D01*
X34730629Y-34721348D01*
X34910436Y-34657121D01*
X35033507Y-34633067D01*
X35062160Y-34636647D01*
X35088388Y-34675422D01*
X35106985Y-34777270D01*
X35118792Y-34952709D01*
X35124647Y-35212257D01*
X35125660Y-35432191D01*
X35125660Y-36205235D01*
X34902444Y-36313682D01*
X34742657Y-36407647D01*
X34556387Y-36540501D01*
X34418148Y-36654004D01*
X34283550Y-36769962D01*
X34179333Y-36853113D01*
X34127581Y-36885860D01*
X34127157Y-36885880D01*
X34081188Y-36852454D01*
X33978481Y-36761542D01*
X33834444Y-36627197D01*
X33671652Y-36470469D01*
X33455706Y-36249186D01*
X33314061Y-36079957D01*
X33249792Y-35966587D01*
X33246060Y-35943810D01*
X33283669Y-35856356D01*
G36*
X29226892Y-31855251D02*
X29316425Y-31736084D01*
X29443887Y-31574091D01*
X29588438Y-31395717D01*
X30188435Y-30741879D01*
X30872670Y-30136833D01*
X31633107Y-29586851D01*
X32461710Y-29098206D01*
X32670156Y-28990588D01*
X33004719Y-28831720D01*
X33357763Y-28680408D01*
X33714155Y-28541597D01*
X34058766Y-28420230D01*
X34376465Y-28321254D01*
X34652121Y-28249612D01*
X34870603Y-28210250D01*
X35016781Y-28208111D01*
X35043239Y-28215064D01*
X35061365Y-28229283D01*
X35076648Y-28262188D01*
X35089326Y-28321749D01*
X35099639Y-28415935D01*
X35107824Y-28552717D01*
X35114121Y-28740063D01*
X35118767Y-28985942D01*
X35122003Y-29298324D01*
X35124066Y-29685179D01*
X35125194Y-30154476D01*
X35125627Y-30714184D01*
X35125660Y-30967680D01*
X35125493Y-31563982D01*
X35124821Y-32066738D01*
X35123383Y-32484000D01*
X35120919Y-32823822D01*
X35117169Y-33094257D01*
X35111872Y-33303360D01*
X35104769Y-33459182D01*
X35095599Y-33569777D01*
X35084103Y-33643199D01*
X35070019Y-33687500D01*
X35053088Y-33710735D01*
X35036760Y-33719764D01*
X34583339Y-33887550D01*
X34207140Y-34050244D01*
X33885453Y-34221086D01*
X33595565Y-34413317D01*
X33314768Y-34640177D01*
X33070239Y-34866289D01*
X32891814Y-35035135D01*
X32737120Y-35174517D01*
X32621801Y-35270830D01*
X32561499Y-35310465D01*
X32559228Y-35310789D01*
X32510915Y-35276030D01*
X32400961Y-35177361D01*
X32237955Y-35023439D01*
X32030487Y-34822922D01*
X31787148Y-34584467D01*
X31516528Y-34316732D01*
X31227217Y-34028374D01*
X30927805Y-33728051D01*
X30626882Y-33424421D01*
X30333039Y-33126140D01*
X30054865Y-32841866D01*
X29800951Y-32580258D01*
X29579888Y-32349971D01*
X29400264Y-32159665D01*
X29270670Y-32017996D01*
X29199697Y-31933622D01*
X29188858Y-31913990D01*
X29226892Y-31855251D01*
X29226892Y-31855251D01*
G37*
X29226892Y-31855251D02*
X29316425Y-31736084D01*
X29443887Y-31574091D01*
X29588438Y-31395717D01*
X30188435Y-30741879D01*
X30872670Y-30136833D01*
X31633107Y-29586851D01*
X32461710Y-29098206D01*
X32670156Y-28990588D01*
X33004719Y-28831720D01*
X33357763Y-28680408D01*
X33714155Y-28541597D01*
X34058766Y-28420230D01*
X34376465Y-28321254D01*
X34652121Y-28249612D01*
X34870603Y-28210250D01*
X35016781Y-28208111D01*
X35043239Y-28215064D01*
X35061365Y-28229283D01*
X35076648Y-28262188D01*
X35089326Y-28321749D01*
X35099639Y-28415935D01*
X35107824Y-28552717D01*
X35114121Y-28740063D01*
X35118767Y-28985942D01*
X35122003Y-29298324D01*
X35124066Y-29685179D01*
X35125194Y-30154476D01*
X35125627Y-30714184D01*
X35125660Y-30967680D01*
X35125493Y-31563982D01*
X35124821Y-32066738D01*
X35123383Y-32484000D01*
X35120919Y-32823822D01*
X35117169Y-33094257D01*
X35111872Y-33303360D01*
X35104769Y-33459182D01*
X35095599Y-33569777D01*
X35084103Y-33643199D01*
X35070019Y-33687500D01*
X35053088Y-33710735D01*
X35036760Y-33719764D01*
X34583339Y-33887550D01*
X34207140Y-34050244D01*
X33885453Y-34221086D01*
X33595565Y-34413317D01*
X33314768Y-34640177D01*
X33070239Y-34866289D01*
X32891814Y-35035135D01*
X32737120Y-35174517D01*
X32621801Y-35270830D01*
X32561499Y-35310465D01*
X32559228Y-35310789D01*
X32510915Y-35276030D01*
X32400961Y-35177361D01*
X32237955Y-35023439D01*
X32030487Y-34822922D01*
X31787148Y-34584467D01*
X31516528Y-34316732D01*
X31227217Y-34028374D01*
X30927805Y-33728051D01*
X30626882Y-33424421D01*
X30333039Y-33126140D01*
X30054865Y-32841866D01*
X29800951Y-32580258D01*
X29579888Y-32349971D01*
X29400264Y-32159665D01*
X29270670Y-32017996D01*
X29199697Y-31933622D01*
X29188858Y-31913990D01*
X29226892Y-31855251D01*
G36*
X32909076Y-39145997D02*
X32974945Y-39105821D01*
X33103094Y-39082237D01*
X33308551Y-39071746D01*
X33474546Y-39070280D01*
X33897922Y-39070280D01*
X34054591Y-39268091D01*
X34145097Y-39388269D01*
X34201685Y-39474774D01*
X34211260Y-39497826D01*
X34179421Y-39549116D01*
X34096580Y-39650548D01*
X33998542Y-39760522D01*
X33835436Y-39930420D01*
X33716099Y-40026791D01*
X33619593Y-40054441D01*
X33524982Y-40018172D01*
X33411328Y-39922790D01*
X33388135Y-39900585D01*
X33232005Y-39735505D01*
X33088163Y-39558408D01*
X32973164Y-39392387D01*
X32903558Y-39260537D01*
X32890460Y-39206263D01*
X32909076Y-39145997D01*
X32909076Y-39145997D01*
G37*
X32909076Y-39145997D02*
X32974945Y-39105821D01*
X33103094Y-39082237D01*
X33308551Y-39071746D01*
X33474546Y-39070280D01*
X33897922Y-39070280D01*
X34054591Y-39268091D01*
X34145097Y-39388269D01*
X34201685Y-39474774D01*
X34211260Y-39497826D01*
X34179421Y-39549116D01*
X34096580Y-39650548D01*
X33998542Y-39760522D01*
X33835436Y-39930420D01*
X33716099Y-40026791D01*
X33619593Y-40054441D01*
X33524982Y-40018172D01*
X33411328Y-39922790D01*
X33388135Y-39900585D01*
X33232005Y-39735505D01*
X33088163Y-39558408D01*
X32973164Y-39392387D01*
X32903558Y-39260537D01*
X32890460Y-39206263D01*
X32909076Y-39145997D01*
G36*
X32599133Y-37685532D02*
X32623152Y-37411652D01*
X32663882Y-37154400D01*
X32717051Y-36937136D01*
X32778390Y-36783220D01*
X32819782Y-36728897D01*
X32862151Y-36712121D01*
X32921630Y-36731238D01*
X33011010Y-36795608D01*
X33143084Y-36914596D01*
X33330641Y-37097562D01*
X33350629Y-37117436D01*
X33545413Y-37312488D01*
X33677318Y-37449139D01*
X33756181Y-37539945D01*
X33791839Y-37597464D01*
X33794129Y-37634253D01*
X33775719Y-37660087D01*
X33756449Y-37721854D01*
X33733763Y-37856043D01*
X33712521Y-38033813D01*
X33712219Y-38036854D01*
X33677860Y-38384480D01*
X32611060Y-38384480D01*
X32596093Y-37952680D01*
X32599133Y-37685532D01*
X32599133Y-37685532D01*
G37*
X32599133Y-37685532D02*
X32623152Y-37411652D01*
X32663882Y-37154400D01*
X32717051Y-36937136D01*
X32778390Y-36783220D01*
X32819782Y-36728897D01*
X32862151Y-36712121D01*
X32921630Y-36731238D01*
X33011010Y-36795608D01*
X33143084Y-36914596D01*
X33330641Y-37097562D01*
X33350629Y-37117436D01*
X33545413Y-37312488D01*
X33677318Y-37449139D01*
X33756181Y-37539945D01*
X33791839Y-37597464D01*
X33794129Y-37634253D01*
X33775719Y-37660087D01*
X33756449Y-37721854D01*
X33733763Y-37856043D01*
X33712521Y-38033813D01*
X33712219Y-38036854D01*
X33677860Y-38384480D01*
X32611060Y-38384480D01*
X32596093Y-37952680D01*
X32599133Y-37685532D01*
G36*
X27702127Y-39157673D02*
X27712272Y-39142369D01*
X27740582Y-39123799D01*
X27797589Y-39108797D01*
X27892299Y-39097106D01*
X28033719Y-39088468D01*
X28230855Y-39082627D01*
X28492713Y-39079324D01*
X28828300Y-39078302D01*
X29246622Y-39079303D01*
X29756685Y-39082070D01*
X29809333Y-39082410D01*
X31845618Y-39095680D01*
X32071078Y-39542464D01*
X32328252Y-39972978D01*
X32618899Y-40337426D01*
X32760011Y-40496849D01*
X32869749Y-40634165D01*
X32932445Y-40729098D01*
X32941260Y-40754632D01*
X32906485Y-40805648D01*
X32807689Y-40919281D01*
X32653163Y-41086780D01*
X32451199Y-41299394D01*
X32210089Y-41548371D01*
X31938125Y-41824961D01*
X31708978Y-42055169D01*
X31416202Y-42345477D01*
X31143605Y-42611407D01*
X30900041Y-42844661D01*
X30694359Y-43036938D01*
X30535410Y-43179937D01*
X30432046Y-43265360D01*
X30395714Y-43286680D01*
X30323292Y-43254665D01*
X30198509Y-43169080D01*
X30043341Y-43045614D01*
X29972183Y-42984285D01*
X29358423Y-42375315D01*
X28820438Y-41701089D01*
X28363384Y-40969398D01*
X27992419Y-40188032D01*
X27829490Y-39747527D01*
X27750010Y-39500481D01*
X27704470Y-39331085D01*
X27689600Y-39222446D01*
X27702127Y-39157673D01*
X27702127Y-39157673D01*
G37*
X27702127Y-39157673D02*
X27712272Y-39142369D01*
X27740582Y-39123799D01*
X27797589Y-39108797D01*
X27892299Y-39097106D01*
X28033719Y-39088468D01*
X28230855Y-39082627D01*
X28492713Y-39079324D01*
X28828300Y-39078302D01*
X29246622Y-39079303D01*
X29756685Y-39082070D01*
X29809333Y-39082410D01*
X31845618Y-39095680D01*
X32071078Y-39542464D01*
X32328252Y-39972978D01*
X32618899Y-40337426D01*
X32760011Y-40496849D01*
X32869749Y-40634165D01*
X32932445Y-40729098D01*
X32941260Y-40754632D01*
X32906485Y-40805648D01*
X32807689Y-40919281D01*
X32653163Y-41086780D01*
X32451199Y-41299394D01*
X32210089Y-41548371D01*
X31938125Y-41824961D01*
X31708978Y-42055169D01*
X31416202Y-42345477D01*
X31143605Y-42611407D01*
X30900041Y-42844661D01*
X30694359Y-43036938D01*
X30535410Y-43179937D01*
X30432046Y-43265360D01*
X30395714Y-43286680D01*
X30323292Y-43254665D01*
X30198509Y-43169080D01*
X30043341Y-43045614D01*
X29972183Y-42984285D01*
X29358423Y-42375315D01*
X28820438Y-41701089D01*
X28363384Y-40969398D01*
X27992419Y-40188032D01*
X27829490Y-39747527D01*
X27750010Y-39500481D01*
X27704470Y-39331085D01*
X27689600Y-39222446D01*
X27702127Y-39157673D01*
G36*
X27438325Y-37292280D02*
X27449513Y-36734379D01*
X27483636Y-36242223D01*
X27545234Y-35781634D01*
X27638848Y-35318436D01*
X27765150Y-34832144D01*
X27865215Y-34507676D01*
X27985279Y-34166757D01*
X28118294Y-33825103D01*
X28257209Y-33498431D01*
X28394976Y-33202455D01*
X28524544Y-32952893D01*
X28638864Y-32765460D01*
X28730886Y-32655872D01*
X28746510Y-32644351D01*
X28777691Y-32644186D01*
X28833228Y-32673556D01*
X28918743Y-32737662D01*
X29039855Y-32841706D01*
X29202185Y-32990890D01*
X29411354Y-33190414D01*
X29672982Y-33445479D01*
X29992689Y-33761287D01*
X30376096Y-34143038D01*
X30502842Y-34269663D01*
X30842900Y-34611284D01*
X31159661Y-34932748D01*
X31446049Y-35226640D01*
X31694989Y-35485547D01*
X31899407Y-35702056D01*
X32052228Y-35868753D01*
X32146378Y-35978226D01*
X32175097Y-36021992D01*
X32152547Y-36109080D01*
X32099167Y-36250144D01*
X32054451Y-36352943D01*
X31935231Y-36667653D01*
X31831356Y-37044129D01*
X31751869Y-37442737D01*
X31705814Y-37823838D01*
X31701043Y-37901880D01*
X31691038Y-38102895D01*
X31682484Y-38263930D01*
X31676788Y-38358880D01*
X31675716Y-38371780D01*
X31625709Y-38380046D01*
X31484824Y-38387694D01*
X31263786Y-38394527D01*
X30973315Y-38400346D01*
X30624135Y-38404954D01*
X30226968Y-38408151D01*
X29792536Y-38409740D01*
X29615647Y-38409880D01*
X27560034Y-38409881D01*
X27498269Y-38295580D01*
X27471558Y-38194598D01*
X27452795Y-38003141D01*
X27441769Y-37717701D01*
X27438272Y-37334772D01*
X27438325Y-37292280D01*
X27438325Y-37292280D01*
G37*
X27438325Y-37292280D02*
X27449513Y-36734379D01*
X27483636Y-36242223D01*
X27545234Y-35781634D01*
X27638848Y-35318436D01*
X27765150Y-34832144D01*
X27865215Y-34507676D01*
X27985279Y-34166757D01*
X28118294Y-33825103D01*
X28257209Y-33498431D01*
X28394976Y-33202455D01*
X28524544Y-32952893D01*
X28638864Y-32765460D01*
X28730886Y-32655872D01*
X28746510Y-32644351D01*
X28777691Y-32644186D01*
X28833228Y-32673556D01*
X28918743Y-32737662D01*
X29039855Y-32841706D01*
X29202185Y-32990890D01*
X29411354Y-33190414D01*
X29672982Y-33445479D01*
X29992689Y-33761287D01*
X30376096Y-34143038D01*
X30502842Y-34269663D01*
X30842900Y-34611284D01*
X31159661Y-34932748D01*
X31446049Y-35226640D01*
X31694989Y-35485547D01*
X31899407Y-35702056D01*
X32052228Y-35868753D01*
X32146378Y-35978226D01*
X32175097Y-36021992D01*
X32152547Y-36109080D01*
X32099167Y-36250144D01*
X32054451Y-36352943D01*
X31935231Y-36667653D01*
X31831356Y-37044129D01*
X31751869Y-37442737D01*
X31705814Y-37823838D01*
X31701043Y-37901880D01*
X31691038Y-38102895D01*
X31682484Y-38263930D01*
X31676788Y-38358880D01*
X31675716Y-38371780D01*
X31625709Y-38380046D01*
X31484824Y-38387694D01*
X31263786Y-38394527D01*
X30973315Y-38400346D01*
X30624135Y-38404954D01*
X30226968Y-38408151D01*
X29792536Y-38409740D01*
X29615647Y-38409880D01*
X27560034Y-38409881D01*
X27498269Y-38295580D01*
X27471558Y-38194598D01*
X27452795Y-38003141D01*
X27441769Y-37717701D01*
X27438272Y-37334772D01*
X27438325Y-37292280D01*
D14*
X22166666Y-10492380D02*
X22166666Y-11206666D01*
X22119047Y-11349523D01*
X22023809Y-11444761D01*
X21880952Y-11492380D01*
X21785714Y-11492380D01*
X23166666Y-11492380D02*
X22595238Y-11492380D01*
X22880952Y-11492380D02*
X22880952Y-10492380D01*
X22785714Y-10635238D01*
X22690476Y-10730476D01*
X22595238Y-10778095D01*
M02*
