G04 #@! TF.GenerationSoftware,KiCad,Pcbnew,(5.0.0-rc2-dev-107-g49486b83b)*
G04 #@! TF.CreationDate,2018-03-22T00:06:16+08:00*
G04 #@! TF.ProjectId,ebox-gpio-led,65626F782D6770696F2D6C65642E6B69,rev?*
G04 #@! TF.SameCoordinates,Original*
G04 #@! TF.FileFunction,Soldermask,Bot*
G04 #@! TF.FilePolarity,Negative*
%FSLAX46Y46*%
G04 Gerber Fmt 4.6, Leading zero omitted, Abs format (unit mm)*
G04 Created by KiCad (PCBNEW (5.0.0-rc2-dev-107-g49486b83b)) date 03/22/18 00:06:16*
%MOMM*%
%LPD*%
G01*
G04 APERTURE LIST*
%ADD10R,2.400000X0.750000*%
%ADD11C,1.600000*%
%ADD12R,0.575000X0.650000*%
%ADD13C,0.800000*%
%ADD14C,6.400000*%
%ADD15C,1.800000*%
%ADD16R,1.800000X1.800000*%
G04 APERTURE END LIST*
D10*
X20550000Y-12735000D03*
X24450000Y-12735000D03*
X20550000Y-14005000D03*
X24450000Y-14005000D03*
X20550000Y-15275000D03*
X24450000Y-15275000D03*
X20550000Y-16545000D03*
X24450000Y-16545000D03*
X20550000Y-17815000D03*
X24450000Y-17815000D03*
X20550000Y-19085000D03*
X24450000Y-19085000D03*
X20550000Y-20355000D03*
X24450000Y-20355000D03*
X20550000Y-21625000D03*
X24450000Y-21625000D03*
X20550000Y-22895000D03*
X24450000Y-22895000D03*
X20550000Y-24165000D03*
X24450000Y-24165000D03*
X20550000Y-25435000D03*
X24450000Y-25435000D03*
X20550000Y-26705000D03*
X24450000Y-26705000D03*
X20550000Y-27975000D03*
X24450000Y-27975000D03*
X20550000Y-29245000D03*
X24450000Y-29245000D03*
X20550000Y-30515000D03*
X24450000Y-30515000D03*
X20550000Y-31785000D03*
X24450000Y-31785000D03*
X20550000Y-33055000D03*
X24450000Y-33055000D03*
X20550000Y-34325000D03*
X24450000Y-34325000D03*
X20550000Y-35595000D03*
X24450000Y-35595000D03*
X20550000Y-36865000D03*
X24450000Y-36865000D03*
X20550000Y-38135000D03*
X24450000Y-38135000D03*
X20550000Y-39405000D03*
X24450000Y-39405000D03*
X20550000Y-40675000D03*
X24450000Y-40675000D03*
X20550000Y-41945000D03*
X24450000Y-41945000D03*
X20550000Y-43215000D03*
X24450000Y-43215000D03*
X20550000Y-44485000D03*
X24450000Y-44485000D03*
X20550000Y-45755000D03*
X24450000Y-45755000D03*
X20550000Y-47025000D03*
X24450000Y-47025000D03*
X20550000Y-48295000D03*
X24450000Y-48295000D03*
X20550000Y-49565000D03*
X24450000Y-49565000D03*
X20550000Y-50835000D03*
X24450000Y-50835000D03*
X20550000Y-52105000D03*
X24450000Y-52105000D03*
X20550000Y-53375000D03*
X24450000Y-53375000D03*
X20550000Y-54645000D03*
X24450000Y-54645000D03*
X20550000Y-55915000D03*
X24450000Y-55915000D03*
X20550000Y-57185000D03*
X24450000Y-57185000D03*
X20550000Y-58455000D03*
X24450000Y-58455000D03*
X20550000Y-59725000D03*
X24450000Y-59725000D03*
X20550000Y-60995000D03*
X24450000Y-60995000D03*
X20550000Y-62265000D03*
X24450000Y-62265000D03*
D11*
X22500000Y-11122100D03*
X22500000Y-63839800D03*
X22512700Y-11122100D03*
X22500000Y-63839800D03*
D12*
X7099000Y-13335000D03*
X7874000Y-13335000D03*
X7099000Y-18415000D03*
X7874000Y-18415000D03*
D13*
X9197056Y-5802944D03*
X7500000Y-5100000D03*
X5802944Y-5802944D03*
X5100000Y-7500000D03*
X5802944Y-9197056D03*
X7500000Y-9900000D03*
X9197056Y-9197056D03*
X9900000Y-7500000D03*
D14*
X7500000Y-7500000D03*
D13*
X39197056Y-5802944D03*
X37500000Y-5100000D03*
X35802944Y-5802944D03*
X35100000Y-7500000D03*
X35802944Y-9197056D03*
X37500000Y-9900000D03*
X39197056Y-9197056D03*
X39900000Y-7500000D03*
D14*
X37500000Y-7500000D03*
D13*
X9197056Y-65802944D03*
X7500000Y-65100000D03*
X5802944Y-65802944D03*
X5100000Y-67500000D03*
X5802944Y-69197056D03*
X7500000Y-69900000D03*
X9197056Y-69197056D03*
X9900000Y-67500000D03*
D14*
X7500000Y-67500000D03*
D13*
X39197056Y-65802944D03*
X37500000Y-65100000D03*
X35802944Y-65802944D03*
X35100000Y-67500000D03*
X35802944Y-69197056D03*
X37500000Y-69900000D03*
X39197056Y-69197056D03*
X39900000Y-67500000D03*
D14*
X37500000Y-67500000D03*
D12*
X7099000Y-23495000D03*
X7874000Y-23495000D03*
X7099000Y-28575000D03*
X7874000Y-28575000D03*
X7099000Y-33655000D03*
X7874000Y-33655000D03*
X7099000Y-38735000D03*
X7874000Y-38735000D03*
X7099000Y-43815000D03*
X7874000Y-43815000D03*
X7099000Y-48895000D03*
X7874000Y-48895000D03*
X7099000Y-53975000D03*
X7874000Y-53975000D03*
X7099000Y-59055000D03*
X7874000Y-59055000D03*
D15*
X4445000Y-13335000D03*
D16*
X4445000Y-15875000D03*
D15*
X4445000Y-18415000D03*
D16*
X4445000Y-20955000D03*
D15*
X4445000Y-23495000D03*
D16*
X4445000Y-26035000D03*
D15*
X4445000Y-28575000D03*
D16*
X4445000Y-31115000D03*
D15*
X4445000Y-33655000D03*
D16*
X4445000Y-36195000D03*
D15*
X4445000Y-38735000D03*
D16*
X4445000Y-41275000D03*
D15*
X4445000Y-43815000D03*
D16*
X4445000Y-46355000D03*
D15*
X4445000Y-48895000D03*
D16*
X4445000Y-51435000D03*
D15*
X4445000Y-53975000D03*
D16*
X4445000Y-56515000D03*
D15*
X4445000Y-59055000D03*
D16*
X4445000Y-61595000D03*
M02*
