G04 #@! TF.GenerationSoftware,KiCad,Pcbnew,(5.0.0-rc2-dev-107-g49486b83b)*
G04 #@! TF.CreationDate,2018-03-19T01:36:34+08:00*
G04 #@! TF.ProjectId,ebox-gpio-led,65626F782D6770696F2D6C65642E6B69,rev?*
G04 #@! TF.SameCoordinates,Original*
G04 #@! TF.FileFunction,Legend,Bot*
G04 #@! TF.FilePolarity,Positive*
%FSLAX46Y46*%
G04 Gerber Fmt 4.6, Leading zero omitted, Abs format (unit mm)*
G04 Created by KiCad (PCBNEW (5.0.0-rc2-dev-107-g49486b83b)) date 03/19/18 01:36:34*
%MOMM*%
%LPD*%
G01*
G04 APERTURE LIST*
%ADD10C,0.120000*%
%ADD11C,0.150000*%
G04 APERTURE END LIST*
D10*
X23830000Y-62900000D02*
X23830000Y-62960000D01*
X23830000Y-12040000D02*
X23830000Y-12100000D01*
X23830000Y-62960000D02*
X21170000Y-62960000D01*
X21170000Y-62900000D02*
X21170000Y-62960000D01*
X21170000Y-12040000D02*
X21170000Y-12100000D01*
X23830000Y-12040000D02*
X21170000Y-12040000D01*
X3365000Y-13335000D02*
X3365000Y-13335000D01*
X695000Y-13335000D02*
X3365000Y-13335000D01*
X695000Y-13335000D02*
X695000Y-13335000D01*
X3365000Y-13335000D02*
X695000Y-13335000D01*
X3365000Y-15875000D02*
X3365000Y-15875000D01*
X695000Y-15875000D02*
X3365000Y-15875000D01*
X695000Y-15875000D02*
X695000Y-15875000D01*
X3365000Y-15875000D02*
X695000Y-15875000D01*
X695000Y-13045000D02*
X695000Y-12645000D01*
X-425000Y-13045000D02*
X695000Y-13045000D01*
X-425000Y-12645000D02*
X-425000Y-13045000D01*
X695000Y-12645000D02*
X-425000Y-12645000D01*
X695000Y-16165000D02*
X695000Y-13045000D01*
X695000Y-13045000D02*
X-3165000Y-13045000D01*
X695000Y-16165000D02*
X-3165000Y-16165000D01*
X-3165000Y-13045000D02*
G75*
G03X-3165000Y-16165000I0J-1560000D01*
G01*
X-3165000Y-18125000D02*
G75*
G03X-3165000Y-21245000I0J-1560000D01*
G01*
X695000Y-21245000D02*
X-3165000Y-21245000D01*
X695000Y-18125000D02*
X-3165000Y-18125000D01*
X695000Y-21245000D02*
X695000Y-18125000D01*
X695000Y-17725000D02*
X-425000Y-17725000D01*
X-425000Y-17725000D02*
X-425000Y-18125000D01*
X-425000Y-18125000D02*
X695000Y-18125000D01*
X695000Y-18125000D02*
X695000Y-17725000D01*
X3365000Y-20955000D02*
X695000Y-20955000D01*
X695000Y-20955000D02*
X695000Y-20955000D01*
X695000Y-20955000D02*
X3365000Y-20955000D01*
X3365000Y-20955000D02*
X3365000Y-20955000D01*
X3365000Y-18415000D02*
X695000Y-18415000D01*
X695000Y-18415000D02*
X695000Y-18415000D01*
X695000Y-18415000D02*
X3365000Y-18415000D01*
X3365000Y-18415000D02*
X3365000Y-18415000D01*
X3365000Y-23495000D02*
X3365000Y-23495000D01*
X695000Y-23495000D02*
X3365000Y-23495000D01*
X695000Y-23495000D02*
X695000Y-23495000D01*
X3365000Y-23495000D02*
X695000Y-23495000D01*
X3365000Y-26035000D02*
X3365000Y-26035000D01*
X695000Y-26035000D02*
X3365000Y-26035000D01*
X695000Y-26035000D02*
X695000Y-26035000D01*
X3365000Y-26035000D02*
X695000Y-26035000D01*
X695000Y-23205000D02*
X695000Y-22805000D01*
X-425000Y-23205000D02*
X695000Y-23205000D01*
X-425000Y-22805000D02*
X-425000Y-23205000D01*
X695000Y-22805000D02*
X-425000Y-22805000D01*
X695000Y-26325000D02*
X695000Y-23205000D01*
X695000Y-23205000D02*
X-3165000Y-23205000D01*
X695000Y-26325000D02*
X-3165000Y-26325000D01*
X-3165000Y-23205000D02*
G75*
G03X-3165000Y-26325000I0J-1560000D01*
G01*
X-3165000Y-28285000D02*
G75*
G03X-3165000Y-31405000I0J-1560000D01*
G01*
X695000Y-31405000D02*
X-3165000Y-31405000D01*
X695000Y-28285000D02*
X-3165000Y-28285000D01*
X695000Y-31405000D02*
X695000Y-28285000D01*
X695000Y-27885000D02*
X-425000Y-27885000D01*
X-425000Y-27885000D02*
X-425000Y-28285000D01*
X-425000Y-28285000D02*
X695000Y-28285000D01*
X695000Y-28285000D02*
X695000Y-27885000D01*
X3365000Y-31115000D02*
X695000Y-31115000D01*
X695000Y-31115000D02*
X695000Y-31115000D01*
X695000Y-31115000D02*
X3365000Y-31115000D01*
X3365000Y-31115000D02*
X3365000Y-31115000D01*
X3365000Y-28575000D02*
X695000Y-28575000D01*
X695000Y-28575000D02*
X695000Y-28575000D01*
X695000Y-28575000D02*
X3365000Y-28575000D01*
X3365000Y-28575000D02*
X3365000Y-28575000D01*
X3365000Y-33655000D02*
X3365000Y-33655000D01*
X695000Y-33655000D02*
X3365000Y-33655000D01*
X695000Y-33655000D02*
X695000Y-33655000D01*
X3365000Y-33655000D02*
X695000Y-33655000D01*
X3365000Y-36195000D02*
X3365000Y-36195000D01*
X695000Y-36195000D02*
X3365000Y-36195000D01*
X695000Y-36195000D02*
X695000Y-36195000D01*
X3365000Y-36195000D02*
X695000Y-36195000D01*
X695000Y-33365000D02*
X695000Y-32965000D01*
X-425000Y-33365000D02*
X695000Y-33365000D01*
X-425000Y-32965000D02*
X-425000Y-33365000D01*
X695000Y-32965000D02*
X-425000Y-32965000D01*
X695000Y-36485000D02*
X695000Y-33365000D01*
X695000Y-33365000D02*
X-3165000Y-33365000D01*
X695000Y-36485000D02*
X-3165000Y-36485000D01*
X-3165000Y-33365000D02*
G75*
G03X-3165000Y-36485000I0J-1560000D01*
G01*
X-3165000Y-38445000D02*
G75*
G03X-3165000Y-41565000I0J-1560000D01*
G01*
X695000Y-41565000D02*
X-3165000Y-41565000D01*
X695000Y-38445000D02*
X-3165000Y-38445000D01*
X695000Y-41565000D02*
X695000Y-38445000D01*
X695000Y-38045000D02*
X-425000Y-38045000D01*
X-425000Y-38045000D02*
X-425000Y-38445000D01*
X-425000Y-38445000D02*
X695000Y-38445000D01*
X695000Y-38445000D02*
X695000Y-38045000D01*
X3365000Y-41275000D02*
X695000Y-41275000D01*
X695000Y-41275000D02*
X695000Y-41275000D01*
X695000Y-41275000D02*
X3365000Y-41275000D01*
X3365000Y-41275000D02*
X3365000Y-41275000D01*
X3365000Y-38735000D02*
X695000Y-38735000D01*
X695000Y-38735000D02*
X695000Y-38735000D01*
X695000Y-38735000D02*
X3365000Y-38735000D01*
X3365000Y-38735000D02*
X3365000Y-38735000D01*
X-3165000Y-43525000D02*
G75*
G03X-3165000Y-46645000I0J-1560000D01*
G01*
X695000Y-46645000D02*
X-3165000Y-46645000D01*
X695000Y-43525000D02*
X-3165000Y-43525000D01*
X695000Y-46645000D02*
X695000Y-43525000D01*
X695000Y-43125000D02*
X-425000Y-43125000D01*
X-425000Y-43125000D02*
X-425000Y-43525000D01*
X-425000Y-43525000D02*
X695000Y-43525000D01*
X695000Y-43525000D02*
X695000Y-43125000D01*
X3365000Y-46355000D02*
X695000Y-46355000D01*
X695000Y-46355000D02*
X695000Y-46355000D01*
X695000Y-46355000D02*
X3365000Y-46355000D01*
X3365000Y-46355000D02*
X3365000Y-46355000D01*
X3365000Y-43815000D02*
X695000Y-43815000D01*
X695000Y-43815000D02*
X695000Y-43815000D01*
X695000Y-43815000D02*
X3365000Y-43815000D01*
X3365000Y-43815000D02*
X3365000Y-43815000D01*
X3365000Y-48895000D02*
X3365000Y-48895000D01*
X695000Y-48895000D02*
X3365000Y-48895000D01*
X695000Y-48895000D02*
X695000Y-48895000D01*
X3365000Y-48895000D02*
X695000Y-48895000D01*
X3365000Y-51435000D02*
X3365000Y-51435000D01*
X695000Y-51435000D02*
X3365000Y-51435000D01*
X695000Y-51435000D02*
X695000Y-51435000D01*
X3365000Y-51435000D02*
X695000Y-51435000D01*
X695000Y-48605000D02*
X695000Y-48205000D01*
X-425000Y-48605000D02*
X695000Y-48605000D01*
X-425000Y-48205000D02*
X-425000Y-48605000D01*
X695000Y-48205000D02*
X-425000Y-48205000D01*
X695000Y-51725000D02*
X695000Y-48605000D01*
X695000Y-48605000D02*
X-3165000Y-48605000D01*
X695000Y-51725000D02*
X-3165000Y-51725000D01*
X-3165000Y-48605000D02*
G75*
G03X-3165000Y-51725000I0J-1560000D01*
G01*
X-3165000Y-53685000D02*
G75*
G03X-3165000Y-56805000I0J-1560000D01*
G01*
X695000Y-56805000D02*
X-3165000Y-56805000D01*
X695000Y-53685000D02*
X-3165000Y-53685000D01*
X695000Y-56805000D02*
X695000Y-53685000D01*
X695000Y-53285000D02*
X-425000Y-53285000D01*
X-425000Y-53285000D02*
X-425000Y-53685000D01*
X-425000Y-53685000D02*
X695000Y-53685000D01*
X695000Y-53685000D02*
X695000Y-53285000D01*
X3365000Y-56515000D02*
X695000Y-56515000D01*
X695000Y-56515000D02*
X695000Y-56515000D01*
X695000Y-56515000D02*
X3365000Y-56515000D01*
X3365000Y-56515000D02*
X3365000Y-56515000D01*
X3365000Y-53975000D02*
X695000Y-53975000D01*
X695000Y-53975000D02*
X695000Y-53975000D01*
X695000Y-53975000D02*
X3365000Y-53975000D01*
X3365000Y-53975000D02*
X3365000Y-53975000D01*
X3365000Y-59055000D02*
X3365000Y-59055000D01*
X695000Y-59055000D02*
X3365000Y-59055000D01*
X695000Y-59055000D02*
X695000Y-59055000D01*
X3365000Y-59055000D02*
X695000Y-59055000D01*
X3365000Y-61595000D02*
X3365000Y-61595000D01*
X695000Y-61595000D02*
X3365000Y-61595000D01*
X695000Y-61595000D02*
X695000Y-61595000D01*
X3365000Y-61595000D02*
X695000Y-61595000D01*
X695000Y-58765000D02*
X695000Y-58365000D01*
X-425000Y-58765000D02*
X695000Y-58765000D01*
X-425000Y-58365000D02*
X-425000Y-58765000D01*
X695000Y-58365000D02*
X-425000Y-58365000D01*
X695000Y-61885000D02*
X695000Y-58765000D01*
X695000Y-58765000D02*
X-3165000Y-58765000D01*
X695000Y-61885000D02*
X-3165000Y-61885000D01*
X-3165000Y-58765000D02*
G75*
G03X-3165000Y-61885000I0J-1560000D01*
G01*
D11*
X22833333Y-10687380D02*
X22833333Y-11401666D01*
X22880952Y-11544523D01*
X22976190Y-11639761D01*
X23119047Y-11687380D01*
X23214285Y-11687380D01*
X22404761Y-10782619D02*
X22357142Y-10735000D01*
X22261904Y-10687380D01*
X22023809Y-10687380D01*
X21928571Y-10735000D01*
X21880952Y-10782619D01*
X21833333Y-10877857D01*
X21833333Y-10973095D01*
X21880952Y-11115952D01*
X22452380Y-11687380D01*
X21833333Y-11687380D01*
X7773666Y-14930380D02*
X8107000Y-14454190D01*
X8345095Y-14930380D02*
X8345095Y-13930380D01*
X7964142Y-13930380D01*
X7868904Y-13978000D01*
X7821285Y-14025619D01*
X7773666Y-14120857D01*
X7773666Y-14263714D01*
X7821285Y-14358952D01*
X7868904Y-14406571D01*
X7964142Y-14454190D01*
X8345095Y-14454190D01*
X6821285Y-14930380D02*
X7392714Y-14930380D01*
X7107000Y-14930380D02*
X7107000Y-13930380D01*
X7202238Y-14073238D01*
X7297476Y-14168476D01*
X7392714Y-14216095D01*
X7646666Y-20010380D02*
X7980000Y-19534190D01*
X8218095Y-20010380D02*
X8218095Y-19010380D01*
X7837142Y-19010380D01*
X7741904Y-19058000D01*
X7694285Y-19105619D01*
X7646666Y-19200857D01*
X7646666Y-19343714D01*
X7694285Y-19438952D01*
X7741904Y-19486571D01*
X7837142Y-19534190D01*
X8218095Y-19534190D01*
X7265714Y-19105619D02*
X7218095Y-19058000D01*
X7122857Y-19010380D01*
X6884761Y-19010380D01*
X6789523Y-19058000D01*
X6741904Y-19105619D01*
X6694285Y-19200857D01*
X6694285Y-19296095D01*
X6741904Y-19438952D01*
X7313333Y-20010380D01*
X6694285Y-20010380D01*
X7653166Y-25090380D02*
X7986500Y-24614190D01*
X8224595Y-25090380D02*
X8224595Y-24090380D01*
X7843642Y-24090380D01*
X7748404Y-24138000D01*
X7700785Y-24185619D01*
X7653166Y-24280857D01*
X7653166Y-24423714D01*
X7700785Y-24518952D01*
X7748404Y-24566571D01*
X7843642Y-24614190D01*
X8224595Y-24614190D01*
X7319833Y-24090380D02*
X6700785Y-24090380D01*
X7034119Y-24471333D01*
X6891261Y-24471333D01*
X6796023Y-24518952D01*
X6748404Y-24566571D01*
X6700785Y-24661809D01*
X6700785Y-24899904D01*
X6748404Y-24995142D01*
X6796023Y-25042761D01*
X6891261Y-25090380D01*
X7176976Y-25090380D01*
X7272214Y-25042761D01*
X7319833Y-24995142D01*
X7653166Y-30170380D02*
X7986500Y-29694190D01*
X8224595Y-30170380D02*
X8224595Y-29170380D01*
X7843642Y-29170380D01*
X7748404Y-29218000D01*
X7700785Y-29265619D01*
X7653166Y-29360857D01*
X7653166Y-29503714D01*
X7700785Y-29598952D01*
X7748404Y-29646571D01*
X7843642Y-29694190D01*
X8224595Y-29694190D01*
X6796023Y-29503714D02*
X6796023Y-30170380D01*
X7034119Y-29122761D02*
X7272214Y-29837047D01*
X6653166Y-29837047D01*
X7653166Y-35250380D02*
X7986500Y-34774190D01*
X8224595Y-35250380D02*
X8224595Y-34250380D01*
X7843642Y-34250380D01*
X7748404Y-34298000D01*
X7700785Y-34345619D01*
X7653166Y-34440857D01*
X7653166Y-34583714D01*
X7700785Y-34678952D01*
X7748404Y-34726571D01*
X7843642Y-34774190D01*
X8224595Y-34774190D01*
X6748404Y-34250380D02*
X7224595Y-34250380D01*
X7272214Y-34726571D01*
X7224595Y-34678952D01*
X7129357Y-34631333D01*
X6891261Y-34631333D01*
X6796023Y-34678952D01*
X6748404Y-34726571D01*
X6700785Y-34821809D01*
X6700785Y-35059904D01*
X6748404Y-35155142D01*
X6796023Y-35202761D01*
X6891261Y-35250380D01*
X7129357Y-35250380D01*
X7224595Y-35202761D01*
X7272214Y-35155142D01*
X7653166Y-40330380D02*
X7986500Y-39854190D01*
X8224595Y-40330380D02*
X8224595Y-39330380D01*
X7843642Y-39330380D01*
X7748404Y-39378000D01*
X7700785Y-39425619D01*
X7653166Y-39520857D01*
X7653166Y-39663714D01*
X7700785Y-39758952D01*
X7748404Y-39806571D01*
X7843642Y-39854190D01*
X8224595Y-39854190D01*
X6796023Y-39330380D02*
X6986500Y-39330380D01*
X7081738Y-39378000D01*
X7129357Y-39425619D01*
X7224595Y-39568476D01*
X7272214Y-39758952D01*
X7272214Y-40139904D01*
X7224595Y-40235142D01*
X7176976Y-40282761D01*
X7081738Y-40330380D01*
X6891261Y-40330380D01*
X6796023Y-40282761D01*
X6748404Y-40235142D01*
X6700785Y-40139904D01*
X6700785Y-39901809D01*
X6748404Y-39806571D01*
X6796023Y-39758952D01*
X6891261Y-39711333D01*
X7081738Y-39711333D01*
X7176976Y-39758952D01*
X7224595Y-39806571D01*
X7272214Y-39901809D01*
X7773666Y-45410380D02*
X8107000Y-44934190D01*
X8345095Y-45410380D02*
X8345095Y-44410380D01*
X7964142Y-44410380D01*
X7868904Y-44458000D01*
X7821285Y-44505619D01*
X7773666Y-44600857D01*
X7773666Y-44743714D01*
X7821285Y-44838952D01*
X7868904Y-44886571D01*
X7964142Y-44934190D01*
X8345095Y-44934190D01*
X7440333Y-44410380D02*
X6773666Y-44410380D01*
X7202238Y-45410380D01*
X7646666Y-50490380D02*
X7980000Y-50014190D01*
X8218095Y-50490380D02*
X8218095Y-49490380D01*
X7837142Y-49490380D01*
X7741904Y-49538000D01*
X7694285Y-49585619D01*
X7646666Y-49680857D01*
X7646666Y-49823714D01*
X7694285Y-49918952D01*
X7741904Y-49966571D01*
X7837142Y-50014190D01*
X8218095Y-50014190D01*
X7075238Y-49918952D02*
X7170476Y-49871333D01*
X7218095Y-49823714D01*
X7265714Y-49728476D01*
X7265714Y-49680857D01*
X7218095Y-49585619D01*
X7170476Y-49538000D01*
X7075238Y-49490380D01*
X6884761Y-49490380D01*
X6789523Y-49538000D01*
X6741904Y-49585619D01*
X6694285Y-49680857D01*
X6694285Y-49728476D01*
X6741904Y-49823714D01*
X6789523Y-49871333D01*
X6884761Y-49918952D01*
X7075238Y-49918952D01*
X7170476Y-49966571D01*
X7218095Y-50014190D01*
X7265714Y-50109428D01*
X7265714Y-50299904D01*
X7218095Y-50395142D01*
X7170476Y-50442761D01*
X7075238Y-50490380D01*
X6884761Y-50490380D01*
X6789523Y-50442761D01*
X6741904Y-50395142D01*
X6694285Y-50299904D01*
X6694285Y-50109428D01*
X6741904Y-50014190D01*
X6789523Y-49966571D01*
X6884761Y-49918952D01*
X7646666Y-55570380D02*
X7980000Y-55094190D01*
X8218095Y-55570380D02*
X8218095Y-54570380D01*
X7837142Y-54570380D01*
X7741904Y-54618000D01*
X7694285Y-54665619D01*
X7646666Y-54760857D01*
X7646666Y-54903714D01*
X7694285Y-54998952D01*
X7741904Y-55046571D01*
X7837142Y-55094190D01*
X8218095Y-55094190D01*
X7170476Y-55570380D02*
X6980000Y-55570380D01*
X6884761Y-55522761D01*
X6837142Y-55475142D01*
X6741904Y-55332285D01*
X6694285Y-55141809D01*
X6694285Y-54760857D01*
X6741904Y-54665619D01*
X6789523Y-54618000D01*
X6884761Y-54570380D01*
X7075238Y-54570380D01*
X7170476Y-54618000D01*
X7218095Y-54665619D01*
X7265714Y-54760857D01*
X7265714Y-54998952D01*
X7218095Y-55094190D01*
X7170476Y-55141809D01*
X7075238Y-55189428D01*
X6884761Y-55189428D01*
X6789523Y-55141809D01*
X6741904Y-55094190D01*
X6694285Y-54998952D01*
X8630857Y-60650380D02*
X8964190Y-60174190D01*
X9202285Y-60650380D02*
X9202285Y-59650380D01*
X8821333Y-59650380D01*
X8726095Y-59698000D01*
X8678476Y-59745619D01*
X8630857Y-59840857D01*
X8630857Y-59983714D01*
X8678476Y-60078952D01*
X8726095Y-60126571D01*
X8821333Y-60174190D01*
X9202285Y-60174190D01*
X7678476Y-60650380D02*
X8249904Y-60650380D01*
X7964190Y-60650380D02*
X7964190Y-59650380D01*
X8059428Y-59793238D01*
X8154666Y-59888476D01*
X8249904Y-59936095D01*
X7059428Y-59650380D02*
X6964190Y-59650380D01*
X6868952Y-59698000D01*
X6821333Y-59745619D01*
X6773714Y-59840857D01*
X6726095Y-60031333D01*
X6726095Y-60269428D01*
X6773714Y-60459904D01*
X6821333Y-60555142D01*
X6868952Y-60602761D01*
X6964190Y-60650380D01*
X7059428Y-60650380D01*
X7154666Y-60602761D01*
X7202285Y-60555142D01*
X7249904Y-60459904D01*
X7297523Y-60269428D01*
X7297523Y-60031333D01*
X7249904Y-59840857D01*
X7202285Y-59745619D01*
X7154666Y-59698000D01*
X7059428Y-59650380D01*
X8104095Y-15057380D02*
X8104095Y-14057380D01*
X7866000Y-14057380D01*
X7723142Y-14105000D01*
X7627904Y-14200238D01*
X7580285Y-14295476D01*
X7532666Y-14485952D01*
X7532666Y-14628809D01*
X7580285Y-14819285D01*
X7627904Y-14914523D01*
X7723142Y-15009761D01*
X7866000Y-15057380D01*
X8104095Y-15057380D01*
X6580285Y-15057380D02*
X7151714Y-15057380D01*
X6866000Y-15057380D02*
X6866000Y-14057380D01*
X6961238Y-14200238D01*
X7056476Y-14295476D01*
X7151714Y-14343095D01*
X8231095Y-20137380D02*
X8231095Y-19137380D01*
X7993000Y-19137380D01*
X7850142Y-19185000D01*
X7754904Y-19280238D01*
X7707285Y-19375476D01*
X7659666Y-19565952D01*
X7659666Y-19708809D01*
X7707285Y-19899285D01*
X7754904Y-19994523D01*
X7850142Y-20089761D01*
X7993000Y-20137380D01*
X8231095Y-20137380D01*
X7278714Y-19232619D02*
X7231095Y-19185000D01*
X7135857Y-19137380D01*
X6897761Y-19137380D01*
X6802523Y-19185000D01*
X6754904Y-19232619D01*
X6707285Y-19327857D01*
X6707285Y-19423095D01*
X6754904Y-19565952D01*
X7326333Y-20137380D01*
X6707285Y-20137380D01*
X8231095Y-25217380D02*
X8231095Y-24217380D01*
X7993000Y-24217380D01*
X7850142Y-24265000D01*
X7754904Y-24360238D01*
X7707285Y-24455476D01*
X7659666Y-24645952D01*
X7659666Y-24788809D01*
X7707285Y-24979285D01*
X7754904Y-25074523D01*
X7850142Y-25169761D01*
X7993000Y-25217380D01*
X8231095Y-25217380D01*
X7326333Y-24217380D02*
X6707285Y-24217380D01*
X7040619Y-24598333D01*
X6897761Y-24598333D01*
X6802523Y-24645952D01*
X6754904Y-24693571D01*
X6707285Y-24788809D01*
X6707285Y-25026904D01*
X6754904Y-25122142D01*
X6802523Y-25169761D01*
X6897761Y-25217380D01*
X7183476Y-25217380D01*
X7278714Y-25169761D01*
X7326333Y-25122142D01*
X8231095Y-30297380D02*
X8231095Y-29297380D01*
X7993000Y-29297380D01*
X7850142Y-29345000D01*
X7754904Y-29440238D01*
X7707285Y-29535476D01*
X7659666Y-29725952D01*
X7659666Y-29868809D01*
X7707285Y-30059285D01*
X7754904Y-30154523D01*
X7850142Y-30249761D01*
X7993000Y-30297380D01*
X8231095Y-30297380D01*
X6802523Y-29630714D02*
X6802523Y-30297380D01*
X7040619Y-29249761D02*
X7278714Y-29964047D01*
X6659666Y-29964047D01*
X8231095Y-35377380D02*
X8231095Y-34377380D01*
X7993000Y-34377380D01*
X7850142Y-34425000D01*
X7754904Y-34520238D01*
X7707285Y-34615476D01*
X7659666Y-34805952D01*
X7659666Y-34948809D01*
X7707285Y-35139285D01*
X7754904Y-35234523D01*
X7850142Y-35329761D01*
X7993000Y-35377380D01*
X8231095Y-35377380D01*
X6754904Y-34377380D02*
X7231095Y-34377380D01*
X7278714Y-34853571D01*
X7231095Y-34805952D01*
X7135857Y-34758333D01*
X6897761Y-34758333D01*
X6802523Y-34805952D01*
X6754904Y-34853571D01*
X6707285Y-34948809D01*
X6707285Y-35186904D01*
X6754904Y-35282142D01*
X6802523Y-35329761D01*
X6897761Y-35377380D01*
X7135857Y-35377380D01*
X7231095Y-35329761D01*
X7278714Y-35282142D01*
X8231095Y-40457380D02*
X8231095Y-39457380D01*
X7993000Y-39457380D01*
X7850142Y-39505000D01*
X7754904Y-39600238D01*
X7707285Y-39695476D01*
X7659666Y-39885952D01*
X7659666Y-40028809D01*
X7707285Y-40219285D01*
X7754904Y-40314523D01*
X7850142Y-40409761D01*
X7993000Y-40457380D01*
X8231095Y-40457380D01*
X6802523Y-39457380D02*
X6993000Y-39457380D01*
X7088238Y-39505000D01*
X7135857Y-39552619D01*
X7231095Y-39695476D01*
X7278714Y-39885952D01*
X7278714Y-40266904D01*
X7231095Y-40362142D01*
X7183476Y-40409761D01*
X7088238Y-40457380D01*
X6897761Y-40457380D01*
X6802523Y-40409761D01*
X6754904Y-40362142D01*
X6707285Y-40266904D01*
X6707285Y-40028809D01*
X6754904Y-39933571D01*
X6802523Y-39885952D01*
X6897761Y-39838333D01*
X7088238Y-39838333D01*
X7183476Y-39885952D01*
X7231095Y-39933571D01*
X7278714Y-40028809D01*
X8231095Y-45537380D02*
X8231095Y-44537380D01*
X7993000Y-44537380D01*
X7850142Y-44585000D01*
X7754904Y-44680238D01*
X7707285Y-44775476D01*
X7659666Y-44965952D01*
X7659666Y-45108809D01*
X7707285Y-45299285D01*
X7754904Y-45394523D01*
X7850142Y-45489761D01*
X7993000Y-45537380D01*
X8231095Y-45537380D01*
X7326333Y-44537380D02*
X6659666Y-44537380D01*
X7088238Y-45537380D01*
X8231095Y-50617380D02*
X8231095Y-49617380D01*
X7993000Y-49617380D01*
X7850142Y-49665000D01*
X7754904Y-49760238D01*
X7707285Y-49855476D01*
X7659666Y-50045952D01*
X7659666Y-50188809D01*
X7707285Y-50379285D01*
X7754904Y-50474523D01*
X7850142Y-50569761D01*
X7993000Y-50617380D01*
X8231095Y-50617380D01*
X7088238Y-50045952D02*
X7183476Y-49998333D01*
X7231095Y-49950714D01*
X7278714Y-49855476D01*
X7278714Y-49807857D01*
X7231095Y-49712619D01*
X7183476Y-49665000D01*
X7088238Y-49617380D01*
X6897761Y-49617380D01*
X6802523Y-49665000D01*
X6754904Y-49712619D01*
X6707285Y-49807857D01*
X6707285Y-49855476D01*
X6754904Y-49950714D01*
X6802523Y-49998333D01*
X6897761Y-50045952D01*
X7088238Y-50045952D01*
X7183476Y-50093571D01*
X7231095Y-50141190D01*
X7278714Y-50236428D01*
X7278714Y-50426904D01*
X7231095Y-50522142D01*
X7183476Y-50569761D01*
X7088238Y-50617380D01*
X6897761Y-50617380D01*
X6802523Y-50569761D01*
X6754904Y-50522142D01*
X6707285Y-50426904D01*
X6707285Y-50236428D01*
X6754904Y-50141190D01*
X6802523Y-50093571D01*
X6897761Y-50045952D01*
X8231095Y-55697380D02*
X8231095Y-54697380D01*
X7993000Y-54697380D01*
X7850142Y-54745000D01*
X7754904Y-54840238D01*
X7707285Y-54935476D01*
X7659666Y-55125952D01*
X7659666Y-55268809D01*
X7707285Y-55459285D01*
X7754904Y-55554523D01*
X7850142Y-55649761D01*
X7993000Y-55697380D01*
X8231095Y-55697380D01*
X7183476Y-55697380D02*
X6993000Y-55697380D01*
X6897761Y-55649761D01*
X6850142Y-55602142D01*
X6754904Y-55459285D01*
X6707285Y-55268809D01*
X6707285Y-54887857D01*
X6754904Y-54792619D01*
X6802523Y-54745000D01*
X6897761Y-54697380D01*
X7088238Y-54697380D01*
X7183476Y-54745000D01*
X7231095Y-54792619D01*
X7278714Y-54887857D01*
X7278714Y-55125952D01*
X7231095Y-55221190D01*
X7183476Y-55268809D01*
X7088238Y-55316428D01*
X6897761Y-55316428D01*
X6802523Y-55268809D01*
X6754904Y-55221190D01*
X6707285Y-55125952D01*
X8326285Y-60777380D02*
X8326285Y-59777380D01*
X8088190Y-59777380D01*
X7945333Y-59825000D01*
X7850095Y-59920238D01*
X7802476Y-60015476D01*
X7754857Y-60205952D01*
X7754857Y-60348809D01*
X7802476Y-60539285D01*
X7850095Y-60634523D01*
X7945333Y-60729761D01*
X8088190Y-60777380D01*
X8326285Y-60777380D01*
X6802476Y-60777380D02*
X7373904Y-60777380D01*
X7088190Y-60777380D02*
X7088190Y-59777380D01*
X7183428Y-59920238D01*
X7278666Y-60015476D01*
X7373904Y-60063095D01*
X6183428Y-59777380D02*
X6088190Y-59777380D01*
X5992952Y-59825000D01*
X5945333Y-59872619D01*
X5897714Y-59967857D01*
X5850095Y-60158333D01*
X5850095Y-60396428D01*
X5897714Y-60586904D01*
X5945333Y-60682142D01*
X5992952Y-60729761D01*
X6088190Y-60777380D01*
X6183428Y-60777380D01*
X6278666Y-60729761D01*
X6326285Y-60682142D01*
X6373904Y-60586904D01*
X6421523Y-60396428D01*
X6421523Y-60158333D01*
X6373904Y-59967857D01*
X6326285Y-59872619D01*
X6278666Y-59825000D01*
X6183428Y-59777380D01*
M02*
