<?xml version="1.0" encoding="UTF-8" standalone="no"?>
<!-- Created with Inkscape (http://www.inkscape.org/) -->

<svg
   xmlns:dc="http://purl.org/dc/elements/1.1/"
   xmlns:cc="http://creativecommons.org/ns#"
   xmlns:rdf="http://www.w3.org/1999/02/22-rdf-syntax-ns#"
   xmlns:svg="http://www.w3.org/2000/svg"
   xmlns="http://www.w3.org/2000/svg"
   xmlns:sodipodi="http://sodipodi.sourceforge.net/DTD/sodipodi-0.dtd"
   xmlns:inkscape="http://www.inkscape.org/namespaces/inkscape"
   version="1.1"
   width="551.46814"
   height="434.63028"
   id="svg3006"
   sodipodi:docname="logo.svg"
   inkscape:version="0.92.2 (5c3e80d, 2017-08-06)"
   inkscape:export-filename="C:\workspcace\xconch\documents\images\logo.png"
   inkscape:export-xdpi="96"
   inkscape:export-ydpi="96">
  <sodipodi:namedview
     pagecolor="#ffffff"
     bordercolor="#666666"
     borderopacity="1"
     objecttolerance="10"
     gridtolerance="10"
     guidetolerance="10"
     inkscape:pageopacity="0"
     inkscape:pageshadow="2"
     inkscape:window-width="1920"
     inkscape:window-height="1017"
     id="namedview7"
     showgrid="false"
     fit-margin-top="0"
     fit-margin-left="0"
     fit-margin-right="0"
     fit-margin-bottom="0"
     inkscape:zoom="0.42794857"
     inkscape:cx="275.73407"
     inkscape:cy="217.31514"
     inkscape:window-x="-8"
     inkscape:window-y="-8"
     inkscape:window-maximized="1"
     inkscape:current-layer="svg3006" />
  <defs
     id="defs3008" />
  <metadata
     id="metadata3011">
    <rdf:RDF>
      <cc:Work
         rdf:about="">
        <dc:format>image/svg+xml</dc:format>
        <dc:type
           rdf:resource="http://purl.org/dc/dcmitype/StillImage" />
        <dc:title></dc:title>
      </cc:Work>
    </rdf:RDF>
  </metadata>
  <g
     transform="rotate(90,480.72084,250.43563)"
     id="layer1"
     style="fill:#000000">
    <path
       d="m 547.26501,605.59898 c -11.19,8.565 -24.06747,14.415 -37.80372,17.49375 -2.16375,0.48375 -3.7275,2.35125 -3.7275,4.5675 v 95.20914 c 0,2.95761 2.71125,5.14461 5.6175,4.58211 38.20497,-7.38 74.67747,-27.72786 101.33997,-55.96125 1.725,-1.82661 1.6425,-4.70961 -0.1311,-6.48336 l -59.07,-59.06664 c -1.68375,-1.68375 -4.335,-1.78875 -6.225,-0.34125 z m -63.08247,23.745 c 0,-2.45625 -1.905,-4.485 -4.3575,-4.64625 -2.25375,-0.15 -4.50375,-0.3075 -6.7575,-0.47625 l 0.012,-0.31875 c -12.98625,-3.04875 -25.455,-6.35625 -37.32,-12.4725 -1.83375,-0.945 -4.06125,-0.6525 -5.52,0.80625 l -79.28625,79.28964 c -2.1525,2.15361 -1.72875,5.78625 0.9,7.317 38.745,22.55286 83.1375,33.60636 127.83375,32.193 2.5125,-0.0822 4.49625,-2.17389 4.49625,-4.6875 v -97.00464 z m 100.37622,-82.5375 c -2.9175,13.59375 -8.82,26.10375 -16.72125,37.53 -1.30125,1.87875 -1.1175,4.4025 0.495,6.01875 l 57.12,57.11625 c 2.05875,2.05875 5.51625,1.78125 7.1475,-0.63 20.0475,-29.6925 30.09,-63.375 32.30625,-98.8875 0.1686,-2.6775 -1.995,-4.93125 -4.67625,-4.93125 h -71.08875 c -2.23875,0 -4.11375,1.5975 -4.5825,3.78375 z M 271.90254,332.56898 c -32.28,54.8325 -47.66625,121.575 -39.42375,184.8525 0.3,2.32125 2.30625,4.05 4.65,4.05 h 129.9 c 2.67,0 4.83375,-2.23125 4.665,-4.89375 -1.59,-24.79875 4.35375,-50.115 15.55875,-72.28125 0.915,-1.815 0.59625,-4.00125 -0.84,-5.4375 L 279.22629,331.67273 c -2.14875,-2.14875 -5.77875,-1.725 -7.32375,0.89625 z m 390.56247,180.0675 c -7.53,-31.14 -21.01875,-59.4825 -44.55375,-81.5775 -1.86,-1.74375 -4.75125,-1.74 -6.555,0.0639 l -41.0775,41.08125 c -1.65,1.65 -1.86,4.29 -0.4125,6.12375 9.0225,11.4225 14.29875,24.8925 16.39125,39.22125 0.33,2.26875 2.3175,3.9225 4.60875,3.9225 h 67.455 c 2.82,0 4.995,-2.475 4.635,-5.2725 l -0.39,-3.01125 c -0.024,-0.1839 -0.0564,-0.3675 -0.1011,-0.55125 z M 541.91376,455.23523 c 2.17875,1.14 4.26,2.34375 6.27,3.63 1.8225,1.16625 4.21875,0.8325 5.74125,-0.70875 13.0275,-13.19625 26.20125,-26.2575 39.33,-39.36375 2.16375,-2.16 1.69875,-5.77875 -0.92625,-7.35 -24.405,-14.6175 -53.7825,-22.8975 -82.32372,-20.90625 -2.41875,0.1725 -4.27125,2.2425 -4.27125,4.66875 v 46.42125 c 0,2.4825 1.93875,4.5075 4.4175,4.6575 2.10375,0.1275 4.2075,0.33 6.3,0.46875 l -0.009,0.27 c 7.9875,1.1625 18.98247,3.375 25.46997,8.2125 3.29625,1.725 -0.58875,-0.43875 0,0 z m -131.06997,139.0575 c -14.67375,-13.08 -26.085,-29.62125 -32.775,-48.13125 -0.675,-1.8675 -2.415,-3.13875 -4.39875,-3.13875 H 243.09879 c -3.02625,0 -5.295,2.84625 -4.545,5.77875 13.33125,52.05375 44.38125,99.14625 86.7525,132.17625 1.85625,1.4475 4.51125,1.2555 6.1725,-0.40575 l 79.52625,-79.52925 c 1.88625,-1.8825 1.83,-4.97625 -0.1611,-6.75 z m 67.1325,-197.595 c -22.485,7.69875 -42.3525,22.08375 -56.5425,41.2125 -1.365,1.8375 -1.125,4.4175 0.495,6.0375 l 25.7625,25.7625 c 1.90875,1.90875 5.0175,1.8 6.79875,-0.2289 7.22625,-8.25375 16.47,-14.76 26.61375,-18.72375 1.83375,-0.71625 3.07875,-2.4225 3.07875,-4.3875 v -45.23625 c 0,-3.21 -3.16875,-5.475 -6.20625,-4.43625 z m -64.63125,69.09375 c -2.4075,-2.4075 -6.5475,-1.53375 -7.695,1.6725 -4.42125,12.35625 -6.58125,25.3125 -6.75375,38.48625 h -0.045 c 0.36,3.77625 0.54,7.5375 0.915,11.29875 0.2361,2.39625 2.25375,4.2225 4.66125,4.2225 h 27.93375 c 2.62125,0 4.71375,-2.16 4.65375,-4.78125 -0.165,-7.06875 0.70125,-13.9425 2.81625,-20.7525 0.525,-1.69125 0.1275,-3.52875 -1.12125,-4.78125 z m 67.44375,105.04125 c -1.39125,-0.3825 -2.7825,-0.82125 -4.17,-1.31625 -1.66875,-0.59625 -3.5325,-0.1275 -4.785,1.125 l -13.5675,13.5675 c -2.47125,2.475 -1.43625,6.6375 1.875,7.7625 6.10125,2.07375 12.4725,3.45 18.9,4.08375 2.7525,0.27 5.14125,-1.90125 5.14125,-4.66875 v -16.0725 c 0,-2.08875 -1.38,-3.92625 -3.39375,-4.48125 z m 32.1825,-1.3575 c -1.2825,0.52875 -2.595,1.0125 -3.91875,1.425 -1.96875,0.61125 -3.31875,2.4 -3.31875,4.45875 v 12.46875 c 0,3.19875 3.15375,5.5125 6.165,4.43625 4.695,-1.67625 9.21,-3.825 13.425,-6.49125 2.51625,-1.59 2.86125,-5.14125 0.7575,-7.245 l -8.04,-8.04 c -1.335,-1.33125 -3.33,-1.72875 -5.07,-1.0125 z m 26.22747,-23.90625 c -1.12875,2.1825 -2.4225,4.27875 -3.85875,6.27 -1.335,1.84875 -1.12875,4.39125 0.4875,6.0075 l 5.03625,5.03625 c 2.16375,2.1675 5.7825,1.69125 7.34625,-0.94125 2.3925,-4.02 4.41375,-8.34375 5.83875,-12.795 0.9675,-3.02625 -1.2825,-6.12375 -4.45875,-6.12375 h -6.3375 c -1.72875,0 -3.25875,1.0125 -4.05375,2.54625 z m 16.38375,-29.805 c -1.29375,-5.17125 -3.3375,-10.13625 -6.12375,-14.685 -1.5525,-2.535 -5.11875,-2.87625 -7.23,-0.78375 v 0 c -1.37625,1.365 -1.77375,3.4425 -0.9675,5.205 1.70625,3.7275 2.83125,7.70625 3.345,11.82375 0.2925,2.35875 2.25,4.1475 4.6275,4.1475 h 1.785 c 2.99625,0 5.29125,-2.7975 4.56375,-5.7075 z m -103.52997,44.235 c 1.7775,-1.78125 1.80375,-4.62375 0.1086,-6.48 -1.935,-2.11875 -3.70875,-4.38375 -5.31,-6.765 -1.33875,-1.98375 -1.4475,-3.1275 -3.31875,-3.73125 -3.33375,-1.0725 -29.145,0 -29.145,0 -3.58875,0 -5.79375,3.855 -4.06125,7.00125 5.2275,9.4875 12.16125,18.045 20.355,25.12875 1.87125,1.62 4.665,1.5525 6.41625,-0.1986 l 14.955,-14.955 z m 32.13,-369.825 c 0,-2.86875 -2.565,-5.1 -5.39625,-4.62 -35.955,6.09375 -71.76,21.89625 -102.465,40.8375 -33.54375,20.69625 -63.32625,47.8275 -86.83875,79.485 -1.38,1.85625 -1.17,4.45875 0.46875,6.09375 l 106.75875,106.75875 c 1.97625,1.97625 5.2425,1.79625 6.96,-0.40875 19.0875,-24.50625 46.92375,-42.27375 76.9575,-49.93875 2.08125,-0.5325 3.555,-2.37 3.555,-4.51875 z m 51.51747,63.4575 c -2.88375,13.57875 -8.33997,26.3175 -11.53872,39.78375 -5.055,21.28875 -4.7025,44.41875 3.67875,64.77375 1.28625,3.12375 -1.1775,6.51375 -4.54875,6.36 -4.06875,-0.1836 -8.47125,-0.2961 -12.79875,-0.2361 -2.61375,0.0375 -4.75875,-2.05125 -4.75875,-4.66875 V 186.15038 c 0,-2.38125 1.78875,-4.41 4.155,-4.665 7.92,-0.8475 15.84375,-1.32375 23.79372,-1.78875 2.4675,-0.1461 4.6125,1.65375 4.91625,4.10625 0.7575,6.10125 1.56,15.1275 1.56,26.0025 0,14.71125 -1.40625,29.43375 -4.45875,43.82625"
       id="path36"
       style="fill:#000000;fill-opacity:1;fill-rule:nonzero;stroke:none"
       inkscape:connector-curvature="0" />
  </g>
</svg>
