<?xml version="1.0" encoding="UTF-8" standalone="no"?>
<!-- Created with Inkscape (http://www.inkscape.org/) -->

<svg
   xmlns:dc="http://purl.org/dc/elements/1.1/"
   xmlns:cc="http://creativecommons.org/ns#"
   xmlns:rdf="http://www.w3.org/1999/02/22-rdf-syntax-ns#"
   xmlns:svg="http://www.w3.org/2000/svg"
   xmlns="http://www.w3.org/2000/svg"
   version="1.1"
   width="450"
   height="350"
   id="svg2995">
  <defs
     id="defs2997" />
  <metadata
     id="metadata3000">
    <rdf:RDF>
      <cc:Work
         rdf:about="">
        <dc:format>image/svg+xml</dc:format>
        <dc:type
           rdf:resource="http://purl.org/dc/dcmitype/StillImage" />
        <dc:title></dc:title>
      </cc:Work>
    </rdf:RDF>
  </metadata>
  <g
     transform="translate(-176.9733,-191.04566)"
     id="layer1">
    <path
       d="m 323.86693,522.77777 0.1626,-0.008 0.16,-0.0326 c 0.085,-0.02 0.1726,-0.045 0.2575,-0.065 19.9975,-0.925 40.385,-5.07002 57.5,-15.955 l 0.1324,-0.085 0.115,-0.1024 c 0.065,-0.0576 0.1224,-0.1226 0.1874,-0.18 15.3575,-9.8475 29.5675,-22.42002 38.125,-38.81752 l 0.0674,-0.135 0.045,-0.1426 c 0.025,-0.075 0.04,-0.1574 0.065,-0.23252 4.13,-7.98998 7.625,-16.45248 9.8525,-25.21248 16.9525,5.82 32.515,14.185 48.295,21.27498 16.335,7.3325 32.9675,13.30002 51.6125,13.30252 12.335,0.002 25.49748,-2.625 39.8975,-9.09 14.4025,-6.46252 30.05,-16.74246 47.4875,-32.05 l 0.7676,-0.6719 0.018,-1.01998 c 0,-0.012 0,-0.1026 0,-0.2675 0,-2.53252 -0.3275,-22.95252 -10.4725,-52.6975 -10.1375,-29.74126 -30.11,-68.80476 -69.325,-108.53998 -24.14,-24.458 -52.26752,-41.75802 -81.38252,-52.93576 -29.115,-11.18052 -59.21748,-16.24802 -87.365,-16.24802 -36.85998,0.008 -70.38,8.66602 -94.02998,23.88378 l -0.155,0.1018 -0.1374,0.124 c -0.06,0.0544 -0.12,0.117 -0.18,0.1738 -15.26,9.86524 -27.8575,19.713 -38.6075,30.55074 -10.875,10.963 -19.8575,22.9375 -27.805,36.90426 l -0.1126,0.1992 -0.0724,0.21574 c -0.01,0.046 -0.025,0.091 -0.0376,0.1358 -13.3075,23.55676 -21.855,50.3565 -21.8575,77.51076 0,2.07424 0.05,4.1515 0.1526,6.22674 l 0.008,0.1738 0.0376,0.17 c 0.018,0.0888 0.0424,0.1784 0.0624,0.2675 1.3575,26.396 6.78,53.451 21.0125,75.8785 l 0.0924,0.1476 0.1176,0.13 c 0.0576,0.06 0.1176,0.115 0.1726,0.175 13.0675,20.45998 29.5875,39.075 51.2075,50.34746 l 0.1476,0.08 0.1624,0.05 c 0.0824,0.0276 0.1726,0.05 0.255,0.0774 18.3425,9.49 38.58752,16.465 59.4225,16.47252 1.3125,-0.002 2.6275,-0.03 3.9425,-0.085 z m 55.9225,-19.14 c -12.915,8.1825 -27.9575,12.425 -43.38,14.285 5.32,-3.03752 10.37,-7.18248 14.6825,-12.08498 3.77,-4.29502 6.965,-9.17502 9.225,-14.42502 0.5475,-1.265 1.035,-2.55496 1.4675,-3.86248 l 1.2025,-0.255 c 1.275,-0.27 2.0875,-1.52252 1.815,-2.80002 -0.1924,-0.905 -0.885,-1.56998 -1.725,-1.785 0.535,-2.6 0.835,-5.25 0.835,-7.9325 0,-2.515 -0.255,-5.0525 -0.795,-7.585 -2.18,-10.32998 -6.9325,-16.83998 -12.0725,-20.7425 -1.6875,-1.29 -3.4075,-2.27498 -5.08,-3.0675 3.61,-0.88 7.1,-2.2525 10.3275,-4.1225 2.1125,-0.875 5.27,-1.8225 8.9925,-1.82 2.79,0.002 5.8925,0.5225 9.19252,2.0025 3.2975,1.48252 6.8025,3.9325 10.35,7.87 5.72748,6.36002 8.2,14.73752 8.2025,23.3825 0.002,6.41252 -1.3725,12.94 -3.7425,18.7275 -2.3425,5.735 -5.6675,10.73252 -9.4975,14.215 z m -43.11,-62.9175 -0.22498,0 c -4.155,0 -8.3,-0.6975 -12.2525,-2.00252 2.4275,-0.42248 4.84998,-1.2525 7.03998,-2.50498 1.155,-0.6575 2.2375,-1.445 3.2175,-2.34 0.4275,0.105 0.8725,-0.1274 1.01,-0.555 0.0526,-0.155 0.0424,-0.30752 0.004,-0.45498 1.3275,-1.4525 2.39,-3.15248 3.03,-5.11502 0.5525,-1.70748 0.7925,-3.26746 0.7925,-4.67498 0,-2.1725 -0.585,-3.96 -1.3775,-5.36752 0.9925,0.215 1.9975,0.35004 3.0125,0.3525 0.97,0.13 2.425,0.5 3.7725,1.53502 1.3625,1.0475 2.6725,2.75252 3.3275,5.80502 0.15,0.7025 0.22252,1.4075 0.22252,2.1075 0.004,3.245 -1.54,6.4975 -3.82752,9.08 -1.56998,1.77748 -3.49,3.2075 -5.3975,4.1175 -0.615,0.0424 -1.23,0.0574 -1.84998,0.07 -0.0774,-0.01 -0.165,-0.0276 -0.24002,-0.0374 l -0.13,-0.018 -0.13,0.002 z m -18.01,-13.12752 c 0.34502,0.375 0.9275,0.40252 1.3075,0.0624 0.145,-0.1324 0.2275,-0.30252 0.2675,-0.48 2.045,-0.6475 3.9725,-1.68 5.6425,-3.18 1.895,-1.70502 3.1475,-3.465 3.915,-5.175 0.7525,-1.67 1.0325,-3.28 1.045,-4.7175 0.8225,0.75 1.71,1.4325 2.675,1.9975 0.66,0.5 1.53,1.31 2.2225,2.45 0.695,1.145 1.225,2.6075 1.2275,4.5225 0,1.145 -0.195,2.4575 -0.68,3.955 -1.0025,3.0925 -3.3025,5.505 -6.2025,7.1675 -2.8925,1.6575 -6.36,2.5275 -9.475,2.525 -0.5175,0 -1.0125,-0.0324 -1.5,-0.0774 -0.575,-0.28 -1.1325,-0.58502 -1.69,-0.89002 -0.06,-0.0474 -0.13,-0.105 -0.19,-0.15 l -0.1076,-0.085 -0.1176,-0.065 c -4.1425,-2.3575 -7.8675,-5.435 -11.0175,-9.02248 2.645,1.01248 5.55,1.615 8.4575,1.615 1.42,0 2.835,-0.1526 4.22,-0.4525 z m 85.1725,-39.60496 c -0.6,0.1278 -1.0575,0.539 -1.275,1.0615 -1.995,-0.41326 -4.0325,-0.64374 -6.0925,-0.6445 -1.9175,-0.002 -3.86,0.1922 -5.795,0.60424 -7.8775,1.66224 -12.8675,5.29876 -15.8625,9.24126 -0.825,1.0825 -1.4875,2.1775 -2.0375,3.2575 -0.675,-2.505 -1.67,-4.9175 -2.975,-7.175 -0.65248,-1.58 -1.35998,-3.937 -1.35998,-6.71426 0.002,-2.08 0.39,-4.3945 1.49498,-6.8595 1.11,-2.46474 2.94252,-5.09074 5.90002,-7.75474 4.765,-4.291 11.045,-6.1485 17.55,-6.1505 4.81998,-0.002 9.73498,1.03224 14.08998,2.8145 3.2725,1.337 6.225,3.09974 8.5975,5.124 0.4875,0.7325 0.9725,1.46974 1.4425,2.213 5.695,8.9385 8.8575,19.2975 10.4125,30.01998 -2.1225,-3.1925 -4.7525,-6.20248 -7.76,-8.84998 -4.0925,-3.59 -8.8975,-6.51176 -14.0825,-8.1965 l -0.13,-0.61426 c -0.205,-0.96474 -1.155,-1.582 -2.1175,-1.37674 z m -62.8125,27.89498 -0.0624,0 c -1.1125,0 -2.2275,-0.165 -3.31,-0.46496 0.5325,-0.1526 1.06,-0.36004 1.5475,-0.64002 0.3575,-0.2025 0.6825,-0.455 0.99,-0.73 l 0.0876,0.03 c 0.145,0.0474 0.305,-0.035 0.35,-0.1826 0.03,-0.0826 0.01,-0.1624 -0.035,-0.23 0.4225,-0.4625 0.755,-1.005 0.955,-1.6275 0.18,-0.55 0.2575,-1.05 0.2575,-1.5025 0.002,-0.8375 -0.265,-1.485 -0.5875,-1.97252 0.4,0.105 0.805,0.1626 1.1875,0.1826 0.335,0.045 0.85,0.17 1.33,0.5325 0.4775,0.365 0.93,0.955 1.1525,1.9875 0.05,0.2375 0.0726,0.48 0.0726,0.7175 0.002,1.10748 -0.5225,2.205 -1.2925,3.0725 -0.2325,0.2625 -0.49,0.49498 -0.7575,0.71 -0.5025,0.0876 -1.0025,0.1424 -1.5075,0.1624 -0.0776,-0.012 -0.1626,-0.0276 -0.235,-0.0374 l -0.0674,-0.01 -0.075,0.002 z m -5.9575,-3.91 0.03,0.0374 c 0.115,0.125 0.3075,0.135 0.435,0.0224 0.0576,-0.0524 0.0824,-0.1224 0.0924,-0.1924 0.6625,-0.21498 1.29,-0.545 1.8325,-1.0325 1.24,-1.11248 1.62,-2.3125 1.615,-3.275 0,-0.0374 -0.008,-0.0674 -0.008,-0.105 0.2875,0.2775 0.6075,0.525 0.9525,0.73 0.45,0.345 1.18,1.0875 1.18,2.3775 0,0.3825 -0.06,0.82 -0.22498,1.315 -0.33502,1.04 -1.10752,1.85 -2.07502,2.4025 -0.72498,0.415 -1.55748,0.6825 -2.3675,0.7875 -0.49,-0.1874 -0.96498,-0.4025 -1.43248,-0.6475 -0.0526,-0.0476 -0.115,-0.1024 -0.1676,-0.1426 l -0.0624,-0.0474 -0.0674,-0.0374 c -1.0775,-0.615 -2.06752,-1.39002 -2.94002,-2.2775 0.6025,0.15 1.2275,0.2425 1.8575,0.2425 0.4525,0 0.905,-0.0624 1.35,-0.1574 z m 11.815,-28.03774 0.1324,-10e-4 c 2.05,0 4.1,0.3105 6.07752,0.88076 -1.0825,0.2725 -2.14752,0.68274 -3.12752,1.24424 -0.68498,0.3895 -1.3275,0.85626 -1.905,1.3895 -0.21498,-0.012 -0.42,0.1132 -0.49,0.32826 -0.02,0.0624 -0.0274,0.127 -0.0224,0.1884 -0.78,0.84474 -1.405,1.83774 -1.78,2.98524 -0.3175,0.9765 -0.45498,1.86976 -0.45498,2.67976 0,1.2225 0.325,2.24 0.7625,3.05 -0.51502,-0.1024 -1.04,-0.175 -1.57,-0.1776 -0.555,-0.07 -1.405,-0.285 -2.1925,-0.88 -0.78502,-0.6 -1.5375,-1.5675 -1.9125,-3.31 -0.085,-0.40026 -0.125,-0.80376 -0.125,-1.202 -0.002,-1.84976 0.8775,-3.71 2.185,-5.1855 0.68,-0.7705 1.48,-1.42876 2.3025,-1.92876 0.545,-0.0616 1.0975,-0.0998 1.6475,-0.1152 0.0874,0.012 0.1826,0.0312 0.2675,0.041 l 0.1,0.012 0.105,0 z m 10.2175,7.04676 c -0.1974,-0.128 -0.46,-0.121 -0.645,0.045 -0.0526,0.0478 -0.0926,0.1046 -0.12,0.164 -1.2075,0.375 -2.34752,0.9745 -3.3325,1.8595 -2.11,1.88752 -2.81752,3.94002 -2.86,5.6225 -0.425,-0.3875 -0.88,-0.7475 -1.3825,-1.04748 l 0,0 c -0.375,-0.28502 -0.8775,-0.75252 -1.275,-1.40502 -0.3975,-0.65748 -0.705,-1.49748 -0.705,-2.58998 0,-0.645 0.105,-1.3825 0.3825,-2.2255 0.5675,-1.753 1.8775,-3.126 3.53,-4.07326 1.6275,-0.93574 3.58,-1.42674 5.3425,-1.43574 0.515,0.23048 1.0225,0.47848 1.515,0.74424 0.07,0.0566 0.145,0.119 0.215,0.171 l 0.0876,0.0642 0.09,0.0558 c 2.0425,1.15828 3.9,2.6405 5.52,4.34476 -1.2325,-0.36324 -2.535,-0.56748 -3.83752,-0.57126 -0.8475,-0.002 -1.69748,0.0908 -2.525,0.27728 z m -15.63,-5.9315 c -0.9475,1.07324 -1.715,2.3455 -2.145,3.7235 -0.1774,0.086 -0.295,0.28224 -0.25,0.48826 0.012,0.0596 0.04,0.1152 0.0726,0.1632 -0.1226,0.54876 -0.1924,1.11326 -0.1924,1.6855 0,0.48924 0.0474,0.98226 0.1524,1.47698 0.4225,2.01002 1.375,3.3125 2.41,4.09002 0.1524,0.1174 0.3125,0.20248 0.4675,0.2975 -0.465,0.155 -0.92,0.34248 -1.35,0.585 -0.38,0.16 -0.9625,0.335 -1.6475,0.335 -0.99748,-0.01 -2.2175,-0.3475 -3.515,-1.775 -1.02,-1.135 -1.47,-2.63752 -1.47,-4.21174 -0.008,-1.46976 0.4,-2.9795 1.04498,-4.21576 0.43252,-0.32224 0.875,-0.62302 1.33002,-0.90624 0.085,-0.0342 0.18,-0.0684 0.2625,-0.1036 l 0.09,-0.0372 0.0824,-0.0498 c 1.6125,-0.94326 3.37,-1.6435 5.19,-2.1025 -0.1826,0.1788 -0.36,0.36324 -0.5325,0.55674 z m -8.645,6.85824 c 0,0.64176 0.0676,1.28676 0.2125,1.91426 -0.1026,0.1474 -0.115,0.3425 0.01,0.485 0.04,0.04 0.09,0.04 0.14,0.0624 0.27998,0.92 0.73498,1.7875 1.41,2.5375 1.4425,1.6125 3.015,2.1425 4.29,2.16 -0.3,0.34 -0.58,0.7 -0.8125,1.0925 l 0,-0.002 c -0.445,0.57752 -1.3925,1.5125 -3.0525,1.51502 -0.49252,0 -1.05502,-0.0824 -1.6975,-0.2925 -1.34,-0.435 -2.3875,-1.4325 -3.11,-2.69002 -0.635,-1.1125 -0.9875,-2.4175 -1.065,-3.64248 0.2075,-0.495 0.435,-0.975 0.6825,-1.4375 0.045,-0.0624 0.1124,-0.1326 0.1574,-0.195 l 0.0576,-0.0724 0.0426,-0.0774 c 0.835,-1.465 1.8875,-2.80298 3.1,-3.98474 -0.23,0.85074 -0.3625,1.7385 -0.365,2.628 z m -3.505,7.29426 c 0.285,0.5025 0.645,0.96 1.0325,1.385 -0.05,0.1874 0.0476,0.3875 0.235,0.4475 0.06,0.02 0.1176,-0.002 0.1724,-0.014 0.64,0.58748 1.38,1.0625 2.2425,1.3425 0.7375,0.24 1.4125,0.3425 2.02,0.3425 0.9775,0 1.76,-0.26752 2.3825,-0.62002 -0.0926,0.42252 -0.15,0.85248 -0.155,1.285 -0.0576,0.425 -0.22,1.07752 -0.68,1.68 -0.46,0.6025 -1.2075,1.1825 -2.535,1.4675 -0.3075,0.0674 -0.615,0.0974 -0.925,0.0974 -1.415,0.002 -2.835,-0.67252 -3.96,-1.67002 -0.4875,-0.42998 -0.9,-0.92248 -1.25,-1.435 -0.0726,-0.51498 -0.0976,-1.03746 -0.11,-1.55746 0.008,-0.0726 0.0224,-0.1526 0.0324,-0.2225 l 0.008,-0.085 0,-0.1726 c -0.002,-1.375 0.2175,-2.885 0.625,-4.37002 0.2025,0.7275 0.485,1.44 0.865,2.10002 z m -0.76,6.41 c 0.7975,0.70498 1.7375,1.27748 2.7575,1.6025 0.04,0.175 0.2175,0.29 0.395,0.2525 0.065,-0.014 0.105,-0.06 0.15,-0.105 0.41,0.0924 0.8275,0.1424 1.2475,0.1424 0.37,0 0.7375,-0.0376 1.11,-0.115 1.5075,-0.3175 2.48,-1.02998 3.06,-1.8025 0.1176,-0.155 0.21,-0.3125 0.3,-0.4675 0.12,0.3975 0.2775,0.78252 0.4825,1.14002 0.1226,0.2925 0.2625,0.74498 0.2625,1.2725 -0.004,0.775 -0.275,1.7225 -1.37,2.71748 -0.875,0.78752 -2.0325,1.13002 -3.2375,1.13002 -0.9875,0.004 -1.9875,-0.2375 -2.8625,-0.6275 -0.3275,-0.4125 -0.62,-0.84752 -0.895,-1.2925 -0.025,-0.0624 -0.0526,-0.14 -0.0776,-0.20002 l -0.03,-0.0776 -0.04,-0.07 c -0.695,-1.18498 -1.2075,-2.47248 -1.5525,-3.80748 0.1026,0.1 0.19,0.21 0.3,0.30748 z m 18.9975,10.63998 0,0 c 0.66,-0.27748 1.6775,-0.58498 2.8725,-0.58498 1.7425,0.014 3.8725,0.605 6.1325,3.1 1.7875,1.98 2.5675,4.6025 2.5675,7.3525 0.002,2.0675 -0.45,4.19 -1.22,6.0675 -0.38,0.93 -0.845,1.8 -1.3625,2.5725 -0.4975,0.335 -1.01,0.6525 -1.5225,0.9625 -0.08,0.0324 -0.1676,0.065 -0.25,0.1 l -0.115,0.045 -0.1126,0.065 c -3.2325,1.8975 -6.7875,3.2475 -10.4675,4.0375 0.695,-0.5975 1.355,-1.2425 1.9725,-1.9375 1.6425,-1.8575 2.9725,-4.05 3.72,-6.425 0.36,-0.1274 0.5875,-0.495 0.505,-0.88 -0.0276,-0.13 -0.0926,-0.235 -0.17,-0.33 0.2075,-0.9425 0.3225,-1.91 0.3225,-2.8925 0,-0.8475 -0.085,-1.705 -0.2675,-2.56 -0.73498,-3.49 -2.365,-5.7425 -4.1375,-7.0875 -0.285,-0.215 -0.57,-0.4025 -0.8525,-0.5725 0.825,-0.27 1.62752,-0.605 2.385,-1.0325 z m 13.6075,9.8675 c 0,-1.1025 -0.1176,-2.20748 -0.355,-3.285 0.2075,-0.26252 0.2125,-0.6425 -0.0224,-0.9 -0.075,-0.085 -0.1726,-0.1424 -0.27,-0.18 -0.495,-1.57498 -1.2825,-3.065 -2.44,-4.3525 -2.495,-2.7925 -5.21,-3.715 -7.4225,-3.76 0.52,-0.585 1,-1.21 1.4025,-1.885 0.3775,-0.495 0.9925,-1.15498 1.86,-1.685 0.8675,-0.52748 1.9775,-0.9325 3.43,-0.9375 0.855,0 1.83,0.145 2.9475,0.5075 2.32,0.7525 4.1375,2.4825 5.39,4.6675 1.25,2.17752 1.9025,4.79252 1.9025,7.1425 0,0.1324 -0.0224,0.2525 -0.0276,0.385 -0.275,0.64 -0.57,1.27 -0.88,1.8875 -0.03,0.04 -0.0624,0.0824 -0.0926,0.12 l -0.0974,0.1276 -0.075,0.1424 c -1.5275,2.9725 -3.71,5.61 -6.2775,7.875 0.6475,-1.86 1.0275,-3.86 1.0275,-5.87 z m 6.16,-12.75248 c -0.51,-0.8925 -1.1175,-1.73254 -1.8175,-2.49252 0.025,-0.295 -0.1376,-0.57748 -0.43,-0.6725 -0.0926,-0.03 -0.185,-0.0374 -0.275,-0.025 -1.11,-1.02252 -2.415,-1.8425 -3.9225,-2.33502 -1.2875,-0.4175 -2.465,-0.59998 -3.5325,-0.59998 -1.62,0 -2.96,0.43248 -4.0325,1.00998 0.1426,-0.6925 0.235,-1.39498 0.245,-2.1025 l 0,0 c 0.0926,-0.73 0.375,-1.855 1.16,-2.89 0.7875,-1.03748 2.0675,-2.02998 4.365,-2.52248 0.53,-0.115 1.06,-0.1676 1.59,-0.1676 2.445,-0.004 4.8975,1.1575 6.8475,2.88498 1.185,1.0475 2.1675,2.3 2.8525,3.5725 0.055,0.5875 0.0876,1.1775 0.1026,1.77 -0.012,0.0826 -0.03,0.18 -0.0426,0.26 l -0.012,0.1176 0,0.245 c 0.004,2.63 -0.5125,5.525 -1.3775,8.3775 -0.3575,-1.53 -0.925,-3.0425 -1.72,-4.43 z m 1.355,-11.22 c -1.4175,-1.255 -3.1,-2.27 -4.9225,-2.835 -0.115,-0.24002 -0.36998,-0.38752 -0.64248,-0.3275 -0.0774,0.014 -0.1476,0.0474 -0.21252,0.0924 -0.72498,-0.165 -1.47,-0.255 -2.2275,-0.255 -0.6475,0 -1.29998,0.0624 -1.9525,0.205 -2.655,0.55498 -4.3725,1.8125 -5.3975,3.1775 -0.14,0.185 -0.24,0.3725 -0.3575,0.56 -0.2,-0.60002 -0.45,-1.185 -0.785,-1.735 -0.205,-0.5025 -0.4375,-1.2675 -0.4375,-2.1625 0.008,-1.31 0.45,-2.91252 2.3325,-4.62002 1.495,-1.34498 3.475,-1.935 5.5475,-1.935 2.155,-0.008 4.3675,0.665 6.085,1.685 0.33,0.46752 0.6475,0.94 0.9425,1.42502 0.0324,0.0824 0.065,0.17 0.1,0.2475 l 0.04,0.1024 0.06,0.0976 c 1.335,2.27752 2.3,4.76752 2.905,7.34498 -0.3425,-0.36998 -0.6975,-0.72748 -1.0775,-1.06746 z m 40.055,-35.5585 c -4.7475,-1.9395 -10.055,-3.0615 -15.35,-3.0645 -2.41,0 -4.8225,0.24224 -7.1725,0.74424 l -0.3275,-0.3635 c -0.6,-0.66774 -1.6325,-0.7225 -2.2975,-0.119 -0.3875,0.3495 -0.545,0.84076 -0.51,1.32326 -3.43248,1.12874 -6.6625,2.8965 -9.4675,5.42 -3.2625,2.9345 -5.4,5.948 -6.71,8.865 -1.31,2.918 -1.7875,5.72874 -1.785,8.22372 0,0.27628 0.016,0.54302 0.025,0.80952 -1.6375,-1.61324 -3.48,-3.02324 -5.485,-4.1795 -1.17,-0.8995 -2.7025,-2.33324 -3.9375,-4.3615 -1.24,-2.05174 -2.1925,-4.6895 -2.2,-8.11124 0,-2.046 0.345,-4.37898 1.21,-7.03424 1.7975,-5.53026 5.88752,-9.84474 11,-12.80274 5.09752,-2.952 11.1875,-4.498 16.69002,-4.494 1.52,0 2.9825,0.1308 4.375,0.36224 0.8375,0.40826 1.6675,0.82526 2.49,1.25476 8.35998,4.3535 15.4425,10.884 21.46,18.421 -0.65752,-0.3145 -1.32502,-0.61426 -2.0075,-0.8935 z m -44.6025,-17.40626 c -1.91,1.1035 -3.7025,2.411 -5.335,3.8885 l -0.355,-0.1142 c -0.7775,-0.25374 -1.615,0.174 -1.8725,0.95326 -0.135,0.42874 -0.0576,0.86324 0.16,1.22274 -2.205,2.46276 -3.96,5.33776 -5.0325,8.624 -0.9525,2.94126 -1.3625,5.61226 -1.36,8.0185 -0.004,4.02826 1.1525,7.289 2.665,9.7655 0.0226,0.043 0.05,0.0812 0.0776,0.1222 -1.9775,-0.49824 -4.01752,-0.7695 -6.06502,-0.7695 l -0.0374,0 c -1.7325,-0.2335 -4.325,-0.9005 -6.74,-2.74324 -2.4475,-1.881 -4.78748,-4.95026 -5.9425,-10.34976 -0.27,-1.2675 -0.3975,-2.536 -0.3975,-3.79874 -0.004,-5.78026 2.6975,-11.5245 6.695,-16.07526 3.115,-3.5555 7.01,-6.332 10.8275,-7.86024 0.98,-0.0702 1.965,-0.1318 2.95,-0.1728 0.7075,-0.0312 1.4125,-0.047 2.1175,-0.047 7.6625,-0.004 15.29,1.7715 22.63002,4.59374 -5.1025,0.48926 -10.35752,2.07226 -14.985,4.74226 z m -25.8225,-3.26074 c -2.76,3.1475 -5,6.8485 -6.2825,10.84674 l -0.24,0.0508 c -0.73,0.1562 -1.195,0.875 -1.04,1.60626 0.0826,0.375 0.31,0.67774 0.615,0.86424 -0.3225,1.54198 -0.5025,3.11526 -0.505,4.712 0,1.46676 0.15,2.95026 0.4625,4.43174 1.2675,6.00676 4.05,9.83776 7.075,12.13376 0.69,0.52526 1.39,0.96276 2.0775,1.34076 -1.7375,0.50674 -3.4175,1.21298 -4.9925,2.12124 -1.18,0.48626 -2.9375,1.0135 -5.01,1.0115 -1.5525,0 -3.2775,-0.288 -5.12,-1.11524 -1.8375,-0.82702 -3.805,-2.19826 -5.81,-4.42178 -3.1775,-3.52822 -4.555,-8.19048 -4.55748,-13.04198 -0.004,-3.65624 0.7925,-7.39352 2.15,-10.706 0.875,-2.13274 1.99,-4.083 3.255,-5.72852 0.6525,-0.44622 1.3125,-0.88372 1.9825,-1.31348 0.0476,-0.02 0.105,-0.04 0.15,-0.0604 l 0.185,-0.0762 0.1674,-0.1074 c 6.245,-3.9795 13.3675,-6.288 20.82,-7.51076 -1.925,1.43076 -3.745,3.1025 -5.3825,4.963 z m -23.855,8.73424 c -1.4975,3.6515 -2.37,7.7335 -2.3725,11.80576 0,1.82224 0.195,3.64648 0.575,5.42674 l -0.145,0.13 c -0.5075,0.455 -0.5475,1.23326 -0.0924,1.741 0.2225,0.24824 0.525,0.382 0.8375,0.4025 0.85,2.63774 2.19,5.123 4.13002,7.27926 2.23748,2.48624 4.5425,4.124 6.77748,5.128 2.235,1.00374 4.3925,1.369 6.30502,1.368 0.0624,0 0.1226,-0.004 0.19,-0.006 -1.1025,1.167 -2.07752,2.454 -2.885,3.8495 -0.6725,0.87624 -1.74,2.01874 -3.2525,2.93624 -1.53,0.9275 -3.4975,1.64 -6.05502,1.6425 -1.53,0 -3.27748,-0.2575 -5.2725,-0.9075 -4.1275,-1.3375 -7.3425,-4.4065 -9.5525,-8.261 -2.2025,-3.84474 -3.355,-8.44524 -3.3525,-12.59074 0,-0.87126 0.0624,-1.715 0.16,-2.5295 0.3325,-0.69226 0.67498,-1.37976 1.0225,-2.0625 0.035,-0.0418 0.075,-0.0898 0.11,-0.1338 l 0.115,-0.1542 0.09,-0.17 c 3.04492,-5.85146 7.5624,-10.8622 12.7924,-15.18246 -0.0376,0.0968 -0.085,0.1914 -0.125,0.288 z m -13.2,33.9015 c 0.8475,1.48226 1.855,2.874 2.9975,4.13726 l -0.0324,0.105 c -0.1924,0.59 0.13,1.225 0.72,1.4175 0.2675,0.0874 0.54,0.055 0.7775,-0.045 1.885,1.71 4.0925,3.075 6.6275,3.8975 l 0.0224,-0.065 -0.0224,0.0674 c 2.24,0.7275 4.2825,1.04 6.1225,1.04 2.9725,0.002 5.4,-0.825 7.275,-1.925 -0.3375,1.4425 -0.52,2.8925 -0.5225,4.275 -0.1726,1.295 -0.67252,3.23248 -2.04752,5.02998 -1.4025,1.825 -3.69,3.575 -7.74748,4.445 -0.935,0.2 -1.875,0.2925 -2.81,0.2925 -4.325,0.008 -8.65,-2.0475 -12.08,-5.0875 -2.49,-2.195 -4.4725,-4.90498 -5.66,-7.58498 -0.0674,-0.765 -0.1176,-1.53 -0.155,-2.2975 0.008,-0.05 0.012,-0.105 0.02,-0.1526 l 0.025,-0.185 -0.008,-0.185 c -0.025,-0.5175 -0.035,-1.0375 -0.035,-1.555 -0.002,-5.3505 1.18,-10.698 3.08,-15.87776 0.4825,3.51476 1.6375,7.07726 3.4525,10.253 z m -2.45,19.54224 c 2.4125,2.1325 5.255,3.865 8.3325,4.8525 l 0.008,0.0326 c 0.1174,0.5525 0.6625,0.9075 1.215,0.79 0.2275,-0.0476 0.4075,-0.18 0.55,-0.345 1.2075,0.26498 2.4475,0.4125 3.705,0.41498 1.1125,0 2.235,-0.115 3.355,-0.35002 4.58,-0.96746 7.52,-3.09748 9.28,-5.4175 0.33,-0.43248 0.6075,-0.86748 0.86,-1.30248 0.3775,1.2075 0.8775,2.375 1.5125,3.4775 0.3625,0.8775 0.76,2.19248 0.7575,3.735 0,1.1575 -0.215,2.4425 -0.8325,3.8175 -0.62,1.37748 -1.645,2.8475 -3.3175,4.355 -2.6425,2.38 -6.1375,3.415 -9.785,3.4175 -2.745,0 -5.56,-0.5975 -8.0525,-1.62 -1.485,-0.61 -2.8275,-1.3825 -4,-2.24248 -0.355,-0.53254 -0.6925,-1.07502 -1.0225,-1.6225 -0.03,-0.0724 -0.0576,-0.155 -0.0874,-0.22254 l -0.055,-0.1324 -0.0724,-0.12 c -2.6475,-4.51748 -4.3875,-9.52502 -5.405,-14.73252 0.92,1.1325 1.9375,2.22002 3.055,3.215 z m 118.4125,57.9075 c -6.38502,12.19 -16.1725,22.3 -27.34,30.73 1.065,-1.8675 2.0375,-3.835 2.88,-5.895 2.545,-6.23 4.02,-13.2 4.0225,-20.1475 0.002,-3.1 -0.3025,-6.1975 -0.9325,-9.22 l 0.75,-0.6775 c 0.885,-0.795 0.955,-2.155 0.16,-3.03752 -0.54,-0.60248 -1.3425,-0.815 -2.07998,-0.6475 -1.475,-4.46748 -3.7825,-8.6675 -7.06502,-12.3125 -3.84998,-4.27748 -7.7925,-7.07248 -11.605,-8.78248 -3.805,-1.7125 -7.4675,-2.335 -10.7275,-2.3325 -0.5875,0 -1.15498,0.025 -1.71748,0.06 2.36248,-2.25752 4.41,-4.85002 5.95498,-7.78252 1.205,-1.565 3.12,-3.61 5.8225,-5.2525 2.7525,-1.6675 6.2925,-2.945 10.87,-2.94748 2.735,0 5.845,0.46 9.3775,1.60748 7.3875,2.3975 13.1375,7.8625 17.0675,14.66 3.92748,6.7825 5.9775,14.87 5.9775,22.1875 0,3.525 -0.48,6.8625 -1.415,9.79 z m 5,-10.4325 c -0.1174,-7.8 -2.285,-16.1625 -6.435,-23.355 -1.4225,-2.4575 -3.0825,-4.78 -4.975,-6.89 l 0.25,-0.7725 c 0.335,-1.03 -0.2275,-2.135 -1.26,-2.47 -0.6675,-0.215 -1.365,-0.05 -1.8675,0.37 -3.2125,-2.8625 -6.9575,-5.13502 -11.2275,-6.5225 -3.8525,-1.2525 -7.35,-1.785 -10.4925,-1.785 -5.2625,-0.004 -9.5125,1.50498 -12.745,3.475 -0.32,0.195 -0.625,0.3975 -0.925,0.6 0.8475,-2.935 1.3525,-5.935 1.355,-8.805 l 0,-0.016 c 0.31,-2.32 1.1975,-5.8025 3.68,-9.04998 2.515,-3.2825 6.6375,-6.4125 13.82,-7.95 1.695,-0.36 3.39,-0.531 5.075,-0.531 7.7175,-0.008 15.3625,3.596 21.4075,8.911 5.2075,4.55998 9.18,10.36998 11.04,15.94248 1.5125,10.98 -1.6875,23.97 -1.6875,23.97 -1.2675,5.0475 -2.9775,10.0225 -5.0125,14.8775 z m -143.515,-225.04848 c 22.6275,-14.53126 55.3125,-23.05576 91.3625,-23.047 27.5975,0 57.1575,4.97574 85.715,15.9415 28.5575,10.96674 56.105,27.916 79.7475,51.87 38.7,39.21774 58.2975,77.628 68.245,106.78824 9.1775,26.91074 10.12248,45.93324 10.215,50.38822 -16.855,14.69252 -31.885,24.4975 -45.54,30.6225 -13.8775,6.22002 -26.3325,8.68 -38.0075,8.685 -17.6325,0.002 -33.5825,-5.65 -49.725,-12.9 -15.5475,-6.97748 -31.22,-15.41498 -48.6,-21.39996 1.0275,-5.09002 1.6025,-10.2725 1.6025,-15.50752 0,-1.0025 -0.02,-2.0075 -0.065,-3.01498 -0.6625,-15.37752 -3.81,-31.15252 -12.245,-44.424 -7.5425,-11.84976 -17.2325,-22.90052 -29.99,-29.55878 -10.7075,-5.581 -22.5975,-9.7305 -34.93,-9.73624 -0.7725,0 -1.5425,0.016 -2.3175,0.0498 -11.6125,0.50198 -23.4375,2.80076 -33.5625,9.16702 -3.7675,1.55674 -9.38,3.23824 -16.0325,3.23724 -4.9775,-0.002 -10.535,-0.9325 -16.415,-3.57324 -5.885,-2.6445 -12.1075,-7.00578 -18.37,-13.959 -5.095,-5.66 -8.725,-12.19426 -11.0925,-19.23026 -2.3675,-7.03424 -3.46,-14.57326 -3.46,-22.1885 -0.002,-11.3215 2.4225,-22.8115 6.5975,-33.01874 4.1475,-10.1425 10.035,-19 16.86748,-25.19126 z m -38.575,30.32224 c 7.2875,-7.34774 15.465,-14.253 24.845,-21.05574 -2.835,4.34874 -5.3325,9.11324 -7.405,14.17874 -4.3975,10.74698 -6.9425,22.787 -6.9425,34.76476 0,5.16 0.48,10.3105 1.49,15.33774 l -2.1325,1.923 c -1.5425,1.3865 -1.6675,3.75676 -0.28,5.29576 1.17,1.30174 3.0425,1.57924 4.5275,0.79974 0.0324,0.1008 0.06,0.20326 0.0924,0.30276 2.5475,7.5685 6.4875,14.68174 12.04,20.84874 6.635,7.37 13.395,12.15526 19.905,15.079 6.51,2.925 12.755,3.9795 18.3075,3.9785 2.115,0 4.115,-0.162 6.0125,-0.41874 -5.045,4.33974 -9.4825,9.407 -12.65,15.3915 -2.15,2.79874 -5.5725,6.45024 -10.4225,9.39852 -4.9175,2.98522 -11.27,5.2725 -19.4225,5.27522 -4.87,0 -10.3925,-0.82224 -16.6325,-2.8485 -6.5775,-2.13874 -12.4025,-5.627 -17.46,-10.085 -7.5875,-6.6865 -13.4425,-15.57424 -17.3825,-25.24224 -3.945,-9.663 -5.97,-20.0995 -5.9675,-29.794 0,-6.23126 0.83748,-12.15126 2.505,-17.36326 7.7475,-13.576 16.43,-25.13774 26.9725,-35.7665 z m -48.5875,117.6485 c -0.0926,-1.9445 -0.1374,-3.88676 -0.1374,-5.83124 -0.002,-21.6425 5.6375,-43.206 14.915,-63.0195 -0.085,1.42974 -0.14,2.87224 -0.14,4.332 0.008,13.74824 3.79,28.65524 11.1425,41.38574 2.3625,4.092 5.105,7.95226 8.21,11.47076 l -0.7625,2.34774 c -0.5825,1.79676 0.4025,3.7245 2.195,4.3075 1.4725,0.4785 3.025,-0.1082 3.8625,-1.32424 0.075,0.0646 0.145,0.134 0.22,0.20024 5.465,4.82024 11.83,8.6435 19.035,10.9855 6.64,2.157 12.6375,3.06826 18.0125,3.06826 9.005,0.004 16.235,-2.5675 21.7475,-5.92776 1.22748,-0.747 2.36,-1.536 3.4225,-2.34074 -1.76,5.1415 -2.87,10.5185 -2.87,16.031 0,0.505 0.012,1.01 0.03,1.51498 -0.5475,4.1475 -2.13998,10.385 -6.585,16.21 -4.51,5.8875 -11.9125,11.46748 -24.61,14.18248 -3.01,0.63752 -6.025,0.94 -9.0275,0.94 -6.87,0 -13.67,-1.585 -20.0925,-4.355 -9.6375,-4.1475 -18.4175,-10.96 -25.215,-18.895 -6.7575,-7.87746 -11.5325,-16.86196 -13.3525,-25.28272 z m 20.2375,74.48024 c -11.09,-17.53002 -16.6925,-38.2475 -19.1,-59.35498 4.05,7.575 9.835,14.81248 16.775,20.91498 5.63998,4.9525 12.05,9.1475 18.9425,12.115 1.5875,0.685 3.2,1.29498 4.8325,1.8425 l 0.4375,2.05498 c 0.3575,1.68252 2.01,2.75752 3.695,2.40002 1.34,-0.285 2.28,-1.395 2.435,-2.685 3.41,0.705 6.8875,1.09748 10.405,1.09748 3.2925,0 6.6125,-0.335 9.9275,-1.03748 13.5625,-2.87 22.05,-9.0825 27.15,-15.79 1.995,-2.62 3.475,-5.29 4.575,-7.8575 1.105,5.18498 2.9025,10.2225 5.59,14.865 1.1675,2.825 2.445,7.0475 2.44,12.04998 0,3.72502 -0.6975,7.88252 -2.675,12.29 -1.9825,4.41002 -5.2525,9.0825 -10.4875,13.79752 -4.2475,3.825 -9.15,6.55 -14.4425,8.32998 -5.2875,1.77752 -10.9575,2.6025 -16.6925,2.6025 -8.5225,0 -17.185,-1.82748 -24.8725,-4.97248 -7.63,-3.12 -14.29,-7.545 -18.935,-12.6625 z m 49.8625,49.53248 c -16.7575,-8.76998 -30.4775,-22.25748 -41.895,-37.74248 2.925,1.7925 6.0675,3.39002 9.3825,4.7475 8.1775,3.345 17.3375,5.28 26.4575,5.2825 3.9975,0 7.9875,-0.38248 11.88,-1.1775 l 1.19,1.32 c 1.05,1.16752 2.8475,1.26 4.0125,0.21 0.8925,-0.805 1.1525,-2.04748 0.7475,-3.1125 0.0674,-0.02 0.135,-0.0376 0.2,-0.06 5.77,-1.94002 11.2,-4.9475 15.9075,-9.1875 5.615,-5.0525 9.27,-10.21252 11.505,-15.19252 2.235,-4.975 3.045,-9.755 3.0425,-14.005 0,-1.215 -0.0774,-2.3725 -0.1924,-3.4975 3.1925,3.44 6.8775,6.42 10.9625,8.7675 2.0975,1.61 4.845,4.1825 7.06,7.82 2.2325,3.6825 3.9425,8.43 3.945,14.54 0,3.6525 -0.615,7.7975 -2.14,12.4975 -1.605,4.9325 -4.2225,9.3025 -7.5725,13.105 -5.0225,5.7 -11.71,10.1075 -18.995,13.0775 -7.2775,2.97 -15.1425,4.495 -22.44,4.495 -4.695,0 -9.1475,-0.6375 -13.0575,-1.8875 z m 12.24,5.91504 c 0.2725,0.004 0.545,0.014 0.8175,0.014 10.4725,-0.004 21.815,-2.8825 31.51,-8.48 3.17,-1.83502 6.16,-3.96748 8.88,-6.3875 l 1.4225,0.46 c 1.3575,0.4425 2.8175,-0.30252 3.2575,-1.6625 0.33,-1.005 0.004,-2.065 -0.7375,-2.7275 0.045,-0.0474 0.0924,-0.095 0.135,-0.145 3.6775,-4.1675 6.5975,-9.02748 8.385,-14.53 1.6425,-5.05748 2.3375,-9.6375 2.3375,-13.74498 0.006,-6.88002 -1.9625,-12.42 -4.535,-16.64 -0.385,-0.635 -0.7875,-1.23002 -1.1925,-1.80502 3.9775,1.19252 8.12,1.8425 12.29,1.8425 l 0.0976,0 c 3.1,0.4125 7.77,1.6 12.1275,4.9275 4.4,3.375 8.5825,8.9025 10.625,18.45252 0.48,2.2625 0.7075,4.525 0.7075,6.77748 0,5.1525 -1.19,10.26 -3.2725,15.0925 -3.12,7.2475 -8.2525,13.8625 -14.23,18.98 -5.925,5.0825 -12.68,8.6675 -18.9875,10.03502 -1.2,0.0476 -2.3975,0.075 -3.5975,0.075 -15.7475,0.004 -31.32,-4.19 -46.04,-10.53502"
       id="path250-3"
       style="fill:#1561e6;fill-opacity:1;fill-rule:nonzero;stroke:none" />
  </g>
</svg>
