G04 #@! TF.GenerationSoftware,KiCad,Pcbnew,(5.0.0-rc2-dev-107-g49486b83b)*
G04 #@! TF.CreationDate,2018-03-28T00:44:18+08:00*
G04 #@! TF.ProjectId,ebox-basic,65626F782D62617369632E6B69636164,rev?*
G04 #@! TF.SameCoordinates,Original*
G04 #@! TF.FileFunction,Paste,Bot*
G04 #@! TF.FilePolarity,Positive*
%FSLAX46Y46*%
G04 Gerber Fmt 4.6, Leading zero omitted, Abs format (unit mm)*
G04 Created by KiCad (PCBNEW (5.0.0-rc2-dev-107-g49486b83b)) date 03/28/18 00:44:18*
%MOMM*%
%LPD*%
G01*
G04 APERTURE LIST*
%ADD10R,2.400000X0.750000*%
G04 APERTURE END LIST*
D10*
X24450000Y-62265000D03*
X20550000Y-62265000D03*
X24450000Y-60995000D03*
X20550000Y-60995000D03*
X24450000Y-59725000D03*
X20550000Y-59725000D03*
X24450000Y-58455000D03*
X20550000Y-58455000D03*
X24450000Y-57185000D03*
X20550000Y-57185000D03*
X24450000Y-55915000D03*
X20550000Y-55915000D03*
X24450000Y-54645000D03*
X20550000Y-54645000D03*
X24450000Y-53375000D03*
X20550000Y-53375000D03*
X24450000Y-52105000D03*
X20550000Y-52105000D03*
X24450000Y-50835000D03*
X20550000Y-50835000D03*
X24450000Y-49565000D03*
X20550000Y-49565000D03*
X24450000Y-48295000D03*
X20550000Y-48295000D03*
X24450000Y-47025000D03*
X20550000Y-47025000D03*
X24450000Y-45755000D03*
X20550000Y-45755000D03*
X24450000Y-44485000D03*
X20550000Y-44485000D03*
X24450000Y-43215000D03*
X20550000Y-43215000D03*
X24450000Y-41945000D03*
X20550000Y-41945000D03*
X24450000Y-40675000D03*
X20550000Y-40675000D03*
X24450000Y-39405000D03*
X20550000Y-39405000D03*
X24450000Y-38135000D03*
X20550000Y-38135000D03*
X24450000Y-36865000D03*
X20550000Y-36865000D03*
X24450000Y-35595000D03*
X20550000Y-35595000D03*
X24450000Y-34325000D03*
X20550000Y-34325000D03*
X24450000Y-33055000D03*
X20550000Y-33055000D03*
X24450000Y-31785000D03*
X20550000Y-31785000D03*
X24450000Y-30515000D03*
X20550000Y-30515000D03*
X24450000Y-29245000D03*
X20550000Y-29245000D03*
X24450000Y-27975000D03*
X20550000Y-27975000D03*
X24450000Y-26705000D03*
X20550000Y-26705000D03*
X24450000Y-25435000D03*
X20550000Y-25435000D03*
X24450000Y-24165000D03*
X20550000Y-24165000D03*
X24450000Y-22895000D03*
X20550000Y-22895000D03*
X24450000Y-21625000D03*
X20550000Y-21625000D03*
X24450000Y-20355000D03*
X20550000Y-20355000D03*
X24450000Y-19085000D03*
X20550000Y-19085000D03*
X24450000Y-17815000D03*
X20550000Y-17815000D03*
X24450000Y-16545000D03*
X20550000Y-16545000D03*
X24450000Y-15275000D03*
X20550000Y-15275000D03*
X24450000Y-14005000D03*
X20550000Y-14005000D03*
X24450000Y-12735000D03*
X20550000Y-12735000D03*
M02*
