G04 #@! TF.GenerationSoftware,KiCad,Pcbnew,(5.0.0-rc2-dev-107-g49486b83b)*
G04 #@! TF.CreationDate,2018-03-28T00:44:18+08:00*
G04 #@! TF.ProjectId,ebox-basic,65626F782D62617369632E6B69636164,rev?*
G04 #@! TF.SameCoordinates,Original*
G04 #@! TF.FileFunction,Copper,L1,Top,Signal*
G04 #@! TF.FilePolarity,Positive*
%FSLAX46Y46*%
G04 Gerber Fmt 4.6, Leading zero omitted, Abs format (unit mm)*
G04 Created by KiCad (PCBNEW (5.0.0-rc2-dev-107-g49486b83b)) date 03/28/18 00:44:18*
%MOMM*%
%LPD*%
G01*
G04 APERTURE LIST*
%ADD10C,1.600000*%
%ADD11R,2.900000X0.740000*%
%ADD12C,0.800000*%
%ADD13C,6.400000*%
%ADD14R,1.700000X1.700000*%
%ADD15O,1.700000X1.700000*%
%ADD16C,0.200000*%
%ADD17C,0.400000*%
%ADD18C,0.500000*%
%ADD19C,0.250000*%
%ADD20C,0.254000*%
G04 APERTURE END LIST*
D10*
X22500000Y-63839800D03*
X22500000Y-11122100D03*
D11*
X24700000Y-62265000D03*
X20300000Y-62265000D03*
X24700000Y-60995000D03*
X20300000Y-60995000D03*
X24700000Y-59725000D03*
X20300000Y-59725000D03*
X24700000Y-58455000D03*
X20300000Y-58455000D03*
X24700000Y-57185000D03*
X20300000Y-57185000D03*
X24700000Y-55915000D03*
X20300000Y-55915000D03*
X24700000Y-54645000D03*
X20300000Y-54645000D03*
X24700000Y-53375000D03*
X20300000Y-53375000D03*
X24700000Y-52105000D03*
X20300000Y-52105000D03*
X24700000Y-50835000D03*
X20300000Y-50835000D03*
X24700000Y-49565000D03*
X20300000Y-49565000D03*
X24700000Y-48295000D03*
X20300000Y-48295000D03*
X24700000Y-47025000D03*
X20300000Y-47025000D03*
X24700000Y-45755000D03*
X20300000Y-45755000D03*
X24700000Y-44485000D03*
X20300000Y-44485000D03*
X24700000Y-43215000D03*
X20300000Y-43215000D03*
X24700000Y-41945000D03*
X20300000Y-41945000D03*
X24700000Y-40675000D03*
X20300000Y-40675000D03*
X24700000Y-39405000D03*
X20300000Y-39405000D03*
X24700000Y-38135000D03*
X20300000Y-38135000D03*
X24700000Y-36865000D03*
X20300000Y-36865000D03*
X24700000Y-35595000D03*
X20300000Y-35595000D03*
X24700000Y-34325000D03*
X20300000Y-34325000D03*
X24700000Y-33055000D03*
X20300000Y-33055000D03*
X24700000Y-31785000D03*
X20300000Y-31785000D03*
X24700000Y-30515000D03*
X20300000Y-30515000D03*
X24700000Y-29245000D03*
X20300000Y-29245000D03*
X24700000Y-27975000D03*
X20300000Y-27975000D03*
X24700000Y-26705000D03*
X20300000Y-26705000D03*
X24700000Y-25435000D03*
X20300000Y-25435000D03*
X24700000Y-24165000D03*
X20300000Y-24165000D03*
X24700000Y-22895000D03*
X20300000Y-22895000D03*
X24700000Y-21625000D03*
X20300000Y-21625000D03*
X24700000Y-20355000D03*
X20300000Y-20355000D03*
X24700000Y-19085000D03*
X20300000Y-19085000D03*
X24700000Y-17815000D03*
X20300000Y-17815000D03*
X24700000Y-16545000D03*
X20300000Y-16545000D03*
X24700000Y-15275000D03*
X20300000Y-15275000D03*
X24700000Y-14005000D03*
X20300000Y-14005000D03*
X24700000Y-12735000D03*
X20300000Y-12735000D03*
D10*
X22512700Y-11122100D03*
X22500000Y-63839800D03*
D12*
X9197056Y-5802944D03*
X7500000Y-5100000D03*
X5802944Y-5802944D03*
X5100000Y-7500000D03*
X5802944Y-9197056D03*
X7500000Y-9900000D03*
X9197056Y-9197056D03*
X9900000Y-7500000D03*
D13*
X7500000Y-7500000D03*
D12*
X39197056Y-5802944D03*
X37500000Y-5100000D03*
X35802944Y-5802944D03*
X35100000Y-7500000D03*
X35802944Y-9197056D03*
X37500000Y-9900000D03*
X39197056Y-9197056D03*
X39900000Y-7500000D03*
D13*
X37500000Y-7500000D03*
D12*
X9197056Y-65802944D03*
X7500000Y-65100000D03*
X5802944Y-65802944D03*
X5100000Y-67500000D03*
X5802944Y-69197056D03*
X7500000Y-69900000D03*
X9197056Y-69197056D03*
X9900000Y-67500000D03*
D13*
X7500000Y-67500000D03*
D12*
X39197056Y-65802944D03*
X37500000Y-65100000D03*
X35802944Y-65802944D03*
X35100000Y-67500000D03*
X35802944Y-69197056D03*
X37500000Y-69900000D03*
X39197056Y-69197056D03*
X39900000Y-67500000D03*
D13*
X37500000Y-67500000D03*
D14*
X10060000Y-13370000D03*
D15*
X10060000Y-15910000D03*
X10060000Y-18450000D03*
X10060000Y-20990000D03*
X10060000Y-23530000D03*
X10060000Y-26070000D03*
X10060000Y-28610000D03*
X10060000Y-31150000D03*
X10060000Y-33690000D03*
X10060000Y-36230000D03*
X10060000Y-38770000D03*
X10060000Y-41310000D03*
X10060000Y-43850000D03*
X10060000Y-46390000D03*
X10060000Y-48930000D03*
X10060000Y-51470000D03*
X10060000Y-54010000D03*
X10060000Y-56550000D03*
X10060000Y-59090000D03*
X10060000Y-61630000D03*
X114940000Y-13370000D03*
X114940000Y-15910000D03*
X114940000Y-18450000D03*
X114940000Y-20990000D03*
X114940000Y-23530000D03*
X114940000Y-26070000D03*
X114940000Y-28610000D03*
X114940000Y-31150000D03*
X114940000Y-33690000D03*
X114940000Y-36230000D03*
X114940000Y-38770000D03*
X114940000Y-41310000D03*
X114940000Y-43850000D03*
X114940000Y-46390000D03*
X114940000Y-48930000D03*
X114940000Y-51470000D03*
X114940000Y-54010000D03*
X114940000Y-56550000D03*
X114940000Y-59090000D03*
D14*
X114940000Y-61630000D03*
D13*
X117500000Y-7500000D03*
D12*
X119900000Y-7500000D03*
X119197056Y-9197056D03*
X117500000Y-9900000D03*
X115802944Y-9197056D03*
X115100000Y-7500000D03*
X115802944Y-5802944D03*
X117500000Y-5100000D03*
X119197056Y-5802944D03*
X119197056Y-65802944D03*
X117500000Y-65100000D03*
X115802944Y-65802944D03*
X115100000Y-67500000D03*
X115802944Y-69197056D03*
X117500000Y-69900000D03*
X119197056Y-69197056D03*
X119900000Y-67500000D03*
D13*
X117500000Y-67500000D03*
D16*
X111760000Y-7620000D03*
X15240000Y-7620000D03*
X30480000Y-7620000D03*
X101600000Y-7620000D03*
X91440000Y-7620000D03*
X78740000Y-7620000D03*
X68580000Y-7620000D03*
X55880000Y-7620000D03*
X43180000Y-7620000D03*
X121920000Y-58420000D03*
X121920000Y-50800000D03*
X121920000Y-40640000D03*
X121920000Y-33020000D03*
X121920000Y-25400000D03*
X121920000Y-17780000D03*
X2540000Y-58420000D03*
X2540000Y-53340000D03*
X2540000Y-43180000D03*
X2540000Y-35560000D03*
X2540000Y-25400000D03*
X2540000Y-17780000D03*
X121920000Y-10160000D03*
X121920000Y-66040000D03*
X2540000Y-66040000D03*
X2540000Y-10160000D03*
X15240000Y-66040000D03*
X30480000Y-66040000D03*
X43180000Y-66040000D03*
X55880000Y-66040000D03*
X68580000Y-66040000D03*
X78740000Y-66040000D03*
X88900000Y-66040000D03*
X99060000Y-66040000D03*
X111760000Y-66040000D03*
X78740000Y-60960000D03*
X68580000Y-60960000D03*
X55880000Y-60960000D03*
X43180000Y-60960000D03*
X30480000Y-60960000D03*
X78740000Y-53340000D03*
X68580000Y-53340000D03*
X55880000Y-53340000D03*
X43180000Y-53340000D03*
X30480000Y-53340000D03*
X68580000Y-45720000D03*
X78740000Y-45720000D03*
X55880000Y-45720000D03*
X43180000Y-45720000D03*
X30480000Y-45720000D03*
X91440000Y-30480000D03*
X78740000Y-30480000D03*
X68580000Y-30480000D03*
X55880000Y-30480000D03*
X43180000Y-30480000D03*
X30480000Y-30480000D03*
X101600000Y-20320000D03*
X91440000Y-20320000D03*
X78740000Y-20320000D03*
X68580000Y-20320000D03*
X55880000Y-20320000D03*
X43180000Y-20320000D03*
X30480000Y-20320000D03*
D17*
X22860000Y-19050000D03*
X22860000Y-17780000D03*
X22860000Y-16510000D03*
X22860000Y-15240000D03*
X22860000Y-13970000D03*
X22860000Y-12700000D03*
X22098000Y-19050000D03*
X22098000Y-17780000D03*
X22098000Y-16510000D03*
X22098000Y-15240000D03*
X22098000Y-13970000D03*
X22098000Y-12700000D03*
X22098000Y-21590000D03*
X22098000Y-20320000D03*
X22860000Y-20320000D03*
X22860000Y-21590000D03*
X22098000Y-22860000D03*
X22860000Y-22860000D03*
X22098000Y-24130000D03*
X22860000Y-24130000D03*
X22098000Y-25400000D03*
X22860000Y-25400000D03*
X22098000Y-26670000D03*
X22860000Y-26670000D03*
X22098000Y-27940000D03*
X22895000Y-27975000D03*
X22098000Y-29210000D03*
X22860000Y-29210000D03*
X22098000Y-30480000D03*
X22860000Y-30480000D03*
X22098000Y-31750000D03*
X22860000Y-31750000D03*
X22098000Y-33020000D03*
X22860000Y-33020000D03*
X22098000Y-34290000D03*
X22860000Y-34290000D03*
X22063000Y-35595000D03*
X22895000Y-35595000D03*
X22098000Y-36830000D03*
X22860000Y-36830000D03*
X22098000Y-38100000D03*
X22860000Y-38100000D03*
X22098000Y-39370000D03*
X22860000Y-39370000D03*
X22098000Y-40640000D03*
X22860000Y-40640000D03*
X22098000Y-41910000D03*
X22860000Y-41910000D03*
X22098000Y-43180000D03*
X22860000Y-43180000D03*
X22098000Y-44450000D03*
X22860000Y-44450000D03*
X22098000Y-45720000D03*
X22860000Y-45720000D03*
X22098000Y-46990000D03*
X22860000Y-46990000D03*
X22098000Y-48260000D03*
X22860000Y-48260000D03*
X22063000Y-49565000D03*
X22860000Y-49530000D03*
X22063000Y-50835000D03*
X22860000Y-50800000D03*
X22098000Y-52070000D03*
X22895000Y-52105000D03*
X22063000Y-53375000D03*
X22895000Y-53375000D03*
X22098000Y-54610000D03*
X22895000Y-54645000D03*
X22063000Y-55915000D03*
X22860000Y-55880000D03*
X22063000Y-57185000D03*
X22895000Y-57185000D03*
X22098000Y-58420000D03*
X22860000Y-58420000D03*
X22063000Y-59725000D03*
X22895000Y-59725000D03*
X22895000Y-59725000D03*
X22098000Y-60960000D03*
X22860000Y-60960000D03*
X22098000Y-62230000D03*
X22860000Y-62230000D03*
D18*
X22098000Y-12700000D02*
X22860000Y-12700000D01*
X24700000Y-14005000D02*
X22895000Y-14005000D01*
X22895000Y-14005000D02*
X22860000Y-13970000D01*
X20300000Y-14005000D02*
X22063000Y-14005000D01*
X22063000Y-14005000D02*
X22098000Y-13970000D01*
X22860000Y-16510000D02*
X24665000Y-16510000D01*
X24665000Y-16510000D02*
X24700000Y-16545000D01*
X20300000Y-16545000D02*
X22063000Y-16545000D01*
X22063000Y-16545000D02*
X22098000Y-16510000D01*
X22860000Y-17780000D02*
X24665000Y-17780000D01*
X24665000Y-17780000D02*
X24700000Y-17815000D01*
X22098000Y-17780000D02*
X22860000Y-17780000D01*
X20300000Y-17815000D02*
X22063000Y-17815000D01*
X22063000Y-17815000D02*
X22098000Y-17780000D01*
X22860000Y-19050000D02*
X24665000Y-19050000D01*
X24665000Y-19050000D02*
X24700000Y-19085000D01*
X22098000Y-19050000D02*
X22860000Y-19050000D01*
X22098000Y-19050000D02*
X20335000Y-19050000D01*
X20335000Y-19050000D02*
X20300000Y-19085000D01*
X20300000Y-19085000D02*
X24700000Y-19085000D01*
X22860000Y-15240000D02*
X22098000Y-15240000D01*
X22860000Y-15240000D02*
X24665000Y-15240000D01*
X24665000Y-15240000D02*
X24700000Y-15275000D01*
X20300000Y-15275000D02*
X22063000Y-15275000D01*
X22063000Y-15275000D02*
X22098000Y-15240000D01*
X22098000Y-12700000D02*
X20335000Y-12700000D01*
X20335000Y-12700000D02*
X20300000Y-12735000D01*
X20550000Y-12735000D02*
X24450000Y-12735000D01*
X24450000Y-14005000D02*
X20550000Y-14005000D01*
X24450000Y-16545000D02*
X20550000Y-16545000D01*
X20550000Y-17815000D02*
X24450000Y-17815000D01*
D19*
X20300000Y-21625000D02*
X22063000Y-21625000D01*
X22063000Y-21625000D02*
X22098000Y-21590000D01*
X24700000Y-21625000D02*
X22895000Y-21625000D01*
X22895000Y-21625000D02*
X22860000Y-21590000D01*
X20300000Y-22895000D02*
X22063000Y-22895000D01*
X22063000Y-22895000D02*
X22098000Y-22860000D01*
X13680440Y-28254960D02*
X13680440Y-35149560D01*
X13680440Y-35149560D02*
X10060000Y-38770000D01*
X18404840Y-23530560D02*
X13680440Y-28254960D01*
X22189440Y-23530560D02*
X18404840Y-23530560D01*
X22860000Y-22860000D02*
X22189440Y-23530560D01*
X24700000Y-22895000D02*
X22895000Y-22895000D01*
X22895000Y-22895000D02*
X22860000Y-22860000D01*
D18*
X24450000Y-19085000D02*
X20550000Y-19085000D01*
X20550000Y-15275000D02*
X24450000Y-15275000D01*
D19*
X22063000Y-20355000D02*
X22098000Y-20320000D01*
X20550000Y-20355000D02*
X22063000Y-20355000D01*
X22860000Y-20320000D02*
X24415000Y-20320000D01*
X24415000Y-20320000D02*
X24450000Y-20355000D01*
X22860000Y-21590000D02*
X24415000Y-21590000D01*
X24415000Y-21590000D02*
X24450000Y-21625000D01*
X22098000Y-22860000D02*
X20585000Y-22860000D01*
X20585000Y-22860000D02*
X20550000Y-22895000D01*
X24450000Y-22895000D02*
X22895000Y-22895000D01*
X22063000Y-24165000D02*
X22098000Y-24130000D01*
X20550000Y-24165000D02*
X22063000Y-24165000D01*
X22860000Y-24130000D02*
X24415000Y-24130000D01*
X24415000Y-24130000D02*
X24450000Y-24165000D01*
X22098000Y-25400000D02*
X20585000Y-25400000D01*
X20585000Y-25400000D02*
X20550000Y-25435000D01*
X22895000Y-25435000D02*
X22860000Y-25400000D01*
X24450000Y-25435000D02*
X22895000Y-25435000D01*
X22063000Y-26705000D02*
X22098000Y-26670000D01*
X20550000Y-26705000D02*
X22063000Y-26705000D01*
X22860000Y-26670000D02*
X24415000Y-26670000D01*
X24415000Y-26670000D02*
X24450000Y-26705000D01*
X22063000Y-27975000D02*
X22098000Y-27940000D01*
X20550000Y-27975000D02*
X22063000Y-27975000D01*
X24450000Y-27975000D02*
X22895000Y-27975000D01*
X22098000Y-29210000D02*
X20585000Y-29210000D01*
X20585000Y-29210000D02*
X20550000Y-29245000D01*
X22895000Y-29245000D02*
X22860000Y-29210000D01*
X24450000Y-29245000D02*
X22895000Y-29245000D01*
X22063000Y-30515000D02*
X22098000Y-30480000D01*
X20550000Y-30515000D02*
X22063000Y-30515000D01*
X22860000Y-30480000D02*
X24415000Y-30480000D01*
X24415000Y-30480000D02*
X24450000Y-30515000D01*
X22098000Y-31750000D02*
X20585000Y-31750000D01*
X20585000Y-31750000D02*
X20550000Y-31785000D01*
X22895000Y-31785000D02*
X22860000Y-31750000D01*
X24450000Y-31785000D02*
X22895000Y-31785000D01*
X22098000Y-33020000D02*
X20585000Y-33020000D01*
X20585000Y-33020000D02*
X20550000Y-33055000D01*
X22895000Y-33055000D02*
X22860000Y-33020000D01*
X24450000Y-33055000D02*
X22895000Y-33055000D01*
X22098000Y-34290000D02*
X20585000Y-34290000D01*
X20585000Y-34290000D02*
X20550000Y-34325000D01*
X22895000Y-34325000D02*
X22860000Y-34290000D01*
X24450000Y-34325000D02*
X22895000Y-34325000D01*
X20550000Y-35595000D02*
X22063000Y-35595000D01*
X24450000Y-35595000D02*
X22895000Y-35595000D01*
X22098000Y-36830000D02*
X20585000Y-36830000D01*
X20585000Y-36830000D02*
X20550000Y-36865000D01*
X22895000Y-36865000D02*
X22860000Y-36830000D01*
X24450000Y-36865000D02*
X22895000Y-36865000D01*
X22098000Y-38100000D02*
X20585000Y-38100000D01*
X20585000Y-38100000D02*
X20550000Y-38135000D01*
X22895000Y-38135000D02*
X22860000Y-38100000D01*
X24450000Y-38135000D02*
X22895000Y-38135000D01*
X22098000Y-39370000D02*
X20585000Y-39370000D01*
X20585000Y-39370000D02*
X20550000Y-39405000D01*
X22895000Y-39405000D02*
X22860000Y-39370000D01*
X24450000Y-39405000D02*
X22895000Y-39405000D01*
X22098000Y-40640000D02*
X20585000Y-40640000D01*
X20585000Y-40640000D02*
X20550000Y-40675000D01*
X22895000Y-40675000D02*
X22860000Y-40640000D01*
X24450000Y-40675000D02*
X22895000Y-40675000D01*
X22098000Y-41910000D02*
X20585000Y-41910000D01*
X20585000Y-41910000D02*
X20550000Y-41945000D01*
X22895000Y-41945000D02*
X22860000Y-41910000D01*
X24450000Y-41945000D02*
X22895000Y-41945000D01*
X22098000Y-43180000D02*
X20585000Y-43180000D01*
X20585000Y-43180000D02*
X20550000Y-43215000D01*
X22895000Y-43215000D02*
X22860000Y-43180000D01*
X24450000Y-43215000D02*
X22895000Y-43215000D01*
X22098000Y-44450000D02*
X20585000Y-44450000D01*
X20585000Y-44450000D02*
X20550000Y-44485000D01*
X22895000Y-44485000D02*
X22860000Y-44450000D01*
X24450000Y-44485000D02*
X22895000Y-44485000D01*
X22098000Y-45720000D02*
X20585000Y-45720000D01*
X20585000Y-45720000D02*
X20550000Y-45755000D01*
X22860000Y-45720000D02*
X24415000Y-45720000D01*
X24415000Y-45720000D02*
X24450000Y-45755000D01*
X22063000Y-47025000D02*
X22098000Y-46990000D01*
X20550000Y-47025000D02*
X22063000Y-47025000D01*
X22895000Y-47025000D02*
X22860000Y-46990000D01*
X24450000Y-47025000D02*
X22895000Y-47025000D01*
X22098000Y-48260000D02*
X20585000Y-48260000D01*
X20585000Y-48260000D02*
X20550000Y-48295000D01*
X22895000Y-48295000D02*
X22860000Y-48260000D01*
X24450000Y-48295000D02*
X22895000Y-48295000D01*
X20550000Y-49565000D02*
X22063000Y-49565000D01*
X22895000Y-49565000D02*
X22860000Y-49530000D01*
X24450000Y-49565000D02*
X22895000Y-49565000D01*
X20550000Y-50835000D02*
X22063000Y-50835000D01*
X22860000Y-50800000D02*
X24415000Y-50800000D01*
X24415000Y-50800000D02*
X24450000Y-50835000D01*
X22098000Y-52070000D02*
X20585000Y-52070000D01*
X20585000Y-52070000D02*
X20550000Y-52105000D01*
X24450000Y-52105000D02*
X22895000Y-52105000D01*
X20550000Y-53375000D02*
X22063000Y-53375000D01*
X22895000Y-53375000D02*
X24450000Y-53375000D01*
X22098000Y-54610000D02*
X20585000Y-54610000D01*
X20585000Y-54610000D02*
X20550000Y-54645000D01*
X24450000Y-54645000D02*
X22895000Y-54645000D01*
X20550000Y-55915000D02*
X22063000Y-55915000D01*
X22860000Y-55880000D02*
X24415000Y-55880000D01*
X24415000Y-55880000D02*
X24450000Y-55915000D01*
X20550000Y-57185000D02*
X22063000Y-57185000D01*
X22895000Y-57185000D02*
X24450000Y-57185000D01*
X22098000Y-58420000D02*
X20585000Y-58420000D01*
X20585000Y-58420000D02*
X20550000Y-58455000D01*
X22895000Y-58455000D02*
X22860000Y-58420000D01*
X24450000Y-58455000D02*
X22895000Y-58455000D01*
X20550000Y-59725000D02*
X22063000Y-59725000D01*
X24450000Y-59725000D02*
X22895000Y-59725000D01*
X22063000Y-60995000D02*
X22098000Y-60960000D01*
X20550000Y-60995000D02*
X22063000Y-60995000D01*
X22860000Y-60960000D02*
X24415000Y-60960000D01*
X24415000Y-60960000D02*
X24450000Y-60995000D01*
X22098000Y-62230000D02*
X20585000Y-62230000D01*
X20585000Y-62230000D02*
X20550000Y-62265000D01*
X22895000Y-62265000D02*
X22860000Y-62230000D01*
X24450000Y-62265000D02*
X22895000Y-62265000D01*
D20*
G36*
X17532206Y-1292585D02*
X17560849Y-1298673D01*
X17588351Y-1308683D01*
X17614212Y-1322434D01*
X17637892Y-1339639D01*
X17658952Y-1359976D01*
X17676980Y-1383051D01*
X17691618Y-1408404D01*
X17702588Y-1435555D01*
X17709669Y-1463956D01*
X17716784Y-1531653D01*
X17716784Y-1545317D01*
X17725310Y-1789465D01*
X17727661Y-1811833D01*
X17727661Y-1834323D01*
X17737051Y-1923662D01*
X17805008Y-2407205D01*
X17814351Y-2451161D01*
X17820607Y-2495674D01*
X17842336Y-2582821D01*
X17842339Y-2582835D01*
X17842340Y-2582837D01*
X17976933Y-3052217D01*
X17992300Y-3094439D01*
X18004691Y-3137650D01*
X18038343Y-3220941D01*
X18236950Y-3667020D01*
X18258049Y-3706701D01*
X18276330Y-3747761D01*
X18321246Y-3825558D01*
X18580004Y-4239656D01*
X18606422Y-4276017D01*
X18630236Y-4314127D01*
X18685541Y-4384915D01*
X18999411Y-4758971D01*
X19030628Y-4791296D01*
X19059519Y-4825728D01*
X19124139Y-4888130D01*
X19487013Y-5214865D01*
X19522432Y-5242537D01*
X19555829Y-5272608D01*
X19628504Y-5325410D01*
X20033319Y-5598461D01*
X20072246Y-5620935D01*
X20109501Y-5646064D01*
X20188818Y-5688238D01*
X20627695Y-5902292D01*
X20669366Y-5919128D01*
X20709757Y-5938828D01*
X20794171Y-5969552D01*
X21258567Y-6120444D01*
X21302173Y-6131316D01*
X21344918Y-6145205D01*
X21432787Y-6163882D01*
X21913663Y-6248674D01*
X21958354Y-6253371D01*
X22002622Y-6261177D01*
X22092229Y-6267443D01*
X22092235Y-6267443D01*
X22580233Y-6284484D01*
X22625149Y-6282916D01*
X22670064Y-6284484D01*
X22759677Y-6278218D01*
X23245298Y-6227177D01*
X23289556Y-6219373D01*
X23334254Y-6214675D01*
X23422122Y-6195998D01*
X23895912Y-6077869D01*
X23938657Y-6063980D01*
X23982264Y-6053108D01*
X24066661Y-6022389D01*
X24066677Y-6022384D01*
X24066684Y-6022381D01*
X24519418Y-5839464D01*
X24559804Y-5819766D01*
X24601481Y-5802928D01*
X24680798Y-5760754D01*
X25103674Y-5516607D01*
X25140931Y-5491477D01*
X25179857Y-5469003D01*
X25252532Y-5416201D01*
X25637314Y-5115576D01*
X25670706Y-5085510D01*
X25706127Y-5057836D01*
X25770746Y-4995433D01*
X25998981Y-4759090D01*
X34938695Y-4759090D01*
X37500000Y-7320395D01*
X40061305Y-4759090D01*
X39694360Y-4263657D01*
X38288829Y-3670264D01*
X36763207Y-3659913D01*
X35349754Y-4234181D01*
X35305640Y-4263657D01*
X34938695Y-4759090D01*
X25998981Y-4759090D01*
X26109946Y-4644183D01*
X26138835Y-4609754D01*
X26170057Y-4577423D01*
X26225363Y-4506634D01*
X26512374Y-4111595D01*
X26536191Y-4073480D01*
X26562605Y-4037124D01*
X26607521Y-3959328D01*
X26836762Y-3528189D01*
X26855040Y-3487137D01*
X26876142Y-3447449D01*
X26909793Y-3364159D01*
X27076800Y-2905312D01*
X27089188Y-2862109D01*
X27104560Y-2819876D01*
X27126292Y-2732713D01*
X27227814Y-2255088D01*
X27234068Y-2210587D01*
X27243413Y-2166623D01*
X27252803Y-2077283D01*
X27286865Y-1590178D01*
X27286865Y-1590176D01*
X27295185Y-1471194D01*
X27301273Y-1442551D01*
X27311283Y-1415049D01*
X27325034Y-1389188D01*
X27342239Y-1365508D01*
X27362576Y-1344448D01*
X27385651Y-1326420D01*
X27411004Y-1311782D01*
X27438155Y-1300812D01*
X27466556Y-1293731D01*
X27526793Y-1287400D01*
X97458055Y-1287400D01*
X97532206Y-1292585D01*
X97560849Y-1298673D01*
X97588351Y-1308683D01*
X97614212Y-1322434D01*
X97637892Y-1339639D01*
X97658952Y-1359976D01*
X97676980Y-1383051D01*
X97691618Y-1408404D01*
X97702588Y-1435555D01*
X97709669Y-1463956D01*
X97716784Y-1531653D01*
X97716784Y-1545317D01*
X97725310Y-1789465D01*
X97727661Y-1811833D01*
X97727661Y-1834323D01*
X97737051Y-1923662D01*
X97805008Y-2407205D01*
X97814351Y-2451161D01*
X97820607Y-2495674D01*
X97842336Y-2582821D01*
X97842339Y-2582835D01*
X97842340Y-2582837D01*
X97976933Y-3052217D01*
X97992300Y-3094439D01*
X98004691Y-3137650D01*
X98038343Y-3220941D01*
X98236950Y-3667020D01*
X98258049Y-3706701D01*
X98276330Y-3747761D01*
X98321246Y-3825558D01*
X98580004Y-4239656D01*
X98606422Y-4276017D01*
X98630236Y-4314127D01*
X98685541Y-4384915D01*
X98999411Y-4758971D01*
X99030628Y-4791296D01*
X99059519Y-4825728D01*
X99124139Y-4888130D01*
X99487013Y-5214865D01*
X99522432Y-5242537D01*
X99555829Y-5272608D01*
X99628504Y-5325410D01*
X100033319Y-5598461D01*
X100072246Y-5620935D01*
X100109501Y-5646064D01*
X100188818Y-5688238D01*
X100627695Y-5902292D01*
X100669366Y-5919128D01*
X100709757Y-5938828D01*
X100794171Y-5969552D01*
X101258567Y-6120444D01*
X101302173Y-6131316D01*
X101344918Y-6145205D01*
X101432787Y-6163882D01*
X101913663Y-6248674D01*
X101958354Y-6253371D01*
X102002622Y-6261177D01*
X102092229Y-6267443D01*
X102092235Y-6267443D01*
X102580233Y-6284484D01*
X102625149Y-6282916D01*
X102670064Y-6284484D01*
X102759677Y-6278218D01*
X103245298Y-6227177D01*
X103289556Y-6219373D01*
X103334254Y-6214675D01*
X103422122Y-6195998D01*
X103895912Y-6077869D01*
X103938657Y-6063980D01*
X103982264Y-6053108D01*
X104066661Y-6022389D01*
X104066677Y-6022384D01*
X104066684Y-6022381D01*
X104519418Y-5839464D01*
X104559804Y-5819766D01*
X104601481Y-5802928D01*
X104680798Y-5760754D01*
X105103674Y-5516607D01*
X105140931Y-5491477D01*
X105179857Y-5469003D01*
X105252532Y-5416201D01*
X105637314Y-5115576D01*
X105670706Y-5085510D01*
X105706127Y-5057836D01*
X105770746Y-4995433D01*
X106109946Y-4644183D01*
X106138835Y-4609754D01*
X106170057Y-4577423D01*
X106225363Y-4506634D01*
X106512374Y-4111595D01*
X106536191Y-4073480D01*
X106562605Y-4037124D01*
X106607521Y-3959328D01*
X106836762Y-3528189D01*
X106855040Y-3487137D01*
X106876142Y-3447449D01*
X106909793Y-3364159D01*
X107076800Y-2905312D01*
X107089188Y-2862109D01*
X107104560Y-2819876D01*
X107126292Y-2732713D01*
X107227814Y-2255088D01*
X107234068Y-2210587D01*
X107243413Y-2166623D01*
X107252803Y-2077283D01*
X107286865Y-1590178D01*
X107286865Y-1590176D01*
X107295185Y-1471194D01*
X107301273Y-1442551D01*
X107311283Y-1415049D01*
X107325034Y-1389188D01*
X107342239Y-1365508D01*
X107362576Y-1344448D01*
X107385651Y-1326420D01*
X107411004Y-1311782D01*
X107438155Y-1300812D01*
X107466556Y-1293731D01*
X107526793Y-1287400D01*
X118458055Y-1287400D01*
X118532206Y-1292585D01*
X118560849Y-1298673D01*
X118588351Y-1308683D01*
X118614212Y-1322434D01*
X118637892Y-1339639D01*
X118658952Y-1359976D01*
X118676980Y-1383051D01*
X118691618Y-1408404D01*
X118702588Y-1435555D01*
X118709669Y-1463956D01*
X118716263Y-1526695D01*
X118718328Y-1645009D01*
X118719309Y-1656218D01*
X118718916Y-1667464D01*
X118725182Y-1757077D01*
X118776223Y-2242698D01*
X118784027Y-2286956D01*
X118788725Y-2331654D01*
X118807402Y-2419522D01*
X118925531Y-2893312D01*
X118939420Y-2936057D01*
X118950292Y-2979664D01*
X118981011Y-3064061D01*
X118981016Y-3064077D01*
X118981019Y-3064084D01*
X119163936Y-3516818D01*
X119183634Y-3557204D01*
X119200472Y-3598881D01*
X119242646Y-3678198D01*
X119486793Y-4101074D01*
X119511923Y-4138331D01*
X119534397Y-4177257D01*
X119554169Y-4204471D01*
X118288829Y-3670264D01*
X116763207Y-3659913D01*
X115349754Y-4234181D01*
X115305640Y-4263657D01*
X114938695Y-4759090D01*
X117500000Y-7320395D01*
X117514143Y-7306253D01*
X117693748Y-7485858D01*
X117679605Y-7500000D01*
X120240910Y-10061305D01*
X120736343Y-9694360D01*
X121329736Y-8288829D01*
X121340087Y-6763207D01*
X120805298Y-5446923D01*
X120891805Y-5509774D01*
X120929920Y-5533591D01*
X120966276Y-5560005D01*
X121044069Y-5604919D01*
X121044075Y-5604923D01*
X121044080Y-5604925D01*
X121475211Y-5834162D01*
X121516263Y-5852440D01*
X121555951Y-5873542D01*
X121639241Y-5907193D01*
X122098088Y-6074200D01*
X122141291Y-6086588D01*
X122183524Y-6101960D01*
X122270679Y-6123690D01*
X122270686Y-6123692D01*
X122270689Y-6123692D01*
X122748312Y-6225214D01*
X122792813Y-6231468D01*
X122836777Y-6240813D01*
X122926117Y-6250203D01*
X123413222Y-6284265D01*
X123413223Y-6284265D01*
X123532206Y-6292585D01*
X123560849Y-6298673D01*
X123588351Y-6308683D01*
X123614212Y-6322434D01*
X123637892Y-6339639D01*
X123658952Y-6359976D01*
X123676980Y-6383051D01*
X123691618Y-6408404D01*
X123702588Y-6435555D01*
X123709669Y-6463956D01*
X123716000Y-6524193D01*
X123716001Y-68455441D01*
X123710815Y-68529605D01*
X123704727Y-68558248D01*
X123694716Y-68585753D01*
X123680967Y-68611611D01*
X123663763Y-68635291D01*
X123643420Y-68656356D01*
X123620351Y-68674379D01*
X123594997Y-68689017D01*
X123567844Y-68699988D01*
X123539443Y-68707069D01*
X123476705Y-68713663D01*
X123358392Y-68715728D01*
X123347182Y-68716709D01*
X123335936Y-68716316D01*
X123246323Y-68722582D01*
X122760702Y-68773623D01*
X122716444Y-68781427D01*
X122671746Y-68786125D01*
X122583877Y-68804802D01*
X122110088Y-68922931D01*
X122067342Y-68936820D01*
X122023736Y-68947692D01*
X121939322Y-68978416D01*
X121486582Y-69161336D01*
X121446196Y-69181034D01*
X121404519Y-69197872D01*
X121325202Y-69240046D01*
X120902326Y-69484193D01*
X120865072Y-69509321D01*
X120826144Y-69531796D01*
X120795609Y-69553981D01*
X121329736Y-68288829D01*
X121340087Y-66763207D01*
X120765819Y-65349754D01*
X120736343Y-65305640D01*
X120240910Y-64938695D01*
X117679605Y-67500000D01*
X117693748Y-67514143D01*
X117514143Y-67693748D01*
X117500000Y-67679605D01*
X114938695Y-70240910D01*
X115305640Y-70736343D01*
X116711171Y-71329736D01*
X118236793Y-71340087D01*
X119555221Y-70804427D01*
X119493625Y-70889206D01*
X119469808Y-70927322D01*
X119443395Y-70963676D01*
X119398479Y-71041473D01*
X119169238Y-71472611D01*
X119150961Y-71513662D01*
X119129858Y-71553351D01*
X119096207Y-71636641D01*
X118929200Y-72095488D01*
X118916813Y-72138688D01*
X118901440Y-72180924D01*
X118879708Y-72268088D01*
X118778186Y-72745712D01*
X118771931Y-72790216D01*
X118762587Y-72834178D01*
X118753197Y-72923517D01*
X118719135Y-73410623D01*
X118710815Y-73529605D01*
X118704727Y-73558248D01*
X118694716Y-73585753D01*
X118680967Y-73611611D01*
X118663763Y-73635291D01*
X118643420Y-73656356D01*
X118620351Y-73674379D01*
X118594997Y-73689017D01*
X118567844Y-73699988D01*
X118539443Y-73707069D01*
X118479206Y-73713400D01*
X107547945Y-73713400D01*
X107473795Y-73708215D01*
X107445152Y-73702127D01*
X107417647Y-73692116D01*
X107391789Y-73678367D01*
X107368109Y-73661163D01*
X107347044Y-73640820D01*
X107329021Y-73617751D01*
X107314383Y-73592397D01*
X107303412Y-73565244D01*
X107296331Y-73536843D01*
X107289216Y-73469147D01*
X107289216Y-73455484D01*
X107280690Y-73211335D01*
X107278339Y-73188967D01*
X107278339Y-73166477D01*
X107268949Y-73077138D01*
X107200992Y-72593595D01*
X107191649Y-72549639D01*
X107185393Y-72505126D01*
X107163661Y-72417963D01*
X107029067Y-71948583D01*
X107013700Y-71906361D01*
X107001309Y-71863150D01*
X106967657Y-71779859D01*
X106769050Y-71333780D01*
X106747951Y-71294099D01*
X106729670Y-71253039D01*
X106684754Y-71175242D01*
X106425996Y-70761144D01*
X106399576Y-70724780D01*
X106375764Y-70686673D01*
X106320458Y-70615885D01*
X106320457Y-70615883D01*
X106320452Y-70615878D01*
X106006589Y-70241829D01*
X105975371Y-70209502D01*
X105946481Y-70175072D01*
X105881861Y-70112670D01*
X105518987Y-69785936D01*
X105483574Y-69758268D01*
X105450171Y-69728192D01*
X105377496Y-69675390D01*
X104972681Y-69402339D01*
X104933754Y-69379865D01*
X104896499Y-69354736D01*
X104817182Y-69312562D01*
X104378305Y-69098508D01*
X104336634Y-69081672D01*
X104296243Y-69061972D01*
X104211829Y-69031248D01*
X103747433Y-68880356D01*
X103703827Y-68869484D01*
X103661082Y-68855595D01*
X103573213Y-68836918D01*
X103092336Y-68752126D01*
X103047645Y-68747429D01*
X103003377Y-68739623D01*
X102913771Y-68733357D01*
X102913765Y-68733357D01*
X102425767Y-68716316D01*
X102380851Y-68717884D01*
X102335936Y-68716316D01*
X102246323Y-68722582D01*
X101760702Y-68773623D01*
X101716444Y-68781427D01*
X101671746Y-68786125D01*
X101583877Y-68804802D01*
X101110088Y-68922931D01*
X101067342Y-68936820D01*
X101023736Y-68947692D01*
X100939322Y-68978416D01*
X100486582Y-69161336D01*
X100446196Y-69181034D01*
X100404519Y-69197872D01*
X100325202Y-69240046D01*
X99902326Y-69484193D01*
X99865072Y-69509321D01*
X99826144Y-69531796D01*
X99753468Y-69584598D01*
X99368686Y-69885224D01*
X99335287Y-69915296D01*
X99299874Y-69942964D01*
X99235254Y-70005366D01*
X98896055Y-70356617D01*
X98867166Y-70391045D01*
X98835943Y-70423378D01*
X98780637Y-70494166D01*
X98493625Y-70889206D01*
X98469808Y-70927322D01*
X98443395Y-70963676D01*
X98398479Y-71041473D01*
X98169238Y-71472611D01*
X98150961Y-71513662D01*
X98129858Y-71553351D01*
X98096207Y-71636641D01*
X97929200Y-72095488D01*
X97916813Y-72138688D01*
X97901440Y-72180924D01*
X97879708Y-72268088D01*
X97778186Y-72745712D01*
X97771931Y-72790216D01*
X97762587Y-72834178D01*
X97753197Y-72923517D01*
X97719135Y-73410623D01*
X97710815Y-73529605D01*
X97704727Y-73558248D01*
X97694716Y-73585753D01*
X97680967Y-73611611D01*
X97663763Y-73635291D01*
X97643420Y-73656356D01*
X97620351Y-73674379D01*
X97594997Y-73689017D01*
X97567844Y-73699988D01*
X97539443Y-73707069D01*
X97479206Y-73713400D01*
X27547945Y-73713400D01*
X27473795Y-73708215D01*
X27445152Y-73702127D01*
X27417647Y-73692116D01*
X27391789Y-73678367D01*
X27368109Y-73661163D01*
X27347044Y-73640820D01*
X27329021Y-73617751D01*
X27314383Y-73592397D01*
X27303412Y-73565244D01*
X27296331Y-73536843D01*
X27289216Y-73469147D01*
X27289216Y-73455484D01*
X27280690Y-73211335D01*
X27278339Y-73188967D01*
X27278339Y-73166477D01*
X27268949Y-73077138D01*
X27200992Y-72593595D01*
X27191649Y-72549639D01*
X27185393Y-72505126D01*
X27163661Y-72417963D01*
X27029067Y-71948583D01*
X27013700Y-71906361D01*
X27001309Y-71863150D01*
X26967657Y-71779859D01*
X26769050Y-71333780D01*
X26747951Y-71294099D01*
X26729670Y-71253039D01*
X26684754Y-71175242D01*
X26425996Y-70761144D01*
X26399576Y-70724780D01*
X26375764Y-70686673D01*
X26320458Y-70615885D01*
X26320457Y-70615883D01*
X26320452Y-70615878D01*
X26006589Y-70241829D01*
X26005702Y-70240910D01*
X34938695Y-70240910D01*
X35305640Y-70736343D01*
X36711171Y-71329736D01*
X38236793Y-71340087D01*
X39650246Y-70765819D01*
X39694360Y-70736343D01*
X40061305Y-70240910D01*
X37500000Y-67679605D01*
X34938695Y-70240910D01*
X26005702Y-70240910D01*
X25975371Y-70209502D01*
X25946481Y-70175072D01*
X25881861Y-70112670D01*
X25518987Y-69785936D01*
X25483574Y-69758268D01*
X25450171Y-69728192D01*
X25377496Y-69675390D01*
X24972681Y-69402339D01*
X24933754Y-69379865D01*
X24896499Y-69354736D01*
X24817182Y-69312562D01*
X24378305Y-69098508D01*
X24336634Y-69081672D01*
X24296243Y-69061972D01*
X24211829Y-69031248D01*
X23747433Y-68880356D01*
X23703827Y-68869484D01*
X23661082Y-68855595D01*
X23573213Y-68836918D01*
X23092336Y-68752126D01*
X23047645Y-68747429D01*
X23003377Y-68739623D01*
X22913771Y-68733357D01*
X22913765Y-68733357D01*
X22425767Y-68716316D01*
X22380851Y-68717884D01*
X22335936Y-68716316D01*
X22246323Y-68722582D01*
X21760702Y-68773623D01*
X21716444Y-68781427D01*
X21671746Y-68786125D01*
X21583877Y-68804802D01*
X21110088Y-68922931D01*
X21067342Y-68936820D01*
X21023736Y-68947692D01*
X20939322Y-68978416D01*
X20486582Y-69161336D01*
X20446196Y-69181034D01*
X20404519Y-69197872D01*
X20325202Y-69240046D01*
X19902326Y-69484193D01*
X19865072Y-69509321D01*
X19826144Y-69531796D01*
X19753468Y-69584598D01*
X19368686Y-69885224D01*
X19335287Y-69915296D01*
X19299874Y-69942964D01*
X19235254Y-70005366D01*
X18896055Y-70356617D01*
X18867166Y-70391045D01*
X18835943Y-70423378D01*
X18780637Y-70494166D01*
X18493625Y-70889206D01*
X18469808Y-70927322D01*
X18443395Y-70963676D01*
X18398479Y-71041473D01*
X18169238Y-71472611D01*
X18150961Y-71513662D01*
X18129858Y-71553351D01*
X18096207Y-71636641D01*
X17929200Y-72095488D01*
X17916813Y-72138688D01*
X17901440Y-72180924D01*
X17879708Y-72268088D01*
X17778186Y-72745712D01*
X17771931Y-72790216D01*
X17762587Y-72834178D01*
X17753197Y-72923517D01*
X17719135Y-73410623D01*
X17710815Y-73529605D01*
X17704727Y-73558248D01*
X17694716Y-73585753D01*
X17680967Y-73611611D01*
X17663763Y-73635291D01*
X17643420Y-73656356D01*
X17620351Y-73674379D01*
X17594997Y-73689017D01*
X17567844Y-73699988D01*
X17539443Y-73707069D01*
X17479206Y-73713400D01*
X6547945Y-73713400D01*
X6473795Y-73708215D01*
X6445152Y-73702127D01*
X6417647Y-73692116D01*
X6391789Y-73678367D01*
X6368109Y-73661163D01*
X6347044Y-73640820D01*
X6329021Y-73617751D01*
X6314383Y-73592397D01*
X6303412Y-73565244D01*
X6296331Y-73536843D01*
X6289737Y-73474105D01*
X6287672Y-73355792D01*
X6286691Y-73344582D01*
X6287084Y-73333336D01*
X6280818Y-73243723D01*
X6229777Y-72758102D01*
X6221973Y-72713844D01*
X6217275Y-72669146D01*
X6198598Y-72581277D01*
X6080469Y-72107488D01*
X6066580Y-72064742D01*
X6055708Y-72021136D01*
X6024984Y-71936722D01*
X5842064Y-71483982D01*
X5822366Y-71443596D01*
X5805528Y-71401919D01*
X5763354Y-71322602D01*
X5519207Y-70899726D01*
X5494079Y-70862472D01*
X5471604Y-70823544D01*
X5453648Y-70798830D01*
X6711171Y-71329736D01*
X8236793Y-71340087D01*
X9650246Y-70765819D01*
X9694360Y-70736343D01*
X10061305Y-70240910D01*
X7500000Y-67679605D01*
X7485858Y-67693748D01*
X7306253Y-67514143D01*
X7320395Y-67500000D01*
X7679605Y-67500000D01*
X10240910Y-70061305D01*
X10736343Y-69694360D01*
X11329736Y-68288829D01*
X11330089Y-68236793D01*
X33659913Y-68236793D01*
X34234181Y-69650246D01*
X34263657Y-69694360D01*
X34759090Y-70061305D01*
X37320395Y-67500000D01*
X37679605Y-67500000D01*
X40240910Y-70061305D01*
X40736343Y-69694360D01*
X41329736Y-68288829D01*
X41330089Y-68236793D01*
X113659913Y-68236793D01*
X114234181Y-69650246D01*
X114263657Y-69694360D01*
X114759090Y-70061305D01*
X117320395Y-67500000D01*
X114759090Y-64938695D01*
X114263657Y-65305640D01*
X113670264Y-66711171D01*
X113659913Y-68236793D01*
X41330089Y-68236793D01*
X41340087Y-66763207D01*
X40765819Y-65349754D01*
X40736343Y-65305640D01*
X40240910Y-64938695D01*
X37679605Y-67500000D01*
X37320395Y-67500000D01*
X34759090Y-64938695D01*
X34263657Y-65305640D01*
X33670264Y-66711171D01*
X33659913Y-68236793D01*
X11330089Y-68236793D01*
X11340087Y-66763207D01*
X10765819Y-65349754D01*
X10736343Y-65305640D01*
X10240910Y-64938695D01*
X7679605Y-67500000D01*
X7320395Y-67500000D01*
X4759090Y-64938695D01*
X4263657Y-65305640D01*
X3670264Y-66711171D01*
X3659913Y-68236793D01*
X4192651Y-69548027D01*
X4114194Y-69491025D01*
X4076078Y-69467208D01*
X4039724Y-69440795D01*
X3961927Y-69395879D01*
X3961924Y-69395877D01*
X3961919Y-69395875D01*
X3530789Y-69166638D01*
X3489738Y-69148361D01*
X3450049Y-69127258D01*
X3366759Y-69093607D01*
X2907912Y-68926600D01*
X2864712Y-68914213D01*
X2822476Y-68898840D01*
X2735327Y-68877112D01*
X2735314Y-68877108D01*
X2735308Y-68877107D01*
X2257688Y-68775586D01*
X2213184Y-68769331D01*
X2169222Y-68759987D01*
X2079883Y-68750597D01*
X1592777Y-68716535D01*
X1473795Y-68708215D01*
X1445152Y-68702127D01*
X1417647Y-68692116D01*
X1391789Y-68678367D01*
X1368109Y-68661163D01*
X1347044Y-68640820D01*
X1329021Y-68617751D01*
X1314383Y-68592397D01*
X1303412Y-68565244D01*
X1296331Y-68536843D01*
X1290000Y-68476606D01*
X1290000Y-64759090D01*
X4938695Y-64759090D01*
X7500000Y-67320395D01*
X10061305Y-64759090D01*
X9694360Y-64263657D01*
X8288829Y-63670264D01*
X6763207Y-63659913D01*
X5349754Y-64234181D01*
X5305640Y-64263657D01*
X4938695Y-64759090D01*
X1290000Y-64759090D01*
X1290000Y-23530000D01*
X7881134Y-23530000D01*
X8046990Y-24363816D01*
X8338439Y-24800000D01*
X8046990Y-25236184D01*
X7881134Y-26070000D01*
X8046990Y-26903816D01*
X8338439Y-27340000D01*
X8046990Y-27776184D01*
X7881134Y-28610000D01*
X8046990Y-29443816D01*
X8338439Y-29880000D01*
X8046990Y-30316184D01*
X7881134Y-31150000D01*
X8046990Y-31983816D01*
X8338439Y-32420000D01*
X8046990Y-32856184D01*
X7881134Y-33690000D01*
X8046990Y-34523816D01*
X8338439Y-34960000D01*
X8046990Y-35396184D01*
X7881134Y-36230000D01*
X8046990Y-37063816D01*
X8338439Y-37500000D01*
X8046990Y-37936184D01*
X7881134Y-38770000D01*
X8046990Y-39603816D01*
X8338439Y-40040000D01*
X8046990Y-40476184D01*
X7881134Y-41310000D01*
X8046990Y-42143816D01*
X8338439Y-42580000D01*
X8046990Y-43016184D01*
X7881134Y-43850000D01*
X8046990Y-44683816D01*
X8338439Y-45120000D01*
X8046990Y-45556184D01*
X7881134Y-46390000D01*
X8046990Y-47223816D01*
X8338439Y-47660000D01*
X8046990Y-48096184D01*
X7881134Y-48930000D01*
X8046990Y-49763816D01*
X8338439Y-50200000D01*
X8046990Y-50636184D01*
X7881134Y-51470000D01*
X8046990Y-52303816D01*
X8338439Y-52740000D01*
X8046990Y-53176184D01*
X7881134Y-54010000D01*
X8046990Y-54843816D01*
X8338439Y-55280000D01*
X8046990Y-55716184D01*
X7881134Y-56550000D01*
X8046990Y-57383816D01*
X8338439Y-57820000D01*
X8046990Y-58256184D01*
X7881134Y-59090000D01*
X8046990Y-59923816D01*
X8338439Y-60360000D01*
X8046990Y-60796184D01*
X7881134Y-61630000D01*
X8046990Y-62463816D01*
X8519309Y-63170691D01*
X9226184Y-63643010D01*
X9849525Y-63767000D01*
X10270475Y-63767000D01*
X10893816Y-63643010D01*
X11600691Y-63170691D01*
X12073010Y-62463816D01*
X12238866Y-61630000D01*
X12073010Y-60796184D01*
X11781561Y-60360000D01*
X12073010Y-59923816D01*
X12238866Y-59090000D01*
X12073010Y-58256184D01*
X11781561Y-57820000D01*
X12073010Y-57383816D01*
X12238866Y-56550000D01*
X12073010Y-55716184D01*
X11781561Y-55280000D01*
X12073010Y-54843816D01*
X12238866Y-54010000D01*
X12073010Y-53176184D01*
X11781561Y-52740000D01*
X12073010Y-52303816D01*
X12238866Y-51470000D01*
X12073010Y-50636184D01*
X11781561Y-50200000D01*
X12073010Y-49763816D01*
X12238866Y-48930000D01*
X12073010Y-48096184D01*
X11781561Y-47660000D01*
X12073010Y-47223816D01*
X12238866Y-46390000D01*
X12073010Y-45556184D01*
X11781561Y-45120000D01*
X12073010Y-44683816D01*
X12238866Y-43850000D01*
X12073010Y-43016184D01*
X11781561Y-42580000D01*
X12073010Y-42143816D01*
X12238866Y-41310000D01*
X12073010Y-40476184D01*
X11781561Y-40040000D01*
X12073010Y-39603816D01*
X12238866Y-38770000D01*
X12208671Y-38618198D01*
X14580540Y-36246329D01*
X14698435Y-36167555D01*
X15010514Y-35700495D01*
X15092440Y-35288626D01*
X15092440Y-35288625D01*
X15120102Y-35149561D01*
X15092440Y-35010496D01*
X15092440Y-28839829D01*
X17537787Y-26394482D01*
X17537787Y-27075000D01*
X17590499Y-27340000D01*
X17537787Y-27605000D01*
X17537787Y-28345000D01*
X17590499Y-28610000D01*
X17537787Y-28875000D01*
X17537787Y-29615000D01*
X17590499Y-29880000D01*
X17537787Y-30145000D01*
X17537787Y-30885000D01*
X17590499Y-31150000D01*
X17537787Y-31415000D01*
X17537787Y-32155000D01*
X17590499Y-32420000D01*
X17537787Y-32685000D01*
X17537787Y-33425000D01*
X17590499Y-33690000D01*
X17537787Y-33955000D01*
X17537787Y-34695000D01*
X17590499Y-34960000D01*
X17537787Y-35225000D01*
X17537787Y-35965000D01*
X17590499Y-36230000D01*
X17537787Y-36495000D01*
X17537787Y-37235000D01*
X17590499Y-37500000D01*
X17537787Y-37765000D01*
X17537787Y-38505000D01*
X17590499Y-38770000D01*
X17537787Y-39035000D01*
X17537787Y-39775000D01*
X17590499Y-40040000D01*
X17537787Y-40305000D01*
X17537787Y-41045000D01*
X17590499Y-41310000D01*
X17537787Y-41575000D01*
X17537787Y-42315000D01*
X17590499Y-42580000D01*
X17537787Y-42845000D01*
X17537787Y-43585000D01*
X17590499Y-43850000D01*
X17537787Y-44115000D01*
X17537787Y-44855000D01*
X17590499Y-45120000D01*
X17537787Y-45385000D01*
X17537787Y-46125000D01*
X17590499Y-46390000D01*
X17537787Y-46655000D01*
X17537787Y-47395000D01*
X17590499Y-47660000D01*
X17537787Y-47925000D01*
X17537787Y-48665000D01*
X17590499Y-48930000D01*
X17537787Y-49195000D01*
X17537787Y-49935000D01*
X17590499Y-50200000D01*
X17537787Y-50465000D01*
X17537787Y-51205000D01*
X17590499Y-51470000D01*
X17537787Y-51735000D01*
X17537787Y-52475000D01*
X17590499Y-52740000D01*
X17537787Y-53005000D01*
X17537787Y-53745000D01*
X17590499Y-54010000D01*
X17537787Y-54275000D01*
X17537787Y-55015000D01*
X17590499Y-55280000D01*
X17537787Y-55545000D01*
X17537787Y-56285000D01*
X17590499Y-56550000D01*
X17537787Y-56815000D01*
X17537787Y-57555000D01*
X17590499Y-57820000D01*
X17537787Y-58085000D01*
X17537787Y-58825000D01*
X17590499Y-59090000D01*
X17537787Y-59355000D01*
X17537787Y-60095000D01*
X17590499Y-60360000D01*
X17537787Y-60625000D01*
X17537787Y-61365000D01*
X17590499Y-61630000D01*
X17537787Y-61895000D01*
X17537787Y-62635000D01*
X17637673Y-63137162D01*
X17922125Y-63562875D01*
X18347838Y-63847327D01*
X18850000Y-63947213D01*
X20413000Y-63947213D01*
X20413000Y-64254930D01*
X20730727Y-65021991D01*
X21317809Y-65609073D01*
X22084870Y-65926800D01*
X22915130Y-65926800D01*
X23682191Y-65609073D01*
X24269273Y-65021991D01*
X24378170Y-64759090D01*
X34938695Y-64759090D01*
X37500000Y-67320395D01*
X40061305Y-64759090D01*
X114938695Y-64759090D01*
X117500000Y-67320395D01*
X120061305Y-64759090D01*
X119694360Y-64263657D01*
X118288829Y-63670264D01*
X116763207Y-63659913D01*
X115349754Y-64234181D01*
X115305640Y-64263657D01*
X114938695Y-64759090D01*
X40061305Y-64759090D01*
X39694360Y-64263657D01*
X38288829Y-63670264D01*
X36763207Y-63659913D01*
X35349754Y-64234181D01*
X35305640Y-64263657D01*
X34938695Y-64759090D01*
X24378170Y-64759090D01*
X24587000Y-64254930D01*
X24587000Y-63947213D01*
X26150000Y-63947213D01*
X26652162Y-63847327D01*
X27077875Y-63562875D01*
X27362327Y-63137162D01*
X27462213Y-62635000D01*
X27462213Y-61895000D01*
X27409501Y-61630000D01*
X27462213Y-61365000D01*
X27462213Y-60625000D01*
X27409501Y-60360000D01*
X27462213Y-60095000D01*
X27462213Y-59355000D01*
X27409501Y-59090000D01*
X27462213Y-58825000D01*
X27462213Y-58085000D01*
X27409501Y-57820000D01*
X27462213Y-57555000D01*
X27462213Y-56815000D01*
X27409501Y-56550000D01*
X27462213Y-56285000D01*
X27462213Y-55545000D01*
X27409501Y-55280000D01*
X27462213Y-55015000D01*
X27462213Y-54275000D01*
X27409501Y-54010000D01*
X27462213Y-53745000D01*
X27462213Y-53005000D01*
X27409501Y-52740000D01*
X27462213Y-52475000D01*
X27462213Y-51735000D01*
X27409501Y-51470000D01*
X27462213Y-51205000D01*
X27462213Y-50465000D01*
X27409501Y-50200000D01*
X27462213Y-49935000D01*
X27462213Y-49195000D01*
X27409501Y-48930000D01*
X27462213Y-48665000D01*
X27462213Y-47925000D01*
X27409501Y-47660000D01*
X27462213Y-47395000D01*
X27462213Y-46655000D01*
X27409501Y-46390000D01*
X27462213Y-46125000D01*
X27462213Y-45385000D01*
X27409501Y-45120000D01*
X27462213Y-44855000D01*
X27462213Y-44115000D01*
X27409501Y-43850000D01*
X27462213Y-43585000D01*
X27462213Y-42845000D01*
X27409501Y-42580000D01*
X27462213Y-42315000D01*
X27462213Y-41575000D01*
X27409501Y-41310000D01*
X27462213Y-41045000D01*
X27462213Y-40305000D01*
X27409501Y-40040000D01*
X27462213Y-39775000D01*
X27462213Y-39035000D01*
X27409501Y-38770000D01*
X27462213Y-38505000D01*
X27462213Y-37765000D01*
X27409501Y-37500000D01*
X27462213Y-37235000D01*
X27462213Y-36495000D01*
X27409501Y-36230000D01*
X27462213Y-35965000D01*
X27462213Y-35225000D01*
X27409501Y-34960000D01*
X27462213Y-34695000D01*
X27462213Y-33955000D01*
X27409501Y-33690000D01*
X27462213Y-33425000D01*
X27462213Y-32685000D01*
X27409501Y-32420000D01*
X27462213Y-32155000D01*
X27462213Y-31415000D01*
X27409501Y-31150000D01*
X27462213Y-30885000D01*
X27462213Y-30145000D01*
X27409501Y-29880000D01*
X27462213Y-29615000D01*
X27462213Y-28875000D01*
X27409501Y-28610000D01*
X27462213Y-28345000D01*
X27462213Y-27605000D01*
X27409501Y-27340000D01*
X27462213Y-27075000D01*
X27462213Y-26335000D01*
X27409501Y-26070000D01*
X27462213Y-25805000D01*
X27462213Y-25065000D01*
X27409501Y-24800000D01*
X27462213Y-24535000D01*
X27462213Y-23795000D01*
X27409501Y-23530000D01*
X112761134Y-23530000D01*
X112926990Y-24363816D01*
X113218439Y-24800000D01*
X112926990Y-25236184D01*
X112761134Y-26070000D01*
X112926990Y-26903816D01*
X113218439Y-27340000D01*
X112926990Y-27776184D01*
X112761134Y-28610000D01*
X112926990Y-29443816D01*
X113218439Y-29880000D01*
X112926990Y-30316184D01*
X112761134Y-31150000D01*
X112926990Y-31983816D01*
X113218439Y-32420000D01*
X112926990Y-32856184D01*
X112761134Y-33690000D01*
X112926990Y-34523816D01*
X113218439Y-34960000D01*
X112926990Y-35396184D01*
X112761134Y-36230000D01*
X112926990Y-37063816D01*
X113218439Y-37500000D01*
X112926990Y-37936184D01*
X112761134Y-38770000D01*
X112926990Y-39603816D01*
X113218439Y-40040000D01*
X112926990Y-40476184D01*
X112761134Y-41310000D01*
X112926990Y-42143816D01*
X113218439Y-42580000D01*
X112926990Y-43016184D01*
X112761134Y-43850000D01*
X112926990Y-44683816D01*
X113218439Y-45120000D01*
X112926990Y-45556184D01*
X112761134Y-46390000D01*
X112926990Y-47223816D01*
X113218439Y-47660000D01*
X112926990Y-48096184D01*
X112761134Y-48930000D01*
X112926990Y-49763816D01*
X113218439Y-50200000D01*
X112926990Y-50636184D01*
X112761134Y-51470000D01*
X112926990Y-52303816D01*
X113218439Y-52740000D01*
X112926990Y-53176184D01*
X112761134Y-54010000D01*
X112926990Y-54843816D01*
X113218439Y-55280000D01*
X112926990Y-55716184D01*
X112761134Y-56550000D01*
X112926990Y-57383816D01*
X113218439Y-57820000D01*
X112926990Y-58256184D01*
X112761134Y-59090000D01*
X112926990Y-59923816D01*
X113020606Y-60063923D01*
X112877673Y-60277838D01*
X112777787Y-60780000D01*
X112777787Y-62480000D01*
X112877673Y-62982162D01*
X113162125Y-63407875D01*
X113587838Y-63692327D01*
X114090000Y-63792213D01*
X115790000Y-63792213D01*
X116292162Y-63692327D01*
X116717875Y-63407875D01*
X117002327Y-62982162D01*
X117102213Y-62480000D01*
X117102213Y-60780000D01*
X117002327Y-60277838D01*
X116859394Y-60063923D01*
X116953010Y-59923816D01*
X117118866Y-59090000D01*
X116953010Y-58256184D01*
X116661561Y-57820000D01*
X116953010Y-57383816D01*
X117118866Y-56550000D01*
X116953010Y-55716184D01*
X116661561Y-55280000D01*
X116953010Y-54843816D01*
X117118866Y-54010000D01*
X116953010Y-53176184D01*
X116661561Y-52740000D01*
X116953010Y-52303816D01*
X117118866Y-51470000D01*
X116953010Y-50636184D01*
X116661561Y-50200000D01*
X116953010Y-49763816D01*
X117118866Y-48930000D01*
X116953010Y-48096184D01*
X116661561Y-47660000D01*
X116953010Y-47223816D01*
X117118866Y-46390000D01*
X116953010Y-45556184D01*
X116661561Y-45120000D01*
X116953010Y-44683816D01*
X117118866Y-43850000D01*
X116953010Y-43016184D01*
X116661561Y-42580000D01*
X116953010Y-42143816D01*
X117118866Y-41310000D01*
X116953010Y-40476184D01*
X116661561Y-40040000D01*
X116953010Y-39603816D01*
X117118866Y-38770000D01*
X116953010Y-37936184D01*
X116661561Y-37500000D01*
X116953010Y-37063816D01*
X117118866Y-36230000D01*
X116953010Y-35396184D01*
X116661561Y-34960000D01*
X116953010Y-34523816D01*
X117118866Y-33690000D01*
X116953010Y-32856184D01*
X116661561Y-32420000D01*
X116953010Y-31983816D01*
X117118866Y-31150000D01*
X116953010Y-30316184D01*
X116661561Y-29880000D01*
X116953010Y-29443816D01*
X117118866Y-28610000D01*
X116953010Y-27776184D01*
X116661561Y-27340000D01*
X116953010Y-26903816D01*
X117118866Y-26070000D01*
X116953010Y-25236184D01*
X116661561Y-24800000D01*
X116953010Y-24363816D01*
X117118866Y-23530000D01*
X116953010Y-22696184D01*
X116480691Y-21989309D01*
X116181843Y-21789625D01*
X116211645Y-21756924D01*
X116381476Y-21346890D01*
X116260155Y-21117000D01*
X115067000Y-21117000D01*
X115067000Y-21137000D01*
X114813000Y-21137000D01*
X114813000Y-21117000D01*
X113619845Y-21117000D01*
X113498524Y-21346890D01*
X113668355Y-21756924D01*
X113698157Y-21789625D01*
X113399309Y-21989309D01*
X112926990Y-22696184D01*
X112761134Y-23530000D01*
X27409501Y-23530000D01*
X27462213Y-23265000D01*
X27462213Y-22525000D01*
X27409501Y-22260000D01*
X27462213Y-21995000D01*
X27462213Y-21255000D01*
X27409501Y-20990000D01*
X27462213Y-20725000D01*
X27462213Y-19985000D01*
X27362327Y-19482838D01*
X27096500Y-19085000D01*
X27362327Y-18687162D01*
X27462213Y-18185000D01*
X27462213Y-17445000D01*
X27409501Y-17180000D01*
X27462213Y-16915000D01*
X27462213Y-16175000D01*
X27409501Y-15910000D01*
X27462213Y-15645000D01*
X27462213Y-14905000D01*
X27409501Y-14640000D01*
X27462213Y-14375000D01*
X27462213Y-13635000D01*
X27409501Y-13370000D01*
X112761134Y-13370000D01*
X112926990Y-14203816D01*
X113218439Y-14640000D01*
X112926990Y-15076184D01*
X112761134Y-15910000D01*
X112926990Y-16743816D01*
X113218439Y-17180000D01*
X112926990Y-17616184D01*
X112761134Y-18450000D01*
X112926990Y-19283816D01*
X113399309Y-19990691D01*
X113698157Y-20190375D01*
X113668355Y-20223076D01*
X113498524Y-20633110D01*
X113619845Y-20863000D01*
X114813000Y-20863000D01*
X114813000Y-20843000D01*
X115067000Y-20843000D01*
X115067000Y-20863000D01*
X116260155Y-20863000D01*
X116381476Y-20633110D01*
X116211645Y-20223076D01*
X116181843Y-20190375D01*
X116480691Y-19990691D01*
X116953010Y-19283816D01*
X117118866Y-18450000D01*
X116953010Y-17616184D01*
X116661561Y-17180000D01*
X116953010Y-16743816D01*
X117118866Y-15910000D01*
X116953010Y-15076184D01*
X116661561Y-14640000D01*
X116953010Y-14203816D01*
X117118866Y-13370000D01*
X116953010Y-12536184D01*
X116480691Y-11829309D01*
X115773816Y-11356990D01*
X115150475Y-11233000D01*
X114729525Y-11233000D01*
X114106184Y-11356990D01*
X113399309Y-11829309D01*
X112926990Y-12536184D01*
X112761134Y-13370000D01*
X27409501Y-13370000D01*
X27462213Y-13105000D01*
X27462213Y-12365000D01*
X27362327Y-11862838D01*
X27077875Y-11437125D01*
X26652162Y-11152673D01*
X26150000Y-11052787D01*
X24599700Y-11052787D01*
X24599700Y-10706970D01*
X24406652Y-10240910D01*
X34938695Y-10240910D01*
X35305640Y-10736343D01*
X36711171Y-11329736D01*
X38236793Y-11340087D01*
X39650246Y-10765819D01*
X39694360Y-10736343D01*
X40061305Y-10240910D01*
X114938695Y-10240910D01*
X115305640Y-10736343D01*
X116711171Y-11329736D01*
X118236793Y-11340087D01*
X119650246Y-10765819D01*
X119694360Y-10736343D01*
X120061305Y-10240910D01*
X117500000Y-7679605D01*
X114938695Y-10240910D01*
X40061305Y-10240910D01*
X37500000Y-7679605D01*
X34938695Y-10240910D01*
X24406652Y-10240910D01*
X24281973Y-9939909D01*
X23694891Y-9352827D01*
X22927830Y-9035100D01*
X22084870Y-9035100D01*
X21317809Y-9352827D01*
X20730727Y-9939909D01*
X20413000Y-10706970D01*
X20413000Y-11052787D01*
X18850000Y-11052787D01*
X18347838Y-11152673D01*
X17922125Y-11437125D01*
X17637673Y-11862838D01*
X17537787Y-12365000D01*
X17537787Y-13105000D01*
X17590499Y-13370000D01*
X17537787Y-13635000D01*
X17537787Y-14375000D01*
X17590499Y-14640000D01*
X17537787Y-14905000D01*
X17537787Y-15645000D01*
X17590499Y-15910000D01*
X17537787Y-16175000D01*
X17537787Y-16915000D01*
X17590499Y-17180000D01*
X17537787Y-17445000D01*
X17537787Y-18185000D01*
X17637673Y-18687162D01*
X17903500Y-19085000D01*
X17637673Y-19482838D01*
X17537787Y-19985000D01*
X17537787Y-20725000D01*
X17590499Y-20990000D01*
X17537787Y-21255000D01*
X17537787Y-21995000D01*
X17590499Y-22260000D01*
X17563776Y-22394344D01*
X17386845Y-22512565D01*
X17308069Y-22630462D01*
X12780340Y-27158191D01*
X12662445Y-27236966D01*
X12583671Y-27354860D01*
X12350366Y-27704026D01*
X12240778Y-28254960D01*
X12268440Y-28394026D01*
X12268441Y-34564689D01*
X11818239Y-35014892D01*
X11781561Y-34960000D01*
X12073010Y-34523816D01*
X12238866Y-33690000D01*
X12073010Y-32856184D01*
X11781561Y-32420000D01*
X12073010Y-31983816D01*
X12238866Y-31150000D01*
X12073010Y-30316184D01*
X11781561Y-29880000D01*
X12073010Y-29443816D01*
X12238866Y-28610000D01*
X12073010Y-27776184D01*
X11781561Y-27340000D01*
X12073010Y-26903816D01*
X12238866Y-26070000D01*
X12073010Y-25236184D01*
X11781561Y-24800000D01*
X12073010Y-24363816D01*
X12238866Y-23530000D01*
X12073010Y-22696184D01*
X11600691Y-21989309D01*
X11301843Y-21789625D01*
X11331645Y-21756924D01*
X11501476Y-21346890D01*
X11380155Y-21117000D01*
X10187000Y-21117000D01*
X10187000Y-21137000D01*
X9933000Y-21137000D01*
X9933000Y-21117000D01*
X8739845Y-21117000D01*
X8618524Y-21346890D01*
X8788355Y-21756924D01*
X8818157Y-21789625D01*
X8519309Y-21989309D01*
X8046990Y-22696184D01*
X7881134Y-23530000D01*
X1290000Y-23530000D01*
X1290000Y-15910000D01*
X7881134Y-15910000D01*
X8046990Y-16743816D01*
X8338439Y-17180000D01*
X8046990Y-17616184D01*
X7881134Y-18450000D01*
X8046990Y-19283816D01*
X8519309Y-19990691D01*
X8818157Y-20190375D01*
X8788355Y-20223076D01*
X8618524Y-20633110D01*
X8739845Y-20863000D01*
X9933000Y-20863000D01*
X9933000Y-20843000D01*
X10187000Y-20843000D01*
X10187000Y-20863000D01*
X11380155Y-20863000D01*
X11501476Y-20633110D01*
X11331645Y-20223076D01*
X11301843Y-20190375D01*
X11600691Y-19990691D01*
X12073010Y-19283816D01*
X12238866Y-18450000D01*
X12073010Y-17616184D01*
X11781561Y-17180000D01*
X12073010Y-16743816D01*
X12238866Y-15910000D01*
X12073010Y-15076184D01*
X11979394Y-14936077D01*
X12122327Y-14722162D01*
X12222213Y-14220000D01*
X12222213Y-12520000D01*
X12122327Y-12017838D01*
X11837875Y-11592125D01*
X11412162Y-11307673D01*
X10910000Y-11207787D01*
X9210000Y-11207787D01*
X8707838Y-11307673D01*
X8282125Y-11592125D01*
X7997673Y-12017838D01*
X7897787Y-12520000D01*
X7897787Y-14220000D01*
X7997673Y-14722162D01*
X8140606Y-14936077D01*
X8046990Y-15076184D01*
X7881134Y-15910000D01*
X1290000Y-15910000D01*
X1290000Y-10240910D01*
X4938695Y-10240910D01*
X5305640Y-10736343D01*
X6711171Y-11329736D01*
X8236793Y-11340087D01*
X9650246Y-10765819D01*
X9694360Y-10736343D01*
X10061305Y-10240910D01*
X7500000Y-7679605D01*
X4938695Y-10240910D01*
X1290000Y-10240910D01*
X1290000Y-6545345D01*
X1295185Y-6471194D01*
X1301273Y-6442551D01*
X1311283Y-6415049D01*
X1325034Y-6389188D01*
X1342239Y-6365508D01*
X1362576Y-6344448D01*
X1385651Y-6326420D01*
X1411004Y-6311782D01*
X1438155Y-6300812D01*
X1466556Y-6293731D01*
X1529295Y-6287137D01*
X1647609Y-6285072D01*
X1658818Y-6284091D01*
X1670064Y-6284484D01*
X1759677Y-6278218D01*
X2245298Y-6227177D01*
X2289556Y-6219373D01*
X2334254Y-6214675D01*
X2422122Y-6195998D01*
X2895912Y-6077869D01*
X2938657Y-6063980D01*
X2982264Y-6053108D01*
X3066661Y-6022389D01*
X3066677Y-6022384D01*
X3066684Y-6022381D01*
X3519418Y-5839464D01*
X3559804Y-5819766D01*
X3601481Y-5802928D01*
X3680798Y-5760754D01*
X4103674Y-5516607D01*
X4140931Y-5491477D01*
X4179857Y-5469003D01*
X4201250Y-5453460D01*
X3670264Y-6711171D01*
X3659913Y-8236793D01*
X4234181Y-9650246D01*
X4263657Y-9694360D01*
X4759090Y-10061305D01*
X7320395Y-7500000D01*
X7679605Y-7500000D01*
X10240910Y-10061305D01*
X10736343Y-9694360D01*
X11329736Y-8288829D01*
X11330089Y-8236793D01*
X33659913Y-8236793D01*
X34234181Y-9650246D01*
X34263657Y-9694360D01*
X34759090Y-10061305D01*
X37320395Y-7500000D01*
X37679605Y-7500000D01*
X40240910Y-10061305D01*
X40736343Y-9694360D01*
X41329736Y-8288829D01*
X41330089Y-8236793D01*
X113659913Y-8236793D01*
X114234181Y-9650246D01*
X114263657Y-9694360D01*
X114759090Y-10061305D01*
X117320395Y-7500000D01*
X114759090Y-4938695D01*
X114263657Y-5305640D01*
X113670264Y-6711171D01*
X113659913Y-8236793D01*
X41330089Y-8236793D01*
X41340087Y-6763207D01*
X40765819Y-5349754D01*
X40736343Y-5305640D01*
X40240910Y-4938695D01*
X37679605Y-7500000D01*
X37320395Y-7500000D01*
X34759090Y-4938695D01*
X34263657Y-5305640D01*
X33670264Y-6711171D01*
X33659913Y-8236793D01*
X11330089Y-8236793D01*
X11340087Y-6763207D01*
X10765819Y-5349754D01*
X10736343Y-5305640D01*
X10240910Y-4938695D01*
X7679605Y-7500000D01*
X7320395Y-7500000D01*
X7306253Y-7485858D01*
X7485858Y-7306253D01*
X7500000Y-7320395D01*
X10061305Y-4759090D01*
X9694360Y-4263657D01*
X8288829Y-3670264D01*
X6763207Y-3659913D01*
X5454117Y-4191780D01*
X5512374Y-4111595D01*
X5536191Y-4073480D01*
X5562605Y-4037124D01*
X5607521Y-3959328D01*
X5836762Y-3528189D01*
X5855040Y-3487137D01*
X5876142Y-3447449D01*
X5909793Y-3364159D01*
X6076800Y-2905312D01*
X6089188Y-2862109D01*
X6104560Y-2819876D01*
X6126292Y-2732713D01*
X6227814Y-2255088D01*
X6234068Y-2210587D01*
X6243413Y-2166623D01*
X6252803Y-2077283D01*
X6286865Y-1590178D01*
X6286865Y-1590176D01*
X6295185Y-1471194D01*
X6301273Y-1442551D01*
X6311283Y-1415049D01*
X6325034Y-1389188D01*
X6342239Y-1365508D01*
X6362576Y-1344448D01*
X6385651Y-1326420D01*
X6411004Y-1311782D01*
X6438155Y-1300812D01*
X6466556Y-1293731D01*
X6526793Y-1287400D01*
X17458055Y-1287400D01*
X17532206Y-1292585D01*
X17532206Y-1292585D01*
G37*
X17532206Y-1292585D02*
X17560849Y-1298673D01*
X17588351Y-1308683D01*
X17614212Y-1322434D01*
X17637892Y-1339639D01*
X17658952Y-1359976D01*
X17676980Y-1383051D01*
X17691618Y-1408404D01*
X17702588Y-1435555D01*
X17709669Y-1463956D01*
X17716784Y-1531653D01*
X17716784Y-1545317D01*
X17725310Y-1789465D01*
X17727661Y-1811833D01*
X17727661Y-1834323D01*
X17737051Y-1923662D01*
X17805008Y-2407205D01*
X17814351Y-2451161D01*
X17820607Y-2495674D01*
X17842336Y-2582821D01*
X17842339Y-2582835D01*
X17842340Y-2582837D01*
X17976933Y-3052217D01*
X17992300Y-3094439D01*
X18004691Y-3137650D01*
X18038343Y-3220941D01*
X18236950Y-3667020D01*
X18258049Y-3706701D01*
X18276330Y-3747761D01*
X18321246Y-3825558D01*
X18580004Y-4239656D01*
X18606422Y-4276017D01*
X18630236Y-4314127D01*
X18685541Y-4384915D01*
X18999411Y-4758971D01*
X19030628Y-4791296D01*
X19059519Y-4825728D01*
X19124139Y-4888130D01*
X19487013Y-5214865D01*
X19522432Y-5242537D01*
X19555829Y-5272608D01*
X19628504Y-5325410D01*
X20033319Y-5598461D01*
X20072246Y-5620935D01*
X20109501Y-5646064D01*
X20188818Y-5688238D01*
X20627695Y-5902292D01*
X20669366Y-5919128D01*
X20709757Y-5938828D01*
X20794171Y-5969552D01*
X21258567Y-6120444D01*
X21302173Y-6131316D01*
X21344918Y-6145205D01*
X21432787Y-6163882D01*
X21913663Y-6248674D01*
X21958354Y-6253371D01*
X22002622Y-6261177D01*
X22092229Y-6267443D01*
X22092235Y-6267443D01*
X22580233Y-6284484D01*
X22625149Y-6282916D01*
X22670064Y-6284484D01*
X22759677Y-6278218D01*
X23245298Y-6227177D01*
X23289556Y-6219373D01*
X23334254Y-6214675D01*
X23422122Y-6195998D01*
X23895912Y-6077869D01*
X23938657Y-6063980D01*
X23982264Y-6053108D01*
X24066661Y-6022389D01*
X24066677Y-6022384D01*
X24066684Y-6022381D01*
X24519418Y-5839464D01*
X24559804Y-5819766D01*
X24601481Y-5802928D01*
X24680798Y-5760754D01*
X25103674Y-5516607D01*
X25140931Y-5491477D01*
X25179857Y-5469003D01*
X25252532Y-5416201D01*
X25637314Y-5115576D01*
X25670706Y-5085510D01*
X25706127Y-5057836D01*
X25770746Y-4995433D01*
X25998981Y-4759090D01*
X34938695Y-4759090D01*
X37500000Y-7320395D01*
X40061305Y-4759090D01*
X39694360Y-4263657D01*
X38288829Y-3670264D01*
X36763207Y-3659913D01*
X35349754Y-4234181D01*
X35305640Y-4263657D01*
X34938695Y-4759090D01*
X25998981Y-4759090D01*
X26109946Y-4644183D01*
X26138835Y-4609754D01*
X26170057Y-4577423D01*
X26225363Y-4506634D01*
X26512374Y-4111595D01*
X26536191Y-4073480D01*
X26562605Y-4037124D01*
X26607521Y-3959328D01*
X26836762Y-3528189D01*
X26855040Y-3487137D01*
X26876142Y-3447449D01*
X26909793Y-3364159D01*
X27076800Y-2905312D01*
X27089188Y-2862109D01*
X27104560Y-2819876D01*
X27126292Y-2732713D01*
X27227814Y-2255088D01*
X27234068Y-2210587D01*
X27243413Y-2166623D01*
X27252803Y-2077283D01*
X27286865Y-1590178D01*
X27286865Y-1590176D01*
X27295185Y-1471194D01*
X27301273Y-1442551D01*
X27311283Y-1415049D01*
X27325034Y-1389188D01*
X27342239Y-1365508D01*
X27362576Y-1344448D01*
X27385651Y-1326420D01*
X27411004Y-1311782D01*
X27438155Y-1300812D01*
X27466556Y-1293731D01*
X27526793Y-1287400D01*
X97458055Y-1287400D01*
X97532206Y-1292585D01*
X97560849Y-1298673D01*
X97588351Y-1308683D01*
X97614212Y-1322434D01*
X97637892Y-1339639D01*
X97658952Y-1359976D01*
X97676980Y-1383051D01*
X97691618Y-1408404D01*
X97702588Y-1435555D01*
X97709669Y-1463956D01*
X97716784Y-1531653D01*
X97716784Y-1545317D01*
X97725310Y-1789465D01*
X97727661Y-1811833D01*
X97727661Y-1834323D01*
X97737051Y-1923662D01*
X97805008Y-2407205D01*
X97814351Y-2451161D01*
X97820607Y-2495674D01*
X97842336Y-2582821D01*
X97842339Y-2582835D01*
X97842340Y-2582837D01*
X97976933Y-3052217D01*
X97992300Y-3094439D01*
X98004691Y-3137650D01*
X98038343Y-3220941D01*
X98236950Y-3667020D01*
X98258049Y-3706701D01*
X98276330Y-3747761D01*
X98321246Y-3825558D01*
X98580004Y-4239656D01*
X98606422Y-4276017D01*
X98630236Y-4314127D01*
X98685541Y-4384915D01*
X98999411Y-4758971D01*
X99030628Y-4791296D01*
X99059519Y-4825728D01*
X99124139Y-4888130D01*
X99487013Y-5214865D01*
X99522432Y-5242537D01*
X99555829Y-5272608D01*
X99628504Y-5325410D01*
X100033319Y-5598461D01*
X100072246Y-5620935D01*
X100109501Y-5646064D01*
X100188818Y-5688238D01*
X100627695Y-5902292D01*
X100669366Y-5919128D01*
X100709757Y-5938828D01*
X100794171Y-5969552D01*
X101258567Y-6120444D01*
X101302173Y-6131316D01*
X101344918Y-6145205D01*
X101432787Y-6163882D01*
X101913663Y-6248674D01*
X101958354Y-6253371D01*
X102002622Y-6261177D01*
X102092229Y-6267443D01*
X102092235Y-6267443D01*
X102580233Y-6284484D01*
X102625149Y-6282916D01*
X102670064Y-6284484D01*
X102759677Y-6278218D01*
X103245298Y-6227177D01*
X103289556Y-6219373D01*
X103334254Y-6214675D01*
X103422122Y-6195998D01*
X103895912Y-6077869D01*
X103938657Y-6063980D01*
X103982264Y-6053108D01*
X104066661Y-6022389D01*
X104066677Y-6022384D01*
X104066684Y-6022381D01*
X104519418Y-5839464D01*
X104559804Y-5819766D01*
X104601481Y-5802928D01*
X104680798Y-5760754D01*
X105103674Y-5516607D01*
X105140931Y-5491477D01*
X105179857Y-5469003D01*
X105252532Y-5416201D01*
X105637314Y-5115576D01*
X105670706Y-5085510D01*
X105706127Y-5057836D01*
X105770746Y-4995433D01*
X106109946Y-4644183D01*
X106138835Y-4609754D01*
X106170057Y-4577423D01*
X106225363Y-4506634D01*
X106512374Y-4111595D01*
X106536191Y-4073480D01*
X106562605Y-4037124D01*
X106607521Y-3959328D01*
X106836762Y-3528189D01*
X106855040Y-3487137D01*
X106876142Y-3447449D01*
X106909793Y-3364159D01*
X107076800Y-2905312D01*
X107089188Y-2862109D01*
X107104560Y-2819876D01*
X107126292Y-2732713D01*
X107227814Y-2255088D01*
X107234068Y-2210587D01*
X107243413Y-2166623D01*
X107252803Y-2077283D01*
X107286865Y-1590178D01*
X107286865Y-1590176D01*
X107295185Y-1471194D01*
X107301273Y-1442551D01*
X107311283Y-1415049D01*
X107325034Y-1389188D01*
X107342239Y-1365508D01*
X107362576Y-1344448D01*
X107385651Y-1326420D01*
X107411004Y-1311782D01*
X107438155Y-1300812D01*
X107466556Y-1293731D01*
X107526793Y-1287400D01*
X118458055Y-1287400D01*
X118532206Y-1292585D01*
X118560849Y-1298673D01*
X118588351Y-1308683D01*
X118614212Y-1322434D01*
X118637892Y-1339639D01*
X118658952Y-1359976D01*
X118676980Y-1383051D01*
X118691618Y-1408404D01*
X118702588Y-1435555D01*
X118709669Y-1463956D01*
X118716263Y-1526695D01*
X118718328Y-1645009D01*
X118719309Y-1656218D01*
X118718916Y-1667464D01*
X118725182Y-1757077D01*
X118776223Y-2242698D01*
X118784027Y-2286956D01*
X118788725Y-2331654D01*
X118807402Y-2419522D01*
X118925531Y-2893312D01*
X118939420Y-2936057D01*
X118950292Y-2979664D01*
X118981011Y-3064061D01*
X118981016Y-3064077D01*
X118981019Y-3064084D01*
X119163936Y-3516818D01*
X119183634Y-3557204D01*
X119200472Y-3598881D01*
X119242646Y-3678198D01*
X119486793Y-4101074D01*
X119511923Y-4138331D01*
X119534397Y-4177257D01*
X119554169Y-4204471D01*
X118288829Y-3670264D01*
X116763207Y-3659913D01*
X115349754Y-4234181D01*
X115305640Y-4263657D01*
X114938695Y-4759090D01*
X117500000Y-7320395D01*
X117514143Y-7306253D01*
X117693748Y-7485858D01*
X117679605Y-7500000D01*
X120240910Y-10061305D01*
X120736343Y-9694360D01*
X121329736Y-8288829D01*
X121340087Y-6763207D01*
X120805298Y-5446923D01*
X120891805Y-5509774D01*
X120929920Y-5533591D01*
X120966276Y-5560005D01*
X121044069Y-5604919D01*
X121044075Y-5604923D01*
X121044080Y-5604925D01*
X121475211Y-5834162D01*
X121516263Y-5852440D01*
X121555951Y-5873542D01*
X121639241Y-5907193D01*
X122098088Y-6074200D01*
X122141291Y-6086588D01*
X122183524Y-6101960D01*
X122270679Y-6123690D01*
X122270686Y-6123692D01*
X122270689Y-6123692D01*
X122748312Y-6225214D01*
X122792813Y-6231468D01*
X122836777Y-6240813D01*
X122926117Y-6250203D01*
X123413222Y-6284265D01*
X123413223Y-6284265D01*
X123532206Y-6292585D01*
X123560849Y-6298673D01*
X123588351Y-6308683D01*
X123614212Y-6322434D01*
X123637892Y-6339639D01*
X123658952Y-6359976D01*
X123676980Y-6383051D01*
X123691618Y-6408404D01*
X123702588Y-6435555D01*
X123709669Y-6463956D01*
X123716000Y-6524193D01*
X123716001Y-68455441D01*
X123710815Y-68529605D01*
X123704727Y-68558248D01*
X123694716Y-68585753D01*
X123680967Y-68611611D01*
X123663763Y-68635291D01*
X123643420Y-68656356D01*
X123620351Y-68674379D01*
X123594997Y-68689017D01*
X123567844Y-68699988D01*
X123539443Y-68707069D01*
X123476705Y-68713663D01*
X123358392Y-68715728D01*
X123347182Y-68716709D01*
X123335936Y-68716316D01*
X123246323Y-68722582D01*
X122760702Y-68773623D01*
X122716444Y-68781427D01*
X122671746Y-68786125D01*
X122583877Y-68804802D01*
X122110088Y-68922931D01*
X122067342Y-68936820D01*
X122023736Y-68947692D01*
X121939322Y-68978416D01*
X121486582Y-69161336D01*
X121446196Y-69181034D01*
X121404519Y-69197872D01*
X121325202Y-69240046D01*
X120902326Y-69484193D01*
X120865072Y-69509321D01*
X120826144Y-69531796D01*
X120795609Y-69553981D01*
X121329736Y-68288829D01*
X121340087Y-66763207D01*
X120765819Y-65349754D01*
X120736343Y-65305640D01*
X120240910Y-64938695D01*
X117679605Y-67500000D01*
X117693748Y-67514143D01*
X117514143Y-67693748D01*
X117500000Y-67679605D01*
X114938695Y-70240910D01*
X115305640Y-70736343D01*
X116711171Y-71329736D01*
X118236793Y-71340087D01*
X119555221Y-70804427D01*
X119493625Y-70889206D01*
X119469808Y-70927322D01*
X119443395Y-70963676D01*
X119398479Y-71041473D01*
X119169238Y-71472611D01*
X119150961Y-71513662D01*
X119129858Y-71553351D01*
X119096207Y-71636641D01*
X118929200Y-72095488D01*
X118916813Y-72138688D01*
X118901440Y-72180924D01*
X118879708Y-72268088D01*
X118778186Y-72745712D01*
X118771931Y-72790216D01*
X118762587Y-72834178D01*
X118753197Y-72923517D01*
X118719135Y-73410623D01*
X118710815Y-73529605D01*
X118704727Y-73558248D01*
X118694716Y-73585753D01*
X118680967Y-73611611D01*
X118663763Y-73635291D01*
X118643420Y-73656356D01*
X118620351Y-73674379D01*
X118594997Y-73689017D01*
X118567844Y-73699988D01*
X118539443Y-73707069D01*
X118479206Y-73713400D01*
X107547945Y-73713400D01*
X107473795Y-73708215D01*
X107445152Y-73702127D01*
X107417647Y-73692116D01*
X107391789Y-73678367D01*
X107368109Y-73661163D01*
X107347044Y-73640820D01*
X107329021Y-73617751D01*
X107314383Y-73592397D01*
X107303412Y-73565244D01*
X107296331Y-73536843D01*
X107289216Y-73469147D01*
X107289216Y-73455484D01*
X107280690Y-73211335D01*
X107278339Y-73188967D01*
X107278339Y-73166477D01*
X107268949Y-73077138D01*
X107200992Y-72593595D01*
X107191649Y-72549639D01*
X107185393Y-72505126D01*
X107163661Y-72417963D01*
X107029067Y-71948583D01*
X107013700Y-71906361D01*
X107001309Y-71863150D01*
X106967657Y-71779859D01*
X106769050Y-71333780D01*
X106747951Y-71294099D01*
X106729670Y-71253039D01*
X106684754Y-71175242D01*
X106425996Y-70761144D01*
X106399576Y-70724780D01*
X106375764Y-70686673D01*
X106320458Y-70615885D01*
X106320457Y-70615883D01*
X106320452Y-70615878D01*
X106006589Y-70241829D01*
X105975371Y-70209502D01*
X105946481Y-70175072D01*
X105881861Y-70112670D01*
X105518987Y-69785936D01*
X105483574Y-69758268D01*
X105450171Y-69728192D01*
X105377496Y-69675390D01*
X104972681Y-69402339D01*
X104933754Y-69379865D01*
X104896499Y-69354736D01*
X104817182Y-69312562D01*
X104378305Y-69098508D01*
X104336634Y-69081672D01*
X104296243Y-69061972D01*
X104211829Y-69031248D01*
X103747433Y-68880356D01*
X103703827Y-68869484D01*
X103661082Y-68855595D01*
X103573213Y-68836918D01*
X103092336Y-68752126D01*
X103047645Y-68747429D01*
X103003377Y-68739623D01*
X102913771Y-68733357D01*
X102913765Y-68733357D01*
X102425767Y-68716316D01*
X102380851Y-68717884D01*
X102335936Y-68716316D01*
X102246323Y-68722582D01*
X101760702Y-68773623D01*
X101716444Y-68781427D01*
X101671746Y-68786125D01*
X101583877Y-68804802D01*
X101110088Y-68922931D01*
X101067342Y-68936820D01*
X101023736Y-68947692D01*
X100939322Y-68978416D01*
X100486582Y-69161336D01*
X100446196Y-69181034D01*
X100404519Y-69197872D01*
X100325202Y-69240046D01*
X99902326Y-69484193D01*
X99865072Y-69509321D01*
X99826144Y-69531796D01*
X99753468Y-69584598D01*
X99368686Y-69885224D01*
X99335287Y-69915296D01*
X99299874Y-69942964D01*
X99235254Y-70005366D01*
X98896055Y-70356617D01*
X98867166Y-70391045D01*
X98835943Y-70423378D01*
X98780637Y-70494166D01*
X98493625Y-70889206D01*
X98469808Y-70927322D01*
X98443395Y-70963676D01*
X98398479Y-71041473D01*
X98169238Y-71472611D01*
X98150961Y-71513662D01*
X98129858Y-71553351D01*
X98096207Y-71636641D01*
X97929200Y-72095488D01*
X97916813Y-72138688D01*
X97901440Y-72180924D01*
X97879708Y-72268088D01*
X97778186Y-72745712D01*
X97771931Y-72790216D01*
X97762587Y-72834178D01*
X97753197Y-72923517D01*
X97719135Y-73410623D01*
X97710815Y-73529605D01*
X97704727Y-73558248D01*
X97694716Y-73585753D01*
X97680967Y-73611611D01*
X97663763Y-73635291D01*
X97643420Y-73656356D01*
X97620351Y-73674379D01*
X97594997Y-73689017D01*
X97567844Y-73699988D01*
X97539443Y-73707069D01*
X97479206Y-73713400D01*
X27547945Y-73713400D01*
X27473795Y-73708215D01*
X27445152Y-73702127D01*
X27417647Y-73692116D01*
X27391789Y-73678367D01*
X27368109Y-73661163D01*
X27347044Y-73640820D01*
X27329021Y-73617751D01*
X27314383Y-73592397D01*
X27303412Y-73565244D01*
X27296331Y-73536843D01*
X27289216Y-73469147D01*
X27289216Y-73455484D01*
X27280690Y-73211335D01*
X27278339Y-73188967D01*
X27278339Y-73166477D01*
X27268949Y-73077138D01*
X27200992Y-72593595D01*
X27191649Y-72549639D01*
X27185393Y-72505126D01*
X27163661Y-72417963D01*
X27029067Y-71948583D01*
X27013700Y-71906361D01*
X27001309Y-71863150D01*
X26967657Y-71779859D01*
X26769050Y-71333780D01*
X26747951Y-71294099D01*
X26729670Y-71253039D01*
X26684754Y-71175242D01*
X26425996Y-70761144D01*
X26399576Y-70724780D01*
X26375764Y-70686673D01*
X26320458Y-70615885D01*
X26320457Y-70615883D01*
X26320452Y-70615878D01*
X26006589Y-70241829D01*
X26005702Y-70240910D01*
X34938695Y-70240910D01*
X35305640Y-70736343D01*
X36711171Y-71329736D01*
X38236793Y-71340087D01*
X39650246Y-70765819D01*
X39694360Y-70736343D01*
X40061305Y-70240910D01*
X37500000Y-67679605D01*
X34938695Y-70240910D01*
X26005702Y-70240910D01*
X25975371Y-70209502D01*
X25946481Y-70175072D01*
X25881861Y-70112670D01*
X25518987Y-69785936D01*
X25483574Y-69758268D01*
X25450171Y-69728192D01*
X25377496Y-69675390D01*
X24972681Y-69402339D01*
X24933754Y-69379865D01*
X24896499Y-69354736D01*
X24817182Y-69312562D01*
X24378305Y-69098508D01*
X24336634Y-69081672D01*
X24296243Y-69061972D01*
X24211829Y-69031248D01*
X23747433Y-68880356D01*
X23703827Y-68869484D01*
X23661082Y-68855595D01*
X23573213Y-68836918D01*
X23092336Y-68752126D01*
X23047645Y-68747429D01*
X23003377Y-68739623D01*
X22913771Y-68733357D01*
X22913765Y-68733357D01*
X22425767Y-68716316D01*
X22380851Y-68717884D01*
X22335936Y-68716316D01*
X22246323Y-68722582D01*
X21760702Y-68773623D01*
X21716444Y-68781427D01*
X21671746Y-68786125D01*
X21583877Y-68804802D01*
X21110088Y-68922931D01*
X21067342Y-68936820D01*
X21023736Y-68947692D01*
X20939322Y-68978416D01*
X20486582Y-69161336D01*
X20446196Y-69181034D01*
X20404519Y-69197872D01*
X20325202Y-69240046D01*
X19902326Y-69484193D01*
X19865072Y-69509321D01*
X19826144Y-69531796D01*
X19753468Y-69584598D01*
X19368686Y-69885224D01*
X19335287Y-69915296D01*
X19299874Y-69942964D01*
X19235254Y-70005366D01*
X18896055Y-70356617D01*
X18867166Y-70391045D01*
X18835943Y-70423378D01*
X18780637Y-70494166D01*
X18493625Y-70889206D01*
X18469808Y-70927322D01*
X18443395Y-70963676D01*
X18398479Y-71041473D01*
X18169238Y-71472611D01*
X18150961Y-71513662D01*
X18129858Y-71553351D01*
X18096207Y-71636641D01*
X17929200Y-72095488D01*
X17916813Y-72138688D01*
X17901440Y-72180924D01*
X17879708Y-72268088D01*
X17778186Y-72745712D01*
X17771931Y-72790216D01*
X17762587Y-72834178D01*
X17753197Y-72923517D01*
X17719135Y-73410623D01*
X17710815Y-73529605D01*
X17704727Y-73558248D01*
X17694716Y-73585753D01*
X17680967Y-73611611D01*
X17663763Y-73635291D01*
X17643420Y-73656356D01*
X17620351Y-73674379D01*
X17594997Y-73689017D01*
X17567844Y-73699988D01*
X17539443Y-73707069D01*
X17479206Y-73713400D01*
X6547945Y-73713400D01*
X6473795Y-73708215D01*
X6445152Y-73702127D01*
X6417647Y-73692116D01*
X6391789Y-73678367D01*
X6368109Y-73661163D01*
X6347044Y-73640820D01*
X6329021Y-73617751D01*
X6314383Y-73592397D01*
X6303412Y-73565244D01*
X6296331Y-73536843D01*
X6289737Y-73474105D01*
X6287672Y-73355792D01*
X6286691Y-73344582D01*
X6287084Y-73333336D01*
X6280818Y-73243723D01*
X6229777Y-72758102D01*
X6221973Y-72713844D01*
X6217275Y-72669146D01*
X6198598Y-72581277D01*
X6080469Y-72107488D01*
X6066580Y-72064742D01*
X6055708Y-72021136D01*
X6024984Y-71936722D01*
X5842064Y-71483982D01*
X5822366Y-71443596D01*
X5805528Y-71401919D01*
X5763354Y-71322602D01*
X5519207Y-70899726D01*
X5494079Y-70862472D01*
X5471604Y-70823544D01*
X5453648Y-70798830D01*
X6711171Y-71329736D01*
X8236793Y-71340087D01*
X9650246Y-70765819D01*
X9694360Y-70736343D01*
X10061305Y-70240910D01*
X7500000Y-67679605D01*
X7485858Y-67693748D01*
X7306253Y-67514143D01*
X7320395Y-67500000D01*
X7679605Y-67500000D01*
X10240910Y-70061305D01*
X10736343Y-69694360D01*
X11329736Y-68288829D01*
X11330089Y-68236793D01*
X33659913Y-68236793D01*
X34234181Y-69650246D01*
X34263657Y-69694360D01*
X34759090Y-70061305D01*
X37320395Y-67500000D01*
X37679605Y-67500000D01*
X40240910Y-70061305D01*
X40736343Y-69694360D01*
X41329736Y-68288829D01*
X41330089Y-68236793D01*
X113659913Y-68236793D01*
X114234181Y-69650246D01*
X114263657Y-69694360D01*
X114759090Y-70061305D01*
X117320395Y-67500000D01*
X114759090Y-64938695D01*
X114263657Y-65305640D01*
X113670264Y-66711171D01*
X113659913Y-68236793D01*
X41330089Y-68236793D01*
X41340087Y-66763207D01*
X40765819Y-65349754D01*
X40736343Y-65305640D01*
X40240910Y-64938695D01*
X37679605Y-67500000D01*
X37320395Y-67500000D01*
X34759090Y-64938695D01*
X34263657Y-65305640D01*
X33670264Y-66711171D01*
X33659913Y-68236793D01*
X11330089Y-68236793D01*
X11340087Y-66763207D01*
X10765819Y-65349754D01*
X10736343Y-65305640D01*
X10240910Y-64938695D01*
X7679605Y-67500000D01*
X7320395Y-67500000D01*
X4759090Y-64938695D01*
X4263657Y-65305640D01*
X3670264Y-66711171D01*
X3659913Y-68236793D01*
X4192651Y-69548027D01*
X4114194Y-69491025D01*
X4076078Y-69467208D01*
X4039724Y-69440795D01*
X3961927Y-69395879D01*
X3961924Y-69395877D01*
X3961919Y-69395875D01*
X3530789Y-69166638D01*
X3489738Y-69148361D01*
X3450049Y-69127258D01*
X3366759Y-69093607D01*
X2907912Y-68926600D01*
X2864712Y-68914213D01*
X2822476Y-68898840D01*
X2735327Y-68877112D01*
X2735314Y-68877108D01*
X2735308Y-68877107D01*
X2257688Y-68775586D01*
X2213184Y-68769331D01*
X2169222Y-68759987D01*
X2079883Y-68750597D01*
X1592777Y-68716535D01*
X1473795Y-68708215D01*
X1445152Y-68702127D01*
X1417647Y-68692116D01*
X1391789Y-68678367D01*
X1368109Y-68661163D01*
X1347044Y-68640820D01*
X1329021Y-68617751D01*
X1314383Y-68592397D01*
X1303412Y-68565244D01*
X1296331Y-68536843D01*
X1290000Y-68476606D01*
X1290000Y-64759090D01*
X4938695Y-64759090D01*
X7500000Y-67320395D01*
X10061305Y-64759090D01*
X9694360Y-64263657D01*
X8288829Y-63670264D01*
X6763207Y-63659913D01*
X5349754Y-64234181D01*
X5305640Y-64263657D01*
X4938695Y-64759090D01*
X1290000Y-64759090D01*
X1290000Y-23530000D01*
X7881134Y-23530000D01*
X8046990Y-24363816D01*
X8338439Y-24800000D01*
X8046990Y-25236184D01*
X7881134Y-26070000D01*
X8046990Y-26903816D01*
X8338439Y-27340000D01*
X8046990Y-27776184D01*
X7881134Y-28610000D01*
X8046990Y-29443816D01*
X8338439Y-29880000D01*
X8046990Y-30316184D01*
X7881134Y-31150000D01*
X8046990Y-31983816D01*
X8338439Y-32420000D01*
X8046990Y-32856184D01*
X7881134Y-33690000D01*
X8046990Y-34523816D01*
X8338439Y-34960000D01*
X8046990Y-35396184D01*
X7881134Y-36230000D01*
X8046990Y-37063816D01*
X8338439Y-37500000D01*
X8046990Y-37936184D01*
X7881134Y-38770000D01*
X8046990Y-39603816D01*
X8338439Y-40040000D01*
X8046990Y-40476184D01*
X7881134Y-41310000D01*
X8046990Y-42143816D01*
X8338439Y-42580000D01*
X8046990Y-43016184D01*
X7881134Y-43850000D01*
X8046990Y-44683816D01*
X8338439Y-45120000D01*
X8046990Y-45556184D01*
X7881134Y-46390000D01*
X8046990Y-47223816D01*
X8338439Y-47660000D01*
X8046990Y-48096184D01*
X7881134Y-48930000D01*
X8046990Y-49763816D01*
X8338439Y-50200000D01*
X8046990Y-50636184D01*
X7881134Y-51470000D01*
X8046990Y-52303816D01*
X8338439Y-52740000D01*
X8046990Y-53176184D01*
X7881134Y-54010000D01*
X8046990Y-54843816D01*
X8338439Y-55280000D01*
X8046990Y-55716184D01*
X7881134Y-56550000D01*
X8046990Y-57383816D01*
X8338439Y-57820000D01*
X8046990Y-58256184D01*
X7881134Y-59090000D01*
X8046990Y-59923816D01*
X8338439Y-60360000D01*
X8046990Y-60796184D01*
X7881134Y-61630000D01*
X8046990Y-62463816D01*
X8519309Y-63170691D01*
X9226184Y-63643010D01*
X9849525Y-63767000D01*
X10270475Y-63767000D01*
X10893816Y-63643010D01*
X11600691Y-63170691D01*
X12073010Y-62463816D01*
X12238866Y-61630000D01*
X12073010Y-60796184D01*
X11781561Y-60360000D01*
X12073010Y-59923816D01*
X12238866Y-59090000D01*
X12073010Y-58256184D01*
X11781561Y-57820000D01*
X12073010Y-57383816D01*
X12238866Y-56550000D01*
X12073010Y-55716184D01*
X11781561Y-55280000D01*
X12073010Y-54843816D01*
X12238866Y-54010000D01*
X12073010Y-53176184D01*
X11781561Y-52740000D01*
X12073010Y-52303816D01*
X12238866Y-51470000D01*
X12073010Y-50636184D01*
X11781561Y-50200000D01*
X12073010Y-49763816D01*
X12238866Y-48930000D01*
X12073010Y-48096184D01*
X11781561Y-47660000D01*
X12073010Y-47223816D01*
X12238866Y-46390000D01*
X12073010Y-45556184D01*
X11781561Y-45120000D01*
X12073010Y-44683816D01*
X12238866Y-43850000D01*
X12073010Y-43016184D01*
X11781561Y-42580000D01*
X12073010Y-42143816D01*
X12238866Y-41310000D01*
X12073010Y-40476184D01*
X11781561Y-40040000D01*
X12073010Y-39603816D01*
X12238866Y-38770000D01*
X12208671Y-38618198D01*
X14580540Y-36246329D01*
X14698435Y-36167555D01*
X15010514Y-35700495D01*
X15092440Y-35288626D01*
X15092440Y-35288625D01*
X15120102Y-35149561D01*
X15092440Y-35010496D01*
X15092440Y-28839829D01*
X17537787Y-26394482D01*
X17537787Y-27075000D01*
X17590499Y-27340000D01*
X17537787Y-27605000D01*
X17537787Y-28345000D01*
X17590499Y-28610000D01*
X17537787Y-28875000D01*
X17537787Y-29615000D01*
X17590499Y-29880000D01*
X17537787Y-30145000D01*
X17537787Y-30885000D01*
X17590499Y-31150000D01*
X17537787Y-31415000D01*
X17537787Y-32155000D01*
X17590499Y-32420000D01*
X17537787Y-32685000D01*
X17537787Y-33425000D01*
X17590499Y-33690000D01*
X17537787Y-33955000D01*
X17537787Y-34695000D01*
X17590499Y-34960000D01*
X17537787Y-35225000D01*
X17537787Y-35965000D01*
X17590499Y-36230000D01*
X17537787Y-36495000D01*
X17537787Y-37235000D01*
X17590499Y-37500000D01*
X17537787Y-37765000D01*
X17537787Y-38505000D01*
X17590499Y-38770000D01*
X17537787Y-39035000D01*
X17537787Y-39775000D01*
X17590499Y-40040000D01*
X17537787Y-40305000D01*
X17537787Y-41045000D01*
X17590499Y-41310000D01*
X17537787Y-41575000D01*
X17537787Y-42315000D01*
X17590499Y-42580000D01*
X17537787Y-42845000D01*
X17537787Y-43585000D01*
X17590499Y-43850000D01*
X17537787Y-44115000D01*
X17537787Y-44855000D01*
X17590499Y-45120000D01*
X17537787Y-45385000D01*
X17537787Y-46125000D01*
X17590499Y-46390000D01*
X17537787Y-46655000D01*
X17537787Y-47395000D01*
X17590499Y-47660000D01*
X17537787Y-47925000D01*
X17537787Y-48665000D01*
X17590499Y-48930000D01*
X17537787Y-49195000D01*
X17537787Y-49935000D01*
X17590499Y-50200000D01*
X17537787Y-50465000D01*
X17537787Y-51205000D01*
X17590499Y-51470000D01*
X17537787Y-51735000D01*
X17537787Y-52475000D01*
X17590499Y-52740000D01*
X17537787Y-53005000D01*
X17537787Y-53745000D01*
X17590499Y-54010000D01*
X17537787Y-54275000D01*
X17537787Y-55015000D01*
X17590499Y-55280000D01*
X17537787Y-55545000D01*
X17537787Y-56285000D01*
X17590499Y-56550000D01*
X17537787Y-56815000D01*
X17537787Y-57555000D01*
X17590499Y-57820000D01*
X17537787Y-58085000D01*
X17537787Y-58825000D01*
X17590499Y-59090000D01*
X17537787Y-59355000D01*
X17537787Y-60095000D01*
X17590499Y-60360000D01*
X17537787Y-60625000D01*
X17537787Y-61365000D01*
X17590499Y-61630000D01*
X17537787Y-61895000D01*
X17537787Y-62635000D01*
X17637673Y-63137162D01*
X17922125Y-63562875D01*
X18347838Y-63847327D01*
X18850000Y-63947213D01*
X20413000Y-63947213D01*
X20413000Y-64254930D01*
X20730727Y-65021991D01*
X21317809Y-65609073D01*
X22084870Y-65926800D01*
X22915130Y-65926800D01*
X23682191Y-65609073D01*
X24269273Y-65021991D01*
X24378170Y-64759090D01*
X34938695Y-64759090D01*
X37500000Y-67320395D01*
X40061305Y-64759090D01*
X114938695Y-64759090D01*
X117500000Y-67320395D01*
X120061305Y-64759090D01*
X119694360Y-64263657D01*
X118288829Y-63670264D01*
X116763207Y-63659913D01*
X115349754Y-64234181D01*
X115305640Y-64263657D01*
X114938695Y-64759090D01*
X40061305Y-64759090D01*
X39694360Y-64263657D01*
X38288829Y-63670264D01*
X36763207Y-63659913D01*
X35349754Y-64234181D01*
X35305640Y-64263657D01*
X34938695Y-64759090D01*
X24378170Y-64759090D01*
X24587000Y-64254930D01*
X24587000Y-63947213D01*
X26150000Y-63947213D01*
X26652162Y-63847327D01*
X27077875Y-63562875D01*
X27362327Y-63137162D01*
X27462213Y-62635000D01*
X27462213Y-61895000D01*
X27409501Y-61630000D01*
X27462213Y-61365000D01*
X27462213Y-60625000D01*
X27409501Y-60360000D01*
X27462213Y-60095000D01*
X27462213Y-59355000D01*
X27409501Y-59090000D01*
X27462213Y-58825000D01*
X27462213Y-58085000D01*
X27409501Y-57820000D01*
X27462213Y-57555000D01*
X27462213Y-56815000D01*
X27409501Y-56550000D01*
X27462213Y-56285000D01*
X27462213Y-55545000D01*
X27409501Y-55280000D01*
X27462213Y-55015000D01*
X27462213Y-54275000D01*
X27409501Y-54010000D01*
X27462213Y-53745000D01*
X27462213Y-53005000D01*
X27409501Y-52740000D01*
X27462213Y-52475000D01*
X27462213Y-51735000D01*
X27409501Y-51470000D01*
X27462213Y-51205000D01*
X27462213Y-50465000D01*
X27409501Y-50200000D01*
X27462213Y-49935000D01*
X27462213Y-49195000D01*
X27409501Y-48930000D01*
X27462213Y-48665000D01*
X27462213Y-47925000D01*
X27409501Y-47660000D01*
X27462213Y-47395000D01*
X27462213Y-46655000D01*
X27409501Y-46390000D01*
X27462213Y-46125000D01*
X27462213Y-45385000D01*
X27409501Y-45120000D01*
X27462213Y-44855000D01*
X27462213Y-44115000D01*
X27409501Y-43850000D01*
X27462213Y-43585000D01*
X27462213Y-42845000D01*
X27409501Y-42580000D01*
X27462213Y-42315000D01*
X27462213Y-41575000D01*
X27409501Y-41310000D01*
X27462213Y-41045000D01*
X27462213Y-40305000D01*
X27409501Y-40040000D01*
X27462213Y-39775000D01*
X27462213Y-39035000D01*
X27409501Y-38770000D01*
X27462213Y-38505000D01*
X27462213Y-37765000D01*
X27409501Y-37500000D01*
X27462213Y-37235000D01*
X27462213Y-36495000D01*
X27409501Y-36230000D01*
X27462213Y-35965000D01*
X27462213Y-35225000D01*
X27409501Y-34960000D01*
X27462213Y-34695000D01*
X27462213Y-33955000D01*
X27409501Y-33690000D01*
X27462213Y-33425000D01*
X27462213Y-32685000D01*
X27409501Y-32420000D01*
X27462213Y-32155000D01*
X27462213Y-31415000D01*
X27409501Y-31150000D01*
X27462213Y-30885000D01*
X27462213Y-30145000D01*
X27409501Y-29880000D01*
X27462213Y-29615000D01*
X27462213Y-28875000D01*
X27409501Y-28610000D01*
X27462213Y-28345000D01*
X27462213Y-27605000D01*
X27409501Y-27340000D01*
X27462213Y-27075000D01*
X27462213Y-26335000D01*
X27409501Y-26070000D01*
X27462213Y-25805000D01*
X27462213Y-25065000D01*
X27409501Y-24800000D01*
X27462213Y-24535000D01*
X27462213Y-23795000D01*
X27409501Y-23530000D01*
X112761134Y-23530000D01*
X112926990Y-24363816D01*
X113218439Y-24800000D01*
X112926990Y-25236184D01*
X112761134Y-26070000D01*
X112926990Y-26903816D01*
X113218439Y-27340000D01*
X112926990Y-27776184D01*
X112761134Y-28610000D01*
X112926990Y-29443816D01*
X113218439Y-29880000D01*
X112926990Y-30316184D01*
X112761134Y-31150000D01*
X112926990Y-31983816D01*
X113218439Y-32420000D01*
X112926990Y-32856184D01*
X112761134Y-33690000D01*
X112926990Y-34523816D01*
X113218439Y-34960000D01*
X112926990Y-35396184D01*
X112761134Y-36230000D01*
X112926990Y-37063816D01*
X113218439Y-37500000D01*
X112926990Y-37936184D01*
X112761134Y-38770000D01*
X112926990Y-39603816D01*
X113218439Y-40040000D01*
X112926990Y-40476184D01*
X112761134Y-41310000D01*
X112926990Y-42143816D01*
X113218439Y-42580000D01*
X112926990Y-43016184D01*
X112761134Y-43850000D01*
X112926990Y-44683816D01*
X113218439Y-45120000D01*
X112926990Y-45556184D01*
X112761134Y-46390000D01*
X112926990Y-47223816D01*
X113218439Y-47660000D01*
X112926990Y-48096184D01*
X112761134Y-48930000D01*
X112926990Y-49763816D01*
X113218439Y-50200000D01*
X112926990Y-50636184D01*
X112761134Y-51470000D01*
X112926990Y-52303816D01*
X113218439Y-52740000D01*
X112926990Y-53176184D01*
X112761134Y-54010000D01*
X112926990Y-54843816D01*
X113218439Y-55280000D01*
X112926990Y-55716184D01*
X112761134Y-56550000D01*
X112926990Y-57383816D01*
X113218439Y-57820000D01*
X112926990Y-58256184D01*
X112761134Y-59090000D01*
X112926990Y-59923816D01*
X113020606Y-60063923D01*
X112877673Y-60277838D01*
X112777787Y-60780000D01*
X112777787Y-62480000D01*
X112877673Y-62982162D01*
X113162125Y-63407875D01*
X113587838Y-63692327D01*
X114090000Y-63792213D01*
X115790000Y-63792213D01*
X116292162Y-63692327D01*
X116717875Y-63407875D01*
X117002327Y-62982162D01*
X117102213Y-62480000D01*
X117102213Y-60780000D01*
X117002327Y-60277838D01*
X116859394Y-60063923D01*
X116953010Y-59923816D01*
X117118866Y-59090000D01*
X116953010Y-58256184D01*
X116661561Y-57820000D01*
X116953010Y-57383816D01*
X117118866Y-56550000D01*
X116953010Y-55716184D01*
X116661561Y-55280000D01*
X116953010Y-54843816D01*
X117118866Y-54010000D01*
X116953010Y-53176184D01*
X116661561Y-52740000D01*
X116953010Y-52303816D01*
X117118866Y-51470000D01*
X116953010Y-50636184D01*
X116661561Y-50200000D01*
X116953010Y-49763816D01*
X117118866Y-48930000D01*
X116953010Y-48096184D01*
X116661561Y-47660000D01*
X116953010Y-47223816D01*
X117118866Y-46390000D01*
X116953010Y-45556184D01*
X116661561Y-45120000D01*
X116953010Y-44683816D01*
X117118866Y-43850000D01*
X116953010Y-43016184D01*
X116661561Y-42580000D01*
X116953010Y-42143816D01*
X117118866Y-41310000D01*
X116953010Y-40476184D01*
X116661561Y-40040000D01*
X116953010Y-39603816D01*
X117118866Y-38770000D01*
X116953010Y-37936184D01*
X116661561Y-37500000D01*
X116953010Y-37063816D01*
X117118866Y-36230000D01*
X116953010Y-35396184D01*
X116661561Y-34960000D01*
X116953010Y-34523816D01*
X117118866Y-33690000D01*
X116953010Y-32856184D01*
X116661561Y-32420000D01*
X116953010Y-31983816D01*
X117118866Y-31150000D01*
X116953010Y-30316184D01*
X116661561Y-29880000D01*
X116953010Y-29443816D01*
X117118866Y-28610000D01*
X116953010Y-27776184D01*
X116661561Y-27340000D01*
X116953010Y-26903816D01*
X117118866Y-26070000D01*
X116953010Y-25236184D01*
X116661561Y-24800000D01*
X116953010Y-24363816D01*
X117118866Y-23530000D01*
X116953010Y-22696184D01*
X116480691Y-21989309D01*
X116181843Y-21789625D01*
X116211645Y-21756924D01*
X116381476Y-21346890D01*
X116260155Y-21117000D01*
X115067000Y-21117000D01*
X115067000Y-21137000D01*
X114813000Y-21137000D01*
X114813000Y-21117000D01*
X113619845Y-21117000D01*
X113498524Y-21346890D01*
X113668355Y-21756924D01*
X113698157Y-21789625D01*
X113399309Y-21989309D01*
X112926990Y-22696184D01*
X112761134Y-23530000D01*
X27409501Y-23530000D01*
X27462213Y-23265000D01*
X27462213Y-22525000D01*
X27409501Y-22260000D01*
X27462213Y-21995000D01*
X27462213Y-21255000D01*
X27409501Y-20990000D01*
X27462213Y-20725000D01*
X27462213Y-19985000D01*
X27362327Y-19482838D01*
X27096500Y-19085000D01*
X27362327Y-18687162D01*
X27462213Y-18185000D01*
X27462213Y-17445000D01*
X27409501Y-17180000D01*
X27462213Y-16915000D01*
X27462213Y-16175000D01*
X27409501Y-15910000D01*
X27462213Y-15645000D01*
X27462213Y-14905000D01*
X27409501Y-14640000D01*
X27462213Y-14375000D01*
X27462213Y-13635000D01*
X27409501Y-13370000D01*
X112761134Y-13370000D01*
X112926990Y-14203816D01*
X113218439Y-14640000D01*
X112926990Y-15076184D01*
X112761134Y-15910000D01*
X112926990Y-16743816D01*
X113218439Y-17180000D01*
X112926990Y-17616184D01*
X112761134Y-18450000D01*
X112926990Y-19283816D01*
X113399309Y-19990691D01*
X113698157Y-20190375D01*
X113668355Y-20223076D01*
X113498524Y-20633110D01*
X113619845Y-20863000D01*
X114813000Y-20863000D01*
X114813000Y-20843000D01*
X115067000Y-20843000D01*
X115067000Y-20863000D01*
X116260155Y-20863000D01*
X116381476Y-20633110D01*
X116211645Y-20223076D01*
X116181843Y-20190375D01*
X116480691Y-19990691D01*
X116953010Y-19283816D01*
X117118866Y-18450000D01*
X116953010Y-17616184D01*
X116661561Y-17180000D01*
X116953010Y-16743816D01*
X117118866Y-15910000D01*
X116953010Y-15076184D01*
X116661561Y-14640000D01*
X116953010Y-14203816D01*
X117118866Y-13370000D01*
X116953010Y-12536184D01*
X116480691Y-11829309D01*
X115773816Y-11356990D01*
X115150475Y-11233000D01*
X114729525Y-11233000D01*
X114106184Y-11356990D01*
X113399309Y-11829309D01*
X112926990Y-12536184D01*
X112761134Y-13370000D01*
X27409501Y-13370000D01*
X27462213Y-13105000D01*
X27462213Y-12365000D01*
X27362327Y-11862838D01*
X27077875Y-11437125D01*
X26652162Y-11152673D01*
X26150000Y-11052787D01*
X24599700Y-11052787D01*
X24599700Y-10706970D01*
X24406652Y-10240910D01*
X34938695Y-10240910D01*
X35305640Y-10736343D01*
X36711171Y-11329736D01*
X38236793Y-11340087D01*
X39650246Y-10765819D01*
X39694360Y-10736343D01*
X40061305Y-10240910D01*
X114938695Y-10240910D01*
X115305640Y-10736343D01*
X116711171Y-11329736D01*
X118236793Y-11340087D01*
X119650246Y-10765819D01*
X119694360Y-10736343D01*
X120061305Y-10240910D01*
X117500000Y-7679605D01*
X114938695Y-10240910D01*
X40061305Y-10240910D01*
X37500000Y-7679605D01*
X34938695Y-10240910D01*
X24406652Y-10240910D01*
X24281973Y-9939909D01*
X23694891Y-9352827D01*
X22927830Y-9035100D01*
X22084870Y-9035100D01*
X21317809Y-9352827D01*
X20730727Y-9939909D01*
X20413000Y-10706970D01*
X20413000Y-11052787D01*
X18850000Y-11052787D01*
X18347838Y-11152673D01*
X17922125Y-11437125D01*
X17637673Y-11862838D01*
X17537787Y-12365000D01*
X17537787Y-13105000D01*
X17590499Y-13370000D01*
X17537787Y-13635000D01*
X17537787Y-14375000D01*
X17590499Y-14640000D01*
X17537787Y-14905000D01*
X17537787Y-15645000D01*
X17590499Y-15910000D01*
X17537787Y-16175000D01*
X17537787Y-16915000D01*
X17590499Y-17180000D01*
X17537787Y-17445000D01*
X17537787Y-18185000D01*
X17637673Y-18687162D01*
X17903500Y-19085000D01*
X17637673Y-19482838D01*
X17537787Y-19985000D01*
X17537787Y-20725000D01*
X17590499Y-20990000D01*
X17537787Y-21255000D01*
X17537787Y-21995000D01*
X17590499Y-22260000D01*
X17563776Y-22394344D01*
X17386845Y-22512565D01*
X17308069Y-22630462D01*
X12780340Y-27158191D01*
X12662445Y-27236966D01*
X12583671Y-27354860D01*
X12350366Y-27704026D01*
X12240778Y-28254960D01*
X12268440Y-28394026D01*
X12268441Y-34564689D01*
X11818239Y-35014892D01*
X11781561Y-34960000D01*
X12073010Y-34523816D01*
X12238866Y-33690000D01*
X12073010Y-32856184D01*
X11781561Y-32420000D01*
X12073010Y-31983816D01*
X12238866Y-31150000D01*
X12073010Y-30316184D01*
X11781561Y-29880000D01*
X12073010Y-29443816D01*
X12238866Y-28610000D01*
X12073010Y-27776184D01*
X11781561Y-27340000D01*
X12073010Y-26903816D01*
X12238866Y-26070000D01*
X12073010Y-25236184D01*
X11781561Y-24800000D01*
X12073010Y-24363816D01*
X12238866Y-23530000D01*
X12073010Y-22696184D01*
X11600691Y-21989309D01*
X11301843Y-21789625D01*
X11331645Y-21756924D01*
X11501476Y-21346890D01*
X11380155Y-21117000D01*
X10187000Y-21117000D01*
X10187000Y-21137000D01*
X9933000Y-21137000D01*
X9933000Y-21117000D01*
X8739845Y-21117000D01*
X8618524Y-21346890D01*
X8788355Y-21756924D01*
X8818157Y-21789625D01*
X8519309Y-21989309D01*
X8046990Y-22696184D01*
X7881134Y-23530000D01*
X1290000Y-23530000D01*
X1290000Y-15910000D01*
X7881134Y-15910000D01*
X8046990Y-16743816D01*
X8338439Y-17180000D01*
X8046990Y-17616184D01*
X7881134Y-18450000D01*
X8046990Y-19283816D01*
X8519309Y-19990691D01*
X8818157Y-20190375D01*
X8788355Y-20223076D01*
X8618524Y-20633110D01*
X8739845Y-20863000D01*
X9933000Y-20863000D01*
X9933000Y-20843000D01*
X10187000Y-20843000D01*
X10187000Y-20863000D01*
X11380155Y-20863000D01*
X11501476Y-20633110D01*
X11331645Y-20223076D01*
X11301843Y-20190375D01*
X11600691Y-19990691D01*
X12073010Y-19283816D01*
X12238866Y-18450000D01*
X12073010Y-17616184D01*
X11781561Y-17180000D01*
X12073010Y-16743816D01*
X12238866Y-15910000D01*
X12073010Y-15076184D01*
X11979394Y-14936077D01*
X12122327Y-14722162D01*
X12222213Y-14220000D01*
X12222213Y-12520000D01*
X12122327Y-12017838D01*
X11837875Y-11592125D01*
X11412162Y-11307673D01*
X10910000Y-11207787D01*
X9210000Y-11207787D01*
X8707838Y-11307673D01*
X8282125Y-11592125D01*
X7997673Y-12017838D01*
X7897787Y-12520000D01*
X7897787Y-14220000D01*
X7997673Y-14722162D01*
X8140606Y-14936077D01*
X8046990Y-15076184D01*
X7881134Y-15910000D01*
X1290000Y-15910000D01*
X1290000Y-10240910D01*
X4938695Y-10240910D01*
X5305640Y-10736343D01*
X6711171Y-11329736D01*
X8236793Y-11340087D01*
X9650246Y-10765819D01*
X9694360Y-10736343D01*
X10061305Y-10240910D01*
X7500000Y-7679605D01*
X4938695Y-10240910D01*
X1290000Y-10240910D01*
X1290000Y-6545345D01*
X1295185Y-6471194D01*
X1301273Y-6442551D01*
X1311283Y-6415049D01*
X1325034Y-6389188D01*
X1342239Y-6365508D01*
X1362576Y-6344448D01*
X1385651Y-6326420D01*
X1411004Y-6311782D01*
X1438155Y-6300812D01*
X1466556Y-6293731D01*
X1529295Y-6287137D01*
X1647609Y-6285072D01*
X1658818Y-6284091D01*
X1670064Y-6284484D01*
X1759677Y-6278218D01*
X2245298Y-6227177D01*
X2289556Y-6219373D01*
X2334254Y-6214675D01*
X2422122Y-6195998D01*
X2895912Y-6077869D01*
X2938657Y-6063980D01*
X2982264Y-6053108D01*
X3066661Y-6022389D01*
X3066677Y-6022384D01*
X3066684Y-6022381D01*
X3519418Y-5839464D01*
X3559804Y-5819766D01*
X3601481Y-5802928D01*
X3680798Y-5760754D01*
X4103674Y-5516607D01*
X4140931Y-5491477D01*
X4179857Y-5469003D01*
X4201250Y-5453460D01*
X3670264Y-6711171D01*
X3659913Y-8236793D01*
X4234181Y-9650246D01*
X4263657Y-9694360D01*
X4759090Y-10061305D01*
X7320395Y-7500000D01*
X7679605Y-7500000D01*
X10240910Y-10061305D01*
X10736343Y-9694360D01*
X11329736Y-8288829D01*
X11330089Y-8236793D01*
X33659913Y-8236793D01*
X34234181Y-9650246D01*
X34263657Y-9694360D01*
X34759090Y-10061305D01*
X37320395Y-7500000D01*
X37679605Y-7500000D01*
X40240910Y-10061305D01*
X40736343Y-9694360D01*
X41329736Y-8288829D01*
X41330089Y-8236793D01*
X113659913Y-8236793D01*
X114234181Y-9650246D01*
X114263657Y-9694360D01*
X114759090Y-10061305D01*
X117320395Y-7500000D01*
X114759090Y-4938695D01*
X114263657Y-5305640D01*
X113670264Y-6711171D01*
X113659913Y-8236793D01*
X41330089Y-8236793D01*
X41340087Y-6763207D01*
X40765819Y-5349754D01*
X40736343Y-5305640D01*
X40240910Y-4938695D01*
X37679605Y-7500000D01*
X37320395Y-7500000D01*
X34759090Y-4938695D01*
X34263657Y-5305640D01*
X33670264Y-6711171D01*
X33659913Y-8236793D01*
X11330089Y-8236793D01*
X11340087Y-6763207D01*
X10765819Y-5349754D01*
X10736343Y-5305640D01*
X10240910Y-4938695D01*
X7679605Y-7500000D01*
X7320395Y-7500000D01*
X7306253Y-7485858D01*
X7485858Y-7306253D01*
X7500000Y-7320395D01*
X10061305Y-4759090D01*
X9694360Y-4263657D01*
X8288829Y-3670264D01*
X6763207Y-3659913D01*
X5454117Y-4191780D01*
X5512374Y-4111595D01*
X5536191Y-4073480D01*
X5562605Y-4037124D01*
X5607521Y-3959328D01*
X5836762Y-3528189D01*
X5855040Y-3487137D01*
X5876142Y-3447449D01*
X5909793Y-3364159D01*
X6076800Y-2905312D01*
X6089188Y-2862109D01*
X6104560Y-2819876D01*
X6126292Y-2732713D01*
X6227814Y-2255088D01*
X6234068Y-2210587D01*
X6243413Y-2166623D01*
X6252803Y-2077283D01*
X6286865Y-1590178D01*
X6286865Y-1590176D01*
X6295185Y-1471194D01*
X6301273Y-1442551D01*
X6311283Y-1415049D01*
X6325034Y-1389188D01*
X6342239Y-1365508D01*
X6362576Y-1344448D01*
X6385651Y-1326420D01*
X6411004Y-1311782D01*
X6438155Y-1300812D01*
X6466556Y-1293731D01*
X6526793Y-1287400D01*
X17458055Y-1287400D01*
X17532206Y-1292585D01*
M02*
