G04 #@! TF.GenerationSoftware,KiCad,Pcbnew,(5.0.0-rc2-dev-107-g49486b83b)*
G04 #@! TF.CreationDate,2018-03-29T22:36:30+08:00*
G04 #@! TF.ProjectId,ebox-advanced,65626F782D616476616E6365642E6B69,rev?*
G04 #@! TF.SameCoordinates,Original*
G04 #@! TF.FileFunction,Paste,Top*
G04 #@! TF.FilePolarity,Positive*
%FSLAX46Y46*%
G04 Gerber Fmt 4.6, Leading zero omitted, Abs format (unit mm)*
G04 Created by KiCad (PCBNEW (5.0.0-rc2-dev-107-g49486b83b)) date 03/29/18 22:36:30*
%MOMM*%
%LPD*%
G01*
G04 APERTURE LIST*
%ADD10R,2.900000X0.740000*%
G04 APERTURE END LIST*
D10*
X24700000Y-62265000D03*
X20300000Y-62265000D03*
X24700000Y-60995000D03*
X20300000Y-60995000D03*
X24700000Y-59725000D03*
X20300000Y-59725000D03*
X24700000Y-58455000D03*
X20300000Y-58455000D03*
X24700000Y-57185000D03*
X20300000Y-57185000D03*
X24700000Y-55915000D03*
X20300000Y-55915000D03*
X24700000Y-54645000D03*
X20300000Y-54645000D03*
X24700000Y-53375000D03*
X20300000Y-53375000D03*
X24700000Y-52105000D03*
X20300000Y-52105000D03*
X24700000Y-50835000D03*
X20300000Y-50835000D03*
X24700000Y-49565000D03*
X20300000Y-49565000D03*
X24700000Y-48295000D03*
X20300000Y-48295000D03*
X24700000Y-47025000D03*
X20300000Y-47025000D03*
X24700000Y-45755000D03*
X20300000Y-45755000D03*
X24700000Y-44485000D03*
X20300000Y-44485000D03*
X24700000Y-43215000D03*
X20300000Y-43215000D03*
X24700000Y-41945000D03*
X20300000Y-41945000D03*
X24700000Y-40675000D03*
X20300000Y-40675000D03*
X24700000Y-39405000D03*
X20300000Y-39405000D03*
X24700000Y-38135000D03*
X20300000Y-38135000D03*
X24700000Y-36865000D03*
X20300000Y-36865000D03*
X24700000Y-35595000D03*
X20300000Y-35595000D03*
X24700000Y-34325000D03*
X20300000Y-34325000D03*
X24700000Y-33055000D03*
X20300000Y-33055000D03*
X24700000Y-31785000D03*
X20300000Y-31785000D03*
X24700000Y-30515000D03*
X20300000Y-30515000D03*
X24700000Y-29245000D03*
X20300000Y-29245000D03*
X24700000Y-27975000D03*
X20300000Y-27975000D03*
X24700000Y-26705000D03*
X20300000Y-26705000D03*
X24700000Y-25435000D03*
X20300000Y-25435000D03*
X24700000Y-24165000D03*
X20300000Y-24165000D03*
X24700000Y-22895000D03*
X20300000Y-22895000D03*
X24700000Y-21625000D03*
X20300000Y-21625000D03*
X24700000Y-20355000D03*
X20300000Y-20355000D03*
X24700000Y-19085000D03*
X20300000Y-19085000D03*
X24700000Y-17815000D03*
X20300000Y-17815000D03*
X24700000Y-16545000D03*
X20300000Y-16545000D03*
X24700000Y-15275000D03*
X20300000Y-15275000D03*
X24700000Y-14005000D03*
X20300000Y-14005000D03*
X24700000Y-12735000D03*
X20300000Y-12735000D03*
M02*
