G04 #@! TF.GenerationSoftware,KiCad,Pcbnew,(5.0.0-rc2-dev-107-g49486b83b)*
G04 #@! TF.CreationDate,2018-03-29T22:36:30+08:00*
G04 #@! TF.ProjectId,ebox-advanced,65626F782D616476616E6365642E6B69,rev?*
G04 #@! TF.SameCoordinates,Original*
G04 #@! TF.FileFunction,Legend,Bot*
G04 #@! TF.FilePolarity,Positive*
%FSLAX46Y46*%
G04 Gerber Fmt 4.6, Leading zero omitted, Abs format (unit mm)*
G04 Created by KiCad (PCBNEW (5.0.0-rc2-dev-107-g49486b83b)) date 03/29/18 22:36:30*
%MOMM*%
%LPD*%
G01*
G04 APERTURE LIST*
%ADD10C,0.120000*%
%ADD11C,0.150000*%
G04 APERTURE END LIST*
D10*
X113670000Y-62900000D02*
X114940000Y-62900000D01*
X113670000Y-61630000D02*
X113670000Y-62900000D01*
X115982929Y-12990000D02*
X116380000Y-12990000D01*
X115982929Y-13750000D02*
X116380000Y-13750000D01*
X125040000Y-12990000D02*
X119040000Y-12990000D01*
X125040000Y-13750000D02*
X125040000Y-12990000D01*
X119040000Y-13750000D02*
X125040000Y-13750000D01*
X116380000Y-14640000D02*
X119040000Y-14640000D01*
X115982929Y-15530000D02*
X116380000Y-15530000D01*
X115982929Y-16290000D02*
X116380000Y-16290000D01*
X125040000Y-15530000D02*
X119040000Y-15530000D01*
X125040000Y-16290000D02*
X125040000Y-15530000D01*
X119040000Y-16290000D02*
X125040000Y-16290000D01*
X116380000Y-17180000D02*
X119040000Y-17180000D01*
X115982929Y-18070000D02*
X116380000Y-18070000D01*
X115982929Y-18830000D02*
X116380000Y-18830000D01*
X125040000Y-18070000D02*
X119040000Y-18070000D01*
X125040000Y-18830000D02*
X125040000Y-18070000D01*
X119040000Y-18830000D02*
X125040000Y-18830000D01*
X116380000Y-19720000D02*
X119040000Y-19720000D01*
X115982929Y-20610000D02*
X116380000Y-20610000D01*
X115982929Y-21370000D02*
X116380000Y-21370000D01*
X125040000Y-20610000D02*
X119040000Y-20610000D01*
X125040000Y-21370000D02*
X125040000Y-20610000D01*
X119040000Y-21370000D02*
X125040000Y-21370000D01*
X116380000Y-22260000D02*
X119040000Y-22260000D01*
X115982929Y-23150000D02*
X116380000Y-23150000D01*
X115982929Y-23910000D02*
X116380000Y-23910000D01*
X125040000Y-23150000D02*
X119040000Y-23150000D01*
X125040000Y-23910000D02*
X125040000Y-23150000D01*
X119040000Y-23910000D02*
X125040000Y-23910000D01*
X116380000Y-24800000D02*
X119040000Y-24800000D01*
X115982929Y-25690000D02*
X116380000Y-25690000D01*
X115982929Y-26450000D02*
X116380000Y-26450000D01*
X125040000Y-25690000D02*
X119040000Y-25690000D01*
X125040000Y-26450000D02*
X125040000Y-25690000D01*
X119040000Y-26450000D02*
X125040000Y-26450000D01*
X116380000Y-27340000D02*
X119040000Y-27340000D01*
X115982929Y-28230000D02*
X116380000Y-28230000D01*
X115982929Y-28990000D02*
X116380000Y-28990000D01*
X125040000Y-28230000D02*
X119040000Y-28230000D01*
X125040000Y-28990000D02*
X125040000Y-28230000D01*
X119040000Y-28990000D02*
X125040000Y-28990000D01*
X116380000Y-29880000D02*
X119040000Y-29880000D01*
X115982929Y-30770000D02*
X116380000Y-30770000D01*
X115982929Y-31530000D02*
X116380000Y-31530000D01*
X125040000Y-30770000D02*
X119040000Y-30770000D01*
X125040000Y-31530000D02*
X125040000Y-30770000D01*
X119040000Y-31530000D02*
X125040000Y-31530000D01*
X116380000Y-32420000D02*
X119040000Y-32420000D01*
X115982929Y-33310000D02*
X116380000Y-33310000D01*
X115982929Y-34070000D02*
X116380000Y-34070000D01*
X125040000Y-33310000D02*
X119040000Y-33310000D01*
X125040000Y-34070000D02*
X125040000Y-33310000D01*
X119040000Y-34070000D02*
X125040000Y-34070000D01*
X116380000Y-34960000D02*
X119040000Y-34960000D01*
X115982929Y-35850000D02*
X116380000Y-35850000D01*
X115982929Y-36610000D02*
X116380000Y-36610000D01*
X125040000Y-35850000D02*
X119040000Y-35850000D01*
X125040000Y-36610000D02*
X125040000Y-35850000D01*
X119040000Y-36610000D02*
X125040000Y-36610000D01*
X116380000Y-37500000D02*
X119040000Y-37500000D01*
X115982929Y-38390000D02*
X116380000Y-38390000D01*
X115982929Y-39150000D02*
X116380000Y-39150000D01*
X125040000Y-38390000D02*
X119040000Y-38390000D01*
X125040000Y-39150000D02*
X125040000Y-38390000D01*
X119040000Y-39150000D02*
X125040000Y-39150000D01*
X116380000Y-40040000D02*
X119040000Y-40040000D01*
X115982929Y-40930000D02*
X116380000Y-40930000D01*
X115982929Y-41690000D02*
X116380000Y-41690000D01*
X125040000Y-40930000D02*
X119040000Y-40930000D01*
X125040000Y-41690000D02*
X125040000Y-40930000D01*
X119040000Y-41690000D02*
X125040000Y-41690000D01*
X116380000Y-42580000D02*
X119040000Y-42580000D01*
X115982929Y-43470000D02*
X116380000Y-43470000D01*
X115982929Y-44230000D02*
X116380000Y-44230000D01*
X125040000Y-43470000D02*
X119040000Y-43470000D01*
X125040000Y-44230000D02*
X125040000Y-43470000D01*
X119040000Y-44230000D02*
X125040000Y-44230000D01*
X116380000Y-45120000D02*
X119040000Y-45120000D01*
X115982929Y-46010000D02*
X116380000Y-46010000D01*
X115982929Y-46770000D02*
X116380000Y-46770000D01*
X125040000Y-46010000D02*
X119040000Y-46010000D01*
X125040000Y-46770000D02*
X125040000Y-46010000D01*
X119040000Y-46770000D02*
X125040000Y-46770000D01*
X116380000Y-47660000D02*
X119040000Y-47660000D01*
X115982929Y-48550000D02*
X116380000Y-48550000D01*
X115982929Y-49310000D02*
X116380000Y-49310000D01*
X125040000Y-48550000D02*
X119040000Y-48550000D01*
X125040000Y-49310000D02*
X125040000Y-48550000D01*
X119040000Y-49310000D02*
X125040000Y-49310000D01*
X116380000Y-50200000D02*
X119040000Y-50200000D01*
X115982929Y-51090000D02*
X116380000Y-51090000D01*
X115982929Y-51850000D02*
X116380000Y-51850000D01*
X125040000Y-51090000D02*
X119040000Y-51090000D01*
X125040000Y-51850000D02*
X125040000Y-51090000D01*
X119040000Y-51850000D02*
X125040000Y-51850000D01*
X116380000Y-52740000D02*
X119040000Y-52740000D01*
X115982929Y-53630000D02*
X116380000Y-53630000D01*
X115982929Y-54390000D02*
X116380000Y-54390000D01*
X125040000Y-53630000D02*
X119040000Y-53630000D01*
X125040000Y-54390000D02*
X125040000Y-53630000D01*
X119040000Y-54390000D02*
X125040000Y-54390000D01*
X116380000Y-55280000D02*
X119040000Y-55280000D01*
X115982929Y-56170000D02*
X116380000Y-56170000D01*
X115982929Y-56930000D02*
X116380000Y-56930000D01*
X125040000Y-56170000D02*
X119040000Y-56170000D01*
X125040000Y-56930000D02*
X125040000Y-56170000D01*
X119040000Y-56930000D02*
X125040000Y-56930000D01*
X116380000Y-57820000D02*
X119040000Y-57820000D01*
X115982929Y-58710000D02*
X116380000Y-58710000D01*
X115982929Y-59470000D02*
X116380000Y-59470000D01*
X125040000Y-58710000D02*
X119040000Y-58710000D01*
X125040000Y-59470000D02*
X125040000Y-58710000D01*
X119040000Y-59470000D02*
X125040000Y-59470000D01*
X116380000Y-60360000D02*
X119040000Y-60360000D01*
X116050000Y-61250000D02*
X116380000Y-61250000D01*
X116050000Y-62010000D02*
X116380000Y-62010000D01*
X119040000Y-61350000D02*
X125040000Y-61350000D01*
X119040000Y-61470000D02*
X125040000Y-61470000D01*
X119040000Y-61590000D02*
X125040000Y-61590000D01*
X119040000Y-61710000D02*
X125040000Y-61710000D01*
X119040000Y-61830000D02*
X125040000Y-61830000D01*
X119040000Y-61950000D02*
X125040000Y-61950000D01*
X125040000Y-61250000D02*
X119040000Y-61250000D01*
X125040000Y-62010000D02*
X125040000Y-61250000D01*
X119040000Y-62010000D02*
X125040000Y-62010000D01*
X119040000Y-62960000D02*
X116380000Y-62960000D01*
X119040000Y-12040000D02*
X119040000Y-62960000D01*
X116380000Y-12040000D02*
X119040000Y-12040000D01*
X116380000Y-62960000D02*
X116380000Y-12040000D01*
X23830000Y-62900000D02*
X23830000Y-62960000D01*
X23830000Y-12040000D02*
X23830000Y-12100000D01*
X23830000Y-62960000D02*
X21170000Y-62960000D01*
X21170000Y-62900000D02*
X21170000Y-62960000D01*
X21170000Y-12040000D02*
X21170000Y-12100000D01*
X23830000Y-12040000D02*
X21170000Y-12040000D01*
X8620000Y-12040000D02*
X8620000Y-62960000D01*
X8620000Y-62960000D02*
X5960000Y-62960000D01*
X5960000Y-62960000D02*
X5960000Y-12040000D01*
X5960000Y-12040000D02*
X8620000Y-12040000D01*
X5960000Y-12990000D02*
X-40000Y-12990000D01*
X-40000Y-12990000D02*
X-40000Y-13750000D01*
X-40000Y-13750000D02*
X5960000Y-13750000D01*
X5960000Y-13050000D02*
X-40000Y-13050000D01*
X5960000Y-13170000D02*
X-40000Y-13170000D01*
X5960000Y-13290000D02*
X-40000Y-13290000D01*
X5960000Y-13410000D02*
X-40000Y-13410000D01*
X5960000Y-13530000D02*
X-40000Y-13530000D01*
X5960000Y-13650000D02*
X-40000Y-13650000D01*
X8950000Y-12990000D02*
X8620000Y-12990000D01*
X8950000Y-13750000D02*
X8620000Y-13750000D01*
X8620000Y-14640000D02*
X5960000Y-14640000D01*
X5960000Y-15530000D02*
X-40000Y-15530000D01*
X-40000Y-15530000D02*
X-40000Y-16290000D01*
X-40000Y-16290000D02*
X5960000Y-16290000D01*
X9017071Y-15530000D02*
X8620000Y-15530000D01*
X9017071Y-16290000D02*
X8620000Y-16290000D01*
X8620000Y-17180000D02*
X5960000Y-17180000D01*
X5960000Y-18070000D02*
X-40000Y-18070000D01*
X-40000Y-18070000D02*
X-40000Y-18830000D01*
X-40000Y-18830000D02*
X5960000Y-18830000D01*
X9017071Y-18070000D02*
X8620000Y-18070000D01*
X9017071Y-18830000D02*
X8620000Y-18830000D01*
X8620000Y-19720000D02*
X5960000Y-19720000D01*
X5960000Y-20610000D02*
X-40000Y-20610000D01*
X-40000Y-20610000D02*
X-40000Y-21370000D01*
X-40000Y-21370000D02*
X5960000Y-21370000D01*
X9017071Y-20610000D02*
X8620000Y-20610000D01*
X9017071Y-21370000D02*
X8620000Y-21370000D01*
X8620000Y-22260000D02*
X5960000Y-22260000D01*
X5960000Y-23150000D02*
X-40000Y-23150000D01*
X-40000Y-23150000D02*
X-40000Y-23910000D01*
X-40000Y-23910000D02*
X5960000Y-23910000D01*
X9017071Y-23150000D02*
X8620000Y-23150000D01*
X9017071Y-23910000D02*
X8620000Y-23910000D01*
X8620000Y-24800000D02*
X5960000Y-24800000D01*
X5960000Y-25690000D02*
X-40000Y-25690000D01*
X-40000Y-25690000D02*
X-40000Y-26450000D01*
X-40000Y-26450000D02*
X5960000Y-26450000D01*
X9017071Y-25690000D02*
X8620000Y-25690000D01*
X9017071Y-26450000D02*
X8620000Y-26450000D01*
X8620000Y-27340000D02*
X5960000Y-27340000D01*
X5960000Y-28230000D02*
X-40000Y-28230000D01*
X-40000Y-28230000D02*
X-40000Y-28990000D01*
X-40000Y-28990000D02*
X5960000Y-28990000D01*
X9017071Y-28230000D02*
X8620000Y-28230000D01*
X9017071Y-28990000D02*
X8620000Y-28990000D01*
X8620000Y-29880000D02*
X5960000Y-29880000D01*
X5960000Y-30770000D02*
X-40000Y-30770000D01*
X-40000Y-30770000D02*
X-40000Y-31530000D01*
X-40000Y-31530000D02*
X5960000Y-31530000D01*
X9017071Y-30770000D02*
X8620000Y-30770000D01*
X9017071Y-31530000D02*
X8620000Y-31530000D01*
X8620000Y-32420000D02*
X5960000Y-32420000D01*
X5960000Y-33310000D02*
X-40000Y-33310000D01*
X-40000Y-33310000D02*
X-40000Y-34070000D01*
X-40000Y-34070000D02*
X5960000Y-34070000D01*
X9017071Y-33310000D02*
X8620000Y-33310000D01*
X9017071Y-34070000D02*
X8620000Y-34070000D01*
X8620000Y-34960000D02*
X5960000Y-34960000D01*
X5960000Y-35850000D02*
X-40000Y-35850000D01*
X-40000Y-35850000D02*
X-40000Y-36610000D01*
X-40000Y-36610000D02*
X5960000Y-36610000D01*
X9017071Y-35850000D02*
X8620000Y-35850000D01*
X9017071Y-36610000D02*
X8620000Y-36610000D01*
X8620000Y-37500000D02*
X5960000Y-37500000D01*
X5960000Y-38390000D02*
X-40000Y-38390000D01*
X-40000Y-38390000D02*
X-40000Y-39150000D01*
X-40000Y-39150000D02*
X5960000Y-39150000D01*
X9017071Y-38390000D02*
X8620000Y-38390000D01*
X9017071Y-39150000D02*
X8620000Y-39150000D01*
X8620000Y-40040000D02*
X5960000Y-40040000D01*
X5960000Y-40930000D02*
X-40000Y-40930000D01*
X-40000Y-40930000D02*
X-40000Y-41690000D01*
X-40000Y-41690000D02*
X5960000Y-41690000D01*
X9017071Y-40930000D02*
X8620000Y-40930000D01*
X9017071Y-41690000D02*
X8620000Y-41690000D01*
X8620000Y-42580000D02*
X5960000Y-42580000D01*
X5960000Y-43470000D02*
X-40000Y-43470000D01*
X-40000Y-43470000D02*
X-40000Y-44230000D01*
X-40000Y-44230000D02*
X5960000Y-44230000D01*
X9017071Y-43470000D02*
X8620000Y-43470000D01*
X9017071Y-44230000D02*
X8620000Y-44230000D01*
X8620000Y-45120000D02*
X5960000Y-45120000D01*
X5960000Y-46010000D02*
X-40000Y-46010000D01*
X-40000Y-46010000D02*
X-40000Y-46770000D01*
X-40000Y-46770000D02*
X5960000Y-46770000D01*
X9017071Y-46010000D02*
X8620000Y-46010000D01*
X9017071Y-46770000D02*
X8620000Y-46770000D01*
X8620000Y-47660000D02*
X5960000Y-47660000D01*
X5960000Y-48550000D02*
X-40000Y-48550000D01*
X-40000Y-48550000D02*
X-40000Y-49310000D01*
X-40000Y-49310000D02*
X5960000Y-49310000D01*
X9017071Y-48550000D02*
X8620000Y-48550000D01*
X9017071Y-49310000D02*
X8620000Y-49310000D01*
X8620000Y-50200000D02*
X5960000Y-50200000D01*
X5960000Y-51090000D02*
X-40000Y-51090000D01*
X-40000Y-51090000D02*
X-40000Y-51850000D01*
X-40000Y-51850000D02*
X5960000Y-51850000D01*
X9017071Y-51090000D02*
X8620000Y-51090000D01*
X9017071Y-51850000D02*
X8620000Y-51850000D01*
X8620000Y-52740000D02*
X5960000Y-52740000D01*
X5960000Y-53630000D02*
X-40000Y-53630000D01*
X-40000Y-53630000D02*
X-40000Y-54390000D01*
X-40000Y-54390000D02*
X5960000Y-54390000D01*
X9017071Y-53630000D02*
X8620000Y-53630000D01*
X9017071Y-54390000D02*
X8620000Y-54390000D01*
X8620000Y-55280000D02*
X5960000Y-55280000D01*
X5960000Y-56170000D02*
X-40000Y-56170000D01*
X-40000Y-56170000D02*
X-40000Y-56930000D01*
X-40000Y-56930000D02*
X5960000Y-56930000D01*
X9017071Y-56170000D02*
X8620000Y-56170000D01*
X9017071Y-56930000D02*
X8620000Y-56930000D01*
X8620000Y-57820000D02*
X5960000Y-57820000D01*
X5960000Y-58710000D02*
X-40000Y-58710000D01*
X-40000Y-58710000D02*
X-40000Y-59470000D01*
X-40000Y-59470000D02*
X5960000Y-59470000D01*
X9017071Y-58710000D02*
X8620000Y-58710000D01*
X9017071Y-59470000D02*
X8620000Y-59470000D01*
X8620000Y-60360000D02*
X5960000Y-60360000D01*
X5960000Y-61250000D02*
X-40000Y-61250000D01*
X-40000Y-61250000D02*
X-40000Y-62010000D01*
X-40000Y-62010000D02*
X5960000Y-62010000D01*
X9017071Y-61250000D02*
X8620000Y-61250000D01*
X9017071Y-62010000D02*
X8620000Y-62010000D01*
X11330000Y-13370000D02*
X11330000Y-12100000D01*
X11330000Y-12100000D02*
X10060000Y-12100000D01*
D11*
X22833333Y-10687380D02*
X22833333Y-11401666D01*
X22880952Y-11544523D01*
X22976190Y-11639761D01*
X23119047Y-11687380D01*
X23214285Y-11687380D01*
X22404761Y-10782619D02*
X22357142Y-10735000D01*
X22261904Y-10687380D01*
X22023809Y-10687380D01*
X21928571Y-10735000D01*
X21880952Y-10782619D01*
X21833333Y-10877857D01*
X21833333Y-10973095D01*
X21880952Y-11115952D01*
X22452380Y-11687380D01*
X21833333Y-11687380D01*
M02*
