M48
;DRILL file {KiCad 5.0.0-rc2-dev-unknown-0f0d9af~63~ubuntu14.04.1} date Fri Mar 30 16:45:03 2018
;FORMAT={-:-/ absolute / inch / decimal}
FMAT,2
INCH,TZ
T1C0.0039
T2C0.0079
T3C0.0197
T4C0.0394
T5C0.0551
T6C0.1260
%
G90
G05
M72
T1
X0.1Y-0.4
X0.1Y-0.7
X0.1Y-1.
X0.1Y-1.4
X0.1Y-1.7
X0.1Y-2.1
X0.1Y-2.3
X0.1Y-2.6
X0.6Y-0.3
X0.6Y-2.6
X1.2Y-0.3
X1.2Y-0.8
X1.2Y-1.2
X1.2Y-1.8
X1.2Y-2.1
X1.2Y-2.4
X1.2Y-2.6
X1.7Y-0.3
X1.7Y-0.8
X1.7Y-1.2
X1.7Y-2.6
X2.2Y-0.3
X2.2Y-0.8
X2.2Y-1.2
X2.2Y-2.6
X2.7Y-0.3
X2.7Y-0.8
X2.7Y-1.2
X3.1Y-0.3
X3.1Y-0.8
X3.1Y-1.2
X3.6Y-0.3
X3.6Y-0.8
X3.6Y-1.2
X3.93Y-2.42
X4.Y-0.3
X4.Y-0.8
X4.33Y-2.42
X4.4Y-0.3
X4.4Y-2.6
X4.8Y-0.4
X4.8Y-0.7
X4.8Y-1.
X4.8Y-1.3
X4.8Y-1.6
X4.8Y-2.
X4.8Y-2.3
X4.8Y-2.6
T2
X0.8686Y-1.4014
X0.8686Y-1.9514
X0.8686Y-2.0014
X0.8686Y-2.1014
X0.8686Y-2.2014
X0.8686Y-2.2514
X0.8686Y-2.3514
X0.87Y-0.5
X0.87Y-0.55
X0.87Y-0.6
X0.87Y-0.65
X0.87Y-0.7
X0.87Y-0.75
X0.87Y-0.8
X0.87Y-0.85
X0.87Y-0.9
X0.87Y-0.95
X0.87Y-1.
X0.87Y-1.05
X0.87Y-1.1
X0.87Y-1.15
X0.87Y-1.2
X0.87Y-1.25
X0.87Y-1.3
X0.87Y-1.35
X0.87Y-1.45
X0.87Y-1.5
X0.87Y-1.55
X0.87Y-1.6
X0.87Y-1.65
X0.87Y-1.7
X0.87Y-1.75
X0.87Y-1.8
X0.87Y-1.85
X0.87Y-1.9
X0.87Y-2.05
X0.87Y-2.15
X0.87Y-2.3
X0.87Y-2.4
X0.87Y-2.45
X0.9Y-0.5
X0.9Y-0.55
X0.9Y-0.6
X0.9Y-0.65
X0.9Y-0.7
X0.9Y-0.75
X0.9Y-0.8
X0.9Y-0.85
X0.9Y-0.9
X0.9Y-0.95
X0.9Y-1.
X0.9Y-1.05
X0.9Y-1.15
X0.9Y-1.2
X0.9Y-1.25
X0.9Y-1.3
X0.9Y-1.35
X0.9Y-1.45
X0.9Y-1.5
X0.9Y-1.55
X0.9Y-1.6
X0.9Y-1.65
X0.9Y-1.7
X0.9Y-1.75
X0.9Y-1.8
X0.9Y-1.85
X0.9Y-1.9
X0.9Y-1.95
X0.9Y-2.
X0.9Y-2.2
X0.9Y-2.3
X0.9Y-2.4
X0.9Y-2.45
X0.9014Y-1.1014
X0.9014Y-1.4014
X0.9014Y-2.0514
X0.9014Y-2.1014
X0.9014Y-2.1514
X0.9014Y-2.2514
X0.9014Y-2.3514
X0.9014Y-2.3514
T3
X0.2008Y-2.6575
X0.2285Y-2.5907
X0.2285Y-2.7243
X0.2953Y-2.563
X0.2953Y-2.752
X0.3621Y-2.5907
X0.3621Y-2.7243
X0.3898Y-2.6575
X1.3819Y-2.6575
X1.4096Y-2.5907
X1.4096Y-2.7243
X1.4764Y-2.563
X1.4764Y-2.752
X1.5432Y-2.5907
X1.5432Y-2.7243
X1.5709Y-2.6575
X4.5315Y-0.2953
X4.5592Y-0.2285
X4.5592Y-0.3621
X4.626Y-0.2008
X4.626Y-0.3898
X4.6928Y-0.2285
X4.6928Y-0.3621
X4.7205Y-0.2953
X0.2008Y-0.2953
X0.2285Y-0.2285
X0.2285Y-0.3621
X0.2953Y-0.2008
X0.2953Y-0.3898
X0.3621Y-0.2285
X0.3621Y-0.3621
X0.3898Y-0.2953
X1.3819Y-0.2953
X1.4096Y-0.2285
X1.4096Y-0.3621
X1.4764Y-0.2008
X1.4764Y-0.3898
X1.5432Y-0.2285
X1.5432Y-0.3621
X1.5709Y-0.2953
X4.5315Y-2.6575
X4.5592Y-2.5907
X4.5592Y-2.7243
X4.626Y-2.563
X4.626Y-2.752
X4.6928Y-2.5907
X4.6928Y-2.7243
X4.7205Y-2.6575
T4
X4.5252Y-0.5264
X4.5252Y-0.6264
X4.5252Y-0.7264
X4.5252Y-0.8264
X4.5252Y-0.9264
X4.5252Y-1.0264
X4.5252Y-1.1264
X4.5252Y-1.2264
X4.5252Y-1.3264
X4.5252Y-1.4264
X4.5252Y-1.5264
X4.5252Y-1.6264
X4.5252Y-1.7264
X4.5252Y-1.8264
X4.5252Y-1.9264
X4.5252Y-2.0264
X4.5252Y-2.1264
X4.5252Y-2.2264
X4.5252Y-2.3264
X4.5252Y-2.4264
X0.3961Y-0.5264
X0.3961Y-0.6264
X0.3961Y-0.7264
X0.3961Y-0.8264
X0.3961Y-0.9264
X0.3961Y-1.0264
X0.3961Y-1.1264
X0.3961Y-1.2264
X0.3961Y-1.3264
X0.3961Y-1.4264
X0.3961Y-1.5264
X0.3961Y-1.6264
X0.3961Y-1.7264
X0.3961Y-1.8264
X0.3961Y-1.9264
X0.3961Y-2.0264
X0.3961Y-2.1264
X0.3961Y-2.2264
X0.3961Y-2.3264
X0.3961Y-2.4264
T5
X0.8858Y-2.5134
X0.8863Y-0.4379
X0.8858Y-0.4379
X0.8858Y-2.5134
T6
X0.2953Y-2.6575
X1.4764Y-2.6575
X4.626Y-0.2953
X0.2953Y-0.2953
X1.4764Y-0.2953
X4.626Y-2.6575
T0
M30
