G04 #@! TF.GenerationSoftware,KiCad,Pcbnew,(5.0.0-rc2-dev-107-g49486b83b)*
G04 #@! TF.CreationDate,2018-03-27T00:01:31+08:00*
G04 #@! TF.ProjectId,ebox-i2c-eeprom,65626F782D6932632D656570726F6D2E,rev?*
G04 #@! TF.SameCoordinates,Original*
G04 #@! TF.FileFunction,Legend,Top*
G04 #@! TF.FilePolarity,Positive*
%FSLAX46Y46*%
G04 Gerber Fmt 4.6, Leading zero omitted, Abs format (unit mm)*
G04 Created by KiCad (PCBNEW (5.0.0-rc2-dev-107-g49486b83b)) date 03/27/18 00:01:31*
%MOMM*%
%LPD*%
G01*
G04 APERTURE LIST*
%ADD10C,0.300000*%
%ADD11C,0.120000*%
%ADD12C,0.010000*%
%ADD13C,0.150000*%
G04 APERTURE END LIST*
D10*
X42437857Y-48365714D02*
X42437857Y-47865714D01*
X43223571Y-47651428D02*
X43223571Y-48365714D01*
X41723571Y-48365714D01*
X41723571Y-47651428D01*
X42437857Y-46508571D02*
X42509285Y-46294285D01*
X42580714Y-46222857D01*
X42723571Y-46151428D01*
X42937857Y-46151428D01*
X43080714Y-46222857D01*
X43152142Y-46294285D01*
X43223571Y-46437142D01*
X43223571Y-47008571D01*
X41723571Y-47008571D01*
X41723571Y-46508571D01*
X41795000Y-46365714D01*
X41866428Y-46294285D01*
X42009285Y-46222857D01*
X42152142Y-46222857D01*
X42295000Y-46294285D01*
X42366428Y-46365714D01*
X42437857Y-46508571D01*
X42437857Y-47008571D01*
X41723571Y-45222857D02*
X41723571Y-44937142D01*
X41795000Y-44794285D01*
X41937857Y-44651428D01*
X42223571Y-44580000D01*
X42723571Y-44580000D01*
X43009285Y-44651428D01*
X43152142Y-44794285D01*
X43223571Y-44937142D01*
X43223571Y-45222857D01*
X43152142Y-45365714D01*
X43009285Y-45508571D01*
X42723571Y-45580000D01*
X42223571Y-45580000D01*
X41937857Y-45508571D01*
X41795000Y-45365714D01*
X41723571Y-45222857D01*
X41723571Y-44080000D02*
X43223571Y-43080000D01*
X41723571Y-43080000D02*
X43223571Y-44080000D01*
X42652142Y-41365714D02*
X42652142Y-40222857D01*
X43223571Y-38365714D02*
X41723571Y-38365714D01*
X41866428Y-37722857D02*
X41795000Y-37651428D01*
X41723571Y-37508571D01*
X41723571Y-37151428D01*
X41795000Y-37008571D01*
X41866428Y-36937142D01*
X42009285Y-36865714D01*
X42152142Y-36865714D01*
X42366428Y-36937142D01*
X43223571Y-37794285D01*
X43223571Y-36865714D01*
X43080714Y-35365714D02*
X43152142Y-35437142D01*
X43223571Y-35651428D01*
X43223571Y-35794285D01*
X43152142Y-36008571D01*
X43009285Y-36151428D01*
X42866428Y-36222857D01*
X42580714Y-36294285D01*
X42366428Y-36294285D01*
X42080714Y-36222857D01*
X41937857Y-36151428D01*
X41795000Y-36008571D01*
X41723571Y-35794285D01*
X41723571Y-35651428D01*
X41795000Y-35437142D01*
X41866428Y-35365714D01*
X42437857Y-33580000D02*
X42437857Y-33080000D01*
X43223571Y-32865714D02*
X43223571Y-33580000D01*
X41723571Y-33580000D01*
X41723571Y-32865714D01*
X42437857Y-32222857D02*
X42437857Y-31722857D01*
X43223571Y-31508571D02*
X43223571Y-32222857D01*
X41723571Y-32222857D01*
X41723571Y-31508571D01*
X43223571Y-30865714D02*
X41723571Y-30865714D01*
X41723571Y-30294285D01*
X41795000Y-30151428D01*
X41866428Y-30080000D01*
X42009285Y-30008571D01*
X42223571Y-30008571D01*
X42366428Y-30080000D01*
X42437857Y-30151428D01*
X42509285Y-30294285D01*
X42509285Y-30865714D01*
X43223571Y-28508571D02*
X42509285Y-29008571D01*
X43223571Y-29365714D02*
X41723571Y-29365714D01*
X41723571Y-28794285D01*
X41795000Y-28651428D01*
X41866428Y-28580000D01*
X42009285Y-28508571D01*
X42223571Y-28508571D01*
X42366428Y-28580000D01*
X42437857Y-28651428D01*
X42509285Y-28794285D01*
X42509285Y-29365714D01*
X41723571Y-27580000D02*
X41723571Y-27294285D01*
X41795000Y-27151428D01*
X41937857Y-27008571D01*
X42223571Y-26937142D01*
X42723571Y-26937142D01*
X43009285Y-27008571D01*
X43152142Y-27151428D01*
X43223571Y-27294285D01*
X43223571Y-27580000D01*
X43152142Y-27722857D01*
X43009285Y-27865714D01*
X42723571Y-27937142D01*
X42223571Y-27937142D01*
X41937857Y-27865714D01*
X41795000Y-27722857D01*
X41723571Y-27580000D01*
X43223571Y-26294285D02*
X41723571Y-26294285D01*
X42795000Y-25794285D01*
X41723571Y-25294285D01*
X43223571Y-25294285D01*
D11*
X24265000Y-62895000D02*
X24265000Y-62960000D01*
X20735000Y-62895000D02*
X20735000Y-62960000D01*
X24265000Y-12040000D02*
X24265000Y-12105000D01*
X20735000Y-12040000D02*
X20735000Y-12105000D01*
X20735000Y-62960000D02*
X24265000Y-62960000D01*
X20735000Y-12040000D02*
X24265000Y-12040000D01*
D12*
G36*
X37888601Y-40665966D02*
X37997665Y-40447969D01*
X38094592Y-40233970D01*
X38163653Y-40059428D01*
X38179532Y-40010080D01*
X38229355Y-39865727D01*
X38279692Y-39765173D01*
X38298186Y-39744158D01*
X38362768Y-39733118D01*
X38513331Y-39723301D01*
X38734261Y-39715226D01*
X39009941Y-39709410D01*
X39324755Y-39706373D01*
X39446200Y-39706058D01*
X39833898Y-39707180D01*
X40131286Y-39712247D01*
X40349626Y-39722885D01*
X40500181Y-39740717D01*
X40594213Y-39767367D01*
X40642986Y-39804459D01*
X40657763Y-39853617D01*
X40656269Y-39880540D01*
X40647304Y-39954874D01*
X40630035Y-40099319D01*
X40608139Y-40283097D01*
X40607380Y-40289480D01*
X40541257Y-40690884D01*
X40437894Y-41132460D01*
X40309504Y-41565631D01*
X40230597Y-41788080D01*
X40123244Y-42044036D01*
X40000694Y-42295173D01*
X39873582Y-42523652D01*
X39752545Y-42711636D01*
X39648221Y-42841284D01*
X39571247Y-42894758D01*
X39570660Y-42894846D01*
X39512602Y-42876020D01*
X39411759Y-42805266D01*
X39262666Y-42677724D01*
X39059859Y-42488535D01*
X38797874Y-42232840D01*
X38566056Y-42001332D01*
X37663052Y-41093252D01*
X37888601Y-40665966D01*
X37888601Y-40665966D01*
G37*
X37888601Y-40665966D02*
X37997665Y-40447969D01*
X38094592Y-40233970D01*
X38163653Y-40059428D01*
X38179532Y-40010080D01*
X38229355Y-39865727D01*
X38279692Y-39765173D01*
X38298186Y-39744158D01*
X38362768Y-39733118D01*
X38513331Y-39723301D01*
X38734261Y-39715226D01*
X39009941Y-39709410D01*
X39324755Y-39706373D01*
X39446200Y-39706058D01*
X39833898Y-39707180D01*
X40131286Y-39712247D01*
X40349626Y-39722885D01*
X40500181Y-39740717D01*
X40594213Y-39767367D01*
X40642986Y-39804459D01*
X40657763Y-39853617D01*
X40656269Y-39880540D01*
X40647304Y-39954874D01*
X40630035Y-40099319D01*
X40608139Y-40283097D01*
X40607380Y-40289480D01*
X40541257Y-40690884D01*
X40437894Y-41132460D01*
X40309504Y-41565631D01*
X40230597Y-41788080D01*
X40123244Y-42044036D01*
X40000694Y-42295173D01*
X39873582Y-42523652D01*
X39752545Y-42711636D01*
X39648221Y-42841284D01*
X39571247Y-42894758D01*
X39570660Y-42894846D01*
X39512602Y-42876020D01*
X39411759Y-42805266D01*
X39262666Y-42677724D01*
X39059859Y-42488535D01*
X38797874Y-42232840D01*
X38566056Y-42001332D01*
X37663052Y-41093252D01*
X37888601Y-40665966D01*
G36*
X37779936Y-37688513D02*
X37830379Y-37591014D01*
X37935501Y-37454556D01*
X38101376Y-37270614D01*
X38334079Y-37030667D01*
X38451787Y-36912551D01*
X39136314Y-36229433D01*
X39295932Y-36379857D01*
X39613389Y-36731654D01*
X39910033Y-37162134D01*
X40172956Y-37648684D01*
X40389251Y-38168695D01*
X40483393Y-38459844D01*
X40546349Y-38675788D01*
X40585071Y-38813773D01*
X40601792Y-38893929D01*
X40598747Y-38936387D01*
X40578170Y-38961280D01*
X40542297Y-38988738D01*
X40542115Y-38988889D01*
X40474029Y-39010341D01*
X40325895Y-39025226D01*
X40092228Y-39033754D01*
X39767540Y-39036137D01*
X39393411Y-39033209D01*
X38314652Y-39019480D01*
X38202979Y-38638480D01*
X38118754Y-38381500D01*
X38025714Y-38147068D01*
X37933746Y-37956746D01*
X37852738Y-37832095D01*
X37818785Y-37800729D01*
X37778096Y-37755577D01*
X37779936Y-37688513D01*
X37779936Y-37688513D01*
G37*
X37779936Y-37688513D02*
X37830379Y-37591014D01*
X37935501Y-37454556D01*
X38101376Y-37270614D01*
X38334079Y-37030667D01*
X38451787Y-36912551D01*
X39136314Y-36229433D01*
X39295932Y-36379857D01*
X39613389Y-36731654D01*
X39910033Y-37162134D01*
X40172956Y-37648684D01*
X40389251Y-38168695D01*
X40483393Y-38459844D01*
X40546349Y-38675788D01*
X40585071Y-38813773D01*
X40601792Y-38893929D01*
X40598747Y-38936387D01*
X40578170Y-38961280D01*
X40542297Y-38988738D01*
X40542115Y-38988889D01*
X40474029Y-39010341D01*
X40325895Y-39025226D01*
X40092228Y-39033754D01*
X39767540Y-39036137D01*
X39393411Y-39033209D01*
X38314652Y-39019480D01*
X38202979Y-38638480D01*
X38118754Y-38381500D01*
X38025714Y-38147068D01*
X37933746Y-37956746D01*
X37852738Y-37832095D01*
X37818785Y-37800729D01*
X37778096Y-37755577D01*
X37779936Y-37688513D01*
G36*
X35848825Y-43738137D02*
X35862260Y-42182994D01*
X36141660Y-42095674D01*
X36434457Y-41987903D01*
X36716058Y-41855572D01*
X36947671Y-41717503D01*
X36999410Y-41679498D01*
X37097119Y-41612092D01*
X37158569Y-41584880D01*
X37208059Y-41619744D01*
X37316066Y-41716563D01*
X37471079Y-41863678D01*
X37661589Y-42049431D01*
X37876087Y-42262161D01*
X38103062Y-42490211D01*
X38331006Y-42721921D01*
X38548409Y-42945633D01*
X38743761Y-43149688D01*
X38905554Y-43322426D01*
X39022277Y-43452189D01*
X39082422Y-43527317D01*
X39088060Y-43539428D01*
X39052879Y-43602712D01*
X38959305Y-43712549D01*
X38825292Y-43848456D01*
X38778747Y-43892305D01*
X38420556Y-44192593D01*
X38009914Y-44485902D01*
X37592863Y-44740304D01*
X37437060Y-44822763D01*
X37215955Y-44923716D01*
X36956222Y-45026565D01*
X36682939Y-45123067D01*
X36421185Y-45204983D01*
X36196040Y-45264073D01*
X36032582Y-45292094D01*
X36005146Y-45293281D01*
X35835391Y-45293280D01*
X35848825Y-43738137D01*
X35848825Y-43738137D01*
G37*
X35848825Y-43738137D02*
X35862260Y-42182994D01*
X36141660Y-42095674D01*
X36434457Y-41987903D01*
X36716058Y-41855572D01*
X36947671Y-41717503D01*
X36999410Y-41679498D01*
X37097119Y-41612092D01*
X37158569Y-41584880D01*
X37208059Y-41619744D01*
X37316066Y-41716563D01*
X37471079Y-41863678D01*
X37661589Y-42049431D01*
X37876087Y-42262161D01*
X38103062Y-42490211D01*
X38331006Y-42721921D01*
X38548409Y-42945633D01*
X38743761Y-43149688D01*
X38905554Y-43322426D01*
X39022277Y-43452189D01*
X39082422Y-43527317D01*
X39088060Y-43539428D01*
X39052879Y-43602712D01*
X38959305Y-43712549D01*
X38825292Y-43848456D01*
X38778747Y-43892305D01*
X38420556Y-44192593D01*
X38009914Y-44485902D01*
X37592863Y-44740304D01*
X37437060Y-44822763D01*
X37215955Y-44923716D01*
X36956222Y-45026565D01*
X36682939Y-45123067D01*
X36421185Y-45204983D01*
X36196040Y-45264073D01*
X36032582Y-45292094D01*
X36005146Y-45293281D01*
X35835391Y-45293280D01*
X35848825Y-43738137D01*
G36*
X36395660Y-35112738D02*
X36827234Y-35134717D01*
X37212284Y-35198380D01*
X37591235Y-35313114D01*
X37995860Y-35484246D01*
X38211566Y-35585662D01*
X38363208Y-35667356D01*
X38449987Y-35743135D01*
X38471101Y-35826803D01*
X38425751Y-35932167D01*
X38313136Y-36073032D01*
X38132455Y-36263205D01*
X37939344Y-36459128D01*
X37733457Y-36665701D01*
X37546995Y-36848400D01*
X37393747Y-36994051D01*
X37287505Y-37089481D01*
X37247790Y-37119736D01*
X37166226Y-37132404D01*
X37042559Y-37093264D01*
X36879504Y-37009168D01*
X36600772Y-36885633D01*
X36282563Y-36798236D01*
X36230573Y-36788738D01*
X35862260Y-36726680D01*
X35862260Y-35107880D01*
X36395660Y-35112738D01*
X36395660Y-35112738D01*
G37*
X36395660Y-35112738D02*
X36827234Y-35134717D01*
X37212284Y-35198380D01*
X37591235Y-35313114D01*
X37995860Y-35484246D01*
X38211566Y-35585662D01*
X38363208Y-35667356D01*
X38449987Y-35743135D01*
X38471101Y-35826803D01*
X38425751Y-35932167D01*
X38313136Y-36073032D01*
X38132455Y-36263205D01*
X37939344Y-36459128D01*
X37733457Y-36665701D01*
X37546995Y-36848400D01*
X37393747Y-36994051D01*
X37287505Y-37089481D01*
X37247790Y-37119736D01*
X37166226Y-37132404D01*
X37042559Y-37093264D01*
X36879504Y-37009168D01*
X36600772Y-36885633D01*
X36282563Y-36798236D01*
X36230573Y-36788738D01*
X35862260Y-36726680D01*
X35862260Y-35107880D01*
X36395660Y-35112738D01*
G36*
X36922793Y-38449158D02*
X36927860Y-38437221D01*
X37001755Y-38383867D01*
X37090294Y-38421544D01*
X37181396Y-38543261D01*
X37209828Y-38600380D01*
X37288158Y-38806252D01*
X37302316Y-38942408D01*
X37252789Y-39017502D01*
X37233860Y-39026510D01*
X37126849Y-39038526D01*
X37092564Y-39030771D01*
X37043726Y-38969563D01*
X36992170Y-38844185D01*
X36948056Y-38691251D01*
X36921544Y-38547371D01*
X36922793Y-38449158D01*
X36922793Y-38449158D01*
G37*
X36922793Y-38449158D02*
X36927860Y-38437221D01*
X37001755Y-38383867D01*
X37090294Y-38421544D01*
X37181396Y-38543261D01*
X37209828Y-38600380D01*
X37288158Y-38806252D01*
X37302316Y-38942408D01*
X37252789Y-39017502D01*
X37233860Y-39026510D01*
X37126849Y-39038526D01*
X37092564Y-39030771D01*
X37043726Y-38969563D01*
X36992170Y-38844185D01*
X36948056Y-38691251D01*
X36921544Y-38547371D01*
X36922793Y-38449158D01*
G36*
X36775048Y-39897726D02*
X36807521Y-39850011D01*
X36904222Y-39744962D01*
X37012512Y-39712525D01*
X37074221Y-39715169D01*
X37190637Y-39743094D01*
X37237955Y-39812956D01*
X37244472Y-39857680D01*
X37228843Y-39990967D01*
X37176468Y-40140164D01*
X37172854Y-40147461D01*
X37082324Y-40287818D01*
X36989938Y-40333838D01*
X36877326Y-40291431D01*
X36830702Y-40257555D01*
X36728455Y-40150038D01*
X36710381Y-40038500D01*
X36775048Y-39897726D01*
X36775048Y-39897726D01*
G37*
X36775048Y-39897726D02*
X36807521Y-39850011D01*
X36904222Y-39744962D01*
X37012512Y-39712525D01*
X37074221Y-39715169D01*
X37190637Y-39743094D01*
X37237955Y-39812956D01*
X37244472Y-39857680D01*
X37228843Y-39990967D01*
X37176468Y-40140164D01*
X37172854Y-40147461D01*
X37082324Y-40287818D01*
X36989938Y-40333838D01*
X36877326Y-40291431D01*
X36830702Y-40257555D01*
X36728455Y-40150038D01*
X36710381Y-40038500D01*
X36775048Y-39897726D01*
G36*
X35836570Y-32044404D02*
X35836860Y-31468651D01*
X35837335Y-30845244D01*
X35838862Y-30316794D01*
X35841594Y-29876664D01*
X35845684Y-29518215D01*
X35851284Y-29234808D01*
X35858547Y-29019806D01*
X35867627Y-28866571D01*
X35878675Y-28768463D01*
X35891845Y-28718845D01*
X35900360Y-28709714D01*
X36010983Y-28689191D01*
X36176280Y-28673242D01*
X36364393Y-28663086D01*
X36543468Y-28659941D01*
X36681650Y-28665026D01*
X36744386Y-28677432D01*
X36768376Y-28739595D01*
X36790721Y-28881037D01*
X36810199Y-29079439D01*
X36825586Y-29312483D01*
X36835658Y-29557848D01*
X36839191Y-29793215D01*
X36834962Y-29996266D01*
X36823987Y-30129480D01*
X36752920Y-30587774D01*
X36669545Y-30991726D01*
X36563607Y-31388576D01*
X36518141Y-31538256D01*
X36364668Y-32103879D01*
X36278671Y-32609722D01*
X36259490Y-33071369D01*
X36306464Y-33504407D01*
X36417250Y-33919543D01*
X36459442Y-34096904D01*
X36432002Y-34205904D01*
X36326850Y-34259017D01*
X36190394Y-34269680D01*
X36113908Y-34272172D01*
X36049257Y-34274426D01*
X35995453Y-34268614D01*
X35951507Y-34246907D01*
X35916431Y-34201475D01*
X35889237Y-34124488D01*
X35868937Y-34008118D01*
X35854543Y-33844536D01*
X35845066Y-33625911D01*
X35839518Y-33344415D01*
X35836912Y-32992218D01*
X35836259Y-32561491D01*
X35836570Y-32044404D01*
X35836570Y-32044404D01*
G37*
X35836570Y-32044404D02*
X35836860Y-31468651D01*
X35837335Y-30845244D01*
X35838862Y-30316794D01*
X35841594Y-29876664D01*
X35845684Y-29518215D01*
X35851284Y-29234808D01*
X35858547Y-29019806D01*
X35867627Y-28866571D01*
X35878675Y-28768463D01*
X35891845Y-28718845D01*
X35900360Y-28709714D01*
X36010983Y-28689191D01*
X36176280Y-28673242D01*
X36364393Y-28663086D01*
X36543468Y-28659941D01*
X36681650Y-28665026D01*
X36744386Y-28677432D01*
X36768376Y-28739595D01*
X36790721Y-28881037D01*
X36810199Y-29079439D01*
X36825586Y-29312483D01*
X36835658Y-29557848D01*
X36839191Y-29793215D01*
X36834962Y-29996266D01*
X36823987Y-30129480D01*
X36752920Y-30587774D01*
X36669545Y-30991726D01*
X36563607Y-31388576D01*
X36518141Y-31538256D01*
X36364668Y-32103879D01*
X36278671Y-32609722D01*
X36259490Y-33071369D01*
X36306464Y-33504407D01*
X36417250Y-33919543D01*
X36459442Y-34096904D01*
X36432002Y-34205904D01*
X36326850Y-34259017D01*
X36190394Y-34269680D01*
X36113908Y-34272172D01*
X36049257Y-34274426D01*
X35995453Y-34268614D01*
X35951507Y-34246907D01*
X35916431Y-34201475D01*
X35889237Y-34124488D01*
X35868937Y-34008118D01*
X35854543Y-33844536D01*
X35845066Y-33625911D01*
X35839518Y-33344415D01*
X35836912Y-32992218D01*
X35836259Y-32561491D01*
X35836570Y-32044404D01*
G36*
X35841717Y-40737141D02*
X35863742Y-40640954D01*
X35914110Y-40585967D01*
X35965131Y-40559058D01*
X36051489Y-40531394D01*
X36126909Y-40550518D01*
X36224903Y-40628816D01*
X36269931Y-40671712D01*
X36393727Y-40805556D01*
X36437169Y-40901558D01*
X36402775Y-40980657D01*
X36315356Y-41049498D01*
X36168525Y-41119644D01*
X36010556Y-41163587D01*
X35836860Y-41191774D01*
X35836860Y-40904638D01*
X35841717Y-40737141D01*
X35841717Y-40737141D01*
G37*
X35841717Y-40737141D02*
X35863742Y-40640954D01*
X35914110Y-40585967D01*
X35965131Y-40559058D01*
X36051489Y-40531394D01*
X36126909Y-40550518D01*
X36224903Y-40628816D01*
X36269931Y-40671712D01*
X36393727Y-40805556D01*
X36437169Y-40901558D01*
X36402775Y-40980657D01*
X36315356Y-41049498D01*
X36168525Y-41119644D01*
X36010556Y-41163587D01*
X35836860Y-41191774D01*
X35836860Y-40904638D01*
X35841717Y-40737141D01*
G36*
X31096325Y-44309025D02*
X31193643Y-44197309D01*
X31343597Y-44034854D01*
X31536171Y-43831771D01*
X31761347Y-43598172D01*
X32009110Y-43344166D01*
X32269442Y-43079865D01*
X32532328Y-42815379D01*
X32787749Y-42560819D01*
X33025691Y-42326295D01*
X33236136Y-42121919D01*
X33409067Y-41957801D01*
X33534468Y-41844052D01*
X33602322Y-41790783D01*
X33609530Y-41788080D01*
X33681003Y-41809523D01*
X33802331Y-41863078D01*
X33845662Y-41884580D01*
X33992377Y-41945153D01*
X34210274Y-42017599D01*
X34470959Y-42093599D01*
X34746041Y-42164833D01*
X34985960Y-42218708D01*
X35125660Y-42247216D01*
X35125660Y-43817625D01*
X35125510Y-44257894D01*
X35124577Y-44607346D01*
X35122134Y-44876764D01*
X35117451Y-45076930D01*
X35109803Y-45218628D01*
X35098461Y-45312639D01*
X35082698Y-45369748D01*
X35061787Y-45400736D01*
X35034999Y-45416386D01*
X35017388Y-45422398D01*
X34866501Y-45443723D01*
X34636116Y-45442860D01*
X34345286Y-45422323D01*
X34013062Y-45384627D01*
X33658499Y-45332286D01*
X33300648Y-45267817D01*
X32958562Y-45193732D01*
X32651294Y-45112549D01*
X32636460Y-45108130D01*
X32403005Y-45030304D01*
X32145816Y-44931680D01*
X31881993Y-44820382D01*
X31628632Y-44704534D01*
X31402831Y-44592259D01*
X31221689Y-44491681D01*
X31102302Y-44410925D01*
X31061660Y-44359891D01*
X31096325Y-44309025D01*
X31096325Y-44309025D01*
G37*
X31096325Y-44309025D02*
X31193643Y-44197309D01*
X31343597Y-44034854D01*
X31536171Y-43831771D01*
X31761347Y-43598172D01*
X32009110Y-43344166D01*
X32269442Y-43079865D01*
X32532328Y-42815379D01*
X32787749Y-42560819D01*
X33025691Y-42326295D01*
X33236136Y-42121919D01*
X33409067Y-41957801D01*
X33534468Y-41844052D01*
X33602322Y-41790783D01*
X33609530Y-41788080D01*
X33681003Y-41809523D01*
X33802331Y-41863078D01*
X33845662Y-41884580D01*
X33992377Y-41945153D01*
X34210274Y-42017599D01*
X34470959Y-42093599D01*
X34746041Y-42164833D01*
X34985960Y-42218708D01*
X35125660Y-42247216D01*
X35125660Y-43817625D01*
X35125510Y-44257894D01*
X35124577Y-44607346D01*
X35122134Y-44876764D01*
X35117451Y-45076930D01*
X35109803Y-45218628D01*
X35098461Y-45312639D01*
X35082698Y-45369748D01*
X35061787Y-45400736D01*
X35034999Y-45416386D01*
X35017388Y-45422398D01*
X34866501Y-45443723D01*
X34636116Y-45442860D01*
X34345286Y-45422323D01*
X34013062Y-45384627D01*
X33658499Y-45332286D01*
X33300648Y-45267817D01*
X32958562Y-45193732D01*
X32651294Y-45112549D01*
X32636460Y-45108130D01*
X32403005Y-45030304D01*
X32145816Y-44931680D01*
X31881993Y-44820382D01*
X31628632Y-44704534D01*
X31402831Y-44592259D01*
X31221689Y-44491681D01*
X31102302Y-44410925D01*
X31061660Y-44359891D01*
X31096325Y-44309025D01*
G36*
X34364048Y-41002772D02*
X34466042Y-40885904D01*
X34569672Y-40778976D01*
X34717097Y-40633773D01*
X34818368Y-40553048D01*
X34896114Y-40526503D01*
X34972965Y-40543840D01*
X35027399Y-40570668D01*
X35082667Y-40617733D01*
X35112793Y-40701273D01*
X35124551Y-40847352D01*
X35125660Y-40948670D01*
X35118910Y-41121080D01*
X35101299Y-41249523D01*
X35079105Y-41302857D01*
X35005155Y-41308717D01*
X34867900Y-41292534D01*
X34701493Y-41260973D01*
X34540088Y-41220704D01*
X34417839Y-41178393D01*
X34401760Y-41170623D01*
X34339134Y-41128275D01*
X34324154Y-41077944D01*
X34364048Y-41002772D01*
X34364048Y-41002772D01*
G37*
X34364048Y-41002772D02*
X34466042Y-40885904D01*
X34569672Y-40778976D01*
X34717097Y-40633773D01*
X34818368Y-40553048D01*
X34896114Y-40526503D01*
X34972965Y-40543840D01*
X35027399Y-40570668D01*
X35082667Y-40617733D01*
X35112793Y-40701273D01*
X35124551Y-40847352D01*
X35125660Y-40948670D01*
X35118910Y-41121080D01*
X35101299Y-41249523D01*
X35079105Y-41302857D01*
X35005155Y-41308717D01*
X34867900Y-41292534D01*
X34701493Y-41260973D01*
X34540088Y-41220704D01*
X34417839Y-41178393D01*
X34401760Y-41170623D01*
X34339134Y-41128275D01*
X34324154Y-41077944D01*
X34364048Y-41002772D01*
G36*
X33283669Y-36491356D02*
X33385274Y-36358623D01*
X33534041Y-36196888D01*
X33713134Y-36022425D01*
X33905719Y-35851510D01*
X34094961Y-35700420D01*
X34264026Y-35585430D01*
X34287864Y-35571590D01*
X34515850Y-35452314D01*
X34730629Y-35356348D01*
X34910436Y-35292121D01*
X35033507Y-35268067D01*
X35062160Y-35271647D01*
X35088388Y-35310422D01*
X35106985Y-35412270D01*
X35118792Y-35587709D01*
X35124647Y-35847257D01*
X35125660Y-36067191D01*
X35125660Y-36840235D01*
X34902444Y-36948682D01*
X34742657Y-37042647D01*
X34556387Y-37175501D01*
X34418148Y-37289004D01*
X34283550Y-37404962D01*
X34179333Y-37488113D01*
X34127581Y-37520860D01*
X34127157Y-37520880D01*
X34081188Y-37487454D01*
X33978481Y-37396542D01*
X33834444Y-37262197D01*
X33671652Y-37105469D01*
X33455706Y-36884186D01*
X33314061Y-36714957D01*
X33249792Y-36601587D01*
X33246060Y-36578810D01*
X33283669Y-36491356D01*
X33283669Y-36491356D01*
G37*
X33283669Y-36491356D02*
X33385274Y-36358623D01*
X33534041Y-36196888D01*
X33713134Y-36022425D01*
X33905719Y-35851510D01*
X34094961Y-35700420D01*
X34264026Y-35585430D01*
X34287864Y-35571590D01*
X34515850Y-35452314D01*
X34730629Y-35356348D01*
X34910436Y-35292121D01*
X35033507Y-35268067D01*
X35062160Y-35271647D01*
X35088388Y-35310422D01*
X35106985Y-35412270D01*
X35118792Y-35587709D01*
X35124647Y-35847257D01*
X35125660Y-36067191D01*
X35125660Y-36840235D01*
X34902444Y-36948682D01*
X34742657Y-37042647D01*
X34556387Y-37175501D01*
X34418148Y-37289004D01*
X34283550Y-37404962D01*
X34179333Y-37488113D01*
X34127581Y-37520860D01*
X34127157Y-37520880D01*
X34081188Y-37487454D01*
X33978481Y-37396542D01*
X33834444Y-37262197D01*
X33671652Y-37105469D01*
X33455706Y-36884186D01*
X33314061Y-36714957D01*
X33249792Y-36601587D01*
X33246060Y-36578810D01*
X33283669Y-36491356D01*
G36*
X29226892Y-32490251D02*
X29316425Y-32371084D01*
X29443887Y-32209091D01*
X29588438Y-32030717D01*
X30188435Y-31376879D01*
X30872670Y-30771833D01*
X31633107Y-30221851D01*
X32461710Y-29733206D01*
X32670156Y-29625588D01*
X33004719Y-29466720D01*
X33357763Y-29315408D01*
X33714155Y-29176597D01*
X34058766Y-29055230D01*
X34376465Y-28956254D01*
X34652121Y-28884612D01*
X34870603Y-28845250D01*
X35016781Y-28843111D01*
X35043239Y-28850064D01*
X35061365Y-28864283D01*
X35076648Y-28897188D01*
X35089326Y-28956749D01*
X35099639Y-29050935D01*
X35107824Y-29187717D01*
X35114121Y-29375063D01*
X35118767Y-29620942D01*
X35122003Y-29933324D01*
X35124066Y-30320179D01*
X35125194Y-30789476D01*
X35125627Y-31349184D01*
X35125660Y-31602680D01*
X35125493Y-32198982D01*
X35124821Y-32701738D01*
X35123383Y-33119000D01*
X35120919Y-33458822D01*
X35117169Y-33729257D01*
X35111872Y-33938360D01*
X35104769Y-34094182D01*
X35095599Y-34204777D01*
X35084103Y-34278199D01*
X35070019Y-34322500D01*
X35053088Y-34345735D01*
X35036760Y-34354764D01*
X34583339Y-34522550D01*
X34207140Y-34685244D01*
X33885453Y-34856086D01*
X33595565Y-35048317D01*
X33314768Y-35275177D01*
X33070239Y-35501289D01*
X32891814Y-35670135D01*
X32737120Y-35809517D01*
X32621801Y-35905830D01*
X32561499Y-35945465D01*
X32559228Y-35945789D01*
X32510915Y-35911030D01*
X32400961Y-35812361D01*
X32237955Y-35658439D01*
X32030487Y-35457922D01*
X31787148Y-35219467D01*
X31516528Y-34951732D01*
X31227217Y-34663374D01*
X30927805Y-34363051D01*
X30626882Y-34059421D01*
X30333039Y-33761140D01*
X30054865Y-33476866D01*
X29800951Y-33215258D01*
X29579888Y-32984971D01*
X29400264Y-32794665D01*
X29270670Y-32652996D01*
X29199697Y-32568622D01*
X29188858Y-32548990D01*
X29226892Y-32490251D01*
X29226892Y-32490251D01*
G37*
X29226892Y-32490251D02*
X29316425Y-32371084D01*
X29443887Y-32209091D01*
X29588438Y-32030717D01*
X30188435Y-31376879D01*
X30872670Y-30771833D01*
X31633107Y-30221851D01*
X32461710Y-29733206D01*
X32670156Y-29625588D01*
X33004719Y-29466720D01*
X33357763Y-29315408D01*
X33714155Y-29176597D01*
X34058766Y-29055230D01*
X34376465Y-28956254D01*
X34652121Y-28884612D01*
X34870603Y-28845250D01*
X35016781Y-28843111D01*
X35043239Y-28850064D01*
X35061365Y-28864283D01*
X35076648Y-28897188D01*
X35089326Y-28956749D01*
X35099639Y-29050935D01*
X35107824Y-29187717D01*
X35114121Y-29375063D01*
X35118767Y-29620942D01*
X35122003Y-29933324D01*
X35124066Y-30320179D01*
X35125194Y-30789476D01*
X35125627Y-31349184D01*
X35125660Y-31602680D01*
X35125493Y-32198982D01*
X35124821Y-32701738D01*
X35123383Y-33119000D01*
X35120919Y-33458822D01*
X35117169Y-33729257D01*
X35111872Y-33938360D01*
X35104769Y-34094182D01*
X35095599Y-34204777D01*
X35084103Y-34278199D01*
X35070019Y-34322500D01*
X35053088Y-34345735D01*
X35036760Y-34354764D01*
X34583339Y-34522550D01*
X34207140Y-34685244D01*
X33885453Y-34856086D01*
X33595565Y-35048317D01*
X33314768Y-35275177D01*
X33070239Y-35501289D01*
X32891814Y-35670135D01*
X32737120Y-35809517D01*
X32621801Y-35905830D01*
X32561499Y-35945465D01*
X32559228Y-35945789D01*
X32510915Y-35911030D01*
X32400961Y-35812361D01*
X32237955Y-35658439D01*
X32030487Y-35457922D01*
X31787148Y-35219467D01*
X31516528Y-34951732D01*
X31227217Y-34663374D01*
X30927805Y-34363051D01*
X30626882Y-34059421D01*
X30333039Y-33761140D01*
X30054865Y-33476866D01*
X29800951Y-33215258D01*
X29579888Y-32984971D01*
X29400264Y-32794665D01*
X29270670Y-32652996D01*
X29199697Y-32568622D01*
X29188858Y-32548990D01*
X29226892Y-32490251D01*
G36*
X32909076Y-39780997D02*
X32974945Y-39740821D01*
X33103094Y-39717237D01*
X33308551Y-39706746D01*
X33474546Y-39705280D01*
X33897922Y-39705280D01*
X34054591Y-39903091D01*
X34145097Y-40023269D01*
X34201685Y-40109774D01*
X34211260Y-40132826D01*
X34179421Y-40184116D01*
X34096580Y-40285548D01*
X33998542Y-40395522D01*
X33835436Y-40565420D01*
X33716099Y-40661791D01*
X33619593Y-40689441D01*
X33524982Y-40653172D01*
X33411328Y-40557790D01*
X33388135Y-40535585D01*
X33232005Y-40370505D01*
X33088163Y-40193408D01*
X32973164Y-40027387D01*
X32903558Y-39895537D01*
X32890460Y-39841263D01*
X32909076Y-39780997D01*
X32909076Y-39780997D01*
G37*
X32909076Y-39780997D02*
X32974945Y-39740821D01*
X33103094Y-39717237D01*
X33308551Y-39706746D01*
X33474546Y-39705280D01*
X33897922Y-39705280D01*
X34054591Y-39903091D01*
X34145097Y-40023269D01*
X34201685Y-40109774D01*
X34211260Y-40132826D01*
X34179421Y-40184116D01*
X34096580Y-40285548D01*
X33998542Y-40395522D01*
X33835436Y-40565420D01*
X33716099Y-40661791D01*
X33619593Y-40689441D01*
X33524982Y-40653172D01*
X33411328Y-40557790D01*
X33388135Y-40535585D01*
X33232005Y-40370505D01*
X33088163Y-40193408D01*
X32973164Y-40027387D01*
X32903558Y-39895537D01*
X32890460Y-39841263D01*
X32909076Y-39780997D01*
G36*
X32599133Y-38320532D02*
X32623152Y-38046652D01*
X32663882Y-37789400D01*
X32717051Y-37572136D01*
X32778390Y-37418220D01*
X32819782Y-37363897D01*
X32862151Y-37347121D01*
X32921630Y-37366238D01*
X33011010Y-37430608D01*
X33143084Y-37549596D01*
X33330641Y-37732562D01*
X33350629Y-37752436D01*
X33545413Y-37947488D01*
X33677318Y-38084139D01*
X33756181Y-38174945D01*
X33791839Y-38232464D01*
X33794129Y-38269253D01*
X33775719Y-38295087D01*
X33756449Y-38356854D01*
X33733763Y-38491043D01*
X33712521Y-38668813D01*
X33712219Y-38671854D01*
X33677860Y-39019480D01*
X32611060Y-39019480D01*
X32596093Y-38587680D01*
X32599133Y-38320532D01*
X32599133Y-38320532D01*
G37*
X32599133Y-38320532D02*
X32623152Y-38046652D01*
X32663882Y-37789400D01*
X32717051Y-37572136D01*
X32778390Y-37418220D01*
X32819782Y-37363897D01*
X32862151Y-37347121D01*
X32921630Y-37366238D01*
X33011010Y-37430608D01*
X33143084Y-37549596D01*
X33330641Y-37732562D01*
X33350629Y-37752436D01*
X33545413Y-37947488D01*
X33677318Y-38084139D01*
X33756181Y-38174945D01*
X33791839Y-38232464D01*
X33794129Y-38269253D01*
X33775719Y-38295087D01*
X33756449Y-38356854D01*
X33733763Y-38491043D01*
X33712521Y-38668813D01*
X33712219Y-38671854D01*
X33677860Y-39019480D01*
X32611060Y-39019480D01*
X32596093Y-38587680D01*
X32599133Y-38320532D01*
G36*
X27702127Y-39792673D02*
X27712272Y-39777369D01*
X27740582Y-39758799D01*
X27797589Y-39743797D01*
X27892299Y-39732106D01*
X28033719Y-39723468D01*
X28230855Y-39717627D01*
X28492713Y-39714324D01*
X28828300Y-39713302D01*
X29246622Y-39714303D01*
X29756685Y-39717070D01*
X29809333Y-39717410D01*
X31845618Y-39730680D01*
X32071078Y-40177464D01*
X32328252Y-40607978D01*
X32618899Y-40972426D01*
X32760011Y-41131849D01*
X32869749Y-41269165D01*
X32932445Y-41364098D01*
X32941260Y-41389632D01*
X32906485Y-41440648D01*
X32807689Y-41554281D01*
X32653163Y-41721780D01*
X32451199Y-41934394D01*
X32210089Y-42183371D01*
X31938125Y-42459961D01*
X31708978Y-42690169D01*
X31416202Y-42980477D01*
X31143605Y-43246407D01*
X30900041Y-43479661D01*
X30694359Y-43671938D01*
X30535410Y-43814937D01*
X30432046Y-43900360D01*
X30395714Y-43921680D01*
X30323292Y-43889665D01*
X30198509Y-43804080D01*
X30043341Y-43680614D01*
X29972183Y-43619285D01*
X29358423Y-43010315D01*
X28820438Y-42336089D01*
X28363384Y-41604398D01*
X27992419Y-40823032D01*
X27829490Y-40382527D01*
X27750010Y-40135481D01*
X27704470Y-39966085D01*
X27689600Y-39857446D01*
X27702127Y-39792673D01*
X27702127Y-39792673D01*
G37*
X27702127Y-39792673D02*
X27712272Y-39777369D01*
X27740582Y-39758799D01*
X27797589Y-39743797D01*
X27892299Y-39732106D01*
X28033719Y-39723468D01*
X28230855Y-39717627D01*
X28492713Y-39714324D01*
X28828300Y-39713302D01*
X29246622Y-39714303D01*
X29756685Y-39717070D01*
X29809333Y-39717410D01*
X31845618Y-39730680D01*
X32071078Y-40177464D01*
X32328252Y-40607978D01*
X32618899Y-40972426D01*
X32760011Y-41131849D01*
X32869749Y-41269165D01*
X32932445Y-41364098D01*
X32941260Y-41389632D01*
X32906485Y-41440648D01*
X32807689Y-41554281D01*
X32653163Y-41721780D01*
X32451199Y-41934394D01*
X32210089Y-42183371D01*
X31938125Y-42459961D01*
X31708978Y-42690169D01*
X31416202Y-42980477D01*
X31143605Y-43246407D01*
X30900041Y-43479661D01*
X30694359Y-43671938D01*
X30535410Y-43814937D01*
X30432046Y-43900360D01*
X30395714Y-43921680D01*
X30323292Y-43889665D01*
X30198509Y-43804080D01*
X30043341Y-43680614D01*
X29972183Y-43619285D01*
X29358423Y-43010315D01*
X28820438Y-42336089D01*
X28363384Y-41604398D01*
X27992419Y-40823032D01*
X27829490Y-40382527D01*
X27750010Y-40135481D01*
X27704470Y-39966085D01*
X27689600Y-39857446D01*
X27702127Y-39792673D01*
G36*
X27438325Y-37927280D02*
X27449513Y-37369379D01*
X27483636Y-36877223D01*
X27545234Y-36416634D01*
X27638848Y-35953436D01*
X27765150Y-35467144D01*
X27865215Y-35142676D01*
X27985279Y-34801757D01*
X28118294Y-34460103D01*
X28257209Y-34133431D01*
X28394976Y-33837455D01*
X28524544Y-33587893D01*
X28638864Y-33400460D01*
X28730886Y-33290872D01*
X28746510Y-33279351D01*
X28777691Y-33279186D01*
X28833228Y-33308556D01*
X28918743Y-33372662D01*
X29039855Y-33476706D01*
X29202185Y-33625890D01*
X29411354Y-33825414D01*
X29672982Y-34080479D01*
X29992689Y-34396287D01*
X30376096Y-34778038D01*
X30502842Y-34904663D01*
X30842900Y-35246284D01*
X31159661Y-35567748D01*
X31446049Y-35861640D01*
X31694989Y-36120547D01*
X31899407Y-36337056D01*
X32052228Y-36503753D01*
X32146378Y-36613226D01*
X32175097Y-36656992D01*
X32152547Y-36744080D01*
X32099167Y-36885144D01*
X32054451Y-36987943D01*
X31935231Y-37302653D01*
X31831356Y-37679129D01*
X31751869Y-38077737D01*
X31705814Y-38458838D01*
X31701043Y-38536880D01*
X31691038Y-38737895D01*
X31682484Y-38898930D01*
X31676788Y-38993880D01*
X31675716Y-39006780D01*
X31625709Y-39015046D01*
X31484824Y-39022694D01*
X31263786Y-39029527D01*
X30973315Y-39035346D01*
X30624135Y-39039954D01*
X30226968Y-39043151D01*
X29792536Y-39044740D01*
X29615647Y-39044880D01*
X27560034Y-39044881D01*
X27498269Y-38930580D01*
X27471558Y-38829598D01*
X27452795Y-38638141D01*
X27441769Y-38352701D01*
X27438272Y-37969772D01*
X27438325Y-37927280D01*
X27438325Y-37927280D01*
G37*
X27438325Y-37927280D02*
X27449513Y-37369379D01*
X27483636Y-36877223D01*
X27545234Y-36416634D01*
X27638848Y-35953436D01*
X27765150Y-35467144D01*
X27865215Y-35142676D01*
X27985279Y-34801757D01*
X28118294Y-34460103D01*
X28257209Y-34133431D01*
X28394976Y-33837455D01*
X28524544Y-33587893D01*
X28638864Y-33400460D01*
X28730886Y-33290872D01*
X28746510Y-33279351D01*
X28777691Y-33279186D01*
X28833228Y-33308556D01*
X28918743Y-33372662D01*
X29039855Y-33476706D01*
X29202185Y-33625890D01*
X29411354Y-33825414D01*
X29672982Y-34080479D01*
X29992689Y-34396287D01*
X30376096Y-34778038D01*
X30502842Y-34904663D01*
X30842900Y-35246284D01*
X31159661Y-35567748D01*
X31446049Y-35861640D01*
X31694989Y-36120547D01*
X31899407Y-36337056D01*
X32052228Y-36503753D01*
X32146378Y-36613226D01*
X32175097Y-36656992D01*
X32152547Y-36744080D01*
X32099167Y-36885144D01*
X32054451Y-36987943D01*
X31935231Y-37302653D01*
X31831356Y-37679129D01*
X31751869Y-38077737D01*
X31705814Y-38458838D01*
X31701043Y-38536880D01*
X31691038Y-38737895D01*
X31682484Y-38898930D01*
X31676788Y-38993880D01*
X31675716Y-39006780D01*
X31625709Y-39015046D01*
X31484824Y-39022694D01*
X31263786Y-39029527D01*
X30973315Y-39035346D01*
X30624135Y-39039954D01*
X30226968Y-39043151D01*
X29792536Y-39044740D01*
X29615647Y-39044880D01*
X27560034Y-39044881D01*
X27498269Y-38930580D01*
X27471558Y-38829598D01*
X27452795Y-38638141D01*
X27441769Y-38352701D01*
X27438272Y-37969772D01*
X27438325Y-37927280D01*
D13*
X22166666Y-10492380D02*
X22166666Y-11206666D01*
X22119047Y-11349523D01*
X22023809Y-11444761D01*
X21880952Y-11492380D01*
X21785714Y-11492380D01*
X23166666Y-11492380D02*
X22595238Y-11492380D01*
X22880952Y-11492380D02*
X22880952Y-10492380D01*
X22785714Y-10635238D01*
X22690476Y-10730476D01*
X22595238Y-10778095D01*
M02*
