G04 #@! TF.GenerationSoftware,KiCad,Pcbnew,(5.0.0-rc2-dev-107-g49486b83b)*
G04 #@! TF.CreationDate,2018-03-22T00:14:22+08:00*
G04 #@! TF.ProjectId,ebox-i2c-eeprom,65626F782D6932632D656570726F6D2E,rev?*
G04 #@! TF.SameCoordinates,Original*
G04 #@! TF.FileFunction,Legend,Bot*
G04 #@! TF.FilePolarity,Positive*
%FSLAX46Y46*%
G04 Gerber Fmt 4.6, Leading zero omitted, Abs format (unit mm)*
G04 Created by KiCad (PCBNEW (5.0.0-rc2-dev-107-g49486b83b)) date 03/22/18 00:14:22*
%MOMM*%
%LPD*%
G01*
G04 APERTURE LIST*
%ADD10C,0.120000*%
%ADD11C,0.150000*%
G04 APERTURE END LIST*
D10*
X23830000Y-62900000D02*
X23830000Y-62960000D01*
X23830000Y-12040000D02*
X23830000Y-12100000D01*
X23830000Y-62960000D02*
X21170000Y-62960000D01*
X21170000Y-62900000D02*
X21170000Y-62960000D01*
X21170000Y-12040000D02*
X21170000Y-12100000D01*
X23830000Y-12040000D02*
X21170000Y-12040000D01*
X32082200Y-18931600D02*
X32082200Y-19371600D01*
X31062200Y-18931600D02*
X31062200Y-19371600D01*
D11*
X38658600Y-17871200D02*
X40058600Y-17871200D01*
X38658600Y-22971200D02*
X34508600Y-22971200D01*
X38658600Y-17821200D02*
X34508600Y-17821200D01*
X38658600Y-22971200D02*
X38658600Y-22826200D01*
X34508600Y-22971200D02*
X34508600Y-22826200D01*
X34508600Y-17821200D02*
X34508600Y-17966200D01*
X38658600Y-17821200D02*
X38658600Y-17871200D01*
X22833333Y-10687380D02*
X22833333Y-11401666D01*
X22880952Y-11544523D01*
X22976190Y-11639761D01*
X23119047Y-11687380D01*
X23214285Y-11687380D01*
X22404761Y-10782619D02*
X22357142Y-10735000D01*
X22261904Y-10687380D01*
X22023809Y-10687380D01*
X21928571Y-10735000D01*
X21880952Y-10782619D01*
X21833333Y-10877857D01*
X21833333Y-10973095D01*
X21880952Y-11115952D01*
X22452380Y-11687380D01*
X21833333Y-11687380D01*
X28868666Y-23058380D02*
X29202000Y-22582190D01*
X29440095Y-23058380D02*
X29440095Y-22058380D01*
X29059142Y-22058380D01*
X28963904Y-22106000D01*
X28916285Y-22153619D01*
X28868666Y-22248857D01*
X28868666Y-22391714D01*
X28916285Y-22486952D01*
X28963904Y-22534571D01*
X29059142Y-22582190D01*
X29440095Y-22582190D01*
X27916285Y-23058380D02*
X28487714Y-23058380D01*
X28202000Y-23058380D02*
X28202000Y-22058380D01*
X28297238Y-22201238D01*
X28392476Y-22296476D01*
X28487714Y-22344095D01*
X28868666Y-21788380D02*
X29202000Y-21312190D01*
X29440095Y-21788380D02*
X29440095Y-20788380D01*
X29059142Y-20788380D01*
X28963904Y-20836000D01*
X28916285Y-20883619D01*
X28868666Y-20978857D01*
X28868666Y-21121714D01*
X28916285Y-21216952D01*
X28963904Y-21264571D01*
X29059142Y-21312190D01*
X29440095Y-21312190D01*
X28487714Y-20883619D02*
X28440095Y-20836000D01*
X28344857Y-20788380D01*
X28106761Y-20788380D01*
X28011523Y-20836000D01*
X27963904Y-20883619D01*
X27916285Y-20978857D01*
X27916285Y-21074095D01*
X27963904Y-21216952D01*
X28535333Y-21788380D01*
X27916285Y-21788380D01*
X28868666Y-19508742D02*
X28916285Y-19556361D01*
X29059142Y-19603980D01*
X29154380Y-19603980D01*
X29297238Y-19556361D01*
X29392476Y-19461123D01*
X29440095Y-19365885D01*
X29487714Y-19175409D01*
X29487714Y-19032552D01*
X29440095Y-18842076D01*
X29392476Y-18746838D01*
X29297238Y-18651600D01*
X29154380Y-18603980D01*
X29059142Y-18603980D01*
X28916285Y-18651600D01*
X28868666Y-18699219D01*
X27916285Y-19603980D02*
X28487714Y-19603980D01*
X28202000Y-19603980D02*
X28202000Y-18603980D01*
X28297238Y-18746838D01*
X28392476Y-18842076D01*
X28487714Y-18889695D01*
X37345504Y-16348580D02*
X37345504Y-17158104D01*
X37297885Y-17253342D01*
X37250266Y-17300961D01*
X37155028Y-17348580D01*
X36964552Y-17348580D01*
X36869314Y-17300961D01*
X36821695Y-17253342D01*
X36774076Y-17158104D01*
X36774076Y-16348580D01*
X35774076Y-17348580D02*
X36345504Y-17348580D01*
X36059790Y-17348580D02*
X36059790Y-16348580D01*
X36155028Y-16491438D01*
X36250266Y-16586676D01*
X36345504Y-16634295D01*
M02*
