G04 #@! TF.GenerationSoftware,KiCad,Pcbnew,(5.0.0-rc2-dev-107-g49486b83b)*
G04 #@! TF.CreationDate,2018-03-19T22:36:36+08:00*
G04 #@! TF.ProjectId,ebox-i2c-eeprom,65626F782D6932632D656570726F6D2E,rev?*
G04 #@! TF.SameCoordinates,Original*
G04 #@! TF.FileFunction,Legend,Top*
G04 #@! TF.FilePolarity,Positive*
%FSLAX46Y46*%
G04 Gerber Fmt 4.6, Leading zero omitted, Abs format (unit mm)*
G04 Created by KiCad (PCBNEW (5.0.0-rc2-dev-107-g49486b83b)) date 03/19/18 22:36:36*
%MOMM*%
%LPD*%
G01*
G04 APERTURE LIST*
%ADD10C,0.300000*%
%ADD11C,0.120000*%
%ADD12C,0.150000*%
G04 APERTURE END LIST*
D10*
X15767857Y-48365714D02*
X15767857Y-47865714D01*
X16553571Y-47651428D02*
X16553571Y-48365714D01*
X15053571Y-48365714D01*
X15053571Y-47651428D01*
X15767857Y-46508571D02*
X15839285Y-46294285D01*
X15910714Y-46222857D01*
X16053571Y-46151428D01*
X16267857Y-46151428D01*
X16410714Y-46222857D01*
X16482142Y-46294285D01*
X16553571Y-46437142D01*
X16553571Y-47008571D01*
X15053571Y-47008571D01*
X15053571Y-46508571D01*
X15125000Y-46365714D01*
X15196428Y-46294285D01*
X15339285Y-46222857D01*
X15482142Y-46222857D01*
X15625000Y-46294285D01*
X15696428Y-46365714D01*
X15767857Y-46508571D01*
X15767857Y-47008571D01*
X15053571Y-45222857D02*
X15053571Y-44937142D01*
X15125000Y-44794285D01*
X15267857Y-44651428D01*
X15553571Y-44580000D01*
X16053571Y-44580000D01*
X16339285Y-44651428D01*
X16482142Y-44794285D01*
X16553571Y-44937142D01*
X16553571Y-45222857D01*
X16482142Y-45365714D01*
X16339285Y-45508571D01*
X16053571Y-45580000D01*
X15553571Y-45580000D01*
X15267857Y-45508571D01*
X15125000Y-45365714D01*
X15053571Y-45222857D01*
X15053571Y-44080000D02*
X16553571Y-43080000D01*
X15053571Y-43080000D02*
X16553571Y-44080000D01*
X15982142Y-41365714D02*
X15982142Y-40222857D01*
X16553571Y-38365714D02*
X15053571Y-38365714D01*
X15196428Y-37722857D02*
X15125000Y-37651428D01*
X15053571Y-37508571D01*
X15053571Y-37151428D01*
X15125000Y-37008571D01*
X15196428Y-36937142D01*
X15339285Y-36865714D01*
X15482142Y-36865714D01*
X15696428Y-36937142D01*
X16553571Y-37794285D01*
X16553571Y-36865714D01*
X16410714Y-35365714D02*
X16482142Y-35437142D01*
X16553571Y-35651428D01*
X16553571Y-35794285D01*
X16482142Y-36008571D01*
X16339285Y-36151428D01*
X16196428Y-36222857D01*
X15910714Y-36294285D01*
X15696428Y-36294285D01*
X15410714Y-36222857D01*
X15267857Y-36151428D01*
X15125000Y-36008571D01*
X15053571Y-35794285D01*
X15053571Y-35651428D01*
X15125000Y-35437142D01*
X15196428Y-35365714D01*
X15767857Y-33580000D02*
X15767857Y-33080000D01*
X16553571Y-32865714D02*
X16553571Y-33580000D01*
X15053571Y-33580000D01*
X15053571Y-32865714D01*
X15767857Y-32222857D02*
X15767857Y-31722857D01*
X16553571Y-31508571D02*
X16553571Y-32222857D01*
X15053571Y-32222857D01*
X15053571Y-31508571D01*
X16553571Y-30865714D02*
X15053571Y-30865714D01*
X15053571Y-30294285D01*
X15125000Y-30151428D01*
X15196428Y-30080000D01*
X15339285Y-30008571D01*
X15553571Y-30008571D01*
X15696428Y-30080000D01*
X15767857Y-30151428D01*
X15839285Y-30294285D01*
X15839285Y-30865714D01*
X16553571Y-28508571D02*
X15839285Y-29008571D01*
X16553571Y-29365714D02*
X15053571Y-29365714D01*
X15053571Y-28794285D01*
X15125000Y-28651428D01*
X15196428Y-28580000D01*
X15339285Y-28508571D01*
X15553571Y-28508571D01*
X15696428Y-28580000D01*
X15767857Y-28651428D01*
X15839285Y-28794285D01*
X15839285Y-29365714D01*
X15053571Y-27580000D02*
X15053571Y-27294285D01*
X15125000Y-27151428D01*
X15267857Y-27008571D01*
X15553571Y-26937142D01*
X16053571Y-26937142D01*
X16339285Y-27008571D01*
X16482142Y-27151428D01*
X16553571Y-27294285D01*
X16553571Y-27580000D01*
X16482142Y-27722857D01*
X16339285Y-27865714D01*
X16053571Y-27937142D01*
X15553571Y-27937142D01*
X15267857Y-27865714D01*
X15125000Y-27722857D01*
X15053571Y-27580000D01*
X16553571Y-26294285D02*
X15053571Y-26294285D01*
X16125000Y-25794285D01*
X15053571Y-25294285D01*
X16553571Y-25294285D01*
D11*
X20735000Y-12040000D02*
X24265000Y-12040000D01*
X20735000Y-62960000D02*
X24265000Y-62960000D01*
X20735000Y-12040000D02*
X20735000Y-12105000D01*
X24265000Y-12040000D02*
X24265000Y-12105000D01*
X20735000Y-62895000D02*
X20735000Y-62960000D01*
X24265000Y-62895000D02*
X24265000Y-62960000D01*
D12*
X22166666Y-10492380D02*
X22166666Y-11206666D01*
X22119047Y-11349523D01*
X22023809Y-11444761D01*
X21880952Y-11492380D01*
X21785714Y-11492380D01*
X23166666Y-11492380D02*
X22595238Y-11492380D01*
X22880952Y-11492380D02*
X22880952Y-10492380D01*
X22785714Y-10635238D01*
X22690476Y-10730476D01*
X22595238Y-10778095D01*
M02*
